<?xml version="1.0" encoding="UTF-8"?>
<svg id="Capa_1" xmlns="http://www.w3.org/2000/svg" version="1.1" viewBox="0 0 32 32">
  <!-- Generator: Adobe Illustrator 29.0.0, SVG Export Plug-In . SVG Version: 2.1.0 Build 186)  -->
  <defs>
    <style>
      .st0 {
        fill: #dd0b1e;
      }

      .st1 {
        fill: #fff;
      }
    </style>
  </defs>
  <path class="st0" d="M2.01,0h27.86c1.18,0,2.13.95,2.13,2.13v27.74c0,1.18-.95,2.13-2.13,2.13H2.13c-1.18,0-2.13-.95-2.13-2.13V2.01C0,.9.9,0,2.01,0Z"/>
  <path class="st1" d="M13.34,16.18c-.7,4.03-1.4,8.05-2.1,12.08.47-1.01,1.01-1.74,1.41-2.21.43-.51.76-.89,1.31-1.22.83-.49,1.62-.55,2.11-.58,1.81-.11,3.25.66,3.9,1.07-1.69-3.1-3.39-6.21-5.08-9.31-.16.08-.42.19-.75.23-.34.04-.62,0-.79-.05Z"/>
  <path class="st1" d="M17.91,25.3c-.27,1.07-.54,2.13-.82,3.2.52-1.06,1.01-2.04,1.47-2.94"/>
  <path class="st1" d="M19.79,23.15c.62-1.2,1.1-2.07,1.38-2.53.19-.32.55-.86,1.01-.86.28,0,.48.21.58.31,1.4,1.46,3.53,4.96,3.81,5.41.19.31.35.56.44.7-1.26-4.01-2.52-8.01-3.77-12.02-.22.11-.62.27-1.14.28-.64.01-1.11-.21-1.33-.33-.64,2.51-1.28,5.02-1.92,7.53"/>
  <path class="st1" d="M11.36,14.49c.14-.1.34-.26.52-.49.24-.32.24-.5.49-.97.2-.37.32-.58.55-.78.11-.09.52-.43,1.09-.39.68.05,1.06.6,1.11.69.23.35.25.7.25.86-.25.22-.47.41-.65.56-.56.48-.79.67-1.07.86-.12.09-.23.16-.3.2,0,.05.02.12.07.18.11.14.33.15.68.12.27-.03.65-.09,1.11-.23-.05.13-.19.41-.49.63-.45.32-.93.27-1.04.26-.48-.06-.77-.34-.86-.43-.4-.39-.47-.86-.49-1.01l-.97-.05Z"/>
  <path class="st1" d="M13.5,11.47c.16-.32.34-.54.47-.68.18-.19.31-.33.46-.3.15.02.24.21.33.39.08.18.19.48.18.91-.14-.09-.37-.23-.7-.3-.32-.07-.58-.05-.75-.03Z"/>
  <path class="st1" d="M21.54,9.67c-.31.28-.83.8-1.17,1.51,0,0-.2.41-.24,1.09,0,.11-.01.29.08.34.08.05.18,0,.22-.02.27-.11.63-.14,1.36-.21.22-.02.54-.02.94.08-.07.17-.18.42-.38.67-.14.18-.28.36-.51.49-.43.23-.9.11-1.07.05.09.11.24.26.45.38.57.31,1.31.23,1.84-.14.9-.63.77-1.79.75-1.87-.03-.23-.15-.85-.71-1.29-.68-.54-1.46-.4-1.58-.38.01-.23.02-.46.03-.69Z"/>
  <path class="st1" d="M12.44,16.25c-.77-.55-1.31-1.1-1.67-1.51-1.06-1.2-1.57-2.35-1.94-3.21-.12-.29-.41-.74-.55-1.4-.05-.24-.07-.44-.09-.58-.08-.71,0-1.03-.14-1.64-.04-.2-.12-.5-.28-.52-.11-.01-.21.11-.28.2-.19.24-.24.49-.26.59-.12.57-.18,1.02-.23,1.32-.07.4,0,.67-.15.73-.09.04-.2-.02-.25-.05-.63-.36-1.4-1.07-1.4-1.07s-.63-.58-1.19-.66c-.06,0-.1.02-.1.02s-.04.03-.05.09c-.04.26.44.7.44.7s.92.85,1.37,1.71c.06.11.12.25.06.32-.06.07-.21.04-.26.03,0,0-4.22-1-4.73-.63-.09.06-.1.14-.1.14,0,.05-.01.17.25.38.61.47,1.69.79,1.69.79s.53.16,1.94.75c.13.06.46.2.47.4,0,.08-.05.14-.06.16-.34.44-2.24.17-2.89.48-.05.02-.18.08-.18.16,0,.11.25.19.35.23.75.24,2.05.16,2.63.13.08,0,.26-.01.39.1.13.12.17.33.13.49-.03.12-.1.21-.33.39-.33.26-.46.29-.75.5-.26.19-.61.49-.57.57.02.04.12.01.18,0,.74-.18,1.19-.42,1.19-.42.52-.29.78-.43,1-.52.44-.18.79-.23,1.3-.29.83-.1,1.27-.16,1.84-.05.74.14,1.25.47,1.84.86.53.34.92.68,1.18.93.05-.04.14-.14.19-.29.05-.15.04-.28.03-.34Z"/>
  <path class="st1" d="M24.14,11.05c.19-.3.44-.72.7-1.24.28-.55.43-.85.56-1.29.16-.52.34-1.13.24-1.87-.08-.58-.1-1.17-.2-1.74,0-.06-.04-.24.05-.31.06-.05.15-.03.17-.03.02,0,.13.03.23.17.28.39.33,1.48.75,1.64.08.03.16.02.18.02.26-.05.39-.41.44-.52.31-.76,1.17-1.44,1.28-1.37.06.04-.01.33-.59,1.48-.17.38-.23.66-.25.82,0,.06-.01.13.03.16.09.07.34-.12.5-.24.04-.03.38-.21,1.06-.56.88-.46,1.92-.63,1.98-.5.01.03-.03.08-.3.3-.5.41-.77.6-1.07.84-.04.03,0,0-.85.77-.25.23-.42.38-.38.47.03.06.14.06.38.05.46-.02.86-.08,1.19-.11.48-.04.67-.02.72.08.01.03,0,.07,0,.08-.05.24-.77.19-1.62.52-.28.11-.73.28-.74.53,0,.11.08.19.16.27.19.19.37.18.87.38.17.07.32.13.31.16-.01.05-.35.02-.53,0-.51-.05-.78-.13-1.13-.18-.38-.06-.66-.11-1.01-.08-.71.05-1.23.36-1.41.47-.32.19-.51.39-.86.74-.36.36-.62.69-.8.92-.02-.27-.04-.54-.06-.81Z"/>
  <path class="st1" d="M16.02,16.13c.09-.57.21-1.05.32-1.43.19-.66.28-1,.51-1.34.07-.11.41-.6,1.04-.97.36-.21.72-.33.91-.39.54-.17.95-.2.95-.29,0-.07-.2-.12-.28-.13-.46-.11-.76.06-.82-.03-.02-.04-.02-.14.57-.75.45-.46.7-.65.66-.71-.04-.07-.43.07-.72.22-.32.16-.54.35-.64.27-.04-.03-.05-.08-.05-.11-.03-.32.2-.69.33-.89.3-.46.47-.65.56-1.02.06-.26.02-.3,0-.31-.11-.08-.49.28-.78.57-.33.32-.51.49-.72.77-.25.33-.38.57-.5.54-.02,0-.07-.03-.13-.23-.1-.36-.02-.59,0-1.03,0-.19,0-.53-.07-.55-.08-.02-.23.32-.31.61-.04.15-.08.36-.18.78-.03.12-.07.26-.16.29-.07.02-.14-.03-.2-.08-.33-.24-.52-.41-.65-.5-.2-.14-.49-.27-.54-.21-.04.05.07.19.16.31,0,0,.18.26.58,1.1.21.43.26.8.32,1.2.11.7.04,1.21-.07,2.03-.07.52-.19,1.21-.41,2.02.11.09.22.18.33.28Z"/>
  <path class="st1" d="M19.31,9.81c-.05-.07-.1-.14-.16-.22.1-.14.2-.27.31-.41l.19.48"/>
  <path class="st1" d="M20.02,10.49c.04.08.08.15.1.2l-.15.51c-.03-.12-.09-.29-.17-.5"/>
  <path class="st1" d="M19.05,4.61c.2-.79.54-1.41.37-1.53-.09-.07-.29.05-.38.1-.38.23-.38.56-.82,1.12-.19.24-.29.36-.4.35-.24-.02-.28-.5-.7-1.18-.2-.33-.57-.81-.69-.76-.11.05,0,.54.1.94.25,1.05.54,1.47.41,1.58-.13.1-.52-.23-1.26-.73-.59-.4-1.86-1.21-1.99-1.07-.1.12.54.84,1.13,1.52.68.77,1.11,1.15,1.02,1.28-.06.09-.29-.01-1-.16-.4-.08-1.22-.25-1.26-.14-.03.07.33.26.55.38.88.46,1.38.49,1.54.89.02.06.06.16.02.25-.08.16-.34.12-.74.19-.35.06-.76.2-.75.28,0,.04.14.08,1.01.11,1.05.04,1.18,0,1.51.04.05,0,.11.02.16.03.03-.05.11-.12.22-.14.12-.02.2.04.23.06.11.08.13.2.14.26.31.13.55.29.73.41l.9-.75c-.12-.51-.2-1.06-.2-1.59,0-.66,0-1.12.15-1.74Z"/>
</svg>