<?xml version="1.0" encoding="UTF-8"?>
<svg id="Capa_1" data-name="Capa 1" xmlns="http://www.w3.org/2000/svg" viewBox="0 0 407.05 222.75">
  <defs>
    <style>
      .cls-1 {
        fill: #2baaf0;
      }

      .cls-2 {
        fill: #dd9536;
      }

      .cls-3 {
        fill: #fdae38;
      }
    </style>
  </defs>
  <path class="cls-1" d="M223.14,55.92c-.43-.6-.72-.99-.98-1.39-3.02-4.72-6.47-9.03-11.75-11.36-5.2-2.3-10.61-2.67-16.08-1.09-3.27.94-6.31,2.37-8.7,4.94-2.6,2.8-2.76,5.8.09,8.41,2.72,2.48,5.73,4.68,8.8,6.7,2.61,1.72,5.51,2.99,8.27,4.49.72.39,1.39.89,2.08,1.34-.02.17-.05.35-.07.52-1.68.03-3.39.27-5.04.05-7.21-.96-13.88-3.39-19.3-8.36-3.74-3.42-5.69-7.76-4.05-12.94,1.26-4,3.94-6.99,7.5-9.16,7.77-4.76,16.12-5.28,24.65-2.81,4.54,1.32,8.55,3.81,11.65,7.52,3.15,3.77,4.1,8.06,2.92,13.15Z"/>
  <path class="cls-2" d="M91.24,126.91c-2.03-1.97-4.1-3.9-6.07-5.92-4.59-4.72-9.43-9.16-14.97-12.72-3.96-2.55-8.01-5.07-12.59-6.44-7.13-2.14-14.73.72-17.58,7.69-1.32,3.23-1.21,6.73-.4,10.13,1.24,5.25,3.61,9.96,7.26,13.94,1.84,2.01,3.96,3.75,6.25,5.89-1.26-.31-2.36-.42-3.31-.85-3.28-1.47-5.83-3.87-8.12-6.58-4.44-5.25-6.93-11.24-6.67-18.17.24-6.09,2.12-11.53,7.17-15.39,3.36-2.57,7.12-3.83,11.45-3.2,6.24.92,11.51,3.8,16.37,7.63,6.57,5.17,11.95,11.46,17.03,18.04,1.47,1.91,2.93,3.84,4.4,5.76-.07.07-.15.14-.22.2Z"/>
  <path class="cls-2" d="M84.03,148.82c.75.27,1.51.51,2.25.81,4.37,1.76,8.87,2.97,13.55,3.57,3.95.51,7.88,1.25,11.84,1.69,4.84.54,9.7,1.1,14.57,1.24,7.26.21,14.55.28,21.8,0,5.18-.2,10.36-.96,15.49-1.75,1.61-.25,3.24-1.21,4.58-2.23,1.38-1.04,1.14-2.32-.22-3.41-2.76-2.22-5.99-3.6-9.31-4.51-6.1-1.68-12.29-2.99-18.45-4.43-1.31-.31-2.66-.5-3.98-.75.01-.15.03-.3.04-.45,2.04.18,4.1.25,6.11.57,5.22.84,10.47,1.59,15.62,2.75,4.61,1.04,9.23,2.28,12.89,5.59,1.95,1.76,2.07,3.96.27,5.92-1.8,1.95-4.22,2.81-6.67,3.42-2.36.59-4.79,1.03-7.21,1.19-5,.34-10.02.68-15.03.6-10.27-.16-20.52-.72-30.72-2.08-7.3-.97-14.61-1.88-21.69-3.98-1.65-.49-3.21-1.29-4.77-2.04-.49-.24-.85-.76-1.26-1.16.1-.19.2-.38.3-.56Z"/>
  <path class="cls-3" d="M.87,129.84c1.16-.15,2.34-.15,3.51-.21,5.29-.1,10.18,1.42,14.95,3.53,6.69,2.96,12.97,6.68,19.16,10.55,5.27,3.3,10.6,6.51,15.91,9.76,3.48,2.13,7.4,3.01,11.35,3.51,8.51,1.08,17.02,2.13,25.57,2.84,11.12.93,22.26,1.54,33.4,2.23,4.4.27,8.81.36,13.21.57,7.82.37,15.64.82,23.47,1.15,10.87.45,21.74.8,32.61,1.23,8.25.33,16.49.73,24.73,1.09,9.14.39,18.27.74,27.41,1.17,6.65.31,13.29.71,19.94,1.07,7.26.39,14.52.73,21.77,1.16,7.02.41,14.03.88,21.05,1.36,8.14.56,16.28,1.1,24.41,1.78,8.73.73,17.47,1.42,26.16,2.46,9.35,1.12,18.68,2.47,27.97,4.02,4.37.73,8.68,2.01,12.9,3.4,2.17.71,4.11,2.14,6.09,3.35.36.22.42.94.61,1.43-.5.12-1.03.4-1.5.32-10.04-1.67-20.05-3.53-30.11-5.02-7.88-1.17-15.83-1.91-23.75-2.77-6.76-.74-13.52-1.43-20.28-2.04-4.67-.42-9.35-.7-14.03-1-7.06-.46-14.13-.93-21.2-1.33-3.93-.22-7.88-.26-11.81-.42-8.43-.33-16.87-.72-25.3-1.01-5.77-.2-11.54-.3-17.31-.39-9.01-.14-18.02-.23-27.03-.33-8.87-.09-17.74-.17-26.61-.24-11.36-.09-22.71-.13-34.07-.28-10.69-.14-21.39-.3-32.08-.63-10.5-.32-21-.76-31.49-1.35-12.13-.69-24.25-1.63-36.23-3.66-6.41-1.09-12.75-2.63-19.06-4.23-4.59-1.16-9.09-2.93-12.94-5.67-3.44-2.44-6.61-5.43-9.35-8.65-4.54-5.34-8.66-11.04-12.91-16.63"/>
  <path class="cls-2" d="M105.38,133.7c-1.09-1.05-2.32-1.98-3.24-3.16-3.27-4.15-5.55-8.76-6.05-14.13-.53-5.79,2.47-8.5,7.41-9.79,5.96-1.56,12.03-1.06,18.03-.17,12.32,1.82,24.07,5.7,35.66,10.12,8.95,3.41,17.65,7.34,26.12,11.82,6.01,3.17,11.97,6.48,18.18,9.21,8.27,3.65,17.03,5.75,25.99,7.06,9.35,1.36,18.74,2.27,28.18,1.89,5.43-.22,10.82-1.07,16.25-1.44,5.7-.39,11.42-.77,17.13-.76,5.74,0,11.19,1.72,16.53,3.73,7.61,2.86,14.91,6.4,21.87,10.57,5.65,3.4,11.11,7.12,16.65,10.71.23.15.43.34.52.74-1.71-.94-3.4-1.92-5.15-2.8-5.72-2.9-11.42-5.83-17.19-8.62-3.83-1.85-7.75-3.53-11.67-5.2-9.78-4.17-19.89-6.75-30.63-5.94-6.03.45-12.03,1.31-18.07,1.6-6.41.31-12.86.5-19.25.13-7.05-.41-14.09-1.34-21.09-2.38-7.54-1.12-14.9-3.14-21.83-6.29-6.51-2.96-12.73-6.56-19.13-9.76-4.9-2.45-9.81-4.93-14.87-7.01-7.45-3.06-14.96-6.03-22.59-8.59-8.57-2.88-17.3-5.39-26.32-6.42-3.31-.38-6.76-.2-10.06.3-3.73.57-6.11,3.87-6.2,7.64-.1,4.04,1.19,7.76,2.79,11.37.62,1.4,1.47,2.71,2.17,4.08.18.35.22.77.32,1.16l-.46.35Z"/>
  <path class="cls-1" d="M225.48,65.43c2.86-.58,4.8.69,6.65,1.74,6.27,3.55,10.99,8.81,15.33,14.45,5.58,7.24,11.12,14.51,18.38,20.24,4.7,3.71,10,6.23,15.62,8.15,1.86.64,3.75,1.21,5.6,1.88.57.2,1.05.62,1.58.94-.03.17-.05.33-.08.5-1.25.29-2.48.66-3.74.84-6.63.95-12.82-.54-18.79-3.37-8.44-3.98-14.68-10.44-20.12-17.78-3.43-4.63-6.55-9.48-9.96-14.12-2.71-3.7-5.65-7.23-8.48-10.84-.62-.79-1.21-1.59-1.99-2.62Z"/>
  <path class="cls-1" d="M171.08,120.12c19.36-11.53,34.99-26.57,44.83-47.58.28.93.59,1.66.7,2.42.32,2.33-.21,4.56-.97,6.75-1.81,5.23-4.89,9.74-8.47,13.83-3.45,3.93-7.13,7.72-11.08,11.14-5.96,5.17-12.47,9.63-19.95,12.42-1.58.59-3.25.96-4.87,1.43-.06-.14-.12-.27-.18-.41Z"/>
  <g>
    <path d="M171.42,8.84c-.76.15-1.6.15-2.26.49-1.38.69-2.32.03-3.15-.86-.61-.66-.72-1.32.26-2.03,4.11-2.99,9.93-.98,9.97,4.39.02,2.18-.08,4.38-.41,6.52-.08.5-1.29.99-2.06,1.16-.94.22-1.99-.05-2.93.17-2.71.64-4.34-.84-5.82-2.72-.19-.24-.37-.47-.59-.75-1.38,3.09-2.52,3.83-5.95,3.33-1.67-.24-1.83.47-1.87,1.77-.06,2.12-.86,3.09-2.21,2.59-.73-.28-1.7-1.23-1.72-1.91-.17-4.5-.1-9-.14-13.5-.02-1.58.75-2.05,2.23-2.03,1.31.02,2.64-.16,3.94-.35,2.34-.35,4.97,1.57,5.78,4.74.5,1.97,1.01,1.84,2.51.92,1.31-.8,2.96-1.04,4.46-1.53-.01-.13-.02-.26-.04-.39ZM156.62,13.07c.39.33.96,1.23,1.62,1.31,1.52.16,2.3-.89,2.4-2.36.1-1.42-.32-2.77-1.96-2.67-1.79.11-1.75,1.79-2.06,3.72ZM171.57,13.73c-.61-.22-.98-.46-1.09-.38-.43.33-.78.77-1.15,1.17.15.13.38.4.44.36.52-.29,1.01-.63,1.8-1.15Z"/>
    <path d="M270.59,13.96c.89-3.55,4.13-4.17,7.46-4.65-.06-.15-.12-.31-.18-.46-.68.09-1.37.16-2.05.27-.59.1-1.25.48-1.73.31-.83-.29-1.63-.83-2.25-1.46-.12-.12.54-1.32,1.07-1.69,4.24-2.94,9.24-.56,9.59,4.55.12,1.79.14,3.58.14,5.37,0,1.92-.95,2.66-2.89,2.34-.57-.09-1.22-.2-1.75-.04-2.84.86-5.04.08-6.68-2.37-.15-.22-.36-.4-.55-.62-2.35,4.19-7.9,4.54-10.28.65-.31-.51-.51-1.56-.24-1.84.45-.46,1.36-.71,2.03-.64.78.08,1.5.66,2.28.92.37.12.83,0,1.25-.02-.26-.3-.47-.71-.8-.89-1.16-.65-2.44-1.11-3.52-1.86-2.43-1.67-2.15-4.79.47-6.14,2.5-1.29,5.8-.79,7.54,1.38.45.56.22,1.66.31,2.51-.68.04-1.38.2-2.04.09-.75-.12-1.46-.52-2.21-.73-.2-.06-.47.12-.71.19.18.17.34.39.55.49.96.44,2.11.65,2.86,1.31.96.85,1.62,2.05,2.34,3.01ZM276,15.03c.53-.48.95-.85,1.37-1.23-.16-.16-.42-.47-.47-.44-.47.28-.92.61-1.34.96-.02.02.22.36.45.71Z"/>
    <path d="M232.56,11.64c.07,1.45.16,2.89.19,4.34.03,1.3-.36,2.5-1.86,2.55-1.53.05-2.16-1.02-2.16-2.45-.01-3.82-.09-7.64.06-11.45.04-.98.57-2.47,1.29-2.78,1.43-.63,3.13-.12,3.85,1.41,1.08,2.27,1.85,4.68,2.77,7.03.14.36.36.68.54,1.03.2-.33.45-.63.6-.98,1.01-2.42,2-4.84,2.99-7.26.66-1.6,2.05-1.69,3.36-1.34,1.2.32,2.28.95,2.25,2.62-.07,4,.02,8,.03,12,0,1.01.11,2.15-1.37,2.25-1.45.1-2.64-.43-2.87-1.96-.25-1.66-.24-3.37-.64-5.11-.45,1.57-.76,3.2-1.39,4.7-.38.9-1.13,2.01-1.96,2.28-1.39.46-2.35-.56-2.91-1.89-.73-1.72-1.55-3.39-2.33-5.08-.15.04-.29.08-.44.12Z"/>
    <path d="M98.15,18.87c-4.69-.1-8.79-4.25-8.38-8.69.22-2.34.13-4.56,1.92-6.33,2.04-2.02,4.32-3.17,7.3-2.31,3.25.93,5.64,2.77,6.33,6.18.34,1.67.4,3.5.12,5.17-.63,3.76-3.47,5.95-7.29,5.98ZM101.25,9.99c.08-2.45-.73-3.92-2.38-4.3-1.84-.42-3.73.65-4.52,2.57-1.28,3.11.15,6.01,3.07,6.23,2.33.18,3.72-1.46,3.82-4.5Z"/>
    <path d="M214.69,212.21c0,1.93.16,3.87-.04,5.77-.33,3.2-2.68,5.18-5.9,4.7-1.61-.24-3.13-1.29-4.58-2.15-.4-.24-.73-1.48-.56-1.62.55-.45,1.33-.81,2.03-.82.84,0,1.69.54,2.53.54.62,0,1.25-.47,1.87-.73-.53-.2-1.05-.53-1.59-.57-3.22-.25-5.37-2.2-5.95-5.5-.57-3.22.64-5.74,3.53-6.92.77-.31,1.75-.17,2.63-.12,1.5.08,2.99.34,4.48.33,1.11,0,1.53.49,1.55,1.45.04,1.88.01,3.76.01,5.64,0,0-.01,0-.02,0ZM210.96,210.6c-.62-.58-1.2-1.6-1.88-1.66-1.59-.15-2.13,1.09-2.22,2.51-.09,1.32.76,1.57,1.84,1.63,1.53.09,1.84-.85,2.26-2.48Z"/>
    <path d="M138.74,11.35c.08,1.45-.39,2.26-2,1.96-.27-.05-.58.13-.88.21.2.19.36.45.59.56,1.45.72,1.61,2.49.3,3.58-3.1,2.56-9.3.66-10.19-3.31-.63-2.81-1.07-5.78,1.76-7.95,2.02-1.55,4.18-1.88,6.44-.75,2.33,1.17,3.7,3.08,3.97,5.7ZM132.48,13.12c-.51.23-1,.46-1.48.68.49.23,1,.68,1.47.63.54-.05,1.04-.53,1.56-.83-.48-.15-.96-.3-1.54-.48ZM132.61,9.83c.41-.18.79-.36,1.17-.53-.31-.17-.63-.51-.91-.48-.42.04-.81.35-1.22.54.29.14.59.29.96.47Z"/>
    <path d="M288.38,11.29c.25-2.84,2.71-5.64,5.64-6.24,2.51-.52,5.38,1.07,6.47,3.61.34.8.65,1.63.83,2.48.27,1.22-.09,2.09-1.55,2.16-.34.02-.66.21-.99.33.24.24.45.53.72.73,1.3.96,1.04,2.87-.53,3.71-3.32,1.78-7.58.42-9.27-3.05-.57-1.17-.89-2.47-1.32-3.71ZM295.63,13.17c-.57.25-1.15.5-1.73.75.41.16.85.48,1.24.43.7-.1,1.38-.43,2.06-.66-.48-.16-.96-.32-1.57-.51ZM295.17,9.91c.57-.28,1.01-.5,1.46-.73-.27-.11-.56-.36-.79-.32-.45.08-.87.33-1.31.5.19.16.39.33.64.54Z"/>
    <path d="M254.19,8.83c-.97.2-1.92.46-2.9.59-.5.07-1.12.06-1.52-.19-2.1-1.29-2.04-2.22.14-3.34,4.66-2.4,8.98.16,9.11,5.39.05,1.88.18,3.76.11,5.63-.02.53-.57,1.46-.95,1.49-2.28.2-4.61.44-6.87.2-2.06-.21-3.55-2.16-3.59-3.91-.05-2.41,1.02-3.92,3.36-4.61,1.06-.31,2.15-.52,3.23-.77-.04-.16-.09-.33-.13-.49ZM252.44,15.17c.7-.61,1.13-.98,1.55-1.35-.16-.17-.44-.5-.46-.49-.48.35-.95.72-1.37,1.13-.06.06.14.37.28.71Z"/>
    <path d="M198.17,8.83c-.87.15-1.73.42-2.6.43-.88.01-1.92,0-2.57-.45-.42-.3-.64-1.77-.32-2.1,2.48-2.57,7.39-2.08,9.31.93.54.84.57,2.04.71,3.1.22,1.6.45,3.21.46,4.82.01,2.6-.81,3.17-3.36,2.78-.65-.1-1.36.08-2.03.21-3.64.72-6.47-1.36-6.33-4.69.07-1.66,1.91-3.54,3.89-3.94.97-.2,1.95-.36,2.93-.54-.03-.18-.06-.36-.09-.54ZM197.4,12.71c-.72.84-1.06,1.21-1.36,1.63-.02.03.41.48.44.46.45-.33.9-.67,1.26-1.08.08-.1-.15-.48-.34-1Z"/>
    <path d="M166.76,208.77c-.74,0-1.47,0-2.21,0-.87,0-1.81.21-2.58-.06-.62-.22-1.12-.97-1.48-1.6-.09-.16.5-.85.9-1.13,2.22-1.54,4.5-2.14,7.02-.57,2.2,1.37,3,3.33,2.92,5.81-.05,1.51.16,3.06-.1,4.53-.13.72-.97,1.67-1.67,1.86-1.57.41-3.24.49-4.88.57-2.29.1-4.19-1.2-5.01-3.36-.16-.43-.2-1.04-.02-1.44.93-2.11,2.3-4.48,5.62-4.02.48.07,1-.1,1.5-.16l-.02-.44ZM166.77,213.39c-.68-.23-.99-.45-1.18-.37-.46.19-.87.52-1.29.79.18.15.42.46.54.42.53-.16,1.03-.43,1.94-.84Z"/>
    <path d="M253.14,212.82c0,.32,0,.64,0,.96,0,3.71-.13,3.88-3.8,3.91-1.73.02-3.58.29-5.17-.21-2.05-.65-2.8-2.65-2.35-4.86.41-1.99,1.91-2.78,3.73-3.09.77-.13,1.56-.12,2.33-.24.2-.03.37-.3.56-.46-.23-.09-.46-.28-.68-.26-1,.1-2.04.5-2.99.34-.89-.15-1.69-.86-2.52-1.33.52-.66.92-1.5,1.58-1.96,4.54-3.15,9.6.79,9.29,5.26-.04.64,0,1.29,0,1.93h.02ZM246.66,214.42c.62-.36,1.11-.64,1.59-.92-.21-.18-.47-.54-.61-.5-.53.16-1.02.45-1.53.69.16.21.31.43.54.74Z"/>
    <path d="M201.61,213.11c0,.68,0,1.19,0,1.69,0,2.46-.65,3.07-3.13,3.06-.81,0-1.64.15-2.44.3-2.1.39-4.01-.18-5.06-1.95-.58-.96-.61-2.6-.22-3.7.63-1.83,1.79-3.43,4.23-3.14.57.07,1.2-.29,1.8-.45-.61-.04-1.21-.11-1.82-.12-.41,0-.82.08-1.23.1-1.23.04-2.56-.19-2.64-1.56-.03-.64,1.03-1.61,1.81-1.98,4.31-2.07,7.95.02,8.48,4.77.12,1.05.17,2.11.23,2.99ZM197.02,213.42c-.65-.24-.97-.47-1.13-.39-.41.21-.74.56-1.1.86.17.15.41.46.51.42.47-.18.91-.45,1.72-.89Z"/>
    <path d="M212.17,23.16c-.34-.32-1.41-.9-1.8-1.78-.53-1.2.39-1.76,1.58-2.17,1.49-.51,1.69-1.82,1.15-3.2-1.05-2.65-2.19-5.26-3.17-7.93-.27-.74-.48-1.95-.09-2.4.71-.81,3.05-.13,3.6.98.61,1.22.96,2.56,1.43,3.85.09.24.23.45.35.68.21-.15.5-.26.6-.47.54-1.11,1.06-2.24,1.53-3.38.67-1.65,1.88-2.43,3.3-1.78,1.39.64,1.49,1.79.89,3.19-1.63,3.85-3.1,7.76-4.72,11.61-.7,1.67-1.89,2.82-4.65,2.79Z"/>
    <path d="M151.49,12.35c.08,3.69-2.41,6.49-5.79,6.52-3.05.02-6.72-2.89-6.66-7.32.05-3.64,2.46-6.48,5.8-6.52,3.63-.05,6.55,3.17,6.65,7.32ZM143.29,13.13c.44.32,1.11,1.2,1.82,1.24,1.7.09,2.14-1.32,2.23-2.7.08-1.27-.53-2.46-1.88-2.37-1.82.12-1.91,1.77-2.17,3.84Z"/>
    <path d="M228.97,211.11c0-1.56-.11-3.13.06-4.67.06-.51.81-1.24,1.34-1.35,1.7-.33,3.46-.38,5.18-.58,1.61-.19,4.05,1.1,4.37,2.91.52,2.94.63,5.97.67,8.97,0,.47-1.32,1.38-1.95,1.32-.68-.07-1.71-.97-1.82-1.63-.28-1.75-.05-3.57-.23-5.35-.06-.61-.74-1.16-1.14-1.74-.62.56-1.64,1.02-1.79,1.68-.34,1.45-.2,3-.32,4.51-.1,1.19.13,2.69-1.75,2.69-1.99,0-2.69-.78-2.69-2.77,0-1.33,0-2.66,0-3.99.02,0,.05,0,.07,0Z"/>
    <path d="M227.65,211.9c0,1.42.02,2.85,0,4.27-.02,1.27-.75,1.75-1.97,1.76-1.22.02-2.45.1-3.67.26-2.48.34-4.97-1.24-5.36-3.85-.4-2.62-.45-5.3-.48-7.95,0-.44.81-1.23,1.31-1.28.91-.08,2.34-.62,2.54,1,.24,1.99.19,4.02.45,6.01.09.68.66,1.74,1.16,1.83,1.14.2,1.86-.61,1.88-1.83.03-1.75-.09-3.5.1-5.23.07-.66.72-1.6,1.3-1.78,1.13-.36,2.4-.15,2.58,1.42.19,1.78.24,3.57.34,5.35-.06,0-.12,0-.18,0Z"/>
    <path d="M307.39,18.9c-1.74-.12-3.66-.82-5.01-2.55-.37-.48-.63-1.66-.37-1.9.53-.48,1.47-.79,2.19-.71.87.1,1.67.73,2.53,1.02.26.09.64-.15.96-.23-.2-.25-.34-.61-.6-.74-1.1-.56-2.26-1-3.34-1.59-1.52-.84-2.24-2.23-1.99-3.92.25-1.67,1.53-2.56,3.07-3,2.3-.65,4.45-.19,6.11,1.47.56.56.47,1.77.67,2.68-.75.05-1.51.2-2.25.13-.87-.07-1.72-.33-2.58-.51.73.45,1.45.9,2.18,1.34.55.33,1.12.62,1.64.99,1.65,1.17,2.51,2.69,1.86,4.74-.53,1.67-2.53,2.82-5.06,2.77Z"/>
    <path d="M112.36,18.88c-2.12-.15-4.13-.85-5.51-2.72-.32-.44-.57-1.39-.34-1.67.4-.47,1.24-.86,1.85-.8.88.09,1.7.66,2.58.91.35.1.79-.11,1.19-.18-.26-.26-.49-.57-.8-.76-1.21-.72-2.57-1.26-3.66-2.13-2.19-1.77-1.91-4.26.5-5.7,2.42-1.45,6.59-.66,8.25,1.66.28.39.39,1.37.15,1.57-.53.44-1.34.77-2.01.75-.74-.03-1.44-.55-2.19-.77-.3-.09-.67.05-1.01.09.27.24.51.55.82.7.82.41,1.71.68,2.5,1.14,1.79,1.04,2.83,3.37,2.34,5.02-.54,1.79-2.27,2.9-4.66,2.9Z"/>
    <path d="M178.53,209.25c0-1.93,0-3.86,0-5.79,0-1.15-.19-2.38,1.66-2.29,2.06.1,2.61.52,2.62,2.48.01,2.62.09,5.24-.04,7.85-.1,1.95.56,2.84,2.57,2.63.68-.07,1.39.11,2.06.02,1.88-.26,2.32,1,2.1,2.31-.08.51-1.35,1.1-2.13,1.18-2.14.21-4.3.21-6.46.23-1.67.01-2.51-.78-2.43-2.56.09-2.02.02-4.04.02-6.06h.01Z"/>
    <path d="M148.24,209.24c0-2.02,0-4.04,0-6.06,0-1.02-.01-1.96,1.42-2.01,1.46-.05,2.67.29,2.77,1.94.13,2.15.07,4.31.05,6.47-.06,5.43-.13,4.3,4.32,4.65.81.06,1.82.61,2.28,1.25.72,1,.35,2.03-1.05,2.12-2.55.17-5.11.27-7.66.27-1.41,0-2.15-.83-2.13-2.31.04-2.11,0-4.22,0-6.33Z"/>
    <path d="M184.03,18.63c-3.25,0-4.91-1.4-5.52-4.05-.53-2.35-1.08-4.69-1.6-7.04-.45-2.02,2.54-5.11,4.6-4.78.14.02.34.01.39.09,1.02,1.52,2.09,3.02,2.97,4.61.14.25-.42,1.12-.85,1.43-1.63,1.16-1.48,4.4.05,5.65.78.64,1.2,1.96,1.34,3.03.05.37-1.21.92-1.4,1.05Z"/>
    <path d="M119,12.6c-.52-1.47-1.09-2.92-1.56-4.41-.33-1.04-1.05-2.2.58-2.89.22-.09.4-.38.53-.61,1.23-2.14,2.54-2.38,4.18-.74.51.51,1.03,1.02,1.56,1.52,1.56,1.46,1.27,2.59-.22,4.07-.76.75-.79,2.35-.9,3.59-.03.38.89.77,1.21,1.26.58.91,1.26,1.87,1.41,2.88.05.35-1.34,1.26-2.11,1.31-3.35.2-5.02-1.82-4.67-5.98Z"/>
    <path d="M288.23,10.22c0,2.8.11,5.6-.04,8.39-.08,1.6-.3,3.29-1.97,4.25-1.87,1.08-3.92.41-4.19-1.51-.09-.61.34-1.32.62-1.95.38-.83,1.18-1.61,1.22-2.44.16-3.25.1-6.52.12-9.78,0-1.12.28-1.98,1.7-1.94,1.35.03,2.22.46,2.21,1.96-.01,1.01,0,2.02,0,3.03.11,0,.22,0,.33,0Z"/>
    <path d="M187.92,4.74c-2.06-.44-1.11-1.59-.45-2.61,1.1-1.7,3.53-2.74,4.29-1.74.41.53.29,2.1-.19,2.56-1.53,1.46-1.23,3.06-1.11,4.85.19,2.88,0,5.78.1,8.67.05,1.41-.76,2.15-1.84,1.97-.89-.15-2.32-1.09-2.36-1.74-.21-3.47-.12-6.96.03-10.44.02-.48.91-.93,1.52-1.51Z"/>
    <path d="M284.93.25c1.94,0,3.46,1.37,3.38,2.57-.07.99-.31,1.92-1.67,1.87-1.64-.06-3.17-1.28-2.9-2.64.15-.76.91-1.4,1.19-1.8Z"/>
  </g>
</svg>