<?xml version="1.0" encoding="UTF-8"?>
<svg id="Capa_1" xmlns="http://www.w3.org/2000/svg" version="1.1" viewBox="0 0 841.89 595.28">
  <!-- Generator: Adobe Illustrator 29.0.0, SVG Export Plug-In . SVG Version: 2.1.0 Build 186)  -->
  <defs>
    <style>
      .st0 {
        fill: #010101;
        font-family: Dubai-Bold, Dubai;
        font-size: 61.4px;
        font-weight: 700;
        letter-spacing: .3em;
      }
    </style>
  </defs>
  <g>
    <path d="M304.47,71.95c-13.53.12-27.95-12.39-31-23.63-1.14-4.2-2.54-8.35-3.41-12.61-.37-1.79-1.1-4.54,1.41-5.36,2.62-.85,3.21,1.93,4.17,3.59,1.83,3.15,4.29,5.47,7.79,6.62.69.23,1.43.43,2.01.84,5.75,4.13,12.51,4.74,19.16,4.87,25.6.52,51.21.73,76.82,1.04,17.61.21,35.22.45,52.83.6,17.9.15,35.79.29,53.69.3,20.22.02,40.44,0,60.65-.24,6.83-.08,13.6-.87,19.93-4.03,3.99-2,7.58-4.27,10.09-8.04.4-.6.85-1.21,1.41-1.65.76-.61,1.65-1.07,2.48-1.6.53.96,1.53,1.94,1.51,2.89-.15,6.59-.8,13.31-4.06,19.02-3.91,6.84-9.13,12.73-16.83,15.86-4.23,1.71-8.42,2.97-13.07,2.93-14.98-.16-29.96-.09-44.93-.14-19.35-.07-38.7-.18-58.05-.25-4.78-.02-5.79.8-5.78,5.5.05,17.16.32,34.32.36,51.48.03,12.37-.22,24.74-.25,37.11-.03,12.95.04,25.9.1,38.84.04,9.06,2.95,17.11,8.61,24.18.63.79,1.29,1.59,1.79,2.46.94,1.67.27,2.87-1.42,3.36-1.09.32-2.3.33-3.45.34-13.82.09-27.64.16-41.46.23-1.02,0-2.05,0-3.05-.12-3.33-.44-4.21-2.31-2.47-5.14.15-.25.32-.5.52-.7,6.99-7.18,8.87-16.4,9.05-25.73.41-20.65.02-41.31.05-61.97.02-13.53.19-27.07.33-40.6.08-7.85.27-15.7.38-23.55.07-4.8-.84-5.65-5.95-5.75"/>
    <path d="M282.4,112.78c.1-10.53-1.61-20.58-9.12-28.81-.85-.93-1.59-3.09-1.1-3.84.7-1.06,2.58-1.84,3.96-1.85,7.27-.07,14.54.15,21.82.26,13.53.2,27.05.46,40.58.56,10.2.08,19.94,2,28.95,6.89,6.92,3.75,12,9.46,14.47,16.8,2.42,7.17,2.84,14.7,1.91,22.38-1.38,11.42-7.92,19-17.02,25.01-.68.45-1.8,1.43-1.68,1.67.46.95,1.17,1.97,2.07,2.5,3.37,1.97,7.26,3.26,10.21,5.7,11.57,9.55,17.24,21.67,14.55,36.92-1.32,7.51-3.55,14.72-8.47,20.78-3.98,4.9-8.74,8.86-14.46,11.59-1.83.88-3.92,1.31-5.59,2.4-5.39,3.5-11.48,4.02-17.57,4.22-8.72.29-17.45.24-26.17.29-12.94.07-25.88.07-38.81.18-2.17.02-4.33.53-6.5.57-3.92.06-5.24-2.31-3.26-5.68.44-.75.91-1.53,1.52-2.12,7.01-6.82,8.6-15.61,8.86-24.79M315.76,193.8h-.17c-.09,4.36-.26,8.72-.24,13.08.01,3.26.99,4.73,3.78,4.83,8.98.33,18,1.02,26.72-2.24,3.32-1.24,5.6-3.36,7.59-6.18,5.08-7.2,5.57-15.1,3.76-23.32-1.51-6.84-6.18-10.98-12.54-13.28-7.88-2.85-16.06-1.98-24.14-1.32-4.67.38-5.14,1.11-5.12,5.79.03,7.55.23,15.1.35,22.65ZM315.65,123.24s-.1,0-.15,0c-.09,4.36-.27,8.72-.24,13.07.03,3.47,1.24,4.91,4.53,5.23,5.96.58,11.9.46,17.73-1.18,5.79-1.63,10.43-4.81,12.08-10.82,1.47-5.34,1.77-10.86-.1-16.29-1.19-3.45-3.34-5.83-6.57-7.72-7.66-4.46-15.99-3.56-24.2-3.51-2.48.01-3.58,2.11-3.49,4.67.18,5.51.28,11.02.41,16.54Z"/>
    <path d="M543.55,80.12c9.05-.39,18.65,1.1,28.13,3.55,3.96,1.02,5.28,2.76,5.75,6.66,1.03,8.64,2.12,17.28,3.19,25.91.11.87.54,1.82.3,2.57-.45,1.4-1.08,2.88-2.08,3.87-.3.3-2.08-.88-3.18-1.4-.12-.06-.23-.18-.31-.3-6.18-8.49-15.26-12.32-24.87-15-7.65-2.14-15.46-2.4-23.24-.14-5.57,1.62-11.29,2.78-16.07,6.44-7.08,5.42-12.74,11.83-15.38,20.57-2.32,7.66-4.52,15.24-4.67,23.42-.18,9.35,1.74,18.39,4.56,26.98,2.15,6.54,6.42,12.66,11.78,17.47,10.15,9.08,22.36,11.02,35.4,9.68,3.04-.31,6.09-.62,9.07-1.26,9.05-1.95,16.64-6.53,23.07-13.15,1.61-1.66,3.35-3.22,5.14-4.7,2.01-1.66,3.74-1.03,3.85,1.54.12,2.89-.12,5.82-.39,8.71-.58,6.08-1.38,12.13-1.93,18.21-.69,7.6-2.2,9.38-9.79,11.07-6.66,1.48-13.25,3.49-19.99,4.36-12.42,1.61-25.05,2.49-37.29-.6-18.27-4.61-33.93-13.89-44.37-30.05-5-7.73-8.8-16.04-10.68-25.5-1.85-9.27-2.61-18.36-2.25-27.67.08-2.16.47-4.33.93-6.44,1.01-4.69,1.92-9.42,3.32-13.99,1.18-3.84,2.87-7.55,4.57-11.21,3.47-7.46,8.28-14.02,14.17-19.72,7.74-7.49,16.95-12.33,27.24-15.69,11.57-3.78,23.27-4.74,36.04-4.17Z"/>
    <path d="M341.61,359.48c-.69-11.99,3.13-23.06,11.1-32.56,4.1-4.88,8.94-8.9,15.16-11.26,9.74-3.7,19.64-5.17,29.94-3.76,11.48,1.58,21.71,6.02,28.87,15.32,3.37,4.38,5.83,9.83,7.35,15.18,2.99,10.47,3.28,21.23.25,31.86-3.29,11.52-10.15,20.5-20.08,27.03-2.49,1.64-5.59,2.37-8.45,3.41-12.07,4.38-24.34,4.47-36.37.41-6.85-2.31-12.87-6.31-17.49-12.36-2.77-3.63-5-7.41-6.95-11.47-3.27-6.79-3.72-13.98-3.31-21.8ZM414.28,360.62c.05-2.47.28-4.95.12-7.4-.62-9.37-3.42-17.62-12.12-22.74-13.39-7.88-30.01-2.12-35.56,11.17-4.84,11.59-5.46,23.16-.78,35.13,3.18,8.15,8.82,13,17.03,14.5,11.73,2.14,21.94-1.73,28.17-13.73,2.82-5.43,3.03-11.11,3.14-16.93Z"/>
    <path d="M255.14,405.71c-1.02-.02-2.05.04-3.05-.12-3-.47-3.97-2.04-2.28-4.5,3.33-4.84,3.8-10.35,3.96-15.83.47-16.42.74-32.84.88-49.27.05-5.54-.92-10.98-3.55-16.02-1.96-3.75-.95-5.28,3.41-5.29,3.49-.01,6.97.19,10.46.18,7.7-.01,15.41-.38,23.09-.05,4.74.2,9.6.86,14.11,2.28,6.94,2.18,10.78,7.71,12.26,14.62,1.7,7.92-.27,14.98-6.11,20.8-.51.51-1,1.06-1.55,1.53-1.97,1.7-1.46,3.25.27,4.71.89.75,1.78,1.5,2.72,2.18,7.14,5.17,10.35,14.88,8.2,23.49-3.72,14.96-14.89,21.5-27.52,21.27M274.53,381.7c-.07,1.3-.34,2.6-.33,3.9,0,3.75,1.56,5.34,5.28,5.33,2.61,0,5.22-.16,7.82-.34,5.32-.36,11.47-5.33,11.15-12.74-.3-6.96-3.99-11.75-10.74-12.56-2.87-.35-5.8-.39-8.69-.33-3.15.06-4.2,1.01-4.47,4.13M274.83,339.48h.06c-.04,1.89-.13,3.78-.11,5.67.05,4.23.86,5.11,5.18,5.03,2.16-.04,4.34-.39,6.45-.86,5.07-1.13,7.79-5.03,7.57-10.56-.22-5.5-2.58-8.25-7.98-9.13-1.71-.28-3.47-.38-5.21-.39-4.8-.03-5.64.78-5.85,5.44-.07,1.6-.07,3.2-.11,4.8Z"/>
    <path d="M681.58,313.94c8.52-1.32,16.58.77,24.15,4.22,8.64,3.94,14.48,10.93,18.4,19.55,6.18,13.59,5.3,27.48,1.36,41.31-1.03,3.62-3.6,6.92-5.92,10.03-6.48,8.69-15.82,12.37-26.09,14.11-3.27.55-6.63.76-9.96.8-9.73.13-19.47.1-29.2.12-.73,0-1.46.02-2.18-.05-4.4-.42-5.57-2.31-3.23-5.95,2.32-3.6,3.08-7.51,3.12-11.6.05-6.83-.15-13.65-.15-20.48,0-8.43.17-16.86.15-25.29-.01-3.92.06-7.91-.63-11.73-.63-3.5-2.06-6.9-3.46-10.2-1.52-3.59-.76-5.19,3.15-5.42,1.59-.09,3.2.01,4.8.05,8.57.17,17.13.35,25.7.53ZM672.58,371.13c-.07,3.46-.24,8.11-.24,12.76,0,3.46,1.17,4.86,4.62,4.98,3.75.13,7.59.18,11.28-.44,8.6-1.43,15.92-9.13,17.62-17.65,1.55-7.81,1.29-15.64.14-23.4-1.38-9.39-8.53-17.97-19.45-18.54-2.61-.14-5.2-.58-7.81-.67-5.6-.19-6.36.49-6.36,6.07,0,11.9.12,23.8.2,36.89Z"/>
    <path d="M159.3,406.46c-3.65-.16-4.37-1.3-4.27-4.98.09-3.29-.13-6.63-.58-9.89-.36-2.62-2.21-3.99-4.94-3.99-3.49,0-6.99-.04-10.48,0-4.36.05-8.72.32-13.07.19-3.08-.09-5.22,1.11-6.05,3.91-.9,3.02-1.6,6.18-1.8,9.31-.32,5.06-.87,5.95-5.75,6.1-5.38.16-10.77.38-16.14.21-1.85-.06-3.67-1.21-5.51-1.86.84-1.64,1.39-3.53,2.57-4.87,4.43-5.01,7.01-10.81,9.18-17.11,3.34-9.72,7.58-19.14,11.41-28.69.54-1.35.96-2.74,1.43-4.11,2.06-6.05,4.06-12.12,6.2-18.15,1.3-3.65,1.72-7.28,1.06-11.14-.83-4.83.08-5.84,4.79-5.94,7.85-.16,15.7-.34,23.55-.37,4.73-.02,5.6,1.22,3.77,5.5-1.42,3.34-1.16,6.52-.03,9.77,2.86,8.23,5.8,16.44,8.59,24.69,3.12,9.22,5.89,18.56,9.22,27.71,2.28,6.26,4.77,12.49,9.37,17.6.94,1.04,1.88,3.32,1.38,4.12-.73,1.15-2.74,1.93-4.27,2.04M137.04,372.74s0-.05,0-.08c2.32.05,4.65.13,6.97.13,2.24,0,3.14-1.39,2.98-3.41-.09-1.13-.59-2.23-.96-3.32-1.44-4.25-2.92-8.49-4.33-12.75-.73-2.2-1.25-4.49-2.13-6.63-.31-.75-1.37-1.48-2.18-1.61-.48-.08-1.4.91-1.71,1.6-.76,1.72-1.26,3.55-1.9,5.32-1.95,5.47-3.99,10.91-5.84,16.42-.98,2.92-.14,3.99,2.99,4.18,2.03.12,4.07.1,6.1.14Z"/>
    <path d="M783.81,313.49c3.92.08,7.85.07,11.77.27,3.67.18,4.29,1.47,3.82,5.08-.4,3.09-.61,6.39.07,9.38.99,4.36,2.78,8.54,4.34,12.76,3.5,9.53,7.06,19.04,10.62,28.55,2.34,6.26,4.48,12.6,7.17,18.7,1.38,3.13,3.92,5.72,5.65,8.73.87,1.51,1.76,3.53,1.45,5.08-.42,2.19-2.83,2.1-4.74,2.08-5.52-.03-11.05,0-16.57-.16-4.69-.13-5.71-1.55-5.38-6.15.14-1.98-.14-4.07-.6-6.01-1.53-6.5-2.47-7.18-9.22-7.18-5.81,0-11.63.03-17.44.12-4.18.07-6.21,1.56-6.92,5.71-.46,2.67-.36,5.49-.16,8.22.28,3.96-.75,5.36-4.78,5.39-6.24.04-12.49-.02-18.73-.09-3.28-.03-4.44-1.95-3-4.9.31-.64.73-1.28,1.25-1.76,5.4-4.96,7.25-11.75,9.46-18.34,2.95-8.8,5.89-17.61,8.77-26.43.9-2.75,1.51-5.6,2.42-8.34,1.05-3.15,2.21-6.28,3.46-9.36,2.15-5.28,4.29-10.43,1.79-16.33-1.5-3.54-.15-5.21,3.73-5.23,3.92-.02,7.85.14,11.77.22ZM783.57,370.05v.04c1.74.04,3.49.17,5.23.09,3.91-.17,4.96-1.66,3.7-5.32-2.08-6.04-4.19-12.07-6.4-18.06-.58-1.56-1.56-2.98-2.35-4.46-.89,1.61-2.03,3.13-2.62,4.85-2.05,5.89-3.91,11.84-5.84,17.76-.09.28-.19.55-.25.83-.6,2.74.09,3.83,2.87,4.12,1.87.19,3.77.11,5.66.15Z"/>
    <path d="M612.38,312.82c4.7-.25,6.72,1.38,7.12,6.08.27,3.18.65,6.36.92,9.54.11,1.29.29,2.63.07,3.89-.52,2.96-2.4,3.84-4.6,1.84-5.54-5.03-12.15-5.74-19.13-5.54-2.76.08-5.52-.08-8.28-.04-3.43.05-4.26.73-4.4,3.97-.16,3.78-.06,7.56-.14,11.34-.06,2.73,1.22,4.03,3.93,4.01,6.39-.07,12.79.04,19.17-.24,5.25-.23,7.19,1.5,6.21,6.55-.75,3.84-1.74,7.64-2.81,11.41-.97,3.42-3.2,4.06-5.63,1.46-2.5-2.68-5.39-3.75-8.94-3.6-2.47.1-4.94-.06-7.41-.02-3.13.05-4.5,1.01-4.59,3.98-.18,5.95-.07,11.92.01,17.88.03,2.22,1.28,3.5,3.55,3.61,6.99.35,13.98.29,20.74-1.8,1.75-.54,3.37-1.67,4.92-2.72,1.56-1.05,2.84-2.57,4.47-3.45,1.25-.67,3.35-1.38,4.18-.79.95.67,1.37,2.78,1.25,4.19-.44,5.06-1.21,10.09-1.85,15.13-.57,4.47-2.14,5.78-6.56,5.7-15.54-.29-31.07-.56-46.61-.8-1.89-.03-3.78.3-5.66.21-3.21-.15-4.71-2.25-3.13-4.97,4.61-7.95,4.82-16.42,4.44-25.29-.46-10.88.18-21.81.11-32.72-.03-4.93-.47-9.87-1.08-14.76-.28-2.23-1.19-4.47-2.23-6.5-2.37-4.64-.89-7.19,4.46-7.13"/>
    <path d="M465.12,313.72c3.49.07,6.99.04,10.47.25,3.6.22,4.59,1.45,3.44,4.74-1.06,3.03-.41,5.61.67,8.42,1.35,3.51,2.27,7.17,3.44,10.75,2.84,8.69,5.75,17.36,8.56,26.06.71,2.21,1.09,4.52,1.76,6.74.37,1.22.86,2.46,1.56,3.51.72,1.08,1.7,1.06,2.33-.22.44-.91.86-1.85,1.16-2.81,3.46-11.24,6.85-22.51,10.35-33.73,1.99-6.36,4.63-12.51,4.3-19.44-.16-3.29,1.36-4.43,5.05-4.58,3.49-.14,6.98.03,10.47-.04,2.32-.04,4.65-.48,6.95-.32,1.3.1,3.13.75,3.64,1.72.47.89-.22,2.72-.9,3.82-1.29,2.09-3.21,3.81-4.38,5.96-1.52,2.78-2.65,5.79-3.8,8.76-1.67,4.31-3.23,8.66-4.8,13-1.24,3.41-2.44,6.83-3.63,10.25-3.38,9.71-6.78,19.42-10.11,29.15-1.53,4.46-2.4,8.92-.54,13.61,1.15,2.9.05,4.49-3.16,4.65-7.69.36-15.4.67-23.1.61-4.6-.03-5.98-1.81-4.87-6.06,1.46-5.58-.07-10.64-1.88-15.73-3.45-9.71-6.87-19.44-10.48-29.1-3.46-9.23-6.98-18.45-10.85-27.51-1.16-2.72-3.65-4.86-5.31-7.4-.64-.98-1.24-2.6-.85-3.48.39-.87,2.04-1.61,3.16-1.65,3.77-.13,7.56.08,11.34.15v-.1Z"/>
    <path d="M59.53,391.13c3.81-.58,7.24-2.04,10.17-4.66,1.07-.96,2.33-1.79,3.63-2.4,2.54-1.2,4.31-.11,4.51,2.68.06.86-.11,1.74-.22,2.6-.56,4.61-1.14,9.22-1.7,13.83-.52,4.2-2.58,5.53-6.83,5.39-13.06-.45-26.14-.7-39.21-.95-4.21-.08-8.44.27-12.65.13-4.26-.14-5.22-2.08-2.76-5.51,2.74-3.82,3.99-8.1,4.09-12.67.43-18.76.73-37.53,1.07-56.29.08-4.51-1.46-8.52-3.75-12.35-.66-1.12-1.29-3.16-.75-3.87.77-1.02,2.64-1.65,4.04-1.67,7.11-.09,14.22-.01,21.33.23,1.57.05,3.92.61,4.44,1.66.54,1.09-.39,3.26-1.23,4.61-2.36,3.8-3.85,7.78-3.94,12.29-.24,11.49-.52,22.98-.84,34.46-.16,5.81-.52,11.62-.64,17.44-.12,5.87.51,6.4,6.5,6.36"/>
    <path d="M396.73,281.48c1.39.74,2.55,1.1,3.36,1.85,1.92,1.77,3.72,3.68,5.49,5.61,1.64,1.79,1.62,3.72-.08,5.44-4.82,4.83-9.68,9.62-14.58,14.36-.53.51-1.67,1.1-2.1.86-2.41-1.33-4.8-2.74-6.96-4.43-1.94-1.52-2-3.92-.27-6.25,3.71-5,7.48-9.97,11.38-14.82.91-1.13,2.46-1.74,3.76-2.63Z"/>
  </g>
  <text class="st0" transform="translate(42.44 530.75) rotate(-.07)"><tspan x="0" y="0">TAPAS Y CERVEZA</tspan></text>
</svg>