<?xml version="1.0" standalone="no"?>
<!DOCTYPE svg PUBLIC "-//W3C//DTD SVG 20010904//EN"
 "http://www.w3.org/TR/2001/REC-SVG-20010904/DTD/svg10.dtd">
<svg version="1.0" xmlns="http://www.w3.org/2000/svg"
 width="800.000000pt" height="800.000000pt" viewBox="0 0 800.000000 800.000000"
 preserveAspectRatio="xMidYMid meet">

<g transform="translate(0.000000,800.000000) scale(0.100000,-0.100000)"
fill="#000000" stroke="none">
<path d="M4060 4753 c1 -5 68 -141 149 -303 l149 -294 -143 -266 c-78 -146
-154 -289 -169 -317 l-26 -53 125 0 125 0 100 200 c55 110 103 200 108 200 4
0 19 -28 34 -63 14 -34 54 -124 88 -199 l62 -138 144 0 c79 0 144 2 144 4 0 2
-74 155 -164 339 l-165 337 145 277 c79 153 144 279 144 280 0 2 -56 3 -125 3
l-126 0 -76 -160 c-42 -88 -79 -160 -82 -160 -3 0 -38 71 -77 158 l-70 157
-147 3 c-81 1 -147 -1 -147 -5z"/>
<path d="M5088 4723 l-68 -4 0 -139 0 -140 -50 0 -50 0 0 -95 0 -95 49 0 49 0
5 -282 c3 -178 9 -298 17 -323 18 -59 85 -119 150 -135 53 -13 226 -10 249 4
7 5 11 40 11 97 l0 89 -50 0 c-77 0 -116 21 -129 67 -6 21 -11 134 -11 261 l0
222 85 0 85 0 0 95 0 95 -85 0 -85 0 0 145 0 145 -52 -2 c-29 -1 -83 -3 -120
-5z"/>
<path d="M5706 4433 c-66 -22 -147 -98 -175 -164 -67 -156 -68 -434 -2 -583
27 -63 93 -130 154 -157 45 -21 68 -24 167 -24 106 0 120 2 172 28 126 62 183
180 194 402 13 261 -64 436 -220 494 -71 26 -215 28 -290 4z m183 -158 c58
-29 66 -67 66 -300 0 -197 -1 -212 -22 -251 -24 -45 -38 -54 -84 -54 -73 0
-96 41 -111 195 -13 143 0 318 29 368 19 31 55 57 81 57 7 0 26 -7 41 -15z"/>
<path d="M6705 4431 c-23 -10 -54 -33 -69 -52 -32 -37 -66 -110 -66 -140 0
-10 -4 -19 -10 -19 -6 0 -10 43 -10 110 l0 110 -110 0 -110 0 0 -460 0 -460
124 0 124 0 4 258 3 257 30 60 c38 75 79 105 146 105 l49 0 0 125 0 125 -32 0
c-18 0 -51 -9 -73 -19z"/>
<path d="M7070 4433 c-110 -38 -182 -123 -226 -268 -28 -92 -26 -306 3 -401
57 -179 170 -264 353 -264 177 0 289 79 340 239 11 35 19 66 16 68 -2 2 -51 7
-109 11 l-106 7 -6 -35 c-9 -48 -39 -94 -70 -108 -45 -21 -100 -15 -134 14
-37 31 -51 77 -51 172 l0 72 240 0 240 0 0 58 c-1 91 -26 210 -60 279 -35 71
-103 131 -179 158 -57 20 -192 19 -251 -2z m212 -170 c28 -26 48 -88 48 -147
l0 -36 -125 0 -125 0 0 38 c0 148 112 229 202 145z"/>
<path d="M7689 3806 c-46 -32 -74 -92 -66 -147 19 -144 203 -187 285 -68 33
47 28 145 -8 185 -57 60 -147 73 -211 30z m152 -11 c94 -49 89 -194 -7 -240
-67 -32 -142 -3 -178 69 -23 46 -16 93 21 137 43 50 106 63 164 34z"/>
<path d="M7710 3680 c0 -71 2 -80 18 -80 15 0 18 6 14 29 -7 52 37 52 58 0 8
-17 20 -29 31 -29 26 0 24 13 -7 49 -22 26 -23 32 -10 37 21 8 21 60 0 68 -9
3 -36 6 -60 6 l-44 0 0 -80z m88 33 c2 -14 -3 -23 -17 -28 -28 -9 -41 1 -41
31 0 22 4 25 28 22 19 -2 28 -9 30 -25z"/>
</g>
</svg>
