<?xml version="1.0" encoding="UTF-8"?>
<svg id="Capa_1" xmlns="http://www.w3.org/2000/svg" version="1.1" viewBox="0 0 841.89 595.28">
  <!-- Generator: Adobe Illustrator 29.0.0, SVG Export Plug-In . SVG Version: 2.1.0 Build 186)  -->
  <defs>
    <style>
      .st0 {
        fill: #f4efe4;
      }

      .st1 {
        fill: #1a3e1e;
      }
    </style>
  </defs>
  <rect class="st0" x="304.2" y="150.06" width="233.49" height="295.17"/>
  <g>
    <path class="st1" d="M616.45,181.05v391.48c-1.37-.02-2.74-.05-4.11-.05-127.44,0-254.88,0-382.32,0-1.43,0-2.86,0-4.53,0,0-1.47,0-2.53,0-3.59,0-128.13,0-256.25-.05-384.38,0-2.32.78-3.74,2.53-5.15,16.58-13.44,33.09-26.96,49.62-40.46,46.93-38.35,93.86-76.69,140.75-115.08,1.66-1.36,2.68-1.48,4.42-.05,18.09,14.85,36.26,29.6,54.4,44.38,42.66,34.75,85.31,69.52,127.98,104.25,3.69,3,7.54,5.79,11.32,8.67ZM353.78,404.92c.06-1.04.16-1.9.16-2.76.01-26.74.03-53.49,0-80.23,0-1.94-.13-3.94-.56-5.82-4.58-20.28-27.67-29.42-45.17-17.86-1.57,1.04-2.5,1.01-4.05-.04-7.48-5.11-15.73-6.28-24.39-3.89-12.91,3.57-21.28,14.94-21.32,28.99-.07,26.35-.02,52.7-.01,79.05,0,.85.12,1.69.18,2.54h21.51c0-1.67,0-3.13,0-4.58,0-24.98,0-49.96,0-74.94,0-1.37-.04-2.76.17-4.1.73-4.67,5.83-7.65,10.22-6.04,3.08,1.13,4.87,4.11,4.87,8.27.01,25.96,0,51.92,0,77.88,0,1.14,0,2.29,0,3.47h21.76c0-1.14,0-2.01,0-2.88,0-25.47,0-50.94,0-76.41,0-1.37-.01-2.75.16-4.11.4-3.16,2.68-5.68,5.65-6.41,5.02-1.23,9.44,2.6,9.44,8.3.02,25.96,0,51.92,0,77.88v3.7h21.35ZM353.94,543.8c0-1.46,0-2.53,0-3.6,0-26.44.02-52.88,0-79.33-.01-15.68-12.72-28.55-28.45-28.86-7.19-.14-13.64,2.04-19.32,6.47-5.32-4.21-11.21-6.36-17.78-6.46-16.83-.27-29.87,12.82-29.93,30.21-.09,26.34-.02,52.69-.01,79.03,0,.84.12,1.68.17,2.44h21.51c0-1.44,0-2.6,0-3.76,0-25.07,0-50.14,0-75.21,0-1.27,0-2.55.1-3.82.4-4.77,4.64-7.97,9.27-7.06,3.55.7,5.89,3.96,5.89,8.33.01,25.95,0,51.9.01,77.86,0,1.23,0,2.47,0,3.93,6.31,0,12.18-.15,18.03.06,2.89.1,3.82-.61,3.8-3.7-.14-25.17-.08-50.34-.07-75.51,0-1.57-.02-3.15.18-4.69.45-3.62,3.63-6.38,7.25-6.44,4.73-.08,7.85,3.47,7.85,8.97,0,25.85,0,51.71,0,77.56,0,1.14,0,2.28,0,3.56h21.51ZM454.19,543.96c.07-1.14.14-1.72.14-2.3,0-27.03.03-54.06-.05-81.08,0-2.41-.39-4.89-1.05-7.22-3.94-13.9-17.74-23.08-31.59-21.16-15.33,2.12-25.85,14.01-25.86,29.28-.02,23.89,0,47.79,0,71.68,0,2.84.08,5.68-.02,8.52-.07,1.83.66,2.37,2.41,2.34,4.01-.09,8.03-.02,12.04-.02,2.3,0,4.59,0,7.21,0v-44.76h15.4c0,1.51,0,2.76,0,4.02,0,12.63-.02,25.27.02,37.9,0,1.14-.55,2.8,1.54,2.81,6.53.03,13.06.01,19.82.01ZM454.16,405.01c.07-.87.16-1.44.16-2.01,0-27.13.14-54.26-.04-81.38-.11-16.07-13.45-28.52-29.82-28.39-15.82.13-28.64,12.99-28.67,28.93-.05,26.44-.01,52.88,0,79.33,0,1.13.11,2.27.17,3.47h21.4v-44.96c4.37,0,8.38.13,12.36-.05,2.43-.11,3.18.66,3.16,3.12-.11,12.83-.06,25.66-.05,38.49,0,1.12.11,2.25.17,3.46h21.17ZM364.36,432.15v111.84c6.13,0,12.07-.15,18.01.07,2.8.1,3.38-.9,3.37-3.49-.08-35.24-.07-70.48-.08-105.72,0-.86-.07-1.71-.12-2.69h-21.19ZM364.39,293.4v111.54h21.11v-111.54h-21.11Z"/>
    <path class="st1" d="M432.53,477.17h-15.01c0-5.91-.32-11.76.12-17.54.26-3.51,3.88-5.9,7.38-5.9,3.67,0,7.12,2.42,7.4,6.2.43,5.63.11,11.31.11,17.24Z"/>
    <path class="st1" d="M417.31,338.44c0-5.78-.13-11.06.04-16.33.13-3.86,3.43-7.03,7.17-7.31,3.71-.28,7.56,2.42,7.93,6.36.48,5.24.3,10.54.28,15.81,0,.49-.87,1.4-1.35,1.41-4.57.11-9.14.06-14.07.06Z"/>
  </g>
</svg>