<?xml version="1.0" encoding="UTF-8"?>
<svg id="Capa_1" xmlns="http://www.w3.org/2000/svg" version="1.1" viewBox="0 0 595.28 337.32">
  <!-- Generator: Adobe Illustrator 29.0.0, SVG Export Plug-In . SVG Version: 2.1.0 Build 186)  -->
  <g>
    <path d="M258.88,165.51c-12.61-.37-25.21-1.49-37.81-2.33-1.55-.1-3.09-.54-4.62-.86-3.13-.66-5.09-2.65-5.53-5.74-.62-4.26-1.03-8.55-1.32-12.85-.46-6.84-.7-13.69-1.14-20.52-.22-3.39.36-4.25,3.89-4.11,12.03.49,24.06,1.18,36.09,1.62,6.37.23,12.75.1,19.13.16,19.61.19,39.21.46,58.82.51,2.53,0,5.07-1.11,7.58-1.79.5-.14.9-.68,1.34-1.04-.55-.31-1.07-.79-1.66-.9-5.59-1.05-11.18-2.07-16.78-3.03-6.84-1.17-13.7-2.27-20.55-3.42-11.26-1.89-22.52-3.77-33.77-5.72-11.67-2.01-23.32-4.09-34.98-6.14-5.49-.97-10.97-1.95-16.46-2.9-2-.35-2.76-1.49-2.73-3.49.07-5.49-.02-10.99.04-16.48.03-3,.73-3.38,3.57-2.81,5.37,1.08,10.77,2,16.16,2.99,3.36.62,6.72,1.22,10.07,1.86,10.57,2.01,21.14,4.07,31.72,6.04,7.41,1.38,14.85,2.57,22.26,3.98,7.18,1.37,14.32,2.97,21.51,4.34,5.09.97,10.23,1.65,15.32,2.6,7.88,1.46,15.72,3.1,23.6,4.55,7.31,1.34,14.66,2.52,21.98,3.81,3.18.56,6.33,1.23,9.5,1.84,1.82.35,2.71,1.45,2.64,3.31-.34,9.2-.5,18.41-1.11,27.59-.29,4.45-1.01,8.97-2.3,13.23-1.93,6.4-6.92,10.3-13.06,12.12-4.83,1.43-9.97,2.1-15.02,2.44-12.01.81-24.05,1.32-36.08,1.75"/>
    <path d="M294.3,6.68c5,0,10.01-.15,15.01.03,13.4.48,26.81,1.07,40.21,1.68,7.63.35,15.25.77,22.87,1.27,2.24.15,4.5.48,6.65,1.08,3.2.89,5.21,2.97,5.41,6.51.56,9.96,1.22,19.92,1.72,29.89.17,3.44-.23,3.82-3.62,3.68-11.93-.49-23.86-1.09-35.79-1.65-.49-.02-.98-.07-1.47-.07-22.55-.2-45.1-.44-67.65-.57-4.3-.02-8.61.38-12.91.58-.2,0-.42-.01-.58.07-1.51.74-3,1.51-4.5,2.26,1.42.42,2.81.94,4.25,1.23,8.35,1.66,16.71,3.29,25.07,4.89,11.62,2.22,23.23,4.47,34.87,6.6,16.96,3.1,33.94,6.11,50.91,9.16,3.08.55,6.15,1.17,9.24,1.66,1.89.3,2.77,1.34,2.77,3.17.02,5.1.02,10.2,0,15.3,0,2.25-1.22,2.85-3.29,2.47-6.53-1.18-13.06-2.35-19.61-3.44-8.38-1.4-16.78-2.62-25.14-4.08-10.89-1.9-21.74-4.03-32.62-5.92-11.57-2.01-23.17-3.81-34.75-5.81-8.08-1.39-16.12-3.02-24.19-4.45-5.29-.94-10.62-1.66-15.92-2.56-6.66-1.13-13.3-2.36-19.95-3.48-2.01-.34-2.93-1.47-2.85-3.42.29-6.85.62-13.69.91-20.54.12-2.84-.12-5.72.3-8.51.57-3.85,1.13-7.83,2.55-11.4,3.26-8.18,10.32-11.62,18.49-12.57,8.73-1.02,17.55-1.44,26.34-1.9"/>
    <path d="M260.07,205.63c9.51,0,19.02,0,28.54,0,4.36,0,4.54.2,4.57,4.41q.03,5.61-5.72,5.61c-14.61,0-29.22.03-43.84-.02-2.2,0-3.57.42-3.48,3.05.11,2.94.36,3.38,3.39,3.39,14.32.02,28.64-.03,42.95.07,1.51.01,4.08.52,4.3,1.32.59,2.15.41,4.61,0,6.86-.1.59-2.1,1.19-3.23,1.2-7.94.1-15.89.06-23.83.06-6.67,0-13.34-.02-20.01.02-1.28,0-3-.48-3.39,1.43-.38,1.87-.44,3.92,1.61,4.9,1.44.69,3.13,1.18,4.71,1.19,14.02.09,28.05.05,42.07.06,4.43,0,4.44.02,4.45,4.4,0,.78-.05,1.57,0,2.35.14,2.14-1.05,3.02-2.98,3.18-.88.07-1.76.08-2.64.08-13.14,0-26.28.14-39.42-.08-4.24-.07-8.56-.71-12.68-1.75-6.19-1.56-8.38-6.74-8.65-12.34-.43-8.8-.1-17.65-.15-26.47-.01-2.67,1.64-2.94,3.71-2.93,9.9.03,19.81.01,29.71.01Z"/>
    <path d="M182.62,205.63c8.34,0,16.68-.02,25.01,0,3.29.01,3.67.44,3.73,3.77q.12,6.24-5.98,6.24c-14.42,0-28.84-.02-43.26.03-1.6,0-4.09-.74-4.14,1.92-.05,2.41,2.17,2.57,4.11,2.73,9.37.74,18.73,1.5,28.09,2.28,4.58.38,9.16.77,13.73,1.26,7.03.76,10.26,4.58,10.44,11.72.11,4.21-.42,7.98-4.01,10.79-3.18,2.48-6.99,2.67-10.64,2.71-15.79.18-31.58.13-47.38.05-4.74-.02-7.11-4.3-4.7-8.53.49-.86,2.28-1.38,3.48-1.39,11.28-.1,22.56-.06,33.84-.06,4.61,0,9.22,0,13.83-.01,1.78,0,3.49-.27,3.59-2.53.09-2.04-1.38-2.61-3.1-2.76-4.48-.38-8.97-.76-13.45-1.14-9.65-.83-19.33-1.49-28.95-2.59-2.69-.31-5.6-1.41-7.77-3.02-3.9-2.9-4.84-9.19-2.88-14.61,1.43-3.96,5.8-6.77,11.1-6.83,8.43-.1,16.87-.03,25.31-.03h0Z"/>
    <path d="M346.35,205.63c7.84,0,15.69-.02,23.53,0,3.55.01,3.92.37,3.93,3.86.02,11.77.02,23.53,0,35.3,0,3.38-.7,4.14-4.08,4.34-1.86.11-3.72.03-5.59.03-2.16,0-3.27-1.07-3.27-3.25,0-2.06-.07-4.12,0-6.18.06-1.93-.63-2.9-2.71-2.89-11.37.04-22.75.04-34.12,0-1.88,0-2.66.83-2.62,2.67.05,2.06-.04,4.12,0,6.18.04,2.19-1.08,3.33-3.17,3.4-2.35.08-4.71.07-7.05-.06-1.7-.1-3.2-.88-3.18-2.81.09-9.3.09-18.61.51-27.9.36-7.95,8.53-12.76,15.19-12.71.2,0,.39,0,.59,0,7.35,0,14.71,0,22.06,0ZM341.21,226.82c4.01,0,8.03.04,12.04,0,8.69-.11,7.45,1.35,7.63-7.95.05-2.44-.9-3.26-3.28-3.24-9.59.09-19.19-.01-28.78.06-5.72.04-7.48,1.97-7.4,7.74.04,3.07.3,3.38,3.35,3.4,5.48.03,10.96,0,16.45,0Z"/>
    <path d="M412.11,312.51c0,4.17,0,8.35,0,12.52,0,5.03-.36,5.38-5.31,5.39-1.47,0-2.94.03-4.41-.01-3.09-.09-3.82-.77-3.84-3.87-.05-5.88-.02-11.77-.02-17.65,0-5.59-.03-11.18.02-16.77.02-2.96.5-3.41,3.42-3.47,2.25-.05,4.51.05,6.77-.02,2.22-.07,3.66.83,4.64,2.86,2.14,4.41,4.43,8.74,6.67,13.09.25.49.59.93,1.45,1.29,0-3.97,0-7.93,0-11.9,0-4.99.34-5.32,5.35-5.33,1.47,0,2.94-.02,4.41,0,3.69.05,4.33.64,4.34,4.27.03,8.83.01,17.65.01,26.48,0,2.26.04,4.51-.02,6.77-.09,3.12-1.17,4.15-4.34,4.27-.1,0-.2,0-.29,0-10.51.07-8.5.33-12.58-7.67-1.77-3.47-3.59-6.91-5.39-10.36-.29.04-.58.08-.87.12Z"/>
    <path d="M489.08,330.48c-13.25.82-21.75-10.66-21.69-20.89.08-12.68,8.97-21.49,21.76-21.56,11.73-.06,21.66,8.32,21.56,21.8-.09,10.85-8.68,21.43-21.62,20.65ZM482.12,308.82c0,6.2,3.03,9.33,8,8.73,5.15-.62,7.85-7.16,5.18-12.56-1.95-3.95-6.56-5.28-10.21-2.93-2.63,1.7-3.25,4.27-2.97,6.75Z"/>
    <path d="M217.4,330.48c-11.73.97-21.54-9.78-21.46-21.19.1-13.06,10.68-21.39,20.85-21.29,13.78.13,21.93,8.79,22.14,21.18.21,12.79-9.77,22.1-21.53,21.3ZM224.85,309.45c-.03-4.97-3.41-8.83-7.64-8.72-3.83.1-7,4.02-7.03,8.7-.03,4.73,3.38,8.63,7.46,8.53,3.96-.1,7.24-3.97,7.22-8.51Z"/>
    <path d="M161.44,316.13c-1.02,8.64-7.54,15-17.29,14.32-2.9-.2-5.9-.28-8.64-1.12-6.07-1.85-9.47-6.49-9.96-12.56-.66-8.28-.54-16.63-.71-24.95-.05-2.2,1.2-3.19,3.33-3.19,2.55,0,5.1.05,7.65-.02,2.27-.06,3.15,1.02,3.13,3.22-.05,6.37-.03,12.75,0,19.12,0,1.26.11,2.55.39,3.78.48,2.07,1.91,3.22,4.02,3.19,2.24-.02,3.72-1.3,4.16-3.46.29-1.42.22-2.92.22-4.39.02-5.59,0-11.18.01-16.77.01-4.17.54-4.67,4.81-4.69,1.96-.01,3.92.02,5.88,0,2.31-.02,3.44,1.09,3.43,3.41"/>
    <path d="M355.59,303.5c0,3.04.01,6.08,0,9.12-.06,11.73-6.25,17.82-18.04,17.89-4.29.02-8.34-.36-11.97-3.07-3.26-2.44-5.12-5.62-5.9-9.49-1.8-8.92-1.34-17.91-.62-26.9.14-1.73,1.12-2.38,2.72-2.38,2.65,0,5.29.02,7.94-.02,2.16-.03,2.93,1.1,2.91,3.13-.04,4.31-.08,8.63.02,12.94.07,3.13.33,6.25.59,9.37.19,2.3,1.71,3.5,3.83,3.83,2.14.33,3.65-.74,4.22-2.8.41-1.49.66-3.07.68-4.61.08-6.08,0-12.15.05-18.23.02-3.16.44-3.56,3.58-3.61,1.96-.04,3.92-.02,5.88,0,3.75.03,4.08.34,4.11,3.99.03,3.63,0,7.25,0,10.88Z"/>
    <path d="M376.85,288.63c7.35.26,6.66-1.72,9.55,7.13,3.29,10.05,6.9,20,10.28,30.02,1.2,3.56.36,4.56-3.5,4.64-1.27.02-2.55,0-3.82,0-4.99,0-4.9-.04-6.78-4.5-.36-.84-1.57-1.61-2.53-1.85-1.3-.32-2.74.01-4.1-.12-3.04-.31-5.26.2-6.04,3.81-.23,1.07-2.16,2.3-3.46,2.5-2.59.4-5.28.24-7.92.11-2.47-.13-3.32-1.45-2.52-3.79,2.99-8.7,6.05-17.38,9.05-26.07.93-2.68,1.82-5.37,2.65-8.09.95-3.11,1.7-3.73,5.01-3.78,1.37-.02,2.75,0,4.12,0ZM377.01,305.98c-.25-.03-.49-.05-.74-.08-.54,2.04-1.16,4.06-1.58,6.12-.1.5.36,1.52.73,1.62.89.23,1.92.18,2.81-.06.28-.08.51-1.19.38-1.74-.45-1.97-1.06-3.91-1.61-5.86Z"/>
    <path d="M258.12,287.75c5.19.22,9.95,1.53,14.24,4.33,2.18,1.43,2.27,2.53.66,4.56-.24.31-.53.58-.8.86-1.45,1.58-2.71,4.09-4.42,4.45-1.57.33-3.55-1.89-5.5-2.55-1.6-.54-3.42-.52-5.14-.58-.43-.02-1.23.6-1.25.96-.03.56.31,1.39.76,1.67.98.6,2.12.96,3.22,1.36,2.94,1.06,5.97,1.92,8.83,3.17,4.28,1.86,6.85,5.26,7.29,9.91.47,4.97-1.47,8.86-5.69,11.77-6.96,4.79-21.74,3.83-28.18-2.15-1.25-1.16-1.56-2.16-.35-3.47.73-.79,1.34-1.7,2.12-2.44,3.72-3.55,3.67-3.4,8.39-1.26,1.89.86,4.1,1.18,6.2,1.37.8.07,1.7-.91,2.55-1.41-.62-.67-1.12-1.64-1.89-1.96-2.61-1.1-5.36-1.87-7.99-2.95-3.92-1.61-7.48-3.43-9.41-7.79-3.01-6.8,1.52-14.69,8.28-16.44,2.63-.68,5.37-.95,8.07-1.41Z"/>
    <path d="M417.61,205.63c9.41,0,18.83-.01,28.24,0,3.54,0,3.87.38,3.93,3.88q.09,6.14-6.09,6.14c-5.49,0-10.98-.02-16.48.01-3.06.02-3.32.28-3.33,3.41-.03,8.63-.08,17.26.03,25.89.03,2.53-.65,3.91-3.4,3.85-2.04-.05-4.1.24-6.14.18-2.49-.07-3.55-1.38-3.51-3.99.11-8.24.04-16.48.04-24.71q0-4.62-4.49-4.63c-5.69,0-11.38-.09-17.06.04-2.53.06-3.93-.79-4.03-3.41-.02-.39-.15-.77-.2-1.16-.61-4.79,0-5.49,4.84-5.5,9.22,0,18.44,0,27.66,0Z"/>
    <path d="M180.12,288.63c4.32,0,8.63-.03,12.94.01,3.12.03,3.51.46,3.57,3.63.03,1.57-.03,3.14,0,4.71.03,1.95-.9,2.9-2.86,2.88-1.18-.02-2.36.09-3.53,0-2.33-.18-3.09.89-3.07,3.13.08,7.55.04,15.1.02,22.65,0,4.07-.68,4.75-4.82,4.77-1.96,0-3.92-.3-5.87-.2-2.72.14-3.4-1.42-3.41-3.65-.03-5.3-.02-10.59-.02-15.89,0-2.65-.04-5.3,0-7.94.02-1.96-.88-2.76-2.84-2.88-6.69-.4-6.69-.45-6.6-7.26.05-3.63.36-3.94,4.13-3.96,4.12-.02,8.24,0,12.36,0Z"/>
    <path d="M301.98,302.49c0-3.53.06-7.05-.02-10.58-.06-2.4,1.01-3.38,3.36-3.3,2.45.08,4.9.05,7.35.02,2.21-.03,3.37,1.15,3.36,3.21-.03,7.34-.09,14.68-.35,22.01-.08,2.4-.46,4.89-1.27,7.15-2.13,5.95-7.21,9.39-13.51,9.46-3.71.04-7.43.35-10.91-1.55-1.83-1-2.44-2.12-1.41-4,.33-.6.72-1.2.88-1.85,1.04-4,2.95-6.08,7.66-5.11,3.38.7,4.74-.98,4.82-4.58.08-3.62.02-7.25.02-10.87h.02Z"/>
    <path d="M465.07,303.98c0,3.82.07,7.64-.01,11.45-.19,8.43-6.46,15.74-15.66,15.01-3.18-.25-6.37-.73-9.47-1.45-2.06-.48-2.72-2.07-1.75-4.13.42-.89.75-1.81,1.09-2.73,1.62-4.42,1.69-4.47,6.24-4.09,4.56.38,5.94-.81,5.97-5.35.04-6.77,0-13.54.03-20.31.02-3.3.44-3.7,3.75-3.75,2.06-.03,4.12-.03,6.18,0,3.18.05,3.6.44,3.64,3.56.04,3.92.01,7.85.01,11.77,0,0-.01,0-.02,0Z"/>
  </g>
  <path d="M102.49,288.3c7.35.26,6.66-1.72,9.55,7.13,3.29,10.05,6.9,20,10.28,30.02,1.2,3.56.36,4.56-3.5,4.64-1.27.02-2.55,0-3.82,0-4.99,0-4.9-.04-6.78-4.5-.36-.84-1.57-1.61-2.53-1.85-1.3-.32-2.74.01-4.1-.12-3.04-.31-5.26.2-6.04,3.81-.23,1.07-2.16,2.3-3.46,2.5-2.59.4-5.28.24-7.92.11-2.47-.13-3.32-1.45-2.52-3.79,2.99-8.7,6.05-17.38,9.05-26.07.93-2.68,1.82-5.37,2.65-8.09.95-3.11,1.7-3.73,5.01-3.78,1.37-.02,2.75,0,4.12,0ZM102.65,305.64c-.25-.03-.49-.05-.74-.08-.54,2.04-1.16,4.06-1.58,6.12-.1.5.36,1.52.73,1.62.89.23,1.92.18,2.81-.06.28-.08.51-1.19.38-1.74-.45-1.97-1.06-3.91-1.61-5.86Z"/>
</svg>