<?xml version="1.0" standalone="no"?>
<!DOCTYPE svg PUBLIC "-//W3C//DTD SVG 20010904//EN"
 "http://www.w3.org/TR/2001/REC-SVG-20010904/DTD/svg10.dtd">
<svg version="1.0" xmlns="http://www.w3.org/2000/svg"
 width="255.000000pt" height="178.000000pt" viewBox="0 0 255.000000 178.000000"
 preserveAspectRatio="xMidYMid meet">

<g transform="translate(0.000000,178.000000) scale(0.100000,-0.100000)"
fill="#000000" stroke="none">
<path d="M1304 1333 c-19 -4 -23 -18 -43 -191 -27 -224 -27 -222 -54 -222 -46
0 -50 11 -38 99 12 91 6 118 -35 150 -33 26 -66 26 -122 1 -44 -20 -44 -20
-69 0 -31 24 -61 25 -110 5 -33 -14 -38 -14 -46 0 -6 12 -17 14 -45 9 -20 -3
-40 -9 -44 -13 -6 -6 -38 -210 -38 -243 0 -4 -16 -8 -36 -8 l-36 0 8 63 c15
106 11 143 -15 171 -13 14 -38 28 -55 31 -40 8 -118 -16 -162 -50 l-34 -26 20
-29 21 -30 39 26 c48 32 85 29 85 -6 0 -23 -4 -25 -57 -31 -67 -7 -124 -44
-140 -90 -10 -29 -11 -29 -89 -29 l-79 0 6 28 c2 15 15 107 28 205 l22 177
-53 0 c-34 0 -55 -5 -58 -12 -2 -7 -16 -103 -30 -213 -14 -110 -28 -212 -31
-226 l-5 -26 199 -6 c159 -6 207 -4 239 7 32 11 43 12 54 2 10 -9 48 -11 136
-8 l121 4 13 106 c13 115 28 142 75 142 30 0 29 10 8 -187 l-7 -63 72 0 c50 0
71 4 71 13 0 6 3 22 6 35 5 16 2 22 -9 22 -25 0 -27 11 -16 86 10 72 25 94 65
94 12 0 24 -6 27 -12 2 -7 -2 -58 -9 -113 -7 -55 -13 -105 -14 -111 0 -13 240
-26 253 -14 5 4 37 5 71 3 69 -6 88 1 182 67 32 22 61 40 65 40 4 0 16 -17 26
-37 35 -71 126 -91 233 -52 30 11 62 22 72 25 9 3 25 -3 37 -15 30 -30 67 -36
122 -18 41 13 50 13 60 1 12 -14 79 -20 79 -6 0 4 7 54 15 112 21 152 20 157
-20 197 -34 34 -38 35 -86 30 -52 -6 -136 -48 -145 -72 -3 -7 2 -25 11 -39
l17 -25 38 25 c45 30 84 29 88 -2 3 -18 -5 -22 -56 -31 -38 -7 -80 -25 -122
-52 -63 -41 -142 -71 -187 -71 -26 0 -66 35 -60 53 2 8 34 13 88 15 100 3 119
16 119 76 0 59 -30 103 -80 116 -78 21 -167 -22 -212 -101 -13 -23 -33 -46
-45 -50 -21 -8 -23 -5 -23 29 0 42 -29 95 -61 112 -22 12 -98 9 -133 -6 -15
-6 -18 -4 -13 8 3 9 9 48 13 87 l7 71 -34 -1 c-19 -1 -43 -4 -55 -6z m530
-229 c11 -29 6 -34 -39 -34 -49 0 -53 4 -28 32 20 22 59 24 67 2z m-378 -22
c27 -54 -21 -162 -72 -162 -35 0 -41 19 -31 97 8 65 11 73 35 82 38 14 55 9
68 -17z m694 -112 c0 -20 -33 -40 -66 -40 -23 0 -16 40 9 50 38 15 57 12 57
-10z m-1666 1 c17 -26 -44 -64 -74 -46 -16 10 6 43 32 48 13 2 26 5 30 6 4 0
9 -3 12 -8z"/>
<path d="M35 786 l30 -25 495 -3 c551 -3 506 3 601 -79 l57 -49 648 0 c646 0
649 1 624 20 -23 18 -42 20 -198 20 -111 0 -181 4 -195 11 -12 7 -52 38 -88
70 l-67 59 -968 0 -969 0 30 -24z m1508 -12 c12 -12 -6 -35 -23 -29 -21 7 -43
-17 -38 -42 3 -12 11 -17 27 -15 17 1 22 -2 19 -15 -4 -25 -60 -29 -83 -7 -22
22 -13 72 16 97 20 16 69 23 82 11z m107 -9 c8 -10 10 -31 5 -64 l-7 -50 -51
2 c-48 2 -52 4 -55 28 -3 28 8 41 53 58 l30 11 -32 -3 c-31 -3 -43 9 -26 26
12 13 70 7 83 -8z m120 -6 c0 -12 -7 -19 -20 -19 -21 0 -40 -27 -40 -59 0 -23
-15 -35 -34 -28 -11 4 -12 16 -4 54 5 26 11 53 13 59 2 6 22 11 44 11 33 0 41
-3 41 -18z"/>
<path d="M1585 699 c-4 -6 -5 -13 -2 -16 7 -7 27 6 27 18 0 12 -17 12 -25 -2z"/>
<path d="M1986 802 c-6 -11 45 -60 98 -96 34 -23 49 -26 122 -26 46 0 84 4 84
9 0 15 -92 92 -127 107 -35 15 -169 19 -177 6z"/>
<path d="M1543 613 c180 -2 474 -2 655 0 180 1 32 2 -328 2 -360 0 -508 -1
-327 -2z"/>
<path d="M1245 590 c4 -6 232 -10 651 -10 428 0 643 3 639 10 -4 6 -232 10
-651 10 -428 0 -643 -3 -639 -10z"/>
</g>
</svg>
