<?xml version="1.0" encoding="UTF-8"?>
<svg id="Capa_1" xmlns="http://www.w3.org/2000/svg" version="1.1" viewBox="0 0 595.28 337.32">
  <!-- Generator: Adobe Illustrator 29.0.0, SVG Export Plug-In . SVG Version: 2.1.0 Build 186)  -->
  <defs>
    <style>
      .st0 {
        fill: #010101;
        font-family: Dubai-Bold, Dubai;
        font-size: 39.22px;
        font-weight: 700;
        letter-spacing: .3em;
      }
    </style>
  </defs>
  <g>
    <path d="M216.88,35.46c-8.64.08-17.86-7.91-19.8-15.1-.73-2.69-1.62-5.33-2.18-8.05-.24-1.14-.7-2.9.9-3.42,1.67-.54,2.05,1.23,2.67,2.29,1.17,2.01,2.74,3.49,4.98,4.23.44.14.91.28,1.28.54,3.67,2.64,7.99,3.03,12.24,3.11,16.36.33,32.72.47,49.07.67,11.25.14,22.5.29,33.75.38,11.43.1,22.86.18,34.3.19,12.92.01,25.83,0,38.75-.15,4.36-.05,8.69-.55,12.73-2.58,2.55-1.27,4.85-2.73,6.45-5.13.26-.38.55-.77.9-1.06.49-.39,1.05-.69,1.59-1.02.34.62.98,1.24.96,1.84-.09,4.21-.51,8.5-2.6,12.15-2.5,4.37-5.83,8.13-10.75,10.13-2.7,1.09-5.38,1.9-8.35,1.87-9.57-.1-19.14-.05-28.7-.09-12.36-.04-24.72-.11-37.08-.16-3.05-.01-3.7.51-3.69,3.51.03,10.96.2,21.93.23,32.89.02,7.9-.14,15.8-.16,23.71-.02,8.27.03,16.54.06,24.81.03,5.78,1.88,10.93,5.5,15.44.41.51.83,1.01,1.14,1.57.6,1.06.17,1.83-.9,2.15-.7.21-1.47.21-2.21.21-8.83.06-17.66.1-26.48.15-.65,0-1.31,0-1.95-.08-2.13-.28-2.69-1.48-1.58-3.28.1-.16.2-.32.33-.45,4.46-4.58,5.67-10.48,5.78-16.44.26-13.19.01-26.39.03-39.59.01-8.65.12-17.29.21-25.94.05-5.02.17-10.03.25-15.05.04-3.06-.53-3.61-3.8-3.67"/>
    <path d="M202.78,61.54c.07-6.73-1.03-13.15-5.83-18.4-.54-.59-1.02-1.97-.7-2.45.44-.67,1.65-1.17,2.53-1.18,4.64-.04,9.29.1,13.94.17,8.64.13,17.28.29,25.92.36,6.52.05,12.74,1.28,18.5,4.4,4.42,2.4,7.66,6.04,9.25,10.73,1.54,4.58,1.82,9.39,1.22,14.29-.88,7.3-5.06,12.14-10.87,15.98-.43.29-1.15.92-1.08,1.07.29.61.75,1.26,1.32,1.59,2.15,1.26,4.63,2.09,6.52,3.64,7.39,6.1,11.01,13.85,9.29,23.58-.85,4.8-2.26,9.4-5.41,13.27-2.54,3.13-5.59,5.66-9.24,7.41-1.17.56-2.5.84-3.57,1.54-3.44,2.24-7.33,2.57-11.23,2.69-5.57.18-11.15.15-16.72.18-8.26.05-16.53.05-24.79.11-1.39.01-2.77.34-4.15.36-2.51.04-3.35-1.47-2.08-3.63.28-.48.58-.97.97-1.36,4.48-4.36,5.49-9.97,5.66-15.83M224.1,113.3h-.11c-.06,2.79-.17,5.57-.16,8.35,0,2.08.63,3.02,2.42,3.09,5.74.21,11.5.65,17.07-1.43,2.12-.79,3.58-2.15,4.85-3.95,3.24-4.6,3.56-9.65,2.4-14.9-.96-4.37-3.95-7.02-8.01-8.49-5.03-1.82-10.26-1.26-15.42-.85-2.98.24-3.28.71-3.27,3.7.02,4.82.14,9.64.23,14.47ZM224.02,68.22s-.06,0-.09,0c-.06,2.78-.17,5.57-.15,8.35.02,2.22.79,3.14,2.9,3.34,3.81.37,7.6.3,11.32-.75,3.7-1.04,6.66-3.07,7.72-6.91.94-3.41,1.13-6.94-.06-10.41-.76-2.21-2.13-3.73-4.2-4.93-4.89-2.85-10.22-2.27-15.46-2.24-1.59,0-2.29,1.35-2.23,2.98.11,3.52.18,7.04.26,10.56Z"/>
    <path d="M369.6,40.68c5.78-.25,11.91.7,17.97,2.27,2.53.65,3.38,1.76,3.67,4.26.66,5.52,1.35,11.04,2.04,16.55.07.55.35,1.16.19,1.64-.29.89-.69,1.84-1.33,2.47-.19.19-1.33-.57-2.03-.9-.08-.04-.15-.12-.2-.19-3.95-5.42-9.75-7.87-15.89-9.58-4.89-1.37-9.88-1.54-14.85-.09-3.56,1.03-7.21,1.77-10.27,4.11-4.52,3.46-8.14,7.56-9.83,13.14-1.48,4.89-2.89,9.73-2.99,14.96-.11,5.98,1.11,11.75,2.91,17.23,1.37,4.18,4.1,8.09,7.53,11.16,6.48,5.8,14.28,7.04,22.61,6.18,1.94-.2,3.89-.39,5.79-.8,5.78-1.25,10.63-4.17,14.74-8.4,1.03-1.06,2.14-2.06,3.28-3,1.28-1.06,2.39-.66,2.46.98.08,1.85-.07,3.72-.25,5.56-.37,3.88-.88,7.75-1.23,11.63-.44,4.86-1.4,5.99-6.26,7.07-4.26.94-8.47,2.23-12.77,2.79-7.93,1.03-16,1.59-23.82-.38-11.67-2.94-21.67-8.87-28.34-19.19-3.19-4.94-5.62-10.24-6.83-16.29-1.18-5.92-1.67-11.73-1.44-17.67.05-1.38.3-2.76.59-4.12.65-2.99,1.23-6.02,2.12-8.94.75-2.46,1.83-4.82,2.92-7.16,2.21-4.76,5.29-8.95,9.05-12.6,4.95-4.79,10.83-7.88,17.4-10.02,7.39-2.41,14.87-3.03,23.02-2.67Z"/>
    <path d="M240.61,219.13c-.44-7.66,2-14.73,7.09-20.8,2.62-3.12,5.71-5.69,9.68-7.2,6.22-2.36,12.55-3.3,19.12-2.4,7.33,1.01,13.87,3.85,18.44,9.79,2.15,2.8,3.72,6.28,4.7,9.7,1.91,6.69,2.1,13.56.16,20.36-2.1,7.36-6.48,13.09-12.83,17.27-1.59,1.05-3.57,1.51-5.4,2.18-7.71,2.8-15.55,2.85-23.24.26-4.38-1.48-8.22-4.03-11.17-7.89-1.77-2.32-3.19-4.74-4.44-7.33-2.09-4.34-2.38-8.93-2.11-13.92ZM287.03,219.86c.03-1.58.18-3.16.08-4.73-.4-5.99-2.19-11.26-7.74-14.53-8.55-5.03-19.17-1.36-22.72,7.14-3.09,7.4-3.49,14.8-.5,22.44,2.03,5.21,5.63,8.3,10.88,9.26,7.49,1.37,14.02-1.11,18-8.77,1.8-3.47,1.94-7.1,2.01-10.81Z"/>
    <path d="M185.37,248.66c-.65-.01-1.31.02-1.95-.08-1.91-.3-2.54-1.31-1.46-2.88,2.13-3.09,2.43-6.61,2.53-10.11.3-10.49.48-20.98.56-31.47.03-3.54-.59-7.01-2.27-10.23-1.25-2.39-.61-3.37,2.18-3.38,2.23,0,4.46.12,6.68.12,4.92,0,9.84-.24,14.75-.03,3.03.13,6.13.55,9.01,1.46,4.44,1.4,6.89,4.93,7.83,9.34,1.08,5.06-.18,9.57-3.9,13.29-.33.33-.64.67-.99.98-1.26,1.09-.93,2.07.17,3.01.57.48,1.14.96,1.74,1.39,4.56,3.3,6.61,9.5,5.24,15-2.38,9.56-9.51,13.73-17.58,13.59M197.75,233.32c-.05.83-.22,1.66-.21,2.49,0,2.4.99,3.41,3.37,3.4,1.67,0,3.33-.1,5-.21,3.4-.23,7.33-3.41,7.13-8.14-.19-4.44-2.55-7.5-6.86-8.02-1.83-.22-3.7-.25-5.55-.21-2.02.04-2.68.65-2.86,2.64M197.94,206.35h.04c-.02,1.21-.08,2.42-.07,3.62.03,2.7.55,3.26,3.31,3.22,1.38-.02,2.77-.25,4.12-.55,3.24-.72,4.98-3.21,4.83-6.75-.14-3.51-1.65-5.27-5.1-5.83-1.09-.18-2.22-.24-3.33-.25-3.07-.02-3.6.5-3.74,3.47-.05,1.02-.05,2.04-.07,3.06Z"/>
    <path d="M457.78,190.04c5.44-.84,10.59.49,15.43,2.7,5.52,2.52,9.25,6.98,11.75,12.49,3.95,8.68,3.39,17.56.87,26.39-.66,2.31-2.3,4.42-3.78,6.41-4.14,5.55-10.11,7.9-16.67,9.01-2.09.35-4.24.49-6.36.51-6.22.08-12.44.06-18.66.08-.46,0-.93.01-1.39-.03-2.81-.27-3.56-1.48-2.06-3.8,1.48-2.3,1.97-4.79,1.99-7.41.03-4.36-.1-8.72-.1-13.08,0-5.39.11-10.77.09-16.16,0-2.5.04-5.05-.4-7.49-.4-2.24-1.31-4.41-2.21-6.52-.97-2.29-.48-3.32,2.02-3.46,1.02-.06,2.04,0,3.06.03,5.47.11,10.94.23,16.42.34ZM452.03,226.57c-.05,2.21-.15,5.18-.15,8.15,0,2.21.75,3.1,2.95,3.18,2.4.08,4.85.11,7.2-.28,5.5-.91,10.17-5.83,11.25-11.27.99-4.99.82-9.99.09-14.95-.88-6-5.45-11.48-12.42-11.84-1.67-.09-3.32-.37-4.99-.42-3.58-.12-4.06.32-4.06,3.88,0,7.6.08,15.21.13,23.56Z"/>
    <path d="M124.14,249.14c-2.33-.1-2.79-.83-2.73-3.18.06-2.1-.08-4.23-.37-6.32-.23-1.67-1.41-2.55-3.15-2.55-2.23,0-4.46-.02-6.69,0-2.78.03-5.57.21-8.35.12-1.97-.06-3.33.71-3.86,2.5-.57,1.93-1.02,3.95-1.15,5.95-.2,3.23-.56,3.8-3.67,3.89-3.44.1-6.88.24-10.31.13-1.18-.04-2.35-.77-3.52-1.19.54-1.05.89-2.26,1.64-3.11,2.83-3.2,4.48-6.91,5.86-10.93,2.14-6.21,4.84-12.23,7.29-18.33.34-.86.61-1.75.91-2.63,1.32-3.87,2.59-7.74,3.96-11.59.83-2.33,1.1-4.65.68-7.12-.53-3.08.05-3.73,3.06-3.8,5.01-.11,10.03-.22,15.05-.23,3.02,0,3.58.78,2.41,3.52-.91,2.13-.74,4.16-.02,6.24,1.83,5.26,3.7,10.5,5.49,15.77,1.99,5.89,3.76,11.86,5.89,17.7,1.45,4,3.05,7.98,5.98,11.25.6.67,1.2,2.12.88,2.63-.47.73-1.75,1.23-2.73,1.3M109.92,227.6s0-.03,0-.05c1.48.03,2.97.09,4.45.09,1.43,0,2-.89,1.9-2.18-.06-.72-.38-1.42-.61-2.12-.92-2.72-1.86-5.42-2.77-8.14-.47-1.41-.8-2.87-1.36-4.24-.2-.48-.87-.94-1.39-1.03-.31-.05-.89.58-1.09,1.02-.48,1.1-.81,2.27-1.21,3.4-1.25,3.5-2.55,6.97-3.73,10.49-.63,1.87-.09,2.55,1.91,2.67,1.3.08,2.6.06,3.9.09Z"/>
    <path d="M523.08,189.75c2.51.05,5.02.04,7.52.17,2.34.12,2.74.94,2.44,3.24-.25,1.97-.39,4.08.04,5.99.63,2.78,1.78,5.46,2.77,8.15,2.24,6.09,4.51,12.16,6.78,18.24,1.49,4,2.86,8.05,4.58,11.95.88,2,2.51,3.66,3.61,5.58.56.97,1.12,2.25.93,3.25-.27,1.4-1.81,1.34-3.03,1.33-3.53-.02-7.06,0-10.59-.1-3-.09-3.65-.99-3.44-3.93.09-1.27-.09-2.6-.38-3.84-.98-4.15-1.58-4.59-5.89-4.59-3.71,0-7.43.02-11.14.08-2.67.04-3.97,1-4.42,3.64-.29,1.71-.23,3.51-.1,5.25.18,2.53-.48,3.43-3.05,3.44-3.99.03-7.98-.01-11.97-.06-2.09-.02-2.83-1.25-1.92-3.13.2-.41.47-.82.8-1.13,3.45-3.17,4.63-7.5,6.04-11.72,1.88-5.62,3.76-11.25,5.6-16.89.57-1.76.96-3.58,1.55-5.33.67-2.01,1.41-4.01,2.21-5.98,1.37-3.37,2.74-6.67,1.14-10.43-.96-2.26-.1-3.33,2.38-3.34,2.51-.01,5.01.09,7.52.14ZM522.93,225.89v.03c1.11.02,2.23.11,3.34.06,2.5-.11,3.17-1.06,2.36-3.4-1.33-3.86-2.68-7.71-4.09-11.54-.37-1-1-1.9-1.5-2.85-.57,1.03-1.29,2-1.68,3.1-1.31,3.76-2.5,7.56-3.73,11.35-.06.18-.12.35-.16.53-.38,1.75.06,2.45,1.83,2.63,1.2.12,2.41.07,3.62.09Z"/>
    <path d="M413.58,189.33c3-.16,4.29.88,4.55,3.89.17,2.03.41,4.06.59,6.1.07.83.19,1.68.05,2.48-.33,1.89-1.53,2.45-2.94,1.18-3.54-3.21-7.76-3.67-12.22-3.54-1.76.05-3.53-.05-5.29-.02-2.19.03-2.72.46-2.81,2.54-.1,2.41-.04,4.83-.09,7.25-.04,1.75.78,2.58,2.51,2.56,4.08-.05,8.17.02,12.25-.15,3.35-.15,4.59.96,3.97,4.18-.48,2.45-1.11,4.88-1.79,7.29-.62,2.19-2.05,2.59-3.59.93-1.59-1.71-3.44-2.39-5.71-2.3-1.58.07-3.16-.04-4.74-.01-2,.03-2.88.64-2.93,2.54-.12,3.8-.04,7.61,0,11.42.02,1.42.82,2.23,2.27,2.31,4.47.22,8.93.19,13.25-1.15,1.12-.35,2.15-1.07,3.14-1.74,1-.67,1.81-1.64,2.86-2.21.8-.43,2.14-.88,2.67-.51.61.43.88,1.77.8,2.68-.28,3.23-.77,6.45-1.18,9.67-.36,2.85-1.37,3.7-4.19,3.64-9.92-.19-19.85-.36-29.77-.51-1.2-.02-2.42.19-3.62.13-2.05-.09-3.01-1.44-2-3.18,2.95-5.08,3.08-10.49,2.84-16.16-.3-6.95.12-13.93.07-20.9-.02-3.15-.3-6.31-.69-9.43-.18-1.43-.76-2.86-1.42-4.15-1.51-2.96-.57-4.59,2.85-4.55"/>
    <path d="M319.51,189.9c2.23.05,4.46.02,6.69.16,2.3.14,2.93.92,2.2,3.03-.68,1.94-.26,3.59.43,5.38.86,2.24,1.45,4.58,2.2,6.86,1.82,5.55,3.67,11.09,5.47,16.65.46,1.41.7,2.89,1.12,4.31.23.78.55,1.57,1,2.24.46.69,1.09.68,1.49-.14.28-.58.55-1.18.74-1.8,2.21-7.18,4.37-14.38,6.61-21.55,1.27-4.06,2.96-7.99,2.75-12.42-.1-2.1.87-2.83,3.22-2.92,2.23-.09,4.46.02,6.69-.02,1.48-.03,2.97-.31,4.44-.2.83.06,2,.48,2.33,1.1.3.57-.14,1.74-.57,2.44-.82,1.34-2.05,2.44-2.8,3.8-.97,1.78-1.69,3.7-2.43,5.59-1.07,2.75-2.06,5.53-3.07,8.31-.79,2.18-1.56,4.36-2.32,6.55-2.16,6.21-4.33,12.41-6.46,18.62-.98,2.85-1.53,5.7-.35,8.69.73,1.85.03,2.87-2.02,2.97-4.91.23-9.84.43-14.76.39-2.94-.02-3.82-1.16-3.11-3.87.93-3.56-.04-6.8-1.2-10.05-2.21-6.21-4.39-12.42-6.7-18.59-2.21-5.9-4.46-11.78-6.93-17.57-.74-1.74-2.33-3.1-3.4-4.73-.41-.63-.79-1.66-.54-2.22.25-.56,1.3-1.03,2.02-1.05,2.41-.08,4.83.05,7.24.1v-.06Z"/>
    <path d="M60.41,239.35c2.43-.37,4.63-1.3,6.49-2.98.68-.61,1.49-1.14,2.32-1.54,1.63-.77,2.75-.07,2.88,1.71.04.55-.07,1.11-.14,1.66-.36,2.95-.73,5.89-1.09,8.83-.33,2.68-1.65,3.53-4.36,3.44-8.35-.29-16.7-.45-25.05-.61-2.69-.05-5.39.17-8.08.08-2.72-.09-3.33-1.33-1.76-3.52,1.75-2.44,2.55-5.17,2.62-8.09.27-11.99.47-23.97.68-35.96.05-2.88-.93-5.44-2.39-7.89-.42-.71-.82-2.02-.48-2.48.49-.65,1.68-1.06,2.58-1.07,4.54-.06,9.09,0,13.62.15,1,.03,2.5.39,2.84,1.06.35.69-.25,2.08-.78,2.95-1.51,2.43-2.46,4.97-2.52,7.85-.16,7.34-.33,14.68-.54,22.01-.1,3.71-.33,7.43-.41,11.14-.07,3.75.33,4.09,4.15,4.06"/>
    <path d="M275.81,169.3c.89.47,1.63.71,2.15,1.18,1.23,1.13,2.38,2.35,3.51,3.59,1.05,1.14,1.04,2.38-.05,3.47-3.08,3.09-6.18,6.14-9.31,9.17-.34.32-1.07.7-1.34.55-1.54-.85-3.07-1.75-4.45-2.83-1.24-.97-1.28-2.51-.17-3.99,2.37-3.19,4.78-6.37,7.27-9.46.58-.72,1.57-1.11,2.4-1.68Z"/>
  </g>
  <text class="st0" transform="translate(49.49 328.54) rotate(-.07)"><tspan x="0" y="0">TAPAS Y CERVEZA</tspan></text>
</svg>