<?xml version="1.0" encoding="UTF-8"?>
<svg id="Capa_1" xmlns="http://www.w3.org/2000/svg" version="1.1" viewBox="0 0 841.89 595.28">
  <!-- Generator: Adobe Illustrator 29.0.0, SVG Export Plug-In . SVG Version: 2.1.0 Build 186)  -->
  <defs>
    <style>
      .st0 {
        fill: #ded063;
      }

      .st1 {
        fill: #deda95;
      }

      .st2 {
        font-family: FranklinGothic-MediumCond, 'Franklin Gothic Medium Cond';
        font-size: 47.2px;
        font-weight: 500;
        letter-spacing: .2em;
      }

      .st2, .st3 {
        fill: #010101;
      }

      .st4 {
        fill: #ebebeb;
      }

      .st5 {
        fill: #c0c0bf;
      }

      .st6 {
        fill: #11100e;
      }
    </style>
  </defs>
  <g>
    <path class="st4" d="M808.83,347.92c.14-.34.28-.68.43-1.03-.35-.18-.7-.39-1.06-.54-7-2.84-14.37-2.44-21.69-2.36-.86,0-1.74.24-1.58,1.37.16,1.08,1.14,1.06,1.94,1.04,3.3-.08,6.54.26,9.81.72,4.01.57,8.09.56,12.15.8Z"/>
    <path class="st1" d="M404.61,341.67c-.22.29-.44.58-.67.86-1.18.1-1.09,1.03-1.2,1.84l-.02.31s-.29.12-.29.12c-.23.13-.39.33-.46.59l.03.23s-.22.05-.22.05c-.17.27-.35.54-.53.81,0,0-.06.08-.06.08-1.23.35-1.7,1.2-1.61,2.42-.13.26-.26.53-.4.79-1.08.12-1.37.76-1.17,1.75-.12.27-.25.53-.37.79-1.46.06-1.46,1.11-1.46,2.16v.24s-.24.03-.24.03c-.27.09-.46.26-.57.53l-.04.25s-.26.02-.25.02c-1.99.12-3.11,1.35-3.86,3.05-.22.13-.44.26-.65.4-1.03-.15-1.67.24-1.84,1.31l-.05.23s-.23-.05-.23-.05c-2.06.29-4.08.66-4.73,3.11l-.05.21s-.2-.06-.2-.06c-1.23.07-2.47.14-3.7.21-.29-.08-.42-.28-.38-.58.09-2.28.17-4.55.26-6.83.08-.34.15-.69.23-1.03,3.77-1.44,3.11-4.59,2.91-7.56.12-.24.23-.47.35-.71,3.77-1.33,3.12-4.48,3.04-7.39.24-.58.47-1.17.71-1.75.14-.13.23-.29.25-.48,0,0,.1-.26.1-.26,2.05.03,2.64-.92,1.87-2.78,0,0,.1-.09.1-.08,1.91-.19,3.87-.34,3.63-3.07-.15-1.7.77-4.05-2.36-3.99,0,0-.05-.05-.05-.05-2.98-3.3-9.69-4.58-14.49-2.48-1.29.57-3.56.26-3.58,2.68,0,0,0-.03,0-.03-.25.37-.5.73-.75,1.1-.35.73-.7,1.46-1.05,2.19-2.21,2.27-3.33,4.89-2.6,8.11.17.72.08,1.37-.46,1.91-1.49-.71-3.02-1.38-2.73-3.49.61-.09,1.32-.07,1.25-1,0-.1-.16-.26-.26-.26-.92-.05-.9.66-.98,1.27-.65.19-1.39.24-1.95.58-2.13,1.32-3.8.9-4.49-1.46-.79-2.71,1.31-1.72,2.67-1.92,1.82-.27,2.29-1.7,2.13-3.42-.14-1.43-.46-2.13-1.99-1.05-.81.57-1.19-.17-1.28-.93-.65-5.26-2.95-10.26-2.53-15.69.15-2.02-.65-3.91-2.68-4.02-4.28-.22-5.1-2.93-4.69-6.18.72-5.72-1.94-9.83-5.88-13.28-1.83-1.6-1.28-2.1.3-3.26,2.22-1.63,4.49-2.41,7.26-2.32,4.47.16,8.95.04,13.42.04-1.56-2.08-3.25-1.65-4.83-1.6-5.86.18-11.71-.79-17.57-.1-1.5.18-3.06-.71-3.04-2.15.02-1.84,1.92-1.12,2.96-1.08,7.66.31,15.04-2.7,22.74-1.89.17.02.4-.56.62-.9-1.52-.91-3.08-.55-4.54-.51-21.27.61-42.56-1.3-63.82,1.49-11.2,1.47-22.62.78-33.91,1.25-17.45.73-34.89,2.94-52.4,2.22-.95-.04-2-.1-2.85.23-6.01,2.32-12.19,3.34-18.64,3.05-3.98-.18-8,.18-11.97-.1-3.65-.25-5.49.72-4.87,4.72.23,1.48.03,3.02-.01,4.54-.01.56-.21,1.21-.89,1.01-.85-.25-.51-1.14-.64-1.77.04-.62.09-1.23.13-1.85,1.36-2.06.54-4.33.62-6.52.07-.58.14-1.16.2-1.74,1.07-1.59,2.66-1.63,4.36-1.6,1.35.02,2.81.04,4.03-.42,4.43-1.66,8.87-3.13,13.69-2.88,9.7,0,19.41.03,29.11-.04,1.46-.01,3.44.85,4.1-1.53,1.63-.04,3.25-.07,4.88-.11,3.91,0,7.82.03,11.72,0,1.29,0,2.82.37,3.26-1.51,4.38-.03,8.76-.07,13.14-.1,10.17,0,20.35.27,30.5-.17,4.11-.18,8.42.15,12.42-1.47,1.12,0,2.24,0,3.36,0,29.68-.02,59.37.01,89.05-.1,4.63-.02,9.07-1.65,13.83-1.6,19.69.22,40.41-.07,60.1-.1.07.45-.56.9-.84,1.47-9.43,18.5-16.97,37.79-23.81,57.37-1.11,3.16-2.13,3.08-3.97.61-2.64-3.53-6.55-5.51-10.45-6.99-6.84-2.59-12.04,1.69-17.29,5.15-.56.37-1.01.92-1.51,1.38,0,0-.18.29-.18.29l.02.27s-.22.15-.22.15c-.15.26-.31.53-.46.79-.17.29-.34.58-.51.86-1.62.29-2.21,1.25-1.86,2.83.04.28-.08.44-.35.49-2.17.4-2.14,2.2-2.42,3.8,0,0-.17.24-.17.24-.22.25-.43.49-.65.74,0,0-.08.1-.08.1-.19.33-.38.67-.57,1ZM394.8,278.29c-5.77-.04-7.84,2.45-6.38,7.82.3,1.11.45,2.14.05,3.22-1.8,4.88-2.93,10.09-6.75,13.98-2.96,3.01-1.87,6.47-.82,9.67.49,1.5,1.8,2.75,4.18,1.14,3.88-2.62,6.47-5.98,8.78-9.98,2.16-3.74,3.54-8.06,7.26-10.88,2.68-2.04,4.18-4.78,2.81-8.32-1.51-3.91-5.25-6.61-9.12-6.64Z"/>
    <path class="st3" d="M605.52,380.26c-1.57-2.71-4.89-3.87-6.56-7.18,3.76.56,7,1.46,10.45.12,2.96-1.15,2.7-1.99.65-3.74-7.96-6.78-14.33-14.78-18.68-24.36-.53-1.18-.83-2.66-2.35-3.32-2.12,2.11-2.83,5-4.03,7.56-5.54,11.84-12.69,22.68-20.28,33.27-3.15,3.23-6.06,6.73-10.2,8.82-4.56,2.31-10.25,1.32-13.53-2.45-.89-1.02-1.68-2.13-2.52-3.2l-.02-.32-.29-.14c.07-.7-.14-1.26-.8-1.59.03-1.59-.59-2.95-1.42-4.25.14-.28.09-.53-.15-.74-.07-.58-.14-1.17-.21-1.75.18-.27.15-.52-.09-.74-.1-.57-.2-1.13-.29-1.7.33-2.19.36-4.38-.04-6.57.09-.61.18-1.22.27-1.84.64-1.55.58-3.18.51-4.81,1.15-1.8,1.19-3.87,1.47-5.88.88-1.08,1.22-2.22.48-3.59-1.79.64-2.23,2.22-2.87,3.63-1.02.64-1.39,1.7-1.74,2.76l-.34.15.05.37c-.28.12-.38.33-.29.63-.7.41-.95,1.05-.93,1.83l-.11.16c-.44.04-.6.27-.44.69-.28.06-.38.23-.31.5h-.25s.18.12.18.12c-.27.44-.53.88-.8,1.31-.69.13-.92.59-.93,1.23-.28.38-.56.75-.85,1.13-.4-.03-.53.15-.38.52-.72.87-1.44,1.74-2.16,2.61l.14-.11c-3.22,3.37-6.46,6.72-9.65,10.12-4.89,5.21-9.76,5.22-14.6,2.97-5.18-2.41-6.49-7.65-6.82-13.15-.25-4.23,1.12-8.47.18-13.54-7.59,8.84-13.63,17.74-19.57,26.72-.22.38-.45.76-.67,1.15-1.17,1.14-2.35,2.26-2.69,3.96-5.8,7.11-11.03,14.82-19.7,18.95-7.91,1.3-10.97-4.78-14.8-9.71-.37-6.31-.75-12.62-1.12-18.93.05-.85.11-1.71.16-2.56.68-.65.9-1.71.07-1.96-1.52-.46-2.23.87-2.86,2.04-.29-.06-.45.06-.47.36-.37-.18-.52-.02-.52.35-.75.03-1.1.47-1.15,1.18-.15.14-.29.28-.44.42-3.29,1.95-5.93,4.68-8.71,7.24-1.38.85-2.74,1.72-4.13,2.54-7.88,4.65-12,4.21-18.55-1.97-3.75-5.41-2.66-11.8-3.09-18.89-4,7.43-7.42,13.79-10.84,20.15-1.26,1.6-2.65,3.13-3.77,4.83-5.26,7.94-11.45,15.12-18.17,21.83-20.78,20.73-46.32,32.11-74.71,37.8-6.44,1.29-6.46,1.18-6.01,9.28-.85,2.9-2.73,3.47-5.38,2.42-1.14-.45-2.32-.79-3.48-1.17-.46-.91-1.21-1.27-2.2-1.18-1.44-1.11-2.88-2.22-4.32-3.32-.17-1.21-.94-1.81-2.08-2.04-.45-.55-.9-1.11-1.35-1.66-.32-2.71-2.67-1.91-3.84-1.62-1.23.3-.41,1.8.11,2.74-.07.26-.18.52-.2.79-.5,8.44-2.33,9.39-9.46,4.89-3.74-2.36-6.85-5.38-9.39-9-.21-1.65-.82-2.56-2.54-1.33-.43-.03-.87-.06-1.3-.08-1.53,1.02-1.22,2.48-.93,3.93-.61,1.71-1.23,3.42-1.84,5.13-.57.27-.94.66-.85,1.35-4.49.36-6.98-3.13-10.16-5.28-1.54-3.44-4.19-6.28-5.25-10-.35-1.22-6.61-2.91-7.02-2.03-1.14,2.42-3.24,4.51-2.87,7.51-.25,1.1.17,1.55,1.28,1.34l-.25.17c-1.75-.7-2.82.15-3.76,1.54-1.96,2.87-4.66,5.02-7.37,7.12-1.88,1.46-3.33,1.3-3.53-1.49-.18-2.6-.36-5.2-.51-7.8-.31-5.44-.37-5.48-5.41-3.82-2.68.88-5.24,2.11-8.2,2.02-2.35-.07-3.08-.73-1.84-2.9,1.89-3.32,3.82-6.63,5.57-10.02.67-1.31,2.02-3.2-1.07-3.54-.31-.8-.87-1.04-1.67-.75-3.93-1.29-4.92,2.64-6.99,4.29-2.74,2.18-5.22,2.74-7.5.33-1.84-1.95-2.78-.95-3.96.26-1.77,1.82-3.77,3.13-6.34,3.42-8.05-1.97-9.41-4.16-7.54-12.12-.1-1.9-1.4-1.13-2.38-1.06-.94-.56-1.88-1.12-2.83-1.68.1-.83.45-1.48,1.27-1.8,4.31,2.42,8.2,1.39,8.73-3.01.18-1.49-.24-3.91.25-5.33.64-1.86-.17-2.18-1.19-2.78-2.02-1.2-4.08-2.37-6.54-1.16-.42-.6-.83-1.19-1.25-1.79,2.54-1.63,1.11-4.38,1.83-6.53.78-.21,1.02-.77.6-1.39-.43-.63-1.1-.4-1.7-.15-2.54-.14-4.86.48-6.93,1.98.22-1.57-1.11-1.33-1.95-1.67-.07-.99-.14-1.97-.21-2.96.82-1.49,1.7-2.94,2.45-4.46.68-1.37,2.09-2.85.17-4.24-1.85-1.34-2.49.75-3.6,1.48-2.06,1.36-2.85,4.85-6.36,3.75-.19-.79-.78-1.19-1.49-1.46-.15-1.79-.31-3.58-.5-5.77-2.9,1.86-3.93,6.4-8.15,4.55-2.06-.9-1.62-2.91-1.55-4.66,1.85-2.87,5.2-1.11,8.48-2.38-2.37-.93-4.1-1.43-3.81-3.8.29-2.33,1.81-2.63,3.66-3.12,6.2-1.63,7.29-4.36,4.15-9.82-.27-.48-.49-.99-.81-1.44-1.85-2.63-1.54-4.88,1.17-6.68,1.54-1.02,2.39-2.29,1.69-4.16-1.05-2.84-2-5.79-4.71-7.55-1.23-.8-2.21-1.75-2.5-3.13-.51-2.39-1.79-3.82-4.15-4.55-1.68-.53-2.81-1.98-2.76-3.73.05-1.62,1.39-2.57,2.85-3.21.62-.28,1.8.21,1.7-1.48-1.73.01-3.34-.6-4.89-1.44-2.05-1.11-4.75-2.12-4.92-4.47-.18-2.45,3.35-1.56,4.86-3.36-2.39-1.25-5.05-1.76-6.91-3.64-1.16-1.18-2.68-2.45-2.07-4.2.66-1.89,2.7-2.1,4.5-2.36,2.01-.29,3.83,1.37,6.2.66-1.94-3.63-3.02-7.25-2.22-11.21.99-4.91,1.82-5.48,6.76-4.2v-7.44c.46-1.59.79-3.2.5-4.87,1.13-3.23,1.79-6.56,2.02-9.97.09-.55.18-1.09.26-1.64.86-.94,1.2-2.03.94-3.28.14-.6.29-1.19.43-1.79.85-.6,1.12-1.39.8-2.38.14-.54.27-1.07.41-1.61,1.57-2.21,1.94-4.84,2.66-7.35.78-.74,1.01-1.69,1.02-2.72,1.28-1.35,1.82-3.02,2.03-4.82.16-.32.32-.64.48-.95,1.77-2.16,2.82-4.67,3.6-7.32.18-.32.36-.64.53-.96,1.39-1.34,2.29-2.95,2.7-4.84l.31-.14s-.01-.34-.01-.34c.92-.35,1.31-1.05,1.32-2,.21-.32.42-.63.64-.95,2.2-2.88,4.57-5.65,6.12-8.97.62-.21.93-.66,1.02-1.29,1.07-.68,2-1.46,2.09-2.85l.33-.14.04-.35c1.68-.94,2.65-2.48,3.5-4.13-.07-.07-.14-.14-.21-.21.07.07.14.14.2.21.79-.37,1.37-.92,1.53-1.81,0,0-.04.04-.04.04,3.84-3.36,7.33-7.05,10.62-10.93.27-.27.53-.54.8-.82,2.06-.9,3.59-2.43,4.96-4.15h0c1-.06,1.63-.6,1.96-1.53.68-.06,1.11-.42,1.3-1.07,1.38-.2,2.25-1.09,2.98-2.17h.27s.09-.27.09-.27c1.43-.36,2.61-1.04,3.27-2.43l.02-.02c1.55-.24,2.73-1.05,3.64-2.3.68,0,1.14-.29,1.34-.95,4.68-2.5,9.37-4.99,14.05-7.49,1.68-.5,3.36-.98,4.7-2.21,1.74.09,3.16-.62,4.45-1.7,2.69-.9,5.37-1.8,8.06-2.7,1.72.21,3.28-.11,4.51-1.45.48-.1.96-.19,1.44-.29,1.7.39,3.08-.38,4.43-1.23.28-.05.57-.1.85-.16,1.01.43,1.86.22,2.57-.61.68-.13,1.37-.27,2.05-.4,1.07.5,1.95.29,2.66-.66,1.04-.11,2.08-.22,3.12-.33.57.49,1.09.45,1.57-.13,1.13-.18,2.26-.35,3.39-.53,2.2.46,4.36.42,6.47-.44.56-.09,1.12-.18,1.69-.27,1.15.58,2.29.7,3.42-.04.82,0,1.64-.01,2.46-.02,4.16.42,8.33.8,12.51.23,1.09.09,2.18.17,3.27.26,1.06.68,2.18.7,3.33.27,3.14.38,6.27.76,9.41,1.14,1.77,1.85-.42,1.85-1.17,2.52-1.67-.09-3.33-.11-4.93.48-1.72-.6-3.35-.22-4.97.41-1.1.12-2.2.25-3.3.37-13.77.87-26.44,5.8-38.33,12.09-23.83,12.6-42.31,30.9-54.44,55.2-4.62,9.24-8.56,18.77-10,29.12-.76.07-.88.31-.23.79-.2,1.1-.41,2.21-.61,3.31-.71.12-.92.37-.21.84-.56,1.36-1.09,2.73-.7,4.25-.85.42-.85.91-.13,1.47-.47.93-.63,1.9-.25,2.9l-.2,1.74c-.84,2.11-1.17,4.27-.62,6.52-.04.62-.09,1.23-.13,1.85-.85,1.05-2,2.35-.15,3.22,2.95,1.39,1.58,2.86.43,4.45-.76,1.05-2.44,1.34-2.56,2.86.86,1.16,3.5.05,3.07,2.06-.68,3.17-3.88,1.36-5.91,2.01.23.49.33.91.44.91,4.78.06,5.37,2.83,6.14,7.03.51,2.76.97,5.02-.04,7.58-.6,1.51.43,2.68,1.48,3,4.66,1.4,7.49,5.71,11.69,7.45,7.5,3.12,11.2,8.94,13.51,16.14.62,1.92,1.48,3.67,3.58,4.18,8.57,2.09,15.78,7.71,24.59,9.28,3.71.66,6.75,3.22,7.37,7.02.93,5.71,4.19,10.09,7.18,14.67.65.99,1.02,3.17,2.78,2.27,1.41-.73,2.21-2.47,1.73-4.28-.35-1.32-.95-2.51-.77-3.99.29-2.26,1-3.94,3.5-4.43,2.46-.48,4.3.09,5.44,2.52.37.78.04,2.73,1.8,1.92,1.12-.52.77-1.94.52-3.01-.18-.8-.64-1.56-.72-2.36-.29-2.73,1.1-4.39,3.56-5.35,2.21-.86,4.14-.58,5.35,1.54,1.22,2.15,1.6,4.43-.48,6.4-.78.74-1.64,1.38-2.81,2.34,4.67,1.22,6.74,3.97,6.05,8.51-1.17,1.87-5.37,1.11-4.75,3.47.95,3.57-.73,5.69-2.21,8.25-.5.87-1.21,2.14-.23,3.01.83.74,1.73-.34,2.6-.6,1.05-.31,2.07-.72,3.14-.91,1.01-.18,1.96.14,2.33,1.21.4,1.14-.49,1.64-1.21,2.31-1.42,1.33-3.38.37-4.83,1.01-.18,2.03,3.29,2.2,1.84,4.17-1.07,1.45-2.98.99-4.61.64-.37-.3-.76-.7-1.2-.13-.39.49-.06.91.25,1.3.64,3.8,4.28,5.8,7.81,4.38,2.28-.92,4.59-1.78,6.94-2.47,2.38-.69,4.44.18,4.35,2.77-.15,4.16,2.12,3.48,4.62,2.87,22.81,1.72,44.66-1.74,65.22-12.14.99.1,1.75-.26,2.27-1.11.65-.38,1.3-.76,1.96-1.14,1.01.08,1.75-.32,2.19-1.24,1.34-.46,2.63-1.02,3.6-2.12,1.01-.03,1.73-.48,2.08-1.45,1.42-.47,2.66-1.15,3.16-2.71,5.86-2,9.75-6.56,13.99-10.68,3.37-2.87,6.48-5.98,9.47-9.6-2.51-.97-4.35.07-6.3-.26-7.42-1.24-10.32-7.43-13.8-12.66-1.86-2.79-2.39-2.3-4.26-.39-4.72,4.81-9.53,9.57-16.02,12.04-2.74-.01-5.49-.02-8.23-.03h-.05c-.3.01-.41,0-.71-.03-4.35-.62-4.89-6.23-6.33-9.98-.07-.34-.14-.65-.22-1.07-.01-.97-.03-1.95-.04-2.92.94-2.36,1.45-4.79,1.47-8.31-4.55,5.18-8.46,9.71-12.46,14.16-4.62,5.14-9.33,10.15-16.33,12.13-6.72,1.9-8.96.74-10.96-5.9-2.32-7.68-.08-15.22.82-22.78,1.33-11.21,8.55-19.71,13.84-29.05,1.36-2.4,3.81-4.33,6.11-6,3.49-2.53,9.99-1.6,12.64,1.42,1.86,2.12.6,7.82-2.56,10.79-1.54,1.45-2.55,3.15-3.56,4.97-4.43,7.97-6.51,16.88-10.26,25.13-1.07,2.35-3.51,5.53-.91,7.43,2.5,1.82,5-1.17,6.97-2.98,6.4-5.92,11.27-13.13,16.63-19.94,4.04-5.14,6.35-11.59,11.87-15.59v-.03c.37-.26.74-.53,1.12-.79.46-.19.92-.39,1.38-.58,1.64-.09,3.28-.32,4.91-.26,6.13.22,8.04,3.08,5.84,8.77-3.14,8.07-5.36,16.44-7.87,24.7-.47,1.55-.74,3.09-.05,5.19,3.42-2.68,6.67-4.93,9.57-7.58,4.32-3.93,6.91-8.56,8.32-14.63.09-.39.14-.53.24-1.05.06-.3.19-.73.22-.85,1.55-2.48,2.04-5.31,2.6-8.11.35-.73.7-1.46,1.05-2.19.25-.37.5-.73.75-1.1v.03c4.67-2.35,9.38-3.85,14.47-1.04,1.04.57,2.38.58,3.58.85l.05.05c1.96,2.78.08,4.87-1.27,7.05l-.1.09c-1.18.55-1.89,1.42-1.86,2.78l-.1.26c-.14.08-.28.16-.42.25.05.08.11.15.16.23-.24.58-.47,1.17-.71,1.75-1.65,2.2-2.22,4.85-3.04,7.39-.12.24-.23.47-.35.71-1.93,2.15-2.28,4.91-2.91,7.56-.08.34-.15.69-.23,1.03-.78,2.25-2.52,4.47-.26,6.83-.04.3.09.49.38.58,1.32,1.42,2.54,1.07,3.7-.21l.2.06.05-.21c1.9-.54,3.43-1.65,4.73-3.11l.23.05.05-.23c.93.01,1.47-.53,1.84-1.31.22-.13.44-.26.65-.4,1.74-.45,3-1.49,3.86-3.04l.26-.02.04-.25c.44.1.62-.09.57-.53l.23-.03v-.24c.92-.43,1.38-1.17,1.47-2.16l.37-.8c.75-.34,1.24-.85,1.17-1.74.13-.26.26-.53.4-.79,1.16-.39,1.49-1.34,1.61-2.42l.06-.08c.47-.08.64-.35.52-.81l.22-.05-.03-.23c.44.03.61-.16.46-.59l.29-.12.02-.31c.9-.29,1.02-1.08,1.2-1.84.22-.29.44-.58.67-.87.19-.33.38-.67.57-1l.08-.1c.51.01.67-.28.65-.74l.17-.24c1.3-.95,2.18-2.17,2.42-3.8.28-.05.39-.22.35-.49.99-.7,1.82-1.51,1.86-2.83.17-.29.34-.58.51-.86.46-.09.57-.37.46-.79l.22-.15-.02-.27.28-.05-.1-.24c.5-.47.95-1.01,1.52-1.38,5.26-3.46,10.46-7.74,17.29-5.15,3.9,1.48,7.81,3.46,10.45,6.99,1.85,2.47,2.87,2.55,3.97-.61,6.84-19.57,14.38-38.86,23.81-57.37.78-1.47,2.32-3.82,2.32-3.82l1.78-2.27,2.72-3.24.73-.73,4.44-4.59,1.81-.97s13.31-3.07,19.97-.03c.31.2.53.38.53.38l1.84,1.58-.02-.02,1.52,1.94s.1.18.23.48c.92,3.26,1.29,6.6,1.44,9.98-.55.77-.59,1.61-.38,2.49-.21.76-.42,1.52-.63,2.28-5.53,14.82-14.11,27.76-23.99,40.03-6.16,7.65-12.67,15.06-17.96,23.38-.27.36-.53.73-.8,1.09l.05-.05c-.26.31-.53.62-.79.94l.03-.03c-.52.07-.77.37-.78.88-.25.36-.51.72-.76,1.07-.98.41-1.38,1.22-1.49,2.22-.31.09-.43.29-.36.61-.16.36-.33.71-.49,1.07l-.21.14.07.24c-1.6,2.08-1.97,4.51-1.99,7.03-.58,2.77-1.19,5.53-1.12,8.38-.42,1-.75,2.01-.46,3.12-1.02,1.88-1.21,3.91-1.05,6-.79,1.24-.94,2.59-.65,4.01-.63,1.66-.61,3.38-.4,5.11-.86,1.69-.59,3.54-.42,5.26.26,2.65-1.34,6.64,2.14,7.5,3.44.85,4.69-3,6.22-5.52l.07-.07c.76-.18,1.06-.73,1.15-1.44.21-.27.41-.54.62-.81.82-.32,1.34-.87,1.34-1.8l.25-.05-.02-.25c.41.07.57-.06.38-.47.19-.22.37-.43.56-.65l-.02.16c.32-.52.64-1.04.96-1.56.5-.25.77-.63.66-1.21.28-.3.56-.6.84-.91.57.05.76-.28.79-.78.26-.36.52-.72.79-1.07.39-.01.57-.15.34-.55.21-.22.42-.44.63-.67l.08.08-.09.02c.29-.51.58-1.03.87-1.54.27-.4.54-.8.81-1.2.88-.47,1.42-1.2,1.58-2.19l.19.06s-.14-.11-.14-.11c.34-.43.69-.86,1.03-1.3.59-.3,1.03-.72,1.09-1.42.31-.07.44-.27.38-.58.27-.35.53-.71.8-1.06,6.24-7.67,11.76-15.9,18.45-23.22,2.77-3.03,6.03-5.77,7.53-9.73,3.06-8.06,9.28-13.09,16.28-17.38,7.9-4.84,14.84-2.79,19.05,5.55q3.15,6.24,8.93,2.65c5.23-3.25,8.66-3.09,12.74.58,3.17,2.85,3.66,5.79.49,11.14-4.32,7.28-6.26,15.18-7.71,23.34-.91,5.15-1.84,10.28-1.95,15.52-.03,1.26.09,2.62,1.41,3.19,1.24.54,2.02-.63,2.82-1.28,2.8-2.26,5.14-4.95,7.25-7.87,5.8-8.03,11.33-16.25,16.57-24.65,2.09-3.34,5.71-6.22,6.76-9.45,1.03-3.16-2.01-7.47-2.62-11.37-3.52-22.43-14.95-39.26-34.96-50.16-1.27-.69-2.92-1.24-2.34-3.3l1.13-.7,1.26-.55,3.89-1.75,2.75-.99s2.44-.24,3.15-.41c7.99-1.97,23.59,1.1,23.59,1.1l2.18.75,2.08.8,2.05.88s2.05,1,3.07,1.5c1.74,2.04,4.25,2.86,6.5,4.07,1.84.99,3.83,3.99,5.3,2.78,1.7-1.4-.85-3.82-1.54-5.79-.26-.75-.88-1.54-.2-2.28.7-.76,1.53-.17,2.22.16,4.43,2.11,8.84,4.26,13.26,6.4.07.29.25.43.54.43l.09.32.29-.11c.34.2.68.39,1.02.59.47.97,1.2,1.56,2.31,1.6l.18.11c.05.44.3.55.69.41.04.27.19.38.46.33-.11.39.03.52.42.41.06.31.25.48.57.49l-.06.21.2-.1c.26.23.52.47.78.7-.05.02-.11.01-.16,0,.59.32,1.17.64,1.76.96.33.23.66.45,1,.68,0,0,.04.03.04.03.26.26.52.51.78.77,0,0,.08.07.08.07.03.47.27.68.74.6.36.34.73.69,1.09,1.03.42,1.18,1.33,1.85,2.42,2.34.28.28.56.56.84.84.28.23.55.46.83.69.99,1.13,1.94,2.3,2.98,3.39,10.47,10.97,17.72,24.07,24.65,37.37.68,1.3.6,3.47,2.27,3.63,1.96.19,2.81-1.82,3.85-3.27,1.14-1.59,1.13-5.04,3.29-4.55,2.01.45,1.54,3.72,1.81,5.82,2.02,15.77,1.24,31.26-4.82,46.19-.24.55-.48,1.09-.73,1.63-.51.61-1.08,1.18-1.51,1.84-3.26,5-7.36,9.12-12.5,12.18-1.27.75-2.66,2.02-4.09,1.15-1.32-.81-.51-2.49-.47-3.81.12-3.24.73-6.5-.35-9.7.08-1.22.3-2.44.23-3.65-.71-12.13-4.27-23.36-9.58-34.33-4.31-8.89-9.4-16.84-17.07-23.07-1.58-1.83-3.12-3.7-4.77-5.47-.48-.52-1.1-1.54-1.99-.86-.8.61-.33,1.45.21,2.13,1.69,2.12,3.38,4.25,5.06,6.37.54,1.06.97,2.19,1.64,3.16,8.79,12.59,15.36,26.13,18.48,41.29.99,4.82.51,9.86,2.4,14.52-.58,12.53.18,24.93,4.81,36.73,1.97,5.03,4.12,10.11,8.19,13.98.34.45.68.89,1.01,1.34.17.51.29,1.04.51,1.53.91,2.04,1.37,4.06-1.11,5.28-2.55,1.25-4.14-.17-5.33-2.3-1.8-3.23-3.53-6.49-5.44-9.66-3.93-6.55-5.37-13.93-7.19-21.19-.11-1.4-.21-2.81-.32-4.21.38-1.32.83-2.65-.85-3.46,0,0,.02.02.02.02-2.06-2.23-4.86-3.01-7.6-3.93M211.8,387.34c-2.26-1.84-4.58-3.21-7.36-.92-5.19,2.1-8.51,8.63-6.84,13.66,1.23,3.68,3.78,6,7.69,6.6,3.57.55,6.52-.68,8.75-3.45,1.16-1.44,2.03-3.58.71-4.87-1.16-1.14-2.13,1.08-3.22,1.74-2.34,1.44-4.76,2.46-7.3.78-2.44-1.62-4.45-3.61-3.9-7.03.42-2.57,2.92-3.43,4.12-5.33,2.24-.31,4.47-1.41,6.71-.03.5.99.35,2.41,1.99,2.87.8-1.85.24-3.09-1.37-4ZM250.73,386.98c-1.17-1.28,1.84-1.61.59-2.97-1.56.4-2.82,1.09-3.03,2.9.87.57,1.66-1.19,2.45.07.65.43.35.85,0,1.3-.52.67-2.02.83-1.32,2.12.65,1.21,1.92.92,2.94.68,2.37-.55,4.5-1.62,6.43-3.21-1.51-1.76-2.93-1.18-4.42-.87-1.18.25-2.45,1.61-3.65,0ZM164.72,322.48c2.8,2.27,4.63,1.66,5.83-2.05-2.24.06-3.48,2.83-5.89,2.11-.85-2.17,2.49-1.76,2.2-3.58-7.57.51-11,2.75-11.4,7.46,1.66.07,2.61-1.35,3.99-1.87,1.77-.66,2.85-3.07,5.27-2.06ZM144.12,395.24l-.07-.09c1.31,1.59-1.77,2.36-.57,4.2,5.41-.68,9.7-3.44,13.11-7.66.62-.77,2.52-1.79,1.01-2.87-1.03-.73-2.68-1.73-4.38-.16-1.7,1.58-3.84,2.69-6.41,4.42.47-3.04,2.54-4.2,3.11-6.14l.08-.12-.11.11c-3,1.29-4.89,3.69-6.51,6.4-.65,1.08-.55,1.68.75,1.91ZM226.76,386.41c-.79-2.42-1.2-4.99-3.86-6.36-3.88-2.01-7.7-4.15-11.5-6.3-2.25-1.27-4.44-1.27-6.6.09-.95.6-1.94,1.31-.36,2.43,3.87,2.72,7.19,6.39,12.24,7.06,3.37.45,5.59,2.64,7.64,5.07-.16,1.39.7,2.32,1.23,3.65,1.06-1.3,1.66-2.3,1.11-3.61.46-.64.47-1.3.11-1.98l.14.03-.16-.08ZM194.68,388.55c2.35-3.38,5.64-5.7,9.73-7.61-6.17-2.59-12.75.98-15.29,7.62-4.87,6.87-4.12,13.74,2.24,20.31,3,3.1,9.64,4.33,12.77,2.36-10.49-7.39-12.05-11.14-9.44-22.68ZM230.18,385.3c-.96,5.8-2.55,11.28-5.53,16.52-2.44,4.28-5.54,8.46-6.09,13.66-.33,3.05.97,3.75,3.61,2.57,2.62-1.17,4.51-3.17,5.75-5.66,2.88-5.76,5.76-11.52,8.32-17.42,1.27-2.93,2.52-6.08,1.17-9.43.41-3.11-1.18-5.51-2.88-7.82-2.32-3.15-5.38-4.62-9.28-3.4-1.9.6-3.16,1.84-.65,3.24,3.14,1.75,4.51,4.58,5.57,7.73ZM183.52,388.5c2.16-2.97,3.76-6.5,7.03-8.44,4.41-2.61,8.16-6.05,12.15-9.19.82-.64,2.28-1.16,1.83-2.43-.52-1.48-2.17-1.71-3.52-1.6-3.34.26-5.81,2.41-8.18,4.47-3.38,2.94-7,5.32-11.47,6.13-5.14.94-7.68,4.22-8.43,9.17-2.77,5.19-1.07,10.17,1.16,14.85,1.26,2.64,4.08,3.98,7.13,4.16,2.05.12,3.24-.77,2.46-2.98-1.66-4.71-1-9.42-.17-14.15ZM498.65,272.76c.14-1.06.41-2.13.4-3.18-.03-2.1-.36-4.25-2.53-5.19-2.21-.96-3.46.85-4.82,2.16-1.38,1.33-2.76,2.64-3.27,4.58-.4.55-.84,1.07-1.19,1.65-8.2,13.43-13.52,28.1-18.46,42.94-1.63,4.89-3.37,9.75-5.23,15.14.93-.49,1.36-.58,1.58-.85,10.32-12.38,19.49-25.56,27.11-39.77,2.95-5.49,6.06-11,6.41-17.48ZM412.62,375.3c.29,2.1-.44,3.99,1.26,5.09,1.91,1.23,3.65-.11,4.86-1.15,9.87-8.45,21.64-15.33,22.55-30.7.34-5.8-.87-10.26-4.87-14.09-3.06-2.93-5.36-2.84-7.9.62-2.02,2.75-3.62,5.83-5.2,8.88-5.22,10.06-9.18,20.55-10.69,31.36ZM511.31,365.46c0,1.26-.74,3.01.81,3.68,1.76.75,2.68-.97,3.63-2.06,5.6-6.44,10.33-13.56,15.55-20.29,4.35-5.61,6.54-11.29,3.18-18.12-.24-.48-.24-1.07-.35-1.61-.95-4.39-2.93-4.96-6.54-2.24-3.4,2.57-4.66,6.38-6.41,9.92-4.82,9.73-9.72,19.45-9.86,30.71ZM189.19,421.85c4.06-.16,7.79.67,11.45,2.65,5.91,3.21,11.77,1.33,13.34-3.88.77-2.54.5-4.24-2.73-4.48-2.33-.18-4.62-.41-6.97-.3-4.69.22-9.09-.36-12.79-3.95-1.67-1.62-4.03-2.87-6.61-2.94-1.51-.04-3.07.05-3.67,1.92-1.83,5.71,2.21,11.3,7.99,10.98ZM227.88,419.97c-4.32.37-8.42.61-11.34,4.18-4.78,5.84-8.82,7.34-15.5,3.8-6.69-3.54-13.56-1.99-20.5-2.41,7.22,6,16.06,8.95,24.98,8.71,9.58-.26,15.98-7.8,22.36-14.28ZM151.69,348.1c1.15-1.15,2.19-1.98,2.97-3.01,4.05-5.41,5.35-5.82,11.78-3.51,6.13,2.2,12.18,4.55,17.06,9.81.91-7.02-.79-10.38-6.18-12.71-2.89-1.24-5.88-2.29-8.89-3.21-10.33-3.18-16.14,1.09-16.73,12.63ZM231.58,370.55c-1.9-2.89-3.99-3.94-6.46-4.54-6.18-1.49-11.99-3.89-17.48-7.11-4.66-2.73-7.88-1.84-10.74,2.75-.36.57-.91,1.15-.5,1.86.42.72,1.22.52,1.84.37,4.5-1.1,7.7,1.06,10.48,4.18,1.96,2.19,4.46,3.56,7.02,4.81.89.43,1.85,1,2.99.22,3.67-2.49,7.84-2.96,12.85-2.54ZM190.11,362.64c-10.27,1.6-17.74,6.35-22.03,15.56-2.12,4.56-3.98,9.23-.67,14.79,1.28-2.88,1.33-5.21,1.72-7.47.88-5.05,3.01-9.46,8.49-10.48,6.77-1.25,10.46-5.29,12.48-12.41ZM177.5,416.05c.89-4.62-.54-7.48-2.95-9.91-1.94-1.96-3.54-4.14-5.1-6.4-.92-1.33-1.67-3.94-3.62-3.13-1.59.66-.1,2.99-.24,4.57-.07.81,0,1.66.16,2.46.8,4.03,1.32,8.15,2.6,12.03,1.07,3.24,3.89,5.14,7.42,4.68,3.47-.45,1.42-3.52,1.73-4.3ZM265.52,433.92c5.31-3.66,9.19-8.32,10.39-14.89.63-3.47-.09-4.35-3.58-3.37-6.03,1.7-9.93,5.86-11.56,11.79-.67,2.43-3.37,4.98-.55,7.98,2.66-3.33,5.23-6.55,8.32-10.42.75,4.33-2.75,5.88-3.02,8.91ZM294.63,431.75c.12.34.25.68.37,1.02-4.08,1.67-8.15,3.33-12.23,5,6.88,2.69,12.5-.45,18.04-3.05.77-.36,5.92-2.79,1.82-5.73-6.65-4.75-18.43-1.3-22.13,6.63,4.94-1.35,9.53-2.61,14.13-3.87ZM148.19,352.65c-.32-1.57.4-3.92-1.39-4.41-2.12-.59-3.88,1.09-4.98,2.92-.53.89-.93,2.14-.77,3.13.89,5.7,1.29,11.52,3.34,16.96,1.77,4.69,6.38,7.07,10.92,5.93,1.59-.4,3.69-.93,3.62-2.73-.07-1.82-2.28-1.49-3.7-1.75-6.73-1.24-8.68-3.44-8.42-10.29.12-3.27.91-6.51,1.39-9.76ZM192.15,350.37c1.79-5.8.45-9.34-3.73-11.72-3.71-2.11-7.32-4.33-10.56-7.12-2.1-1.81-4.51-3.14-7.11-4.07-5.11-1.83-9.36-.51-11.7,3.78,15.06-1.36,25.51,5.7,33.09,19.13ZM239.41,433.26c2.24-2.56,3.94-4.47,5.6-6.41,1.63-1.89,2.99-4.06,5.71-5.45-.13,4.76-4.09,6.72-6.25,10.05,5.53-.87,12.83-10.24,12.19-15.03-.2-1.49-1.08-1.68-2.27-1.75-7.67-.43-16.34,9.62-14.99,18.59ZM226.1,437.73c1.14,4.21,4.13,7.45,3.54,11.71-1.92-.86-1.92-2.58-2.63-3.83-1.41-2.5-2.68-5.08-4.09-7.58-.39-.68-1.03-1.47-1.93-1.21-.97.27-.91,1.27-.84,2.08.69,7.78,3.87,14.18,10.46,18.68,1.32.9,2.19.75,2.94-.72,2.45-4.75-.54-15.82-7.44-19.12ZM137.11,356.7c-.66-6.88,2.45-10.99,8.87-13.05,1.83-.59,3.32-2.09,3.87-4.02.65-2.26,3-4.21,1.94-6.69-.54-1.27-6.83,1.27-8.56,3.54-2.16,2.83-4.41,5.61-6.29,8.62-2.33,3.72-2.6,7.65.17,11.61ZM242.2,440.88c-.9,8.46,6.9,16.87,12.78,19.01,2.74,1,2.86-1.21,2.56-2.7-.84-4.19-1.48-8.57-4.06-12.12-1.64-2.26-3.42-4.88-7.41-4.2,2.36,4.17,6.4,7.07,6.05,12.32-3.1-3.85-6.2-7.7-9.92-12.32ZM275.25,455.22c-3-3.21-5.75-6.19-8.54-9.12-.62-.65-1.26-1.84-2.31-1.22-1.16.69-.7,2.03-.25,2.96,1.57,3.21,3.57,6.21,6.54,8.23,2.57,1.75,5.71,5.92,8.12,3.82,2.92-2.53.75-7.22-.91-10.56-2.09-4.19-5.54-7.01-11.47-8.1,3.56,5.05,8.7,7.78,8.83,13.99ZM156.04,384.37c1.61-.19,3.87.36,4.1-1.31.28-2.06-2.1-2.07-3.62-2.37-1.06-.21-2.19-.02-3.29-.06-7.21-.29-12.34-4.91-13.31-12.05-.2-1.5-.27-3.02-1.1-4.35-.54-.86-1.3-1.52-2.36-1.34-.97.17-1.04,1.11-1.26,1.91-.84,3.02-.02,5.71,1.65,8.19,4.63,6.87,11.67,9.66,19.19,11.38ZM157.74,429.4c.44-2.91-.95-3.75-3.27-2.87-4.18,1.6-5.27,7.57-2.07,10.69,2.15,2.09,4.61,2.31,7.23,1.14,2.99-1.33,3.27-4.12,3.34-6.87.03-1.31.11-2.75-1.47-3.55-1.7-.86-2.32.86-3.76,1.45ZM177.3,429.77c-.08-2.95-4.21-6.83-7.46-7.03-.52-.03-4.59,6.57-4.52,7.33.28,2.91,3.7,6.28,6.27,6.17,2.98-.13,5.79-3.31,5.7-6.48ZM240.24,394.94c-1.44,2.92-2.25,5.02-3.43,6.89-3.19,5.05-5.17,10.45-5.49,16.44-.05.92-.65,2.07.44,2.61,1.28.63,1.9-.66,2.68-1.35,3.6-3.2,3.85-7.79,4.84-12.02.87-3.75,2.44-7.5.96-12.56ZM206.57,438.14c-2.21-.24-3.8.52-4.45,3.03-1.24,4.78-2.67,9.52-3.99,14.28-.17.63-.42,1.41.42,1.79.81.37,1.24-.33,1.7-.8,4.24-4.27,7.24-9.28,9.1-15.02.87-2.68-.03-3.6-2.78-3.28ZM211.03,410.9c10.73-1.09,14.25-15.06,10.03-21.75-.5-.8-1.26-1.73-2.29-1.37-1.31.45-.58,1.69-.43,2.51,1.45,7.8.43,14.82-7.31,20.61ZM161.18,368.22c-7.67-4.13-5.66-11.34-6.44-18.19-3.2,3.04-3.39,6.28-4.12,9.29-1.92,7.9,1.02,10.75,10.55,8.91ZM159.96,412.76c.57-1.84,2.57.48,3.63-.83.87-1.09-1.85-10.02-3.09-10.58-.35-.16-.79-.16-1.19-.15-2.88.05-4.98,2.55-4.98,5.91,0,3.78,1.75,5.72,5.63,5.66ZM165.45,364.9c.93-.06,2.38.14,2.76-1.01.58-1.78-1.32-1.74-2.27-2.15-1.98-.86-2.99-2.27-2.04-4.2.69-1.42,2.32-2.83,3.93-1.44,1.33,1.15,1.47-.03,1.48-.51.04-2.33-1.1-4.05-3.47-4.36-2.84-.37-6.05,3.66-6.26,7.57-.19,3.58,2.13,6.07,5.87,6.1ZM174.21,357.95c3.38-3.59,3.74-7.7.39-9.36-3.89-1.92-8.18-3.05-12.32-4.43-1.21-.4-2.16.34-2.68,1.41-.27.57-.54,1.52-.26,1.91.78,1.08,1.71.04,2.58-.14,6.22-1.3,7.71-.49,9.98,5.42.68,1.76.9,3.74,2.32,5.19ZM256.14,403.79c1.93-4.49,1.58-5.79-1.24-8.84-2.25-2.44-5.05-1.99-7.65-1.52-1.94.35-1.59,2.62-1.92,4.16-.16.75-.35,1.96.85,1.83,3.11-.33,2.51,1.56,2.24,3.36-.14.88-.02,1.67,1,1.93.92.23,1.65-.21,2.1-.94.41-.68.75-1.47.87-2.25.19-1.28.38-2.75,1.92-2.68,2.21.1,1.14,2,1.34,3.2.07.39.21.76.5,1.76ZM186.98,445.97c3.7-.52,7.19-2.58,10.2-5.49.93-.9,2.67-1.88,1.78-3.28-1.02-1.6-3.29-1.88-4.81-1.08-3.46,1.83-6.23,4.64-8.83,7.56-.4.45-.73,1.28-.6,1.81.18.73,1.04.7,2.26.48ZM154.57,311.88c-4.83,4.87-4.44,11.34-8.06,16.39,6.45-1.49,8.75-6.23,8.06-16.39ZM174,364.39c1.7.21,2.55-.52,3.49-1.02,2.09-1.11,4.05-2.39,4.79-4.8.38-1.23.29-2.65-.9-3.33-1.43-.82-1.78.74-2.34,1.56-1.62,2.36-3.17,4.77-5.03,7.59ZM130.81,293.67c-.42.1-1.49.03-1.9.53-.76.9.21,1.91.74,2.5,1.7,1.9,3.78,3.38,5.98,4.7,1.31.79,2.19.32,2.38-.89.22-1.41-5.36-6.77-7.19-6.84ZM226.84,431.63c7.62,3.26,9.18,2.63,9.66-3.14.17-2.1-.51-2.64-2.26-1.59-2.33,1.39-4.58,2.92-7.4,4.73ZM145.07,326.28c2.35-4.09,4.11-8.4,5.2-13.62-4.6,3.91-5.74,8.45-5.2,13.62ZM136.57,338.27c3.49-2.54,3.98-5.14,3.63-8.01-.08-.62-.37-1.54-.82-1.73-.94-.41-1.28.66-1.88,1.18-2.89,2.5.21,5.27-.94,8.56ZM123.08,310.92c.82-1.35,1.36-2.84,1.22-4.53-.11-1.35-.17-2.9-1.64-3.47-1.39-.53-2.41.54-2.96,1.63-.72,1.41-.3,4.05.51,3.98,2.2-.19,1.14,2.45,2.87,2.38ZM187.82,349.7c-.85,3.01-1.49,5.14-2.04,7.29-.24.95-.3,1.97,1.08,2.12,1.19.13,2.35-.16,2.31-1.57-.07-2.32.23-4.76-1.35-7.84ZM131.88,329.7q3.55-1.84,4.08-7.82c-5.06.76-3.78,4.69-4.08,7.82ZM116.15,318.93c.59-1.31,2.29-.21,2.59-1.77-.73-.33-1.32-.67-1.96-.87-1.73-.54-3.94-1.12-4.77.76-1.06,2.4,1.89,2.45,3.09,3.42.81.65,2.13,1.26,3.77.45-.95-.69-1.74-1.27-2.72-1.99ZM127.63,320.09c3.12-.24,4.57-2.06,5.15-4.72.23-1.06.76-2.75-1.08-2.84-1.34-.07-3.29,1.16-2.82,2.27.94,2.22-1.23,3.17-1.26,5.29ZM146.6,288.54c2.48,1.05,4.18.63,5.69-.36,1.14-.74,2.68-2.05,1.93-3.25-1.08-1.76-2.35.18-3.42.73-1.32.68-2.48,1.67-4.21,2.88ZM150.56,408.22c2.54-3.6,3.68-6.84,4.45-10.55-4.08,1.91-5.39,4.87-4.45,10.55ZM244.37,415.12c2.57-2.2,2.38-4.38,1.2-6.61-.46-.87-1.16-1.49-2.35-.82-1.23.7-.4,1.34-.01,1.91,1.05,1.55.4,3.45,1.16,5.51ZM159.06,399.32c1.18-.45,2.36-1.09,3.04-2.35.7-1.29,1.63-2.59,1.04-4.17-.29-.79-1.08-.97-1.57-.31-1.2,1.6-2.32,3.26-3.31,4.99-.34.59-.67,1.62.81,1.84ZM129.8,340.52c-1.41-1.61-3.38-1.01-4.99-1.7.14-.91,2.6-1.39.69-2.46-.63-.36-2.16.4-3,1.02-.62.46-.32,1.24.35,2.03,2.07,2.42,4.29,2.41,6.94,1.1ZM199.91,441.79c-3.8,2.01-4.63,5.34-1.94,8.95.52-3.21,1.99-5.82,1.94-8.95ZM138.42,285.67c-.02-1.72-3.55-5.77-4.91-5.7-1.1.06-1.34.83-1.15,1.71.54,2.57,2.04,4.42,4.54,5.27.95.32,1.27-.62,1.53-1.28ZM193.73,356.8c3.22-1.08,4.64-2.89,2.12-6.24-.78,2.31-1.45,4.28-2.12,6.24ZM146.41,300.81c2.61.67,4.71-.13,6.46-1.97.36-.38.03-1.13-.54-1.3-2.48-.77-4.03.84-5.61,2.31-.16.15-.16.48-.31.96ZM168.45,368.94c-1.79.92-3,1.49-4.16,2.16-.73.42-2.03.77-.9,2,.71.77,1.6,1.05,2.42.08.94-1.11,2.07-2.1,2.64-4.24ZM140.04,321.17c-1.4.07-1.5,1.06-1.47,2.01.03,1.3-.29,2.89,1.44,3.35,1.14.31,1.79-.52,1.78-1.62-.01-1.5-.28-2.94-1.75-3.75ZM253.92,410.68c-.84-1.64-2.11-3-3.85-3.85-.49-.24-1.34.06-1.1.66.73,1.91,1.99,3.49,3.98,4.24.45.17,1.04-.21.98-1.05ZM124.6,331.17c-6.34-3.88-6.85-4.06-8.82-3.17,2.48,1.57,4.73,3.75,8.82,3.17ZM159.41,309.92c-.51-1.78-.91-3.27-1.36-4.74-.23-.75-.78-1.2-1.51-.7-.38.26-.54.86-.79,1.3,1.62.86,1.02,3.62,3.66,4.14ZM146.86,385.04c-2.12-.61-3.66-1.35-5.79-.55,1.91,1.89,3.41,2.33,5.79.55ZM162.95,304.81c-.28-2.31.38-3.89-1.04-4.95-.12-.09-.95.45-1.14.84-.91,1.89.94,2.39,2.18,4.11ZM208.79,394.51c.08-.9.35-2.19-1.09-1.95-1.53.25-2.71,1.32-2.77,3.05-.05,1.39.75,2.56,2.12,2.44,2.17-.19,1.39-2.2,1.73-3.54ZM131.11,347.98c1.05-1.4,1.9-2.61.94-3.91-.54-.73-1.76-.28-2.19.24-1.2,1.46.11,2.37,1.25,3.67ZM124.21,317.18c.67-1.16,1.88-2.17,1.17-3.66-.1-.22-.87-.4-.94-.31-.9,1.19-.47,2.58-.23,3.97ZM159.45,311.26c-.43-.02-.86.04-.82.59.02.23.24.49.44.65.49.39.74-.05.89-.38.2-.44-.03-.75-.5-.85ZM162.27,419.33c-.69-.06-.77.53-.76,1.04.01.36.22.93.46,1.01.56.18,1-.14,1.05-.8.04-.55,0-1.06-.75-1.25Z"/>
    <path class="st3" d="M615.74,206.54c2.95,4.32,2.96,13.76,2.67,16.78,0,13.77-.01,27.53-.02,41.3.09.76.18,1.51.27,2.27,2.99,2.92,7.1,4.38,9.86,7.6,4.17,2.66,8.21,5.48,10.8,9.87,0,0-.05-.03-.05-.03,3.34,2.54,6.63,5.12,9.22,8.48.89,1.16,1.91,2.2,2.98.11-.5-.45-.42-.91-.02-1.38-.44-1.4-.44-2.8,0-4.21-.55-2.99,0-5.94,0-8.98,0-.91.09-1.2.14-2.16.08-1.6-.42-2.98-.41-4.47.07-16.79.18-33.59.26-50.38.05-12.2,5.1-18.26,17.1-20.35,6.52-1.13,12.92-.5,19.08,1.87,6.24,2.39,10.52,6.81,12.99,13.04,1.32,3.32,2.8,6.58,4.29,9.83,1.48,3.24,4.18,4.9,7.62,4.44,3.7-.5,5.67-2.9,5.87-6.82.59-11.69-.56-23.04-5.32-33.91-2.23-5.1-5.87-7.26-11.28-7.24-44.88.14-89.76.22-134.64.33-7.2.02-9.46,1.58-11.94,8.36-3.84,10.52-4.5,21.5-4.3,32.54.08,4.67,4.17,7.15,9.61,6.2,1.2-.21,2.35-.74,3.52-1.12.31-.34.61-.68.92-1.03,1.04-3.67,2.15-7.33,3.11-11.03,2.32-9.02,8.06-14.32,17.15-16.2,7.4-1.53,14.74-1.43,21.95.8,0,0,7.12,3.34,8.59,5.49Z"/>
    <path class="st6" d="M707.51,271.14c-.6,1.43-.74,2.88-.21,4.47,4.16-3.53,2.7,1.54,3.96,2.49-.2,1.49-.46,2.97-.59,4.46-.91,9.99-4.62,18.94-10.51,26.91-2.1,2.84-4.1,4.78,2.11,5.51-7.23,6.41-14.64,10-23.57,10.07-2.5.02-4.96-.33-7.16-1.6-2.14-1.24-3.05-2.51.03-3.84,3.31-1.43,6.26-3.53,8.88-5.94,5.29-4.86,10-10.19,11.66-17.71-.56.05-.76.01-.83.09-.33.38-.67.77-.94,1.2-5.5,8.73-12.13,16.27-21.49,21.08-2.06,1.06-3.87,1.54-4.09-1.48-.44-5.9-.56-11.82.96-17.63.49-1.86,1.21-2.48,2.61-.63,1.13,1.51,2.21,1.19,2.56-.48,1.19-5.65,4.42-10.28,7.28-15.1v-.02c.27-.3.55-.6.83-.9,0,0-.03.03-.03.03.28-.27.57-.55.85-.82,0,0,0,0,0,0,.28-.26.57-.52.85-.79q.33-.35.73-.97c.78-.63,1.55-1.27,2.33-1.9,0,0,5.33-4.06,8.32-7.52,2.99-3.46,4.15-11.49,4.15-11.49.74-2.54-.27-5.46,1.65-7.74,0,0,5.92,6.4,7.3,9.5,1.38,3.1,2.35,10.76,2.35,10.76Z"/>
    <path class="st6" d="M689.49,272.7"/>
    <path class="st1" d="M29.24,388.61c-.8-.04-1.6-.08-2.4-.12-2.04-3.42-5.76-.36-8.25-1.97.76-1.57,2.94-.62,3.68-2.06-1.16-1.57-3.18-.06-4.15-1.63.7-1.24,2.88-.47,3.04-2.3,1.53-.14,2.2-2.29,4.03-1.72,3.15-.05,6.36.26,9.43-.29,2-.35,4.61.47,5.22-3.83,1.1-7.74-.62-11.07-8.44-10.82-7.54.24-14.8-1.39-22.14-2.53.06-.29.12-.57.18-.86,6.55.48,12.79-1.58,19.48-2.02-.96-1.7-2.19-1.01-3.15-1.25-.94-.23-2.27.53-2.81-1.35,7.88-2.42,16.52-1.87,24.09-6.37-8.24-4.44-17.23-.75-25.75-2.67.85-2.31,2.39-2.87,4.5-2.89,2.59-.02,5.23.42,7.76-.51.85-.31,2.15-.3,2.05-1.6-.11-1.32-1.34-1.14-2.26-1.14-3.57-.02-7.14,0-10.71.02-1.32-.16-2.64-.09-3.69-1.32-1.45-1.7-2.14-2.97.75-3.69,2.09-.52,3.98-1.84,6.26-1.64,4.44.74,8.71-1.27,13.13-.86-.02,1.62.55,2.64,2.4,2.51,3.55-.25,6.92.28,10.3,1.56,1.61.61,2.5.87,1.77,2.69-.84,2.1-.26,3.43,1.81,4.65,3.17,1.87,4.02,4.67,2.74,8.37-1.19,3.46-3.4,6.21-5.24,9.23-.54.89-2.07,2.64-.33,2.96,2.06.39,3.51,2.05,5.67,2.01,1.35-.02,3.47-.84,3.83,1.23.34,1.93,1.33,4.4-1.61,5.66-.82.35-1.72,1.89-1,2.32,3.53,2.1.51,3.24-.59,4.41-1.92,2.04-2.09,3.56.38,5.34,1.37.98,3.01,2.07,3,4.18-4.35,0-8.7.02-13.05.03-6.64-.53-13.15-2.69-19.92-1.72Z"/>
    <path class="st1" d="M26,324.24c.53-.04,1.06-.08,1.59-.12,1.17-.08,3.03.47,3.07-1.16.11-5.09,4.45-4.14,7.22-5.39.78-.35,1.96.33,2.7-1.34-4.14-2.03-8.54-3.1-13-3.58-3.67-.4-7.42-.12-11.13-.16-.85,0-1.7-.15-1.94-1.15-.26-1.1.24-1.85,1.24-2.31,2.03-.92,4.13-1.3,6.38-1.38,7.8-.27,15.63.55,23.42-.88,3.09-.57,5.78-2.63,8.98-2.44,4.11.24,7.94-.63,11.82-2.35-3.38-.45-6.59-.88-9.8-1.3,3.37-.54,6.73-.52,10.1-.55,1.09,0,2.51,0,2.61-1.38.1-1.45-1.39-.85-2.2-1.12-.49-.16-1.13-.22-.88-1.13.3-.12.65-.35,1.02-.38,12.58-.85,25.16-1.77,37.78-1.78,1.78,0,3.58.12,5.23-.8-.03.95.06,2.44-1.11,2.28-3.9-.56-6.64,1.22-9.37,3.63-3.76,3.31-8.9,1.94-13.21,2.71-7.07,1.27-14.25,2.68-21.37,3.4-5.18.52-7.5,2.76-10.16,7,2.05,0,3.66.01,5.26,0,1.66-.02,2.1.97,2.06,2.41-.03,1.13,0,2.43-1.52,2.46-3.8.06-7.15,2.65-11.12,1.79-1.59-.34-3.31.1-3.51,1.96-.27,2.49-1.66,5.01-.15,7.56.6,1.01.99,2.34-.18,2.92-1.24.61-2.61,2.43-4.24.5.78-2.05.65-3.23-2.12-3.11-4.49.2-9,.07-13.5.07-.55-.04-1.11-.07-1.66-.11"/>
    <path class="st4" d="M303.6,272.92c-4,1.62-8.31,1.29-12.42,1.47-10.15.44-20.33.16-30.5.17.34-2.36,2.22-1.62,3.57-1.64,8.73-.12,17.55.52,26.16-.51,4.04-.48,7.85-1.38,11.85-.3.49.13.9.54,1.35.81Z"/>
    <path class="st4" d="M24.27,329.04"/>
    <path class="st4" d="M26,324.24"/>
    <path class="st3" d="M143.41,410.92c.82-.24,1.4-1.18,2.42-.86.42.6.83,1.19,1.25,1.79-3.91,3.74-3.33,7.93-1.25,12.28-.82.32-1.17.97-1.27,1.8-3.87-3.48-4.31-9.15-1.16-15.01Z"/>
    <path class="st4" d="M247.53,274.66c-.44,1.89-1.98,1.5-3.26,1.51-3.91.03-7.81,0-11.72,0,.29-2.03,1.88-1.62,3.16-1.62,3.94,0,7.88.06,11.83.1Z"/>
    <path class="st4" d="M128.45,272.07c.26,1.26-.08,2.34-.94,3.28"/>
    <path class="st3" d="M147.39,427.62c.98-.07,2.28-.84,2.38,1.06-1.2.56-2.08.41-2.38-1.06Z"/>
    <path class="st6" d="M630.81,403.9c.55,11.43,9.64,31.33,13.6,41.17-15.75-3.01-38.36,9.9-50.63-3.56.57-2.75-.36-5.79,1.61-8.26,0,0,0,0,0,0,6.67-3.18,15.82-3.78,19.73-10.79.09-.13.14-.18.32-.48,5.25-6,2.18-14.7,3.09-21.8.56-.02,1.11-.03,1.67-.05"/>
    <path class="st0" d="M678.15,283.01c-2.87,4.82-6.09,9.45-7.28,15.1-.35,1.67-1.43,1.99-2.56.48-1.39-1.86-2.12-1.24-2.61.63-1.52,5.81-1.4,11.73-.96,17.63.23,3.02,2.03,2.54,4.09,1.48,9.36-4.81,16-12.35,21.49-21.08.27-.43.61-.82.94-1.2.07-.08.26-.03.83-.09-1.66,7.52-6.37,12.85-11.66,17.71-2.62,2.41-5.57,4.51-8.88,5.94-3.08,1.33-2.17,2.6-.03,3.84,2.2,1.27,4.67,1.62,7.16,1.6,8.93-.07,16.34-3.66,23.57-10.07-6.21-.73-4.21-2.67-2.11-5.51,5.9-7.97,9.6-16.93,10.51-26.91.14-1.49.39-2.98.59-4.46.94.57.47,1.6.76,2.38-.58,2.98.42,4.28,3.67,4.03,3.35-.25,6.79-.62,9.71,1.99,1.01.9,2.6.45,3.96.01,2-.64,4.29-.99,6.02,0,2.22,1.28,4.44,1.39,6.73,1.21,8.33-.66,16.34,2.24,24.71,2.01,3.2-.09,6.79.72,10.12.92,6.52.39,12.79,3.23,19.45,1.88.53.02,1.06.05,1.59.08,1.19,3.24,3.95,1.45,5.96,1.7,2.2.27,4.33.14,5.09,3.1-9.11,1.51-18.23-2.49-26.99,1,2.02,3.04,2.28,3.21,5.13,1.66,1.51-.82,2.92-1.18,4.06.17,1.67,1.97,4.2,1.73,6.06,2.69,3.78,1.95,7.91,1.17,11.78,2.54,2.77.98,4.55,3.42,7.42,3.79,4.3.56,5.69,3.54,6.11,7.34-.24.06-.49.07-.74.03-1.13-1.18-2.58-.71-3.91-.72-7.29-.04-14.59-.15-21.88.06-2.09.06-5.39-1.62-6.13,1.32-.78,3.12,3.13,3.13,4.91,4.57.48.39,1.29.66,1.89.58,6.16-.82,11.62,1.79,17.3,3.36,1,.28,1.92.38,1.9,1.66-.03,1.6-1.22,1.6-2.34,1.61-3.58.02-7.16,0-10.73,0-1.07-.04-2.14-.08-3.21-.11-.45-1.82-1.93-1.52-3.22-1.53-2.26-.03-4.52-.02-6.78-.02-9.19,1.18-18.13-2.11-27.29-1.55-3.97.06-7.97-.43-11.96,1.04,4.61-.89,8.33,2.74,12.83,2.12,2.17.05,4.33.1,6.5.15,1.53,2.25,1.53,3.57-1.79,3.25-5.5-.54-10.97.48-16.59-1.32-4.25-1.36-9.28-.3-13.96-.31-3.95,0-7.87,2.9-8.89,6.76-.28,1.06-.11,2.62-1.34,2.73-2.73.25-4.81,2.27-7.76,2.13-6.32-.3-12.67-.1-19-.04-.99,0-2.24-.51-3.04,1.03,1.93,1.7,4.16,2.13,6.72,2.31,7.15.51,14.25-.11,21.53,1.13,6.78,1.16,13.83,3.15,20.97,2.17.66,3.19,4.06.42,5.49,2.64-1.27.87-2.65.45-3.91.6-8.93,1.03-17.57-2.65-26.51-1.68-2.24.24-4.15.36-2.37,3.27.63,1.02.33,1.75-.7,1.6-2.14-.31-3.45,1.51-5.33,1.74-1.28.15-3.14-.26-2.81,1.93.3,2.01,2.12,1.24,3.36,1.37,1.09.12,2.2.04,3.29.13.33.03.64.34.87.47.12,1.68-2.65.44-2,2.77,2.9,0,5.9.07,8.9-.02,2.07-.06,4.45.29,4.49,2.44.04,2.17-2.31,2.54-4.39,2.53-3.28-.01-6.97-.72-9.75.52-3.15,1.41-4.6,1.31-5.77-2.17-.67.81-1.32,1.25-1.46,1.82-1.26,5.19-5.17,4.94-9.24,4.8-4.58-.15-10.25-1.46-13.31,1.91-3.97,4.36-8.26,2.44-12.45,3-1.14.15-2.24.11-2.41,1.61-.26-.02-.52-.04-.78-.07,0-.95-.51-1.45-1.42-1.59,6.06-14.93,6.85-30.42,4.82-46.19-.27-2.1.2-5.37-1.81-5.82-2.16-.49-2.15,2.96-3.29,4.55-1.04,1.44-1.89,3.46-3.85,3.27-1.67-.16-1.59-2.33-2.27-3.63-6.94-13.3-14.18-26.4-24.65-37.37-1.04-1.09-1.99-2.26-2.98-3.39,0,0-.02,0-.02,0,.92.05,1.81-.34,1.34-1.29-.76-1.53-1.87-2.89-3.94-2.62,0,0,0,0,0,0-.06-.4-.08-.82-.2-1.19-.42-1.24-1.36-2.64.37-3.51,1.43-.72,2.1.59,2.92,1.49,1.18,1.31,2.44,2.68,4.49,1.45,0,0-.05-.03-.05-.02-.56,2.23.49,4.11,2.33,4.7,1.93.62,2.19,2.04,3.12,3.29,1.14,1.53,1.62,4.39,4,4.1,2.65-.32,3.84-2.72,4.68-5.21.58-1.7.29-3.05-.25-4.7-2.18-6.67-.7-8.55,6.11-8.66,4.49-.08,8.8.7,13.2,1.45,2.85.48,4.81.87,5.7,3.71ZM724.04,324.17c-.04.63-.07,1.25-.11,1.88,7.27-1.74,13.92,1.94,21.04,1.38.86-.07,2.2.28,2.06-1.23-.1-1.15-.86-2.02-2.18-2.02-6.94-.01-13.88,0-20.82,0Z"/>
    <path class="st1" d="M670.59,380.27c.17-1.49,1.27-1.45,2.41-1.61,4.2-.56,8.49,1.35,12.45-3,3.06-3.37,8.73-2.06,13.31-1.91,4.08.13,7.99.39,9.24-4.8.14-.57.79-1.02,1.46-1.82,1.17,3.48,2.62,3.58,5.77,2.17,2.77-1.25,6.46-.54,9.75-.52,2.08,0,4.43-.37,4.39-2.53-.04-2.15-2.42-2.5-4.49-2.44-3,.09-6,.02-8.9.02-.65-2.33,2.11-1.09,2-2.77-.23-.13-.54-.45-.87-.47-1.09-.09-2.2,0-3.29-.13-1.24-.14-3.07.64-3.36-1.37-.32-2.19,1.53-1.78,2.81-1.93,1.88-.22,3.2-2.04,5.33-1.74,1.02.15,1.32-.58.7-1.6-1.78-2.91.12-3.03,2.37-3.27,8.94-.97,17.58,2.71,26.51,1.68,1.26-.15,2.64.27,3.91-.6-1.43-2.22-4.83.55-5.49-2.64l.16-.17c1.38-.08,2.93.67,4.02-.82,1.39.31,2.78.61,4.18.92,1.73,3.39,2.21,8.33,8.11,6.6.53.77,1.34.83,2.16.86,1.46.06,2.98.43,2.68,2.21-.27,1.64-2.04,1.33-3.06,1.04-4.94-1.44-9.97-.44-14.94-.8-2.57-2.59-11.16-2.15-12.87,1.19-1.15,2.24-2.5,1.98-4.21,2.17-1.03.12-2.53-.74-3.04,1.08,6.67,1.45,13.29,2.81,20.12,2.09,6.25,1.74,13.06.83,19.21,3.76-10.69,1.84-21.26,1.45-31.87,1.85,3.36,1.96,7.97-.31,10.68,3.7-5.27,2.37-10.72,3.42-16.53,2.69,5.46,2.63,10.51,6.02,16.77,4.66.45-.1,1.11.03,1.29,1.5-4.3,0-8.56,0-12.81,0-.5-2.3-2.37-1.47-3.7-1.48-20.81-.11-41.63.51-62.37-1.76Z"/>
    <path class="st1" d="M746.58,348.98c-7.14.98-14.19-1.01-20.97-2.17-7.28-1.24-14.38-.63-21.53-1.13-2.55-.18-4.79-.6-6.72-2.31.8-1.54,2.04-1.02,3.04-1.03,6.33-.06,12.68-.25,19,.04,2.95.14,5.03-1.88,7.76-2.13,1.23-.11,1.06-1.67,1.34-2.73,1.02-3.86,4.94-6.77,8.89-6.76,4.68.01,9.71-1.05,13.96.31,5.63,1.81,11.09.78,16.59,1.32,3.32.32,3.32-1,1.79-3.25,2.3-.9,3.64,1.79,5.74,1.56,9.19-1.03,18.07,2.62,27.25,1.78.65,1.99-.74,3.1-2.38,4.21,4.61,1.51,8.73,2.82,13.19,2.36,1.08-.11,2.35-.06,2.46,1.48.13,1.88-1.33,1.9-2.54,1.76-7.58-.85-15.17-1.64-22.71-2.78-2.62-.4-5.17-.33-7.76-.38-3.48-.34-6.94.13-10.43-1.48-2.19-1.01-5.29-.95-7.31,1.98-.88,1.28-2.29,2.96-4.35,2.68-6.6-.9-13.16,1.49-19.79.13-1.52-.31-4.12-1.18-4.37,2.05-.27,3.48,2.31,2.47,4.2,2.8,1.96.35,4.52-1.38,5.82,1.51l-.16.17Z"/>
    <path class="st1" d="M796.37,292.53c-6.65,1.35-12.93-1.49-19.45-1.88-3.33-.2-6.92-1.01-10.12-.92-8.36.24-16.37-2.67-24.71-2.01-2.29.18-4.51.08-6.73-1.21-1.73-1-4.02-.65-6.02,0-1.36.44-2.96.89-3.96-.01-2.92-2.6-6.36-2.24-9.71-1.99-3.25.24-4.24-1.05-3.67-4.04,2.19-1.03,4.86-1.83,6.78-.75,4.23,2.37,8.59.97,12.86,1.39,1.09.11,2.29.13,2.52-1.42,8.51,1.19,17.01,2.21,25.35,4.57,4.07,1.15,8.78-.33,12.69,2.28,6.1,4.08,13.56,1.93,20.05,4.37,1.37.52,2.96.48,4.1,1.61Z"/>
    <path class="st1" d="M822.59,316.58c-.41-3.8-1.8-6.78-6.1-7.34-2.87-.37-4.64-2.81-7.42-3.79-3.88-1.37-8-.59-11.78-2.54-1.86-.96-4.39-.71-6.06-2.69-1.15-1.35-2.55-1-4.06-.17-2.85,1.55-3.12,1.38-5.13-1.66,8.76-3.49,17.88.51,26.99-1-.76-2.96-2.89-2.83-5.09-3.1-2.02-.25-4.77,1.54-5.96-1.7,3.29.05,6.6-.05,9.88.18,3.3.23,6.01,1.36,5.67,5.49-.02.26-.11.58,0,.78q2.05,3.54-2.53,3.63c-.78.02-1.56.09-2.5.14,1.05,1.58,2.49,1.39,3.81,1.42,1.79.04,3.55-.19,4.08,2.31.3,1.38,1.81.88,2.84.97,2.44.21,4.92.47,7.32.58,4.97.21,4.82,4.11,5.95,7.07.51,1.33-.34,2.36-1.98,2.34-1.51-.01-3.02.03-4.53.04-1.24.08-2.36-.28-3.39-.96Z"/>
    <path class="st1" d="M802.85,329.06c3.58,0,7.16.02,10.73,0,1.12,0,2.31-.01,2.34-1.61.02-1.28-.9-1.39-1.9-1.66-5.68-1.57-11.14-4.18-17.3-3.36-.6.08-1.41-.19-1.89-.58-1.78-1.44-5.69-1.45-4.91-4.57.74-2.94,4.04-1.26,6.13-1.32,7.29-.21,14.59-.1,21.88-.06,1.33,0,2.78-.46,3.91.72-.18,2.49-1.95,2.47-3.82,2.59-2.18.15-4.51-.66-7.36,1.05,3.29.65,4.62,3.45,7.23,3.78,4.34.55,4.41,3.36,3.96,6.62-6.34,0-12.69,0-19.03,0,0-.53.02-1.06.03-1.59Z"/>
    <path class="st1" d="M808.83,347.92c-4.05-.24-8.14-.23-12.15-.8-3.27-.46-6.51-.8-9.81-.72-.81.02-1.78.04-1.94-1.04-.17-1.13.72-1.36,1.58-1.37,7.32-.08,14.68-.48,21.69,2.36.37.15.71.36,1.06.54-.14.34-.28.68-.43,1.03Z"/>
    <path class="st3" d="M239.08,450.09c1.72-1.23,2.32-.32,2.54,1.33"/>
    <path class="st3" d="M182.1,432.48c.8-.29,1.36-.04,1.67.75"/>
    <path class="st0" d="M364.77,337.35c-.3,2.11,1.23,2.78,2.73,3.49-.42,6.22-4.01,10.69-8.32,14.63-2.9,2.64-6.16,4.9-9.57,7.58-.69-2.1-.42-3.64.05-5.19,2.51-8.27,4.74-16.63,7.87-24.7,2.21-5.68.29-8.54-5.84-8.77-1.63-.06-3.27.16-4.91.26,1.28-1.19,2.85-1.43,4.52-1.41.85.01,1.76-.16,1.69-1.25-.07-1.05-1.01-1.04-1.84-1.16-4.57-.63-6.67,3.1-9.59,5.37.9-.05,1.81-.1,2.71-.16-5.52,4-7.83,10.45-11.87,15.59-5.35,6.81-10.23,14.02-16.63,19.94-1.97,1.82-4.47,4.8-6.97,2.98-2.6-1.89-.16-5.08.91-7.43,3.75-8.24,5.83-17.16,10.26-25.13,1.01-1.82,2.02-3.52,3.56-4.97,3.16-2.97,4.42-8.67,2.56-10.79-2.65-3.02-9.14-3.94-12.64-1.42-2.3,1.66-4.75,3.6-6.11,6-5.29,9.34-12.51,17.84-13.84,29.05-.9,7.56-3.14,15.1-.82,22.78,2.01,6.64,4.24,7.79,10.96,5.9,7-1.98,11.71-6.99,16.33-12.13,4-4.45,7.91-8.98,12.46-14.16-.02,3.52-.53,5.95-1.47,8.31-3.16,7.85,2.29,16.09,10.45,16.57,5,.3,9.31-1.4,13.82-2.82.86-.27,2.92-1,2.28.47-1.41,3.28,1,1.95,2.08,2.2,1.3.3,2.94-.58,4.2,1.31-4.3.57-8.53.61-10.83,4.83-.22.4-1.26.52-1.91.48-8.87-.55-17.61,1.3-26.4,1.55-16.63.49-33.28.14-49.92.12-1.09,0-2.41.28-3.24-.22-3.06-1.82-1.3,1.08-1.81,1.72-.51,0-1.02,0-1.53,0,.69-4.53-1.37-7.28-6.05-8.51,1.16-.97,2.03-1.61,2.81-2.34,2.08-1.97,1.7-4.25.48-6.4-1.21-2.12-3.14-2.4-5.35-1.54-2.47.96-3.85,2.62-3.56,5.35.08.8.54,1.56.72,2.36.25,1.07.6,2.5-.52,3.01-1.76.81-1.43-1.14-1.8-1.92-1.14-2.43-2.97-2.99-5.44-2.52-2.5.48-3.21,2.17-3.5,4.43-.19,1.48.42,2.67.77,3.99.48,1.81-.33,3.55-1.73,4.28-1.75.91-2.13-1.28-2.78-2.27-2.99-4.58-6.25-8.96-7.18-14.67-.62-3.8-3.66-6.36-7.37-7.02-8.81-1.56-16.02-7.19-24.59-9.28-2.1-.51-2.96-2.26-3.58-4.18-2.32-7.2-6.01-13.01-13.51-16.14-4.2-1.75-7.03-6.05-11.69-7.45-1.05-.32-2.07-1.48-1.48-3,1.01-2.56.55-4.81.04-7.58-.77-4.2-1.36-6.97-6.14-7.03-.11,0-.21-.43-.44-.91,2.03-.66,5.23,1.16,5.91-2.01.43-2.01-2.21-.9-3.07-2.06.12-1.52,1.8-1.81,2.56-2.86,1.15-1.59,2.52-3.07-.43-4.45-1.85-.87-.7-2.17.15-3.22.13.63-.2,1.53.64,1.77.68.2.88-.45.89-1.01.04-1.51.24-3.06.01-4.54-.62-4,1.22-4.97,4.87-4.72,3.97.28,7.99-.08,11.97.1,6.45.29,12.63-.73,18.64-3.05.86-.33,1.9-.27,2.85-.23,17.52.72,34.96-1.49,52.4-2.22,11.29-.47,22.71.22,33.91-1.25,21.26-2.78,42.55-.87,63.82-1.49,1.46-.04,3.02-.4,4.54.51-.23.34-.46.92-.62.9-7.7-.82-15.08,2.2-22.74,1.89-1.04-.04-2.94-.76-2.96,1.08-.02,1.45,1.54,2.33,3.04,2.15,5.87-.7,11.71.28,17.57.1,1.58-.05,3.27-.48,4.83,1.6-4.48,0-8.95.12-13.42-.04-2.77-.1-5.05.69-7.26,2.32-1.58,1.16-2.13,1.66-.3,3.26,3.94,3.45,6.61,7.56,5.88,13.28-.41,3.25.4,5.96,4.69,6.18,2.02.11,2.83,2,2.68,4.02-.42,5.44,1.89,10.43,2.53,15.69.09.76.47,1.5,1.28.93,1.53-1.08,1.85-.38,1.99,1.05.16,1.72-.31,3.15-2.13,3.42-1.36.2-3.46-.79-2.67,1.92.69,2.36,2.36,2.78,4.49,1.46.56-.34,1.29-.4,1.95-.58h-.01ZM351.45,312.74c-.99.38-1.71,1.16-1.35,2.41.24.83.42,2.12,1.65,1.98,1.37-.16,1.43-1.42,1.43-2.53,0-1.01-.17-1.94-1.72-1.86ZM338.92,288.42c.66-.14.97-.58.62-1.13-.24-.38-.78-.77-1.2-.78-.67-.02-.77.6-.63,1.17.16.61.61.82,1.21.74Z"/>
    <path class="st1" d="M526.64,271.23c6.72-.13,13.46.66,20.15-.53-.59,2.06,1.07,2.61,2.34,3.3,20.01,10.91,31.44,27.73,34.96,50.16.61,3.9,3.65,8.21,2.62,11.37-1.05,3.23-4.67,6.11-6.76,9.45-5.24,8.4-10.77,16.62-16.57,24.65-2.11,2.92-4.44,5.61-7.25,7.87-.8.65-1.58,1.82-2.82,1.28-1.32-.57-1.44-1.93-1.41-3.19.11-5.24,1.04-10.38,1.95-15.52,1.45-8.16,3.39-16.06,7.71-23.34,3.18-5.35,2.68-8.28-.49-11.14-4.08-3.67-7.5-3.83-12.74-.58q-5.78,3.59-8.93-2.65c-4.21-8.34-11.15-10.39-19.05-5.55-7,4.29-13.22,9.32-16.28,17.38-1.5,3.96-4.76,6.71-7.53,9.73-6.69,7.32-12.22,15.55-18.45,23.22-.27.35-.53.71-.8,1.06.06.31-.07.51-.38.58-.84.11-1.28.52-1.09,1.43-.34.43-.69.86-1.03,1.3,0,0-.05.05-.05.05-.16.99-.7,1.71-1.58,2.19-.27.4-.54.8-.81,1.2-.29.51-.58,1.03-.87,1.54,0,0,.01-.09.01-.09-.21.22-.42.44-.63.67-.14.17-.25.35-.34.55-.26.36-.52.72-.79,1.07-.26.26-.53.52-.79.78-.28.3-.56.6-.84.9-.22.4-.44.81-.66,1.21-.32.52-.64,1.04-.96,1.56,0,0,.02-.16.02-.16-.19.22-.37.43-.56.65-.14.15-.26.31-.38.47l.02.25s-.25.05-.25.04c-1.01.18-1.42.81-1.34,1.8-.21.27-.41.54-.62.81-.82.13-1.06.72-1.15,1.44,0,0-.07.07-.07.07q-6.64.15-7.37-6.19c-.04-.37-.37-.7-.56-1.05-.21-1.73-.23-3.44.4-5.11,1.77-1.08,1.1-2.56.65-4.01-.16-2.09.03-4.11,1.05-5.99,1.54-.84,1.13-1.96.46-3.12-.07-2.85.54-5.61,1.12-8.38,1.98-1.97.83-4.83,1.99-7.03l-.07-.24s.21-.14.21-.14c.16-.36.33-.71.49-1.07-.07-.32.05-.52.36-.61,1.47-.09,1.4-1.2,1.49-2.22.25-.36.51-.72.76-1.07.26-.29.52-.59.78-.88,0,0-.03.03-.03.03.26-.31.53-.62.79-.94,0,0-.05.05-.04.05.55-.16.8-.54.8-1.09,5.29-8.32,11.8-15.74,17.96-23.39,9.88-12.27,18.46-25.21,23.99-40.03,1.51-.4,1.37-1.26.63-2.28-.21-.88-.17-1.73.38-2.49,6.08-.02,12.15-.04,18.23-.06Z"/>
    <path class="st0" d="M39.08,333.19c.82-.34,1.65-.67,2.47-1.01,1.63,1.92,3,.11,4.24-.51,1.17-.58.78-1.91.18-2.92-1.51-2.55-.12-5.07.15-7.56.2-1.85,1.93-2.3,3.51-1.96,3.97.85,7.32-1.73,11.12-1.79,1.51-.03,1.48-1.33,1.52-2.46.04-1.44-.4-2.42-2.06-2.41-1.6.01-3.2,0-5.26,0,2.67-4.24,4.98-6.48,10.16-7,7.12-.72,14.3-2.13,21.37-3.4,4.31-.77,9.46.6,13.21-2.71,2.73-2.41,5.47-4.19,9.37-3.63,1.17.17,1.08-1.33,1.11-2.28,0,0,.05-.04.05-.04,1.87-.8,3.82-1.54,5.71-2.12,2.79-.87,6.1-3.78,8.78.43v7.44c-4.94-1.29-5.77-.72-6.76,4.2-.8,3.95.29,7.58,2.22,11.21-2.36.71-4.18-.95-6.2-.66-1.8.26-3.84.47-4.5,2.36-.61,1.75.91,3.02,2.07,4.2,1.86,1.88,4.52,2.39,6.91,3.64-1.51,1.8-5.04.91-4.86,3.36.17,2.36,2.87,3.37,4.92,4.47,1.55.84,3.16,1.45,4.89,1.44.11,1.69-1.08,1.21-1.7,1.48-1.46.65-2.8,1.6-2.85,3.21-.05,1.75,1.07,3.2,2.76,3.73,2.35.74,3.64,2.17,4.15,4.55.29,1.37,1.26,2.33,2.5,3.13,2.71,1.76,3.66,4.71,4.71,7.55.69,1.87-.15,3.14-1.69,4.16-2.72,1.8-3.02,4.05-1.17,6.68.31.45.53.96.81,1.44,3.15,5.45,2.05,8.18-4.15,9.82-1.85.49-3.37.78-3.66,3.12-.29,2.37,1.44,2.88,3.81,3.8-3.28,1.27-6.63-.49-8.48,2.38-10.53-.96-20.8,2.42-31.31,1.79-8.3,0-16.6-.02-24.9-.02h-.03c.02-2.1-1.63-3.19-2.99-4.18-2.47-1.78-2.3-3.3-.38-5.34,1.1-1.16,4.12-2.31.59-4.41-.72-.43.18-1.97,1-2.32,2.94-1.26,1.95-3.73,1.61-5.66-.36-2.07-2.48-1.25-3.83-1.23-2.17.03-3.61-1.63-5.67-2.01-1.73-.32-.21-2.07.33-2.96,1.84-3.02,4.05-5.77,5.24-9.23,1.27-3.7.42-6.49-2.74-8.37-2.07-1.22-2.65-2.55-1.81-4.65.73-1.82-.16-2.08-1.77-2.69-3.38-1.27-6.76-1.8-10.3-1.56-1.85.13-2.42-.89-2.4-2.51Z"/>
    <path class="st3" d="M263.64,176.44"/>
    <path class="st1" d="M605.52,380.26c-4.27,1.49-8.14,4.54-13.19,2.95-.97-.31-2.55.27-3.45.96-6.92,5.33-14.85,1.98-22.29,2.62-2.76.24-1.36-2.7-1.88-4.18,7.58-10.59,14.74-21.42,20.28-33.27,1.2-2.56,1.91-5.45,4.03-7.56,1.53.66,1.82,2.14,2.35,3.32,4.35,9.58,10.72,17.58,18.68,24.36,2.05,1.75,2.31,2.59-.65,3.74-3.45,1.34-6.68.44-10.45-.12,1.67,3.32,4.99,4.47,6.56,7.18Z"/>
    <path class="st1" d="M538.46,385.77c0,2.02-.88,2.97-3.02,2.85-8.96-.52-17.91.67-26.89.08-3.45-.23-6.96.55-10.43.46-8.71-.21-17.45.06-26.08-1.54.34-1.7,1.52-2.83,2.69-3.96.22-.38.45-.76.67-1.15,5.94-8.98,11.97-17.88,19.57-26.72.94,5.08-.43,9.31-.18,13.54.32,5.49,1.64,10.73,6.82,13.15,4.84,2.26,9.71,2.24,14.6-2.97,3.19-3.4,6.43-6.75,9.65-10.11,0,0-.14.11-.14.11.72-.87,1.44-1.74,2.16-2.61.27-.06.4-.24.38-.52.28-.38.56-.75.85-1.12.71-.11.92-.6.93-1.24.27-.44.53-.88.8-1.31,0,0,.06-.12.06-.12-.07-.27.03-.44.31-.5.15-.23.29-.46.44-.69,0,0,.11-.16.11-.16.87-.33.8-1.13.93-1.83-.09-.29,0-.5.29-.63.2-.12.29-.29.29-.52.35-1.06.72-2.12,1.74-2.76.8-.01,1.6-.03,2.4-.05-.28,2.01-.32,4.09-1.47,5.88-1.56,1.45-.89,3.15-.51,4.81-.09.61-.18,1.22-.27,1.84-1.37,2.2-1.45,4.39.04,6.57.1.57.2,1.13.29,1.7-.06.08-.19.19-.17.24.06.17.17.33.26.49.07.58.14,1.17.21,1.75-.1.08-.19.16-.29.25.15.16.29.33.44.49.84,1.29,1.46,2.66,1.42,4.25-1.05,1.2-.14,1.4.8,1.59l.29.14.02.32Z"/>
    <path class="st1" d="M412.62,375.3c1.51-10.8,5.48-21.3,10.69-31.36,1.58-3.04,3.18-6.13,5.2-8.88,2.55-3.46,4.84-3.55,7.9-.62,4.01,3.83,5.22,8.3,4.87,14.09-.91,15.37-12.68,22.25-22.55,30.7-1.21,1.04-2.95,2.38-4.86,1.15-1.7-1.1-.97-2.98-1.26-5.09Z"/>
    <path class="st1" d="M377.47,385.49c-9.14,1.95-18.41,1.48-27.65,1.48-25.2,0-50.39,0-75.59-.01-1.51,0-3.02-.1-4.53-.16.51-.64-1.26-3.54,1.81-1.72.83.49,2.15.22,3.24.22,16.64.01,33.3.36,49.92-.12,8.79-.26,17.52-2.1,26.4-1.55.64.04,1.69-.08,1.91-.48,2.3-4.21,6.53-4.26,10.83-4.83-1.27-1.89-2.91-1-4.2-1.31-1.08-.25-3.49,1.07-2.08-2.2.63-1.47-1.42-.75-2.28-.47-4.51,1.42-8.82,3.12-13.82,2.82-8.16-.48-13.61-8.72-10.45-16.57.01.97.03,1.95.04,2.92.07.36.15.72.22,1.07,1.44,3.75,2.58,7.69,6.33,9.98,0,0,.35.05.35.05l.36-.02s.05,0,.05,0c2.74,1.31,5.48,1.3,8.23.03,6.5-2.47,11.31-7.23,16.02-12.04,1.87-1.91,2.4-2.4,4.26.39,3.48,5.23,6.38,11.42,13.8,12.66,1.95.33,3.79-.72,6.3.26-2.99,3.62-6.1,6.73-9.47,9.6Z"/>
    <path class="st1" d="M498.65,272.76c-.35,6.48-3.46,11.99-6.41,17.48-7.63,14.21-16.79,27.39-27.11,39.77-.22.27-.66.36-1.58.85,1.87-5.38,3.61-10.24,5.23-15.14,4.94-14.84,10.26-29.51,18.46-42.94.35-.58.79-1.1,1.19-1.65,2.05.04,4.1-.04,6.14.15,1.45.13,3.45-.96,4.09,1.48Z"/>
    <path class="st1" d="M511.31,365.46c.15-11.26,5.04-20.98,9.86-30.71,1.76-3.54,3.01-7.35,6.41-9.92,3.61-2.72,5.58-2.16,6.54,2.24.12.54.12,1.13.35,1.61,3.36,6.83,1.17,12.51-3.18,18.12-5.22,6.73-9.95,13.85-15.55,20.29-.95,1.09-1.87,2.81-3.63,2.06-1.56-.67-.81-2.42-.81-3.68Z"/>
    <path class="st0" d="M648.74,381.91c-1.8-.23-3.54,3.06-5.38.09-1.89-4.65-1.4-9.7-2.4-14.52-3.12-15.17-9.69-28.7-18.48-41.29-.67-.96-1.1-2.1-1.64-3.16.16-.96.25-1.95,1.48-2.17,7.67,6.23,12.76,14.18,17.07,23.07,5.32,10.97,8.87,22.2,9.58,34.33.07,1.21-.15,2.43-.23,3.65Z"/>
    <path class="st0" d="M172.94,386.62c.75-4.95,3.29-8.24,8.43-9.17,4.47-.82,8.09-3.2,11.47-6.13,2.37-2.06,4.84-4.2,8.18-4.47,1.34-.11,3,.12,3.52,1.6.45,1.27-1.01,1.79-1.83,2.43-3.99,3.13-7.74,6.57-12.15,9.19-3.28,1.94-4.87,5.47-7.03,8.44-2.1,1.81-4.79-.6-6.55.54-3.59,2.32-3.91.4-4.03-2.42Z"/>
    <path class="st0" d="M151.69,348.1c.59-11.55,6.4-15.81,16.73-12.63,3.01.93,6,1.97,8.89,3.21,5.39,2.32,7.09,5.68,6.18,12.71-4.88-5.26-10.93-7.61-17.06-9.81-6.43-2.3-7.73-1.9-11.78,3.51-.77,1.03-1.82,1.86-2.97,3.01Z"/>
    <path class="st0" d="M231.58,370.55c-5.02-.42-9.19.05-12.85,2.54-1.14.78-2.1.22-2.99-.22-2.57-1.25-5.07-2.62-7.02-4.81-2.79-3.12-5.98-5.28-10.48-4.18-.62.15-1.42.35-1.84-.37-.41-.7.15-1.28.5-1.86,2.86-4.59,6.09-5.48,10.74-2.75,5.49,3.22,11.3,5.62,17.48,7.11,2.47.59,4.56,1.65,6.46,4.54Z"/>
    <path class="st0" d="M190.11,362.64c-2.02,7.12-5.71,11.16-12.48,12.41-5.48,1.01-7.61,5.43-8.49,10.48-.39,2.26-.44,4.58-1.72,7.47-3.32-5.57-1.46-10.24.67-14.79,4.29-9.21,11.77-13.96,22.03-15.56Z"/>
    <path class="st0" d="M148.19,352.65c-.48,3.25-1.26,6.49-1.39,9.76-.26,6.85,1.7,9.05,8.42,10.29,1.42.26,3.62-.07,3.7,1.75.07,1.8-2.03,2.33-3.62,2.73-4.54,1.14-9.15-1.24-10.92-5.93-2.05-5.44-2.46-11.27-3.34-16.96-.15-.99.24-2.24.77-3.13,1.1-1.83,2.85-3.51,4.98-2.92,1.79.5,1.07,2.84,1.39,4.41Z"/>
    <path class="st0" d="M192.15,350.37c-7.58-13.43-18.03-20.49-33.09-19.13,2.34-4.29,6.6-5.6,11.7-3.78,2.6.93,5,2.26,7.11,4.07,3.24,2.79,6.85,5.01,10.56,7.12,4.18,2.38,5.52,5.92,3.73,11.72Z"/>
    <path class="st0" d="M226.78,386.46c.36.68.35,1.34-.11,1.98-.78-.01-1.56-.03-2.34-.04-2.05-2.44-4.27-4.63-7.64-5.07-5.05-.67-8.37-4.34-12.24-7.06-1.58-1.11-.6-1.82.36-2.43,2.15-1.36,4.34-1.36,6.6-.09,3.81,2.15,7.62,4.3,11.5,6.3,2.65,1.37,3.07,3.95,3.86,6.36,0,0,.02.04.02.04Z"/>
    <path class="st0" d="M137.11,356.7c-2.77-3.96-2.49-7.89-.17-11.61,1.88-3.01,4.13-5.79,6.29-8.62,1.73-2.27,8.02-4.81,8.56-3.54,1.06,2.49-1.29,4.44-1.94,6.69-.56,1.94-2.04,3.44-3.87,4.02-6.42,2.05-9.53,6.16-8.87,13.05Z"/>
    <path class="st1" d="M399.82,385.58c-2.4,1.58-4.77,2.68-7.87,1.66-1.87-.61-4.03-.3-6.06-.4,3.42-6.36,6.85-12.72,10.84-20.15.43,7.09-.66,13.48,3.09,18.89Z"/>
    <path class="st0" d="M156.04,384.37c-7.52-1.72-14.56-4.51-19.19-11.38-1.67-2.48-2.5-5.17-1.65-8.19.22-.8.29-1.75,1.26-1.91,1.06-.18,1.82.48,2.36,1.34.84,1.32.9,2.84,1.1,4.35.97,7.14,6.09,11.76,13.31,12.05,1.1.04,2.23-.15,3.29.06,1.52.3,3.9.32,3.62,2.37-.23,1.67-2.49,1.11-4.1,1.31Z"/>
    <path class="st1" d="M617.49,276.64c.22-2.04,1.67-2.16,3.27-2.14,2.58.03,5.17,0,7.75-.02,4.17,2.66,8.21,5.48,10.8,9.87-2.04,1.23-3.3-.15-4.49-1.45-.82-.9-1.49-2.21-2.92-1.49-1.72.87-.78,2.27-.37,3.51.13.38.14.79.2,1.19-.49.02-.98.03-1.47.05-.36-.34-.73-.69-1.09-1.03-.25-.2-.49-.4-.74-.6,0,0-.08-.07-.08-.07-.26-.26-.52-.51-.78-.77,0,0-.04-.03-.04-.03-.33-.23-.66-.45-1-.68-.59-.32-1.17-.64-1.76-.96,0,0,.16,0,.16,0-.26-.23-.52-.47-.78-.7,0,0-.14-.12-.14-.12-.32-.01-.51-.18-.56-.49-.1-.17-.24-.31-.42-.41-.27.05-.42-.06-.45-.33-.23-.14-.46-.27-.69-.41,0,0-.18-.11-.18-.11-.39-1.08-1.18-1.59-2.31-1.6-.34-.2-.68-.39-1.02-.59-.09-.14-.22-.21-.38-.21-.29,0-.47-.15-.54-.43Z"/>
    <path class="st1" d="M436.42,377.93c-.94,1.21-.52,2.62-.53,3.94-.06,6.01-1.23,7.22-7.21,6.66-2.46-.23-4.96-.87-6.18-3.52,2.78-2.57,5.43-5.29,8.71-7.24.18-.1.33-.24.44-.43.05-.72.39-1.15,1.15-1.18.2-.08.37-.2.53-.35.02-.3.18-.42.47-.36.93-.03,1.86-.05,2.79-.08-.05.85-.11,1.71-.16,2.56Z"/>
    <path class="st0" d="M237.41,385.55c-2.5,2.55-4.89,1.88-7.23-.25-1.06-3.15-2.43-5.99-5.57-7.73-2.51-1.4-1.25-2.64.65-3.24,3.9-1.23,6.95.25,9.28,3.4,1.71,2.31,3.29,4.71,2.88,7.82Z"/>
    <path class="st0" d="M161.18,368.22c-9.53,1.84-12.47-1.01-10.55-8.91.73-3,.92-6.25,4.12-9.29.78,6.85-1.24,14.06,6.44,18.19Z"/>
    <path class="st0" d="M165.45,364.9c-3.74-.03-6.07-2.52-5.87-6.1.21-3.9,3.43-7.93,6.26-7.57,2.37.31,3.5,2.02,3.47,4.36,0,.48-.14,1.66-1.48.51-1.62-1.39-3.24.02-3.93,1.44-.94,1.92.06,3.33,2.04,4.2.95.42,2.86.37,2.27,2.15-.38,1.16-1.84.95-2.76,1.01Z"/>
    <path class="st0" d="M174.21,357.95c-1.42-1.45-1.64-3.43-2.32-5.19-2.27-5.91-3.75-6.72-9.98-5.42-.87.18-1.8,1.22-2.58.14-.28-.38-.01-1.34.26-1.91.51-1.07,1.47-1.81,2.68-1.41,4.15,1.37,8.43,2.51,12.32,4.43,3.35,1.66,2.99,5.77-.39,9.36Z"/>
    <path class="st1" d="M124.72,291.83c-2.68-4.21-5.99-1.3-8.78-.43-1.88.58-3.84,1.32-5.71,2.12.47-3.1-.6-4.51-3.98-4.21-1.44.13-3.72,1.26-4.3-1.55,7.79.6,15.49-1.14,23.27-.81.29,1.67-.03,3.27-.5,4.87Z"/>
    <path class="st0" d="M194.68,388.55c-1.86,0-3.71,0-5.56,0,2.55-6.64,9.13-10.21,15.29-7.62-4.09,1.91-7.38,4.23-9.73,7.61Z"/>
    <path class="st0" d="M154.57,311.88c.69,10.16-1.61,14.91-8.06,16.39,3.62-5.05,3.23-11.53,8.06-16.39Z"/>
    <path class="st1" d="M454.23,381.31c.19.35.52.68.56,1.05q.74,6.33,7.37,6.19c-1.53,2.52-2.79,6.37-6.22,5.52-3.48-.86-1.87-4.85-2.14-7.5-.17-1.72-.44-3.57.42-5.26Z"/>
    <path class="st0" d="M174,364.39c1.86-2.82,3.42-5.23,5.03-7.59.56-.82.91-2.38,2.34-1.56,1.19.68,1.28,2.1.9,3.33-.74,2.41-2.7,3.69-4.79,4.8-.93.5-1.78,1.23-3.49,1.02Z"/>
    <path class="st0" d="M164.72,322.49c-2.42-1.01-3.5,1.4-5.27,2.06-1.38.52-2.33,1.94-3.99,1.87.4-4.71,3.83-6.95,11.4-7.46.29,1.82-3.05,1.42-2.2,3.58l.06-.05Z"/>
    <path class="st0" d="M130.81,293.67c1.83.07,7.41,5.43,7.19,6.84-.19,1.21-1.07,1.68-2.38.89-2.19-1.33-4.27-2.81-5.98-4.7-.53-.59-1.5-1.59-.74-2.5.42-.49,1.49-.43,1.9-.53Z"/>
    <path class="st0" d="M145.07,326.28c-.54-5.17.6-9.71,5.2-13.62-1.1,5.22-2.85,9.54-5.2,13.62Z"/>
    <path class="st0" d="M136.57,338.27c1.15-3.29-1.96-6.06.94-8.56.6-.52.94-1.59,1.88-1.18.45.2.74,1.11.82,1.73.35,2.86-.15,5.46-3.63,8.01Z"/>
    <path class="st0" d="M123.08,310.92c-1.73.07-.66-2.58-2.87-2.38-.82.07-1.23-2.57-.51-3.98.55-1.08,1.57-2.16,2.96-1.63,1.47.56,1.53,2.11,1.64,3.47.14,1.68-.4,3.18-1.22,4.53Z"/>
    <path class="st0" d="M187.82,349.7c1.58,3.08,1.28,5.52,1.35,7.84.04,1.41-1.12,1.7-2.31,1.57-1.38-.16-1.32-1.18-1.08-2.12.55-2.15,1.19-4.28,2.04-7.29Z"/>
    <path class="st0" d="M131.88,329.7c.3-3.13-.98-7.06,4.08-7.82q-.53,5.98-4.08,7.82Z"/>
    <path class="st0" d="M372.35,327.57c.01-2.42,2.28-2.11,3.58-2.68,4.8-2.1,11.51-.82,14.49,2.48-1.2-.27-2.55-.27-3.58-.85-5.1-2.81-9.8-1.31-14.48,1.04Z"/>
    <path class="st0" d="M116.15,318.93c.98.72,1.78,1.3,2.72,1.99-1.65.82-2.96.2-3.77-.45-1.2-.96-4.16-1.02-3.09-3.42.83-1.87,3.04-1.3,4.77-.76.64.2,1.23.54,1.96.87-.3,1.56-2.01.46-2.59,1.77Z"/>
    <path class="st0" d="M127.63,320.09c.02-2.12,2.2-3.08,1.26-5.29-.47-1.11,1.48-2.34,2.82-2.27,1.84.1,1.31,1.78,1.08,2.84-.58,2.66-2.03,4.48-5.15,4.72Z"/>
    <path class="st1" d="M344.27,326.05c-.9.05-1.81.1-2.71.16,2.93-2.27,5.03-6.01,9.59-5.37.82.11,1.77.11,1.84,1.16.07,1.09-.84,1.26-1.69,1.25-1.67-.03-3.24.22-4.52,1.41-.46.19-.92.39-1.38.58-.6-.06-.99.19-1.12.79v.03Z"/>
    <path class="st0" d="M146.6,288.54c1.73-1.21,2.89-2.19,4.21-2.88,1.06-.55,2.33-2.49,3.42-.73.74,1.2-.8,2.51-1.93,3.25-1.51.99-3.21,1.41-5.69.36Z"/>
    <path class="st0" d="M622.32,320.86c-1.23.22-1.33,1.22-1.48,2.17-1.69-2.12-3.37-4.25-5.06-6.37-.55-.68-1.01-1.51-.21-2.13.88-.68,1.5.34,1.99.86,1.65,1.77,3.19,3.64,4.77,5.47Z"/>
    <path class="st0" d="M129.8,340.52c-2.65,1.31-4.88,1.31-6.94-1.1-.68-.79-.97-1.57-.35-2.03.84-.62,2.36-1.38,3-1.02,1.91,1.07-.55,1.56-.69,2.46,1.6.69,3.58.09,4.99,1.7Z"/>
    <path class="st0" d="M193.73,356.8c.67-1.97,1.34-3.94,2.12-6.24,2.51,3.35,1.1,5.16-2.12,6.24Z"/>
    <path class="st0" d="M146.41,300.81c.15-.48.14-.81.31-.96,1.57-1.48,3.13-3.08,5.61-2.31.57.18.9.92.54,1.3-1.74,1.84-3.84,2.64-6.46,1.97Z"/>
    <path class="st0" d="M168.45,368.94c-.58,2.14-1.71,3.13-2.64,4.24-.82.97-1.71.69-2.42-.08-1.13-1.24.17-1.58.9-2,1.16-.67,2.38-1.24,4.16-2.16Z"/>
    <path class="st0" d="M140.04,321.17c1.47.81,1.74,2.26,1.75,3.75,0,1.1-.64,1.92-1.78,1.62-1.73-.47-1.41-2.06-1.44-3.35-.02-.96.07-1.94,1.47-2.01Z"/>
    <path class="st0" d="M124.6,331.17c-4.09.57-6.34-1.6-8.82-3.17,1.97-.88,2.48-.71,8.82,3.17Z"/>
    <path class="st0" d="M390.47,327.43c3.14-.06,2.21,2.29,2.36,3.99.24,2.73-1.72,2.87-3.63,3.07,1.34-2.19,3.23-4.28,1.26-7.06Z"/>
    <path class="st0" d="M159.41,309.92c-2.64-.51-2.04-3.28-3.66-4.14.26-.44.41-1.04.79-1.3.74-.5,1.28-.06,1.51.7.45,1.47.85,2.96,1.36,4.74Z"/>
    <path class="st0" d="M164.66,322.54c2.41.72,3.65-2.05,5.89-2.11-1.2,3.71-3.03,4.32-5.83,2.05,0,0-.06.05-.06.05Z"/>
    <path class="st0" d="M146.86,385.04c-2.38,1.79-3.88,1.34-5.79-.55,2.13-.8,3.67-.06,5.79.55Z"/>
    <path class="st0" d="M382.78,347.93c.19,2.97.86,6.12-2.91,7.56.64-2.65.98-5.41,2.91-7.56Z"/>
    <path class="st0" d="M162.95,304.81c-1.24-1.71-3.1-2.22-2.18-4.11.19-.4,1.02-.93,1.14-.84,1.42,1.06.76,2.64,1.04,4.95Z"/>
    <path class="st0" d="M386.17,339.83c.08,2.91.74,6.06-3.04,7.39.82-2.54,1.39-5.19,3.04-7.39Z"/>
    <path class="st0" d="M131.11,347.98c-1.14-1.3-2.45-2.21-1.25-3.67.43-.53,1.65-.97,2.19-.24.96,1.31.11,2.51-.94,3.91Z"/>
    <path class="st0" d="M124.21,317.18c-.24-1.4-.67-2.78.23-3.97.07-.09.84.09.94.31.71,1.5-.5,2.51-1.17,3.66Z"/>
    <path class="st0" d="M250.74,386.98c-.79-1.26-1.57.5-2.45-.07.21-1.81,1.48-2.49,3.03-2.9,1.25,1.36-1.77,1.69-.59,2.97,0,0,0,0,0,0Z"/>
    <path class="st0" d="M367.96,338.94c-.73-3.22.39-5.84,2.6-8.11-.56,2.8-1.05,5.63-2.6,8.11Z"/>
    <path class="st1" d="M535.18,374.55c-1.49-2.18-1.41-4.37-.04-6.57.39,2.19.37,4.38.04,6.57Z"/>
    <path class="st1" d="M537.39,355.46c-.8.02-1.6.03-2.4.05.65-1.41,1.08-3,2.87-3.63.75,1.37.4,2.51-.48,3.59Z"/>
    <path class="st5" d="M224.32,388.4c.78.01,1.56.03,2.34.04.55,1.3-.05,2.3-1.11,3.61"/>
    <path class="st1" d="M459.9,347.67c-1.15,2.21,0,5.06-1.99,7.03.02-2.53.39-4.95,1.99-7.03Z"/>
    <path class="st0" d="M379.64,356.52c-.09,2.28-.17,4.56-.26,6.83-2.26-2.37-.52-4.58.26-6.83Z"/>
    <path class="st0" d="M172.17,284.51c-.08,2.18.74,4.45-.62,6.52-.55-2.24-.22-4.41.62-6.52Z"/>
    <path class="st0" d="M383.73,363.58c.65-2.45,2.67-2.82,4.73-3.11-1.3,1.46-2.83,2.57-4.73,3.11Z"/>
    <path class="st1" d="M436.58,375.37c-.93.03-1.86.05-2.79.08.62-1.16,1.34-2.5,2.86-2.04.82.25.61,1.31-.07,1.96Z"/>
    <path class="st0" d="M391.22,358.59c.75-1.7,1.87-2.93,3.86-3.05-.86,1.56-2.13,2.6-3.86,3.05Z"/>
    <path class="st0" d="M346.56,374.62c-2.75,1.27-5.49,1.28-8.23-.03,2.74.01,5.49.02,8.23.03Z"/>
    <path class="st1" d="M455.28,372.19c.44,1.44,1.12,2.92-.65,4.01-.29-1.42-.14-2.76.65-4.01Z"/>
    <path class="st0" d="M406.08,339.59c.28-1.6.24-3.41,2.42-3.8-.24,1.63-1.12,2.85-2.42,3.8Z"/>
    <path class="st0" d="M389.1,334.57c.77,1.86.18,2.81-1.87,2.78-.02-1.36.69-2.23,1.87-2.78Z"/>
    <path class="st1" d="M535.41,366.15c-.39-1.66-1.06-3.35.51-4.81.07,1.63.13,3.25-.51,4.81Z"/>
    <path class="st0" d="M159.45,311.26c.48.1.7.41.5.85-.15.33-.4.77-.89.38-.2-.16-.42-.42-.44-.65-.04-.55.39-.6.82-.59Z"/>
    <path class="st0" d="M630.27,286.16c.49-.02.98-.03,1.47-.05,0,0,0,0,0,0,.32.79.64,1.59.95,2.38h0c-1.08-.49-2-1.16-2.42-2.34Z"/>
    <path class="st0" d="M408.85,335.3c-.35-1.58.24-2.55,1.86-2.83-.04,1.33-.87,2.13-1.86,2.83Z"/>
    <path class="st0" d="M172.75,278.39c.23.52.3,1.02-.13,1.48-.72-.56-.71-1.06.13-1.48Z"/>
    <path class="st3" d="M162.27,419.33c.75.19.79.7.75,1.25-.05.66-.49.98-1.05.8-.25-.08-.45-.66-.46-1.01-.01-.5.07-1.1.76-1.04Z"/>
    <path class="st1" d="M456.79,363.08c.67,1.16,1.08,2.29-.46,3.12-.29-1.11.04-2.12.46-3.12Z"/>
    <path class="st0" d="M379.77,363.93c1.24-.07,2.47-.14,3.7-.21-1.17,1.27-2.39,1.63-3.7.21Z"/>
    <path class="st0" d="M399.59,348.99c-.1-1.23.38-2.08,1.61-2.42-.11,1.09-.44,2.03-1.61,2.42Z"/>
    <path class="st1" d="M462.38,343.39c-.08,1.01-.02,2.13-1.49,2.22.11-1,.5-1.8,1.49-2.22Z"/>
    <path class="st0" d="M396.19,354.48c0-1.05,0-2.1,1.46-2.16-.09.99-.55,1.73-1.46,2.16Z"/>
    <path class="st0" d="M619.43,277.87c1.13,0,1.92.51,2.31,1.6-1.11-.04-1.84-.63-2.31-1.6Z"/>
    <path class="st1" d="M538.15,385.31c-.95-.18-1.86-.39-.8-1.59.67.33.88.88.8,1.59Z"/>
    <path class="st5" d="M464.01,386.22c-.08-1,.33-1.62,1.34-1.8,0,.93-.52,1.48-1.34,1.8Z"/>
    <path class="st0" d="M174.5,269.2c-.08.27-.15.53-.23.79-.66-.48-.54-.73.23-.79Z"/>
    <path class="st0" d="M173.66,273.3c-.07.28-.14.56-.21.84-.71-.48-.5-.72.21-.84Z"/>
    <path class="st0" d="M398.03,351.53c-.2-.98.1-1.62,1.17-1.75.07.89-.42,1.4-1.17,1.75Z"/>
    <path class="st3" d="M147.66,403.54c-.66-.31-1.02-.82-1.1-1.54.6-.25,1.27-.48,1.7.15.42.63.18,1.18-.6,1.39Z"/>
    <path class="st0" d="M388.73,360.29c.16-1.07.81-1.46,1.84-1.31-.37.78-.91,1.32-1.84,1.31Z"/>
    <path class="st3" d="M139.64,403.98c-1.57.52-2.15-.12-1.95-1.67.84.34,2.17.09,1.95,1.67Z"/>
    <path class="st1" d="M669.81,380.2c-.72.02-1.43.03-2.15.05.24-.54.48-1.09.72-1.63.91.14,1.42.64,1.42,1.58Z"/>
    <path class="st0" d="M402.75,344.38c.11-.81.02-1.74,1.2-1.84-.18.76-.3,1.55-1.2,1.84Z"/>
    <path class="st0" d="M532.68,359.41c-.13.7-.06,1.5-.93,1.83-.02-.78.23-1.42.93-1.83Z"/>
    <path class="st1" d="M508.03,273.78c.73,1.02.87,1.88-.63,2.28.21-.76.42-1.52.63-2.28Z"/>
    <path class="st1" d="M475.74,370.16c-.2-.9.25-1.32,1.09-1.43-.06.71-.5,1.12-1.09,1.43Z"/>
    <path class="st5" d="M462.24,388.47c.09-.72.33-1.31,1.15-1.44-.09.71-.39,1.26-1.15,1.44Z"/>
    <path class="st0" d="M530.04,364.02c-.02.63-.22,1.13-.93,1.24,0-.64.24-1.11.93-1.24Z"/>
    <path class="st0" d="M371.61,328.64c.25-.37.5-.73.75-1.1-.25.37-.5.73-.75,1.1Z"/>
    <path class="st0" d="M344.27,326.02c.13-.61.52-.86,1.12-.79-.37.27-.75.53-1.12.79Z"/>
    <path class="st0" d="M634.36,290.03c-.28-.23-.55-.46-.83-.69h-.07c.29.23.59.46.88.68h.02Z"/>
    <path class="st0" d="M633.53,289.35c-.28-.28-.56-.56-.84-.84,0,0,0,0,0,0,.26.28.51.57.77.85h.07Z"/>
    <path class="st5" d="M472.36,374.96c.27-.4.54-.8.81-1.2-.27.4-.54.8-.81,1.2Z"/>
    <path class="st5" d="M464.68,340.52c-.26.31-.52.62-.79.94.26-.31.52-.62.79-.94Z"/>
    <path class="st0" d="M628.44,284.54c.25.2.49.4.74.6-.48.08-.71-.13-.74-.6Z"/>
    <path class="st5" d="M433.32,375.82c-.15.16-.33.27-.53.35,0-.38.15-.53.53-.35Z"/>
    <path class="st0" d="M627.59,283.7c.26.26.52.51.78.77-.26-.26-.52-.51-.78-.77Z"/>
    <polygon class="st5" points="471.5 376.41 471.49 376.5 471.58 376.48 471.5 376.41"/>
    <path class="st1" d="M535.57,376.99c-.09-.16-.21-.32-.26-.49-.02-.06.11-.16.17-.24.24.22.27.47.09.74Z"/>
    <path class="st5" d="M463.92,341.43c-.26.29-.52.59-.78.88,0-.52.26-.82.78-.88Z"/>
    <path class="st5" d="M431.65,377.35c-.11.18-.25.33-.44.43.15-.14.29-.28.44-.43Z"/>
    <path class="st5" d="M470.53,377.62c.09-.2.2-.38.34-.55.23.4.05.54-.34.55Z"/>
    <path class="st0" d="M626.55,282.98c.33.23.67.45,1,.68-.33-.23-.67-.45-1-.68Z"/>
    <path class="st5" d="M468.96,379.48c.26-.26.53-.52.79-.78-.02.5-.22.83-.79.78Z"/>
    <path class="st1" d="M535.93,379.48c-.15-.16-.29-.33-.44-.49.1-.08.19-.17.29-.25.24.21.29.45.15.74Z"/>
    <path class="st5" d="M259.3,410.53c-.31-.39-.64-.8-.25-1.3.44-.56.83-.17,1.2.13-.32.38-.63.77-.95,1.16Z"/>
    <path class="st0" d="M624.95,282.03s-.16,0-.16,0c.05.02.11.02.16,0Z"/>
    <path class="st5" d="M467.46,381.6c.22-.41.44-.81.66-1.21.11.59-.16.96-.66,1.21Z"/>
    <path class="st0" d="M395.38,355.27c.11-.27.3-.44.57-.53.05.44-.13.63-.57.53Z"/>
    <polygon class="st0" points="624.04 281.22 624.18 281.34 623.98 281.43 624.04 281.22"/>
    <path class="st5" d="M466.52,383s-.01.16-.02.16c0,0,.02-.16.02-.16Z"/>
    <path class="st5" d="M475.4,382.51c-.22.38-.45.76-.67,1.15.22-.38.45-.76.67-1.15Z"/>
    <path class="st0" d="M623.06,280.32c.18.1.31.24.42.41-.39.11-.53-.02-.42-.41Z"/>
    <path class="st0" d="M621.92,279.58c.23.14.46.27.69.41-.39.13-.64.03-.69-.41Z"/>
    <path class="st0" d="M618.03,277.08c.16,0,.29.07.38.21,0,0-.29.11-.29.11l-.09-.32Z"/>
    <path class="st0" d="M533.26,358.27c0,.23-.09.4-.29.52,0,0-.05-.37-.05-.37l.34-.15Z"/>
    <path class="st0" d="M411.22,331.6c.15-.26.31-.53.46-.79.12.42,0,.7-.46.79Z"/>
    <path class="st5" d="M477.3,368.22c.27-.35.53-.71.8-1.06-.27.35-.53.71-.8,1.06Z"/>
    <path class="st5" d="M460.53,346.21c-.16.36-.33.71-.49,1.07.16-.36.33-.71.49-1.07Z"/>
    <polygon class="st0" points="411.88 330.4 412.06 330.1 412.16 330.35 411.88 330.4"/>
    <polygon class="st5" points="149.89 386.94 150 386.83 149.92 386.95 149.89 386.94"/>
    <polygon class="st5" points="226.78 386.46 226.75 386.41 226.92 386.49 226.78 386.46"/>
    <path class="st0" d="M531.65,361.4c-.15.23-.29.46-.44.69-.16-.43,0-.65.44-.69Z"/>
    <path class="st0" d="M404.61,341.67c.19-.33.38-.67.57-1-.19.33-.38.67-.57,1Z"/>
    <path class="st0" d="M525.72,369.51s.14-.11.14-.11c0,0-.14.11-.14.11Z"/>
    <polygon class="st0" points="530.9 362.59 530.84 362.71 530.66 362.58 530.9 362.59"/>
    <path class="st5" d="M465.44,339.48c0,.56-.26.93-.8,1.09.27-.37.53-.73.8-1.09Z"/>
    <path class="st0" d="M405.27,340.57c.22-.25.43-.49.65-.74.03.46-.13.75-.65.74Z"/>
    <path class="st0" d="M387.13,337.61c-.03.19-.11.35-.25.48-.05-.08-.11-.15-.16-.23.14-.08.28-.16.42-.25Z"/>
    <path class="st0" d="M401.98,345.4c.07-.26.23-.46.46-.59.15.43-.02.62-.46.59Z"/>
    <polygon class="st5" points="474.75 371.57 474.8 371.52 474.94 371.63 474.75 371.57"/>
    <path class="st0" d="M401.26,346.48c.18-.27.35-.54.53-.81.11.46-.05.73-.53.81Z"/>
    <path class="st0" d="M528.26,366.38c.02.28-.11.46-.38.52-.15-.38-.02-.55.38-.52Z"/>
    <path class="st5" d="M465.58,384.12c.12-.17.24-.32.38-.47.19.41.03.55-.38.47Z"/>
    <path class="st6" d="M394.8,278.29c3.87.03,7.61,2.73,9.12,6.64,1.37,3.54-.13,6.29-2.81,8.32-3.71,2.82-5.1,7.14-7.26,10.88-2.31,4-4.9,7.36-8.78,9.98-2.38,1.61-3.69.35-4.18-1.14-1.05-3.2-2.14-6.66.82-9.67,3.82-3.89,4.95-9.1,6.75-13.98.4-1.08.25-2.11-.05-3.22-1.45-5.36.62-7.86,6.38-7.82Z"/>
    <path class="st0" d="M364.78,337.37c.09-.61.06-1.32.98-1.27.09,0,.25.16.26.26.07.93-.64.9-1.25,1,0,0,.01.01.01.01Z"/>
    <path class="st1" d="M678.15,283.01c-.89-2.84-2.86-3.23-5.7-3.71-4.4-.75-8.71-1.52-13.2-1.45-6.81.11-8.29,1.99-6.11,8.66.54,1.64.83,2.99.25,4.7-.84,2.49-2.03,4.89-4.68,5.21-2.37.29-2.86-2.58-4-4.1-.93-1.25-1.19-2.67-3.12-3.29-1.83-.59-2.88-2.47-2.33-4.7,3.34,2.54,6.63,5.12,9.22,8.48.89,1.16,1.91,2.2,2.98.11,0-.46-.01-.92-.02-1.38-.44-1.4-.44-2.8,0-4.2,0-2.99,0-5.99,0-8.98.09-1.13,0-1.27.14-2.16,6.33,0,12.66,0,19-.01,3.93.08,7.95-.18,10.8,3.36-.37.59-.29.53-.73.97-.28.26-.57.53-.85.79,0,0,0,0,0,0-.28.27-.57.55-.85.82,0,0,.03-.03.03-.03-.28.3-.56.6-.85.9v.02Z"/>
    <path class="st3" d="M651.46,278.35c0,3,0,5.99,0,8.98-.55-3-.53-5.99,0-8.98Z"/>
    <path class="st3" d="M651.45,291.53c0,.46.01.93.02,1.38-.5-.46-.42-.92-.02-1.38Z"/>
    <path class="st0" d="M678.14,282.99c.28-.3.56-.6.85-.9-.28.3-.56.6-.85.9Z"/>
    <path class="st0" d="M678.96,282.11c.28-.27.57-.55.85-.82-.28.27-.57.55-.85.82Z"/>
    <path class="st0" d="M679.82,281.29c.28-.26.57-.53.85-.79-.28.26-.57.53-.85.79Z"/>
    <path class="st1" d="M724.04,324.17c6.94,0,13.88,0,20.82,0,1.33,0,2.08.87,2.18,2.02.13,1.51-1.2,1.16-2.06,1.23-7.13.57-13.78-3.12-21.04-1.38.04-.63.07-1.25.11-1.88Z"/>
    <path class="st1" d="M762.36,325.83c.29,1.06.58,2.11.86,3.17-4.5.62-8.21-3.01-12.83-2.12,3.99-1.47,8-.99,11.96-1.04Z"/>
    <path class="st1" d="M799.65,328.94c-2.44.04-4.88.09-7.32.11-1.24.01-2.54.1-2.68-1.67,2.26,0,4.52-.01,6.78.02,1.29.02,2.77-.29,3.22,1.53Z"/>
    <path class="st1" d="M633.46,289.35c-.26-.28-.51-.57-.77-.85-.32-.79-.64-1.59-.95-2.38,2.06-.27,3.18,1.09,3.94,2.62.47.95-.42,1.34-1.34,1.29-.29-.23-.59-.45-.88-.67Z"/>
    <path class="st1" d="M351.45,312.74c1.55-.08,1.72.84,1.72,1.86,0,1.11-.06,2.37-1.43,2.53-1.22.14-1.4-1.15-1.65-1.98-.36-1.25.36-2.03,1.35-2.41Z"/>
    <path class="st1" d="M338.92,288.42c-.6.07-1.05-.14-1.21-.74-.15-.56-.04-1.18.63-1.17.42,0,.96.4,1.2.78.35.55.03.99-.62,1.13Z"/>
    <path class="st1" d="M87.15,390.33c-.24,1.4-1.25,1.6-2.44,1.59-6.7-.01-13.39-.01-20.09,0-1.18,0-2.21-.17-2.38-1.62,8.3,0,16.6.02,24.9.02Z"/>
    <path class="st3" d="M263.64,176.44"/>
    <path class="st6" d="M144.12,395.24c.03-.63.36-.97.99-.89.1.01.28.47.2.58-.31.5-.75.7-1.26.21,0,0,.07.09.07.09Z"/>
  </g>
  <path class="st3" d="M127.24,277s1.83-39.96,49.1-78.48c56.92-46.37,115.29-29.5,115.29-29.5,0,0,1.48.49,1.49,1.07.01,1.07-.95,1.4-1.3,1.5-1.74.49-50.29,1.93-88.17,43.25-33.38,36.41-30.32,67.64-30.32,67.64l-2.15,3.73"/>
  <path class="st3" d="M539.23,349.35s-5.67,12.87-4.47,23.23c1.2,10.36,3.7,13.19,3.7,13.19"/>
  <path class="st3" d="M541.1,345.95s-6.24,12.14-10.44,17.45c-4.2,5.31-8.38,9.74-8.38,9.74"/>
  <path class="st3" d="M330.07,413.77s18.49-8.54,29.9-15.59c12.86-7.95,24.37-19.29,24.37-19.29l-19.85,27.49-23.41,7.99-11.01-.59Z"/>
  <path class="st1" d="M556.48,266.33"/>
  <path class="st3" d="M556.24,266.7"/>
  <line class="st3" x1="477.3" y1="368.22" x2="476.92" y2="368.8"/>
  <path class="st3" d="M475.83,370.23"/>
  <path class="st3" d="M464.64,340.57s-7.11,14.47-8.3,25.62-3.69,25.5-1.54,26.8,5.45-1.57,7.64-5.25c3.36-5.63,31.42-40.75,31.42-40.75l-4.79,11.79-29.03,41.29-8.93.85-3.4-11.76,1.46-27.42,3.64-16.35,11.83-4.82Z"/>
  <path class="st3" d="M390.42,331.54l-9.58,19.99s-2.65,12.13-.18,13.11,10.95-6.83,10.95-6.83l20.44-27.7,1.66,9.73-20.57,27.68h-18.29l-3.72-15.19,10.48-21.37,8.8.58Z"/>
  <path class="st3" d="M431.08,377.78s.8-.53,1.67-1.26,1.04-1.07,1.04-1.07l.89-2.04-5.07,1.35-.48,2.46,1.94.55Z"/>
  <path class="st3" d="M615.78,275.81s6.58,2.94,11.27,6.86c4.69,3.91,8.13,8.86,8.13,8.86l-12.92,1.8-7.87-8.87,1.39-8.65Z"/>
  <text class="st2" transform="translate(297.86 153.61)"><tspan x="0" y="0">HERBOLARIO</tspan></text>
</svg>