<?xml version="1.0" encoding="UTF-8"?>
<svg id="Capa_1" xmlns="http://www.w3.org/2000/svg" version="1.1" viewBox="0 0 841.89 595.28">
  <!-- Generator: Adobe Illustrator 29.0.0, SVG Export Plug-In . SVG Version: 2.1.0 Build 186)  -->
  <defs>
    <style>
      .st0 {
        fill: #feca05;
      }

      .st1 {
        fill: none;
        stroke: #feca05;
        stroke-miterlimit: 10;
        stroke-width: 4px;
      }

      .st2 {
        fill: #9ac443;
      }

      .st3 {
        fill: #016342;
      }
    </style>
  </defs>
  <ellipse class="st2" cx="356.81" cy="137.39" rx="105.92" ry="82.27"/>
  <ellipse class="st0" cx="317.05" cy="132.94" rx="56.65" ry="47.59"/>
  <rect class="st2" x="8.09" y="206.91" width="792.94" height="165.95"/>
  <rect class="st2" x="266.23" y="449.3" width="540.47" height="53.44"/>
  <rect class="st0" x="36.45" y="374.22" width="766.35" height="75.08"/>
  <g>
    <path class="st3" d="M609.78,287.91c-.19,1.89.76,2.52,2.68,2.48,10.72-.19,21.44-.03,32.15-.45,6.5-.26,12.96-1.37,19.44-2.07,2.26-.24,2.79-1.06,1.44-3.1-5.64-8.52-7.52-17.81-6.39-28,1.7-15.39,9.56-26.7,22.48-34.47,15.91-9.56,32.92-10.81,49.92-3.56,18.37,7.83,30.42,23.95,29.81,44.59-.34,11.64-4.86,21.45-13.43,29.67-15.66,15.04-34.08,18.18-54.29,13-7.08-1.81-13.91-5.04-19.2-10.58-.55-.57-.92-1.74-1.99-1.14-.89.5-.45,1.55-.47,2.37-.07,2.45.5,4.85.2,7.36-.31,2.56-1.39,3.35-3.8,3.31-5.05-.1-10.11-.05-15.16-.05-19.97,0-39.95-.06-59.92.09-3.4.03-4.44-1.02-4.41-4.39.2-24.02.26-48.03.3-72.05.01-6.53-.41-13.07-.18-19.58.13-3.72-1.23-4.5-4.67-4.49-35.38.13-70.77.14-106.15.15-39.57,0-79.15.01-118.72-.09-3.2,0-4.06.78-4.14,4.15-.75,28.67-2.17,57.32-1.69,86.02,0,.49-.02.99-.02,1.48q0,8.69-8.88,8.7c-2.71,0-5.44-.25-8.13,0-2.93.26-3.88-.75-3.85-3.69.06-7.01.21-14.02.68-21.01.03-.45-.07-.91-.13-1.71-3.94,4.16-6.23,9.12-10.2,12.8-16.61,15.35-35.76,18.46-56.53,10.97-19.66-7.09-31.45-23.23-30.24-45.18.69-12.53.64-25.11-.43-37.66-.27-3.18.01-6.4.01-9.6q0-5.16-5.03-5.17c-36.86,0-73.73.01-110.59.01-26.51,0-53.01.02-79.52-.06-5.99-.02-4.86.32-4.87-5.01-.04-23.67.08-47.34-.09-71.01-.03-3.6,1.2-4.27,4.44-4.27,67.69.08,135.37.05,203.06.06,3.58,0,7.48.74,10.59-.8,3.2-1.58,2.92-5.94,4.07-9.01,5.32-14.27,15.26-24.53,27.62-32.64,11.35-7.45,23.94-11.9,37.4-13.91,17.82-2.67,35.13-1.21,52.38,4.34,13.65,4.39,25.08,11.88,34.92,21.83,7.07,7.14,12.21,15.78,14.62,25.72.67,2.75,1.95,3.77,4.79,3.72,7.52-.13,15.04-.07,22.56.04,112.05,1.63,224.1.25,336.15.7,9,.04,18,0,27-.01,1.49,0,2.96,0,4.36.59-2.42,36.37-2.22,65.39-1.78,83.18,2.39,95.63-1.82,191.33-.14,286.97.01.68.07,2.73-1.28,4.15-1.06,1.11-2.49,1.33-4.34,1.58-3.07.42-5.62.77-7.16-.64-.69-.63-.94-1.41-1.01-7.04-.07-6.02.2-7.03.06-11.54-.09-2.77-.21-2.92-.06-3.99.31-2.11,1.15-4.09,2.61-7.51.24-.56.44-1.02.69-1.74.72-2.07,1.29-3.68.72-4.58-.62-.99-2.44-.85-4.21-.74-10.88.67-13.6-.34-18.55,2.23-.61.32-1.07.6-1.57.9-4.71,2.84-7.3,5.78-7.73,6.7-.01.02-.15.32-.42.65-.24.3-.54.65-1.02.73-.27.04-.49-.02-.56-.04,0,0-.3-.09-.53-.34-.5-.53-.17-1.88-.17-1.88,1.99-7.98,3.51-14.1,5.8-16.97.25-.31,1.19-1.45.85-2.3-.12-.28-.34-.45-.43-.51-.75-.55-1.86-.23-2.2-.13-3.36.91-5.87-.62-8.63,1.25-1.65,1.12-2.64,2.95-4.25,5.93-.75,1.39-.98,2.09-1.87,2.78-1.61,1.25-3.57,1.07-5.15,1.02-3.43-.1-6.99.36-9.31,1.02-2.62.75-8.31,3.08-10.71,6.71-.38.57-1.62,2.61-2.84,2.42-.25-.04-.41-.16-.55-.26-1.54-1.1-4.37-3.14-4.37-5.9,0,0,0,0,0,0,0-1.43,0-2.84-.35-3.44-.66-1.14-3.29-.77-3.69-.72-18.06,2.47-20.1,1.61-20.82.67-.63-.82-.41-3.95.02-10.22.04-.53.13-1.84-.68-2.62-.66-.65-1.62-.64-2.47-.62-6.65.13-6.86.17-7.19.46-.89.79-.82,2.99-.65,7.36.13,3.33-.4,6.69.04,9.98.05.37.24,1.7-.41,2.15-.36.25-.91.18-1.05.16-.57-.07-.95-.37-1.07-.47-.88-.72-.93-1.99-.93-2.26-.03-1.75,1.23-2.54.77-3.56-.17-.37-.47-.57-.73-.73-1.67-1.06-4.04-.38-4.72-.2-4.8,1.27-11.28.35-14.05-.04-.38-.05-3.25-.47-4.19.66-1.15,1.39-1.22,1.47-1.22,1.47-.28.37-.37.52-.57.63-.71.42-1.73-.09-2-.22-1.46-.69-6.91-2.52-10.35-2.15-3.25.35-7.61,2.98-8.91,5.94-.25.58-.97,2.48-2.29,2.68-.11.02-.47.07-.8-.1-1.03-.56-.69-2.9-.65-4.07.03-1.02,0-9.36,0-14.42,0-.51.06-1.72-.73-2.49-.67-.65-1.63-.67-2.27-.68-4.78-.03-7.17-.04-7.56.36-.34.36-.58.83-.6,7.37,0,2.79.03,3.77-.71,4.49-.84.82-1.75.41-4.56.52-3.48.13-7.15.26-9.73,1.62-.34.18-1.18.66-2.04.39-.9-.28-1.34-1.22-1.49-1.53-1.07-2.17-4.41-6.46-7.13-7.92-2.18-1.17-2.13.47-10.28.09-2.44-.11-4.89.04-7.33-.09-2.03-.11-3.36-.24-4.24.6-1.21,1.16-.78,3.43-.62,4.28,2.03,11.13-1.37,13.23.08,36.25.04.68.16,2.44-.94,3.5-.96.93-2.38.71-3.54.8-1.01.08-4.93.12-14.05-.02-.8-.01-3.58-.19-3.59-.53-.02-.49,5.98-.06,7.61-3.18.38-.73.38-1.38.38-2.55,0-.62.01-4.77-2.31-6.21-2.05-1.27-4.67.35-4.97-.28-.37-.77,3.93-2.46,6.82-6.74.75-1.12,3.19-4.72,2.48-9.31-.13-.83-.61-3.69-2.87-5.95-3.61-3.6-10.05-3.96-14.4-1.77-5.53,2.78-8.41,10.04-9.86,9.36-.14-.06-.41-.27-.62-.57-.58-.85-.28-1.96-.19-2.3.63-2.55-.54-3.66-.06-17.38.02-.7.08-2.22-.84-2.91-.73-.54-2.13-.61-2.86-.65-.36-.02-.63-.01-.74,0-3.33.08-4.99.13-5.56.65-.65.6-.67,2.19-.69,5.38,0,1,.03,1.68-.07,2.95-.13,1.68-.21,2.53-.7,3.28-.83,1.24-2.39,1.54-2.93,1.66-4.24.95-11.58,6.08-15.08,10.59-.86,1.11-4.92,6.35-4.14,12.49,1.02,8.06,9.55,11,8.29,13.82-1.53,3.42-14.52.11-18.04-.02-.15,0-.62-.02-1.01-.33-.5-.41-.57-1.08-.6-1.37-1.32-13.42-1.98-20.13.09-23.99,1.37-2.56,2-5.46,3.25-8.07.33-.7.98-2.01.43-2.88-.55-.88-2.03-.88-2.75-.87-4.04.07-16.9.96-21.22,2.88-.35.15-1.65.76-2.09.3-.12-.12-.13-.28-.14-.35-.13-.98-.84-2.29-1.22-2.68-.76-.81-2.03.11-4.96.09-1.67-.01-3.3-.02-4.11-1.05-.41-.52-.44-1.57-.49-3.65-.06-2.3.12-2.84-.34-3.43-.27-.36-.77-.73-3.01-.95-3.41-.33-5.48-.53-6.55.75-.82.98-.87,2.59-.89,3.34-.03,1.05.18,1.87-.3,2.89-.2.42-.64,1.16-.9,1.08-.51-.15-.05-3.56.03-9.25.01-.89.01-2.08-.75-2.68-.61-.48-1.62-.52-2.83-.56-.56-.02-.99,0-1.11,0-3.21.17-4.82.26-5.36.77-.4.37-.31.61-.74,5.11-.2,2.05-.31,2.94-.97,3.8-.71.92-1.62,1.28-2.07,1.47-2.76,1.2-4.67,3.68-6.6,6.18-2.79,3.61-4.05,7.8-4.26,8.54-.68,2.33-1.11,5.06-3.08,5.95-.27.12-.66.29-1.03.14-.75-.31-.93-1.75-.59-7.1.19-2.95-.09-5.91,0-8.87.01-.48.05-1.79-.74-2.36-.43-.31-.95-.28-1.13-.27-3.41.17-9.58-1.69-19.53.11-1.65.3-2.31.5-2.95.77-2.73,1.14-5.3,3.12-5.3,3.12-.44.34-1,.79-1.73.74-.89-.06-1.5-.81-1.71-1.07-1.34-1.58-4.67-3.82-7.34-3.94-3-.14-6.65,2.32-7.49,4.06-.11.22-.49,1.09-.98,1.07-.37,0-.63-.52-.69-.63-.32-.61-.06-.97-.15-2.03-.05-.65-.12-1.39-.63-1.8-.33-.27-.72-.29-.92-.3-3.01-.16-4.45-.52-7.72.08-.47.09-.86.17-1.18.49-.15.15-.6.66-.5,3.03.07,1.61.32,2.22-.11,2.63-.39.38-1.08.33-1.27.32-.17-.01-.74-.07-1.15-.44-.36-.32-.57-.84-.5-2.69.08-2.19.43-2.58.13-3.1-.59-1.01-2.67-.82-3.72-.72-12.04,1.07-8.02-.57-17.01.06-.44.03-1.68.12-2.7-.62-.52-.38-.77-.83-.82-.9-.9-1.44-13.74-8.74-25.01-2.55-12.34,6.78-11.85,23.7-9.79,29.7,1.17,3.41,2.69,5.21,2.69,5.21,3.07,3.64,7.6,4.77,7.29,6.02-.1.38-.61.61-1.08.82-1.23.55-2.47.24-2.59.21-3.54-.73-246.43-1.69-261.12-.09-.89.1-4.41.58-6.44-1.47-1.87-1.88-1.56-4.97-1.46-6.19.93-10.81.23-42.92-.07-46.23-.04-.41-.2-1.79.62-2.84.65-.84,1.61-1.07,2.03-1.19,3.21-.92,5.71-4.19,7.61-6.67,2.29-2.99,2.87-5.36,3.36-5.21.74.23.57,6,.48,9.13-.01.52-.05,1.71.7,2.37.42.37.97.45,2.06.61,1.5.22,1.84,0,2.37.38.71.49.51,1.16,1,1.55,1,.8,3.74-.48,5.78-2.31,2.54-2.28,2.83-4.39,4.38-7.42,2.92-5.74,7.08-8.27,15.39-13.32.76-.46,2.22-1.31,3.51-.8,1.22.49,1.69,1.97,1.94,2.8,1.78,5.89,4.87,11.4,6,17.45.1.54.37,2.03,1.34,2.4.46.18.93.02,1.84-.31,1.3-.46,2.46-.88,2.9-1.85.39-.86.05-1.78-.13-2.27-2.12-5.64-3.26-11.68-5.91-17.1-.18-.36-.75-1.53-.28-2.16.22-.29.54-.31,1.89-.75.84-.27,1.26-.41,1.37-.47,1.23-.78,1.31-2.73,1.37-4.39.04-1.12-.1-1.4-.24-1.56-.53-.64-1.56-.46-2.77-.46-2.18,0-3.92-.58-4.44-.8-2.42-1.01-3.19-4.37-3.51-5.7-1.09-4.54-5.8-24.25-8.47-24.53-4.77-.49-18.18,59.84-20.61,59.7-.8-.05-1.16-.48-1.16-.48-.41-.5-.26-1.26-.22-1.47.68-3.7-1.89-21.77.05-27.34.15-.44.76-2.02.04-2.86-.25-.28-.56-.38-.68-.42-1.53-.45-3.5,1.56-3.93,2.01-2.52,2.57-3.05,6.07-4.72,11.18,0,0-2.61,8.01-6.86,12.16-.52.51-2.19,2.14-3.35,1.68-.3-.12-.49-.34-.56-.43-.78-.94-.28-2.56-.17-2.95.93-3.3.91-16.42.02-23.96-.24-2.05-.22-4.23-.16-8.58.02-1.77.08-3.56,1.29-5.12.87-1.12,1.95-1.61,2.95-2.07.91-.42,3.91-1.78,6.72-.64.59.24,1.62.77,2.61,1.64,1.12.97,1.46,1.71,2.36,1.82.63.08,1.12-.21,1.9-.67.98-.59,2.58-1.55,2.69-2.85.03-.39-.04-1.24-2.37-3.12-2.45-1.98-4.65-3.75-7.83-3.99-1.01-.08-3.58-.11-6.53.6-1.17.28-2.25.65-3,.08-.85-.64-.73-2.08-.67-3.1.16-2.62.1-6.3,0-13.68-.02-1.38-.07-2.66.8-3.6,1.18-1.27,3.26-1.08,3.79-1.05,0,0,727.25.35,736.4.06,9.14-.29,7.85-.7,7.7-7.8-.14-7.11.21-131.72.06-143.88,0-1.25.56-4.48-1.02-5.97-2.1-1.98-5.86-1.84-6.82-1.81-5.69.15-158.97.46-163.84-.13-.29-.04-1.73-.26-2.64.57-.87.8-.81,2.18-.79,2.57.08,2.65-.4,28-1.09,63.16M752.5,395.21c2.09.03,4.17.08,6.26.08.88,0,1.81-.1,2.39.65.72.94-.18,1.63-.64,2.26-2.42,3.32-4.11,7.03-5.32,10.9-3.17,10.12-4.2,20.25,1.04,30.11,4.28,8.07,14.33,9.69,20.89,3.38,8.18-7.87,11.7-17.79,12.12-28.84.31-8.28-1.09-16.07-9.37-20.57-1.19-.65-.65-1.4-.25-2.15,1.56-2.91.13-3.26-2.44-3.18-4.8.16-9.61.06-14.41.08q-7.88.04-10.17,7.37c-1.82-.98-2.63-2.9-3.94-4.34-3.34-3.68-7.39-4.66-12.07-3.52-4.09,1-7.37,3.29-9.98,6.57-8.28,10.38-11.06,22.34-9.56,35.28.71,6.14,3.51,11.44,9,15.01,7.88,5.13,18.59.7,24.56-5.03,1.91-1.83-.22-3.71-1.04-5.29-.89-1.7-2.09-.35-3.01.37-2.94,2.31-6.08,4.15-9.84,4.8-5.81,1.01-9.25-.86-12.07-6.02-2.14-3.92-2.24-8.05-1.94-12.21.6-8.48,2.58-16.58,8.55-23.04,4.82-5.22,12.45-5.44,15.67,1.24,1.1,2.27,4.69,1.94,5.77-.29.6-1.24-.53-2.38-.19-3.61ZM315.07,90.1c-16.83-.16-29.93,5.7-39.29,17.81-11.72,15.16-13.34,34.13-1.02,51.33,11.3,15.77,30.37,22.21,49.32,18.33,9.93-2.03,18.24-7.25,25.46-14.61,10.83-11.03,13.38-24.45,10.22-38.5-4.62-20.56-24.95-34.98-44.69-34.37ZM295.38,206.97c-11.58,0-23.16.06-34.74-.04-3.01-.03-4.38.99-3.96,4.08.12.85.11,1.74-.01,2.58-.43,2.86.87,3.49,3.55,3.47,18.97-.1,37.94,0,56.9-.11,2.71-.02,3.51,1.08,3.5,3.46-.02,3.2-.19,6.42.08,9.6.29,3.38-1.04,4.04-4.23,4.01-18.72-.17-37.45-.05-56.17-.14-2.67-.01-3.69.73-3.64,3.55.16,8.98-.02,17.96.08,26.93.15,13.81,9.46,23.22,21.87,26.13,14.73,3.45,24.97-1.69,33.45-14.73,1.08-1.66,2.18-2.42,4.15-2.33,3.2.15,6.4.1,9.61.1q7.92,0,7.93-7.88c0-18.11-.08-36.22.1-54.32.04-3.54-1.23-4.44-4.47-4.41-11.33.12-22.67.05-34,.05ZM710.9,290.85c15.63,1.66,30.23-12.85,29.75-27.51-.56-17.14-12.76-31.8-31.48-32.06-16.81-.24-28.89,12.59-29.83,25.62-1.36,18.92,14.16,35.43,31.56,33.95ZM230.45,420.33s-.05,0-.08,0c0,7.02.06,14.05-.03,21.07-.03,2.58.34,4.25,3.57,4.12,3.28-.13,2.52-2.21,2.52-4.13-.04-14.29-.05-28.58-.11-42.87,0-2.29.82-3.39,3.28-3.22,2.33.16,4.71.23,7.01-.05,3.39-.41,2.45-3.49,2.88-5.55.5-2.45-1.58-1.63-2.72-1.63-17.11-.07-34.21-.07-51.32-.16-2.47-.01-2.78,1.26-2.73,3.28.15,5.54.16,11.08.27,16.63.04,1.88.06,3.51-1.96,4.73-1.69,1.02-1.55,3.27-1.82,5.05-.34,2.24,1.83,1.38,2.81,2.01,1.28.82.93,2.18.93,3.37,0,6.53,0,13.06-.08,19.59-.02,1.66.04,2.95,2.2,2.93,6.65-.06,13.31.04,19.96-.13,3.33-.08,2.72-3.08,2.91-5.05.23-2.31-1.78-1.81-3.19-1.8-4.19.02-8.38-.05-12.57.11-2.41.09-3.35-.83-3.31-3.2.07-4.43.06-8.87-.01-13.31-.03-2.16.68-3.1,3.03-2.97,3.32.19,6.66-.1,9.98.04,4.16.17,3.61-3.22,3.88-5.43.32-2.65-2.21-1.63-3.54-1.68-3.44-.13-6.9-.02-10.35.05-1.67.03-2.93-.25-2.91-2.34.04-3.94.06-7.88.02-11.83-.02-2.21,1.2-2.6,3.09-2.59,8.12.02,16.25.11,24.37-.16,3.23-.11,4.09,1.16,4.05,4.07-.09,7.02-.03,14.05-.03,21.07ZM647.01,387.92c3.3-2.82,3.99-6.35,5.55-9.36.57-1.11,2.44-2.63.87-3.79-1.29-.96-3.38-.47-5.01.01-1.3.39-1.38,1.96-1.9,3.02-1.61,3.28-2.19,8-4.76,9.61-2.77,1.73-7.35.58-11.14.68-3,.08-4.71,2.13-4.46,5.72.22,3.02,2.64,1.23,4.04,1.56,1.25.3,2.97-.75,3.81.5,1.08,1.62-.89,2.57-1.56,3.76-6.88,12.31-9.42,25.18-3.64,38.5,4.25,9.79,15.37,11.12,22.65,3.23,8.94-9.69,11.86-21.35,10.53-34.1-.57-5.42-2.63-10.57-8.02-13.37-1.42-.74-1.7-1.78-1-3.03,1.74-3.09.02-3.23-2.38-2.98-.95.1-1.92.02-3.59.02ZM107.99,392.64c1.16-4.55-1.06-4.98-3.89-4.72-3.4.32-1.93,2.99-1.94,4.56-.09,16.37.1,32.75-.07,49.12-.04,3.61,1.43,4.28,4.38,3.76,1.82-.32,3.54-.55,5.44-.07,7.62,1.94,14.47-.76,19.03-7.26,6.13-8.74,5.13-19.87-2.57-27.61-1.04-1.05-.7-1.89-.24-2.96,1.51-3.47,2.01-7.11,1.31-10.84-1.25-6.65-6.94-10.66-13.12-9.4-3.06.62-4.84,3.19-8.35,5.41ZM518.24,394.11c-.27-1.2-.52-1.78-.52-2.36.03-2.22.12-4.13-3.19-3.98-3.15.14-3.07,1.86-3.05,4.16.15,15.02.21,30.04.29,45.06.01,2.57-.92,5.71.23,7.57,1.39,2.25,4.78.48,7.28.81.12.02.24.03.36.06,7.11,1.43,12.92-1.17,17.61-6.22,9.3-10.02,12.78-22.21,10.74-35.44-1.55-10.09-8.51-17.14-17.9-16.81-5.06.17-8.18,3.45-11.86,7.14ZM178.36,425.93c-.37.07-.74.14-1.12.21-1.15-2.14-2.37-4.26-3.44-6.44-5.21-10.6-10.38-21.23-15.6-31.83-.43-.87-.52-2.43-2.17-1.91-1.35.43-2.47,1.16-2.44,2.84.01.62-.04,1.23-.04,1.85.01,17.01.03,34.01.03,51.02,0,2.1-.08,3.88,2.97,3.86,2.86-.02,3.21-1.54,3.19-3.75-.09-10.47-.15-20.95-.19-31.42,0-1.02-.73-2.52.72-2.88,1.08-.27,1.38,1.15,1.82,2.01,6.13,12.07,12.25,24.14,18.39,36.2.51,1,.51,2.78,2.29,2.26,1.51-.44,1.7-1.81,1.7-3.31-.06-17.87-.1-35.75-.05-53.62,0-2.41-.84-3.25-3.23-3.23-2.34.02-2.89,1.02-2.86,3.16.1,7.4.06,14.79.06,22.19,0,4.26,0,8.51,0,12.77ZM422.52,387.93c-1.72,0-3.44,0-5.17,0-1.85,0-3.69.05-5.54,0-1.46-.04-2.44.19-3.08,1.86-1.79,4.7-.83,5.98,4.63,5.61.97-.07,2.16-.63,2.77.27.66.97-.45,1.79-.95,2.57-7.22,11.1-9.18,23.17-6.26,35.96,1.48,6.46,6.94,13.4,14.7,12.23,4.14-.63,7.41-2.81,10.03-5.77,9.29-10.51,11.81-22.94,9.41-36.46-.74-4.2-2.93-7.98-6.92-9.97-2.09-1.04-2.55-1.99-1.46-3.88,1.33-2.3-.12-2.42-1.84-2.41-3.44.02-6.89,0-10.33,0ZM699.19,427.88s-.06,0-.09,0c0-4.68.03-9.36-.02-14.04-.01-1,.71-2.47-.86-2.81-1.26-.27-2.42.53-3.16,1.57-1.51,2.13-2.31,4.59-3.21,7.03-2.03,5.54-4.2,11.04-7.86,15.79-4.68,6.07-10.81,3.56-12.83-2.63-3.79-11.58-1.38-22.46,5.22-32.27,4.78-7.11,10.92-8.02,17.54-3.48,2.21,1.51,3.1-.32,4.35-1.28,1.42-1.09,1.08-2.17-.05-3.4-3.05-3.31-6.57-5.49-11.25-5.36-6.2.18-10.63,3.59-14.27,8.11-5.58,6.92-7.99,15.2-8.98,23.84-.89,7.74.08,15.25,4.78,21.87,4.66,6.56,13.54,6.93,18.63.69,1.39-1.71,2.49-3.65,3.72-5.49.4-.6.74-1.46,1.61-1.21.88.26.7,1.18.71,1.9.02,1.85.1,3.7.02,5.54-.09,1.99.23,3.3,2.73,3.24,2.27-.06,3.39-.69,3.32-3.19-.13-4.8-.04-9.61-.04-14.41ZM565.92,384.73c-1.2.66-1.21,1.46-1.44,2.14-6.67,19.26-13.35,38.53-20,57.8-.38,1.11-1.55,2.49-.53,3.39,1.33,1.16,2.72-.43,4.02-.88,1.22-.43,1.39-1.91,1.94-3,4.32-8.59,10.75-15.01,19.22-19.64,3.27-1.79,4.28-.68,5.31,2.16,2.09,5.77,4.52,11.43,6.45,17.26.97,2.92,2.35,2.55,4.37,1.46,2.35-1.26,1.49-3.04.85-4.78-1.95-5.3-3.93-10.6-5.9-15.9-.71-1.91-1.14-3.55,1.96-2.8,1.19.29,1.68-.38,2.13-1.45,1.92-4.57.92-6.04-4.2-5.67-2.57.18-3.85-.52-4.72-3.21-2.92-8.96-6.23-17.8-9.46-26.88ZM615.5,433.01c.91,3.67.55,6.6.41,9.5-.11,2.21.66,3.08,2.93,3.08,2.32,0,2.94-.97,2.92-3.12-.09-9.6-.07-19.2-.1-28.8,0-.95.39-2.19-.65-2.68-1.24-.58-2.35.34-3.33,1.04-.84.6-1,1.64-1.34,2.57-2.67,7.13-5.22,14.31-9.74,20.58-3.78,5.24-8.72,4.78-12.12-.83-5.46-9.01-1.52-28.66,6.38-36.16,5.72-5.43,9.24-5.51,15.55-.92,2.14,1.56,3.12-.3,4.41-1.18,1.45-.99,1.15-2.08.16-3.41-4.21-5.69-12.28-7.29-18.53-3.67-6.87,3.98-10.89,10.07-13.35,17.41-3.31,9.87-4.76,19.77-.61,29.8,2.1,5.07,5.33,8.87,11.1,9.61,5.36.68,8.79-2.35,11.59-6.4,1.31-1.89,2.57-3.82,4.32-6.42ZM454.69,392.46c-.18-.66-.45-1.12-.4-1.54.33-2.48-.73-3.25-3.15-3.13-2.29.11-2.92,1.11-2.92,3.24.07,17.12.1,34.25.06,51.37,0,2.19.65,3.06,2.94,3.1,2.49.05,3.18-.93,3.12-3.28-.13-5.05.05-10.11-.04-15.16-.04-2.23.47-3.45,3.03-3.4,12.35.2,21.03-9.77,19.78-23.18-.54-5.8-3.13-10.49-8.58-12.8-5.4-2.28-9.42.82-13.05,4.46-.08.08-.22.09-.81.32ZM481.4,432.68h-.1c0,3.32,0,6.64,0,9.96,0,1.24-.16,2.79,1.56,2.81,7.14.08,14.28.19,21.41-.09,2.91-.12,2.29-3.1,2.56-4.98.37-2.52-1.75-1.8-3.05-1.82-4.43-.06-8.86-.05-13.29.02-2.33.04-3.4-.96-3.34-3.3.11-4.31.2-8.61.2-12.92,0-2.35.95-3.31,3.36-3.2,3.31.16,6.64.05,9.96.08,4.02.04,3.56-3.45,3.82-5.61.32-2.58-2.28-1.46-3.61-1.51-3.56-.15-7.14-.1-10.71-.04-1.99.04-2.9-.57-2.78-2.78.19-3.56.18-7.14.02-10.7-.12-2.67,1.04-3.43,3.52-3.33,3.81.16,7.63.09,11.45.09,4.07,0,2.53-3.7,3.22-5.58.74-2.01-1.65-1.71-3.06-1.72-5.91-.05-11.82,0-17.72-.2-2.7-.09-3.75.72-3.62,3.53.24,5.16.22,10.34.19,15.51,0,2.1.23,4.04-1.83,5.94-1.2,1.11-3.52,4.74-.64,6.1,2.38,1.12,2.38,2.45,2.45,4.15.13,3.19.04,6.4.04,9.6ZM251.62,432.29s-.05,0-.08,0c0,3.57.04,7.14-.02,10.71-.02,1.64.45,2.49,2.3,2.47,6.65-.06,13.3.02,19.94-.01,3.5-.02,2.15-2.98,2.6-4.7.57-2.17-1.01-2.27-2.67-2.24-4.56.07-9.11.05-13.67.02-1.35,0-2.77.07-2.74-2.04.07-4.92.05-9.85,0-14.77-.02-2.18,1.18-2.68,3.08-2.63,3.44.09,6.89.14,10.33.08,3.64-.07,3.3-3.34,3.65-5.44.48-2.8-2.12-1.59-3.4-1.65-3.44-.15-6.9-.16-10.34,0-2.32.1-3.45-.59-3.37-3.07.12-3.57.16-7.14.07-10.71-.06-2.25.88-3.09,3.07-3.01,3.81.15,7.63.25,11.45.23,3.75-.02,3.19-3.05,3.49-5.37.33-2.62-1.66-2.23-3.2-2.24-5.78-.04-11.57.05-17.35-.08-2.34-.05-3.3.61-3.22,3.12.17,5.54.09,11.08.07,16.62,0,1.86.6,3.8-2.12,4.81-1.66.62-1.93,6.68-.69,6.69,3.49.02,2.78,2.39,2.81,4.37.05,2.95.01,5.91.01,8.87ZM298.77,416.91s.06,0,.09,0c0,4.19.02,8.38,0,12.56-.02,4.19-.05,8.37-.15,12.56-.05,1.87-.07,3.4,2.52,3.49,2.66.09,3.06-1.31,3.01-3.45-.1-4.56.06-9.12-.21-13.67-.2-3.38.68-5.04,4.43-4.8,2.69.18,5.39-.59,7.83-1.84,9.93-5.09,12.49-14.83,10.03-24.9-1.87-7.68-8.35-11.3-14.67-9.33-2.25.7-3.7,2.36-5.26,3.92-1.03,1.03-2.18,1.25-2.16-.56.02-2.49-1.02-3.3-3.34-3.06-2.67.29-2.09,2.32-2.09,3.93-.04,8.38-.02,16.75-.02,25.13ZM333.26,446.29c11.28.33,20.53-6.95,22.7-18.07,1.91-9.77-1.7-17.96-12.52-19.55-1.58-.23-3.16-.54-4.68-1.01-4.58-1.43-5.64-4.72-2.74-8.63,1.33-1.79,3.05-3.1,5.24-3.9,3.24-1.18,6.46-1.16,9.81-.73,3.51.45,2.38-3.07,3.51-4.67.99-1.4-.39-1.81-1.5-2.15-9.74-2.99-20.6,2.5-23.96,12.13-2.29,6.56,1,12.86,7.75,14.67,2.73.73,5.54,1.16,8.27,1.88,3.38.9,5.04,3.12,5.14,6.73.3,10.44-8.25,17.66-19.48,16.29-3.2-.39-5.29,1.2-5.39,4.64-.08,2.82,2.66,1.8,4.16,2.29,1.11.36,2.44.07,3.67.07ZM377.4,423.06c.03-8.19,2.23-15.77,6.6-22.68,5.01-7.91,12.52-8.24,17.96-.84.9,1.22,1.72,1.67,3.04.76,1.27-.88,3.04-1.43,2.1-3.63-1.97-4.61-4.69-8.37-10.03-9.36-7.14-1.33-12.23,2.23-16.18,7.43-8.34,10.97-11.22,23.41-8.44,36.93,2.2,10.72,9.63,16.15,19.6,14.52,4.56-.75,8.43-3.13,12.25-5.75,3.24-2.22,1.66-4.04.31-6.05-1.85-2.74-3.08.22-4.54.68-.76.24-1.29,1.13-2.02,1.57-7.36,4.43-16.35,4.54-19.71-6.27-.75-2.4-1.07-4.8-.95-7.3ZM712.19,416.77h-.04c0-8.6-.05-17.2.03-25.8.02-2.43-.94-3.17-3.3-3.16-2.34,0-2.91.96-2.9,3.1.07,16.97.05,33.94.07,50.91,0,2.08.13,3.69,3.12,3.74,3.14.06,3.01-1.71,3.01-3.72.01-8.35,0-16.71,0-25.06ZM367.19,416.6s-.04,0-.06,0c0-8.37-.02-16.75.02-25.12,0-1.87.55-3.7-2.51-3.67-2.71.03-3.54.9-3.52,3.65.12,16.99.12,33.99,0,50.98-.02,2.63,1.02,3.08,3.25,3.1,2.27.02,2.91-.83,2.88-3.07-.13-8.62-.05-17.24-.05-25.86ZM140.48,416.49c0,8.48.05,16.97-.03,25.45-.02,2.04-.11,3.59,2.7,3.6,2.61.01,3.38-1.05,3.37-3.5-.07-16.97-.06-33.94-.04-50.91,0-2.12-.34-3.42-3-3.45-2.95-.03-3.04,1.5-3.02,3.71.08,8.36.03,16.72.03,25.08Z"/>
    <path class="st3" d="M119.47,308.33c-11.2-.01-22.48.67-33.55-1.26-18.49-3.21-31.55-14.02-37.87-31.46-5.47-15.1-2.31-29.43,7.75-42.27,12.49-15.92,35.24-22.44,53.87-17.65,11.64,2.99,21.91,8.67,29.13,18.79,1.69,2.37,2.68,3.21,4.23-.42,2.84-6.62,8.34-11.18,14.69-13.96,17.43-7.65,35.25-7.81,53.21-1.51,10.56,3.71,17.62,10.89,21.79,21.11.33.8.62,1.61,1,2.38,2.55,5.27,2.5,5.46-3.55,5.6-4.42.11-8.84-.11-13.26-.18-1.72-.03-3.17-.59-3.9-2.28-3.99-9.33-11.95-12.45-21.19-13.72-8.23-1.13-16.18-.35-23.9,2.84-2.2.91-3.68,2.52-4.98,4.26-2.18,2.9-.16,6.29,4.15,6.8,4.27.5,8.59.84,12.89.86,8.26.03,16.48.51,24.58,2.1,9.03,1.77,17.47,4.63,23.5,12.47,8,10.42,7.31,24.15-1.89,33.56-6.29,6.43-14.15,9.61-22.57,11.78-11.44,2.94-22.98,3.14-34.34.02-13.68-3.75-24.43-11.33-29.93-25.04-.87-2.17-1.89-4.27-2.84-6.41-.93-2.1-.55-3.31,2.05-3.28,5.3.06,10.6.03,15.9.05,2.09,0,3.26,1.02,4.12,3.01,4.43,10.3,12.62,15.17,23.53,16.4,6.62.74,12.99-.12,19.34-1.74,3.7-.94,6.83-2.91,9.33-5.68,4.73-5.25,2.1-13.32-5.24-16.48-6.34-2.73-13.07-3.57-19.86-3.65-8.48-.1-16.97.02-25.38-1.34-8.03-1.3-14.38-5.07-17.67-12.84-.75-1.77-2.05-1.6-3.3-1.6-22.55-.07-45.11-.05-67.66-.18-4.51-.03-4.52,3.61-4.87,6.14-2.1,15.12,4.11,29.38,19.22,35.23,8.3,3.21,17.14,2.78,25.92,2.4,8.28-.36,16.4-1.63,24.49-3.26,3.19-.65,4.23.57,4.14,3.67-.14,4.43-.11,8.88.07,13.31.11,2.59-.83,3.52-3.39,3.48-5.91-.11-11.83-.04-17.75-.04Z"/>
    <path class="st3" d="M356.73,219.28c-.02-2.98.86-4.27,3.99-4.16,4.68.17,9.37.02,14.05,0,.72,0,1.75-.32,2.07.38.97,2.16,2.56,1.4,4.05,1.04,10.72-2.53,20.23-.42,28.29,7.3,1.27,1.22,2.34,2.42,4.33.76,7.02-5.86,15.44-8.44,24.29-9.81,12.83-1.99,24.92.22,36.37,6.4,12.05,6.5,18.11,16.49,18.11,30.17,0,8.75-.14,17.51.04,26.26.16,7.62.67,15.24,1.02,22.86.05,1.11.03,2.22.07,3.33.09,2.41-.83,3.59-3.47,3.51-4.68-.15-9.37-.17-14.05.02-3.13.13-3.95-1.15-3.9-4.12.29-16.02.42-32.04.57-48.06.04-3.97-.36-7.92-2.24-11.49-2.81-5.34-7.09-8.79-12.93-10.8-14.4-4.95-30.18.48-38.45,10.76-.91,1.13-1.27,2.17-1.27,3.65.04,16.27-.03,32.54-.03,48.81,0,2.58.17,5.16.37,7.73.19,2.5-.74,3.59-3.37,3.51-4.93-.14-9.86-.11-14.79-.03-1.87.03-2.73-.6-2.68-2.53.22-8.24-.02-16.48.41-24.74.59-11.54.92-23.12-.25-34.69-.33-3.31-.22-6.45-2.71-9.27-4.26-4.83-10.2-4.82-14.13.33-2.41,3.16-3.47,6.52-3.43,10.6.19,18.86.05,37.72.15,56.58.01,2.81-.66,3.97-3.73,3.74-4.17-.3-8.39-.28-12.56-.04-3.43.2-4.47-1.13-4.44-4.46"/>
    <path class="st3" d="M566.99,253.08c-.12-12.73.35-23.22-.55-33.66-.3-3.53,1.08-4.58,4.43-4.39,4.18.24,8.38.24,12.57.1,2.89-.1,3.88.98,3.84,3.87-.22,17.12-.59,34.25-.33,51.37.17,11.08.21,22.16.41,33.24.05,3.01-1,3.87-3.8,3.77-4.68-.16-9.37-.09-14.05-.09-1.99,0-3.44-.42-3.1-2.92.31-2.25-.83-2.2-2.41-1.4-12.61,6.37-25.77,6.73-39.19,3.34-16.6-4.19-29.39-16.31-29.09-35.82.21-13.06.15-26.14-.03-39.2-.06-4.4-.65-8.8-.64-13.23,0-2.5.9-3.26,3.23-3.18,4.68.16,9.37.32,14.04.2,2.96-.08,3.87,1.15,3.85,3.93-.09,11.34-.02,22.68-.1,34.02-.03,5.29-.19,10.59-.4,15.88-.61,15.42,11.19,21.61,22.53,22.5,11.41.89,20.24-3.83,27.58-12.1.96-1.09,1.23-2.26,1.22-3.71-.08-8.26-.04-16.52-.04-22.52Z"/>
    <path class="st3" d="M378.32,353.55c-9.45-.24-14.48-1.22-19.27-8.88-5.58-8.93-12.54-16.99-18.89-25.44-.59-.78-1.32-1.62-.69-2.66.54-.89,1.73-.55,2.36-.6,7.96-.61,11.84,4.1,16.65,8.1,10.3,8.55,20.33,17.41,30.48,26.14.76.65,1.68,1.25,1.41,2.38-.32,1.34-1.52.95-2.45.96-3.2.02-6.4,0-9.6,0Z"/>
    <path class="st3" d="M755.79,487.38c-1,1.9-2,3.79-2.99,5.69-2.67,5.14-7.76,7.52-12.15,5.68-5.07-2.11-7.55-7.94-5.83-13.46,3.4-10.91,14.26-17.55,25.92-15.84.98.14,1.75.41,1.57,1.55-.17,1.07-1,1.24-1.96,1.22-3.58-.08-7.09.13-10.57,1.22-6.23,1.94-12.08,9.17-12.12,15.29-.02,3.27.6,6.3,4.15,7.4,3.41,1.05,7.3-1.25,8.95-4.91,2.32-5.16,4.67-10.31,6.26-15.76.27-.93.47-2.21,1.76-1.94,1.23.26.95,1.5.95,2.49-.02,7.02-.01,14.05-.04,21.07-.03,8.28-6.42,15.08-14.68,15.68-1.6.12-3.19.3-4.79.4-.84.05-1.87.2-2.01-1.02-.11-1,.55-1.66,1.46-1.86.94-.21,1.94-.29,2.91-.27,7.9.2,13.6-5.1,13.88-13.06.11-3.13.02-6.27.02-9.4-.23-.06-.45-.11-.68-.17Z"/>
    <path class="st3" d="M534.36,490.12c-2.87,2.68-4.12,5.94-7.73,7.68-3.43,1.65-6.49,2.39-9.73.48-3.61-2.13-5.08-5.71-4.85-9.73.41-7.24,4.51-12.36,10.34-16.14,2.46-1.59,5.25-2.73,8.27-3,.99-.09,2.13-.35,2.36,1,.19,1.14-.64,1.83-1.65,2.14-1.53.47-3.09.81-4.63,1.26-6.42,1.91-12.02,9.46-11.78,15.82.21,5.66,5.4,8.67,10.13,5.55,6.5-4.29,8.67-11.11,9.15-18.43.37-5.64.1-11.32.13-16.98,0-1.18-.34-2.8,1.45-2.83,1.77-.02,1.56,1.63,1.57,2.79.1,11.69.16,23.39.22,35.08,0,.73-.15,1.47-.26,2.2-.14.89-.41,1.81-1.49,1.78-1.32-.03-1.47-1.13-1.49-2.14-.04-2.18-.01-4.36-.01-6.54Z"/>
    <path class="st3" d="M796.38,486.87c-1.23,2.38-2.3,4.87-3.74,7.13-3.02,4.74-7.97,6.53-12.23,4.67-4.28-1.87-6.66-7.65-5.31-12.92,2.72-10.6,15.21-18.58,26-16.63.74.13,1.54.2,1.68,1.09.11.71-.43,1.17-1.06,1.29-2.15.4-1.71,2.02-1.7,3.45.09,6.64.23,13.28.22,19.92,0,1.38.95,3.8-1.5,3.79-2.61-.01-1.7-2.47-1.74-4.05-.06-2.54-.02-5.08-.02-7.63l-.61-.12ZM798.65,472.59c-9.59-.57-17.34,4.47-20.41,13-2.18,6.08,1.58,11.75,7.24,10.61,3.44-.69,5.07-3.75,6.34-6.65,2.39-5.49,4.49-11.11,6.83-16.95Z"/>
    <path class="st3" d="M489.19,485.38c-1.58,3.21-2.59,5.58-3.86,7.81-2.9,5.06-8.76,7.48-12.98,5.51-4.55-2.13-6.57-8.07-4.76-13.73,3.81-11.91,14.56-16.51,25.76-15.93.76.04,1.59.12,1.74,1.02.14.88-.57,1.35-1.31,1.52-1.84.44-1.57,1.74-1.55,3.14.07,7.01.06,14.02.02,21.03,0,1.12.44,2.81-1.39,2.88-1.8.07-1.59-1.63-1.62-2.75-.1-3.15-.03-6.31-.03-10.49ZM490.71,472.55c-9.85-.24-16.92,4.28-20.14,12.83-2.33,6.16,1,11.63,6.73,10.88,3.63-.48,5.24-3.53,6.5-6.39,2.5-5.67,4.62-11.51,6.91-17.32Z"/>
    <path class="st3" d="M588.23,467.89c2.35-3.03,3.87-5.46,6.87-6.25,5.08-1.34,9.31.02,11.68,3.84,2.22,3.59,1.59,9.81-1.36,13.11-3.51,3.92-7.97,5.62-13.17,5.43-.99-.04-2.16-.22-2.14-1.51.03-1.4,1.21-1.24,2.21-1.24,4.85-.01,8.87-1.44,11.33-6.08,1.93-3.63,1.54-8.18-1.19-10.03-3.45-2.34-7.14-1.6-9.98,2.15-2.92,3.85-4.15,8.33-4.25,13.08-.11,5.17.03,10.35-.02,15.52-.01,1.11.39,2.82-1.48,2.77-1.72-.05-1.54-1.66-1.55-2.85-.01-10.35,0-20.69.02-31.04,0-1.35-.13-3.18,1.68-3.12,1.98.06,1.28,1.96,1.31,3.22.02.72,0,1.44,0,2.99Z"/>
    <path class="st3" d="M682.94,469.07c1.06.02,2.52-.34,2.74,1.11.18,1.22-1.25,1.41-2.12,1.67-4.14,1.24-7.51,3.43-10.19,6.92-3.39,4.42-4.08,9.14-2.1,14.21,1.36,3.48,7.04,4.59,10.99,2.2,4.82-2.92,7.18-7.35,7.19-12.93,0-3.24-2.13-5.06-4.98-6.15-.94-.36-2.6-.22-2.02-1.89.43-1.24,1.73-1.14,2.88-.86,3.35.82,5.84,2.71,6.8,6.09,2.54,8.98-4.93,19.46-14.25,19.95-7.31.38-10.79-4.56-10.87-11.53-.06-5,1.89-9.62,5.79-13.12.61-.55,1.69-.91,1.2-1.98-.37-.8-1.29-.5-1.99-.49-1.09,0-2.44.33-2.45-1.37-.01-1.75,1.4-1.76,2.65-1.79"/>
    <path class="st3" d="M721.96,469.08c1-.01,2.25-.18,2.51.98.29,1.32-1.08,1.36-1.96,1.7-4.15,1.61-8.17,3.44-10.72,7.37-1.98,3.06-3.17,6.35-2.86,10.07.62,7.47,7.53,8.55,12.46,5.53,3.87-2.37,6.47-5.46,6.96-10.25.45-4.46-.88-6.88-5.26-8.33-.94-.31-2.62-.2-2.29-1.73.32-1.49,1.84-1.36,3.1-1.18,4.95.7,8.82,6.4,7.58,12.11-1.42,6.54-5.5,11.2-11.92,13.45-3.91,1.37-7.68.76-10.54-2.34-2.9-3.15-3.99-6.99-2.91-11.3,1.03-4.14,2.78-7.86,5.98-10.8,1.53-1.41.93-2.12-.88-2.13-1.35,0-2.74-.11-2.57-1.78.18-1.72,1.83-1.26,2.99-1.3"/>
    <path class="st3" d="M341.92,472.65c-.11-.12-.18-.25-.28-.29-1.56-.71-4.77,1.26-4.6-1.86.13-2.4,3.03-1.21,4.68-1.32,3.06-.22,6.15-.09,9.22-.07.79,0,1.94-.44,2.16.74.2,1.05-.83,1.34-1.64,1.64-4.18,1.56-7.99,3.46-10.81,7.28-2.28,3.09-3.2,6.42-3.14,9.98.1,6.25,6.39,9.71,11.91,6.58,4.84-2.75,7.25-7.27,7.69-12.69.28-3.41-1.84-5.39-5.01-6.38-1.03-.32-2.91-.21-2.3-2.07.48-1.48,1.98-1.13,3.2-.86,3.99.89,6.77,4.63,7.19,9.66.66,7.88-8.28,16.65-16.17,16.43-5.77-.16-8.97-5.78-9.54-10-.76-5.71,1.93-10.18,5.53-14.29.67-.77,2.03-1.1,1.9-2.48Z"/>
    <path class="st3" d="M369.08,488.29c2.05-4.3,4.15-8.58,6.11-12.92.78-1.72,1.83-3.19,3.16-4.48,1.49-1.45,3.26-1.55,5.15-.98,1.96.59,2.71,2.12,2.72,3.94.06,7.51.03,15.02,0,22.53,0,.84.05,2.01-1.1,1.98-1.37-.04-1.18-1.32-1.18-2.28,0-6.16.02-12.31.02-18.47,0-1.94.48-4.51-2.05-4.86-2.17-.3-3.03,2.06-3.9,3.81-3.45,6.93-6.89,13.86-10.35,20.78-.42.83-.63,2.2-1.85,1.94-1.23-.27-.86-1.55-.86-2.51,0-7.87-.06-15.75-.01-23.62,0-1.34-.58-3.48,1.56-3.49,1.95,0,1.8,2.05,1.82,3.47.06,5,.02,10,.02,14.99.24.06.48.12.73.18Z"/>
    <path class="st3" d="M553.19,496.34c2.34-.13,4.64-.5,6.87-1.26,1.03-.35,2.1-.24,2.53.83.55,1.37-.8,1.67-1.62,1.95-3.16,1.07-6.46,1.84-9.78,1.42-5.76-.73-9.6-6.47-8.42-12.65,1.22-6.4,4.41-11.68,9.86-15.42,4.17-2.86,8.89-2.7,11.4.31,2.44,2.92,1.77,7.91-1.23,11.48-3.48,4.14-7.99,5.49-13.13,5.41-.95-.01-2.28.11-2.3-1.21-.02-1.42,1.34-1.23,2.26-1.14,3.44.33,6.08-1.7,8.96-2.98.94-.42,1.74-1.37,2.36-2.25,1.68-2.37,2.53-5.18.42-7.44-2.23-2.4-5.29-1.29-7.45.28-4.66,3.37-7.6,7.98-8.1,13.89-.46,5.37,2.56,8.95,7.39,8.79Z"/>
    <path class="st3" d="M317.32,499.31c-9.45-.03-14.72-4.94-14.6-14.03.13-9.89,3.62-18.19,12.91-23.14,4.46-2.38,11.74-1,14.44,2.88.53.76,1.53,1.61.6,2.59-1.06,1.13-1.97.19-2.84-.52-6.29-5.12-13.41-3.79-17.63,3.22-3.32,5.52-5.46,11.25-3.95,17.84,1.6,6.94,7.04,10.11,13.92,8.21,2.52-.7,4.78-1.93,7.14-2.97.89-.39,2-.73,2.54.52.44,1.01-.35,1.63-1.1,2.06-3.65,2.1-7.39,3.96-11.43,3.33Z"/>
    <path class="st3" d="M435.92,469.08c1.94,2.62.83,4.87.86,7,.08,6.52.06,13.04.04,19.56,0,1.27.46,3.16-1.48,3.17-1.84.02-1.58-1.85-1.69-3.16-.39-4.62.66-9.27-.17-14.6-3.22,4.1-4.47,8.5-6.77,12.31-.32.52-.45,1.15-.76,1.68-1.54,2.58-3.83,4.8-6.77,4.21-3.05-.61-3.54-3.78-3.56-6.58-.07-6.89-.05-13.78-.09-20.67,0-1.02-.11-2.22,1.18-2.29,1.38-.08,1.32,1.21,1.32,2.17.02,4.68.04,9.35-.02,14.03-.03,2.47.02,4.91.66,7.32.27,1.01-.19,2.46,1.23,2.79,1.54.36,2.6-.7,3.28-1.9,1.87-3.31,3.7-6.65,5.42-10.05,2.42-4.8,4.71-9.65,7.31-14.99Z"/>
    <path class="st3" d="M653.62,496.05c2.14.09,4.21-.19,6.16-1.44.81-.52,1.91-1.17,2.55.06.6,1.15-.55,1.73-1.32,2.3-3.93,2.9-10.98,3.41-14.73.72-4.29-3.07-5.14-7.52-4.21-12.5,1.45-7.75,7.91-14.97,14.21-15.78,4.56-.58,8.8,4.85,7.12,9.11-.29.73-.66,1.41-1.57,1.19-.82-.2-1.01-.84-1.05-1.68-.25-5.79-3.03-7.19-7.95-4.24-6.06,3.63-7.25,9.71-7.78,15.85-.32,3.77,4.67,6.14,8.58,6.4Z"/>
    <path class="st3" d="M612.34,499.24c-.8-.31-3.57,1.16-3.59-1.24-.02-2.63,2.84-1.73,4.45-1.67,4.39.15,7.91-1.46,10.78-4.62,2.74-3.02,1.43-7.34-2.53-8.35-1.9-.48-3.89-.6-5.77-1.12-2.03-.56-4.24-1.36-4.64-3.7-.41-2.41.54-4.54,2.68-6.05,3.31-2.35,6.78-3.94,10.98-2.93.86.2,1.83.23,1.83,1.37,0,1.23-1.03,1.13-1.87,1.23-1.95.23-3.96.26-5.83.77-2.25.62-4.96,1.6-4.47,4.48.45,2.66,3.25,2.51,5.41,2.58,6.46.23,9.74,3.62,8.67,9.87-.78,4.54-4.76,6.65-8.56,8.38-2.08.95-4.45,1.45-7.53.99Z"/>
    <path class="st3" d="M395.84,499.44c-1.31-.07-1.7-.03-2.05-.12-1.15-.28-3.17.65-3.09-1.48.08-1.85,1.92-1.61,3.23-1.53,3.81.22,7.24-.54,10.37-2.91,2.38-1.8,3.2-4.03,2.62-6.77-.54-2.55-2.54-3.37-4.92-3.67-1.82-.23-3.68-.48-5.43-1.02-4-1.22-5.23-6.01-2.07-8.73,3.44-2.97,7.47-4.75,12.24-3.92.98.17,2.13.26,2.05,1.6-.08,1.28-1.25,1.54-2.2,1.48-2.89-.19-5.66.08-8.22,1.52-1.43.81-2.8,1.8-2.41,3.73.36,1.82,2.02,2,3.45,2.25,1.69.3,3.46.23,5.11.66,5.43,1.43,7.51,6.94,4.46,11.65-3.3,5.1-8.11,7.31-13.14,7.27Z"/>
    <path class="st3" d="M456.32,475.73c.01-1.82-.36-3.19-2.63-3.06-1.23.07-2.24-.27-2.19-1.8.05-1.39.93-1.46,2.05-1.35,2.93.29,2.49-1.95,2.77-3.72.28-1.74-1.29-4.84,1.38-4.88,3.09-.04,1.64,3.21,1.6,4.97-.07,3.2,1.26,4.04,4.23,3.79,1.65-.14,4.61-1.05,4.69,1.26.1,2.84-3.06,1.84-4.7,1.69-3.49-.31-4.44.82-4.21,4.31.42,6.37-.42,12.78.44,19.15.2,1.5-.46,2.49-1.92,2.56-1.86.09-1.65-1.38-1.65-2.62"/>
    <path class="st3" d="M444.25,477.9c0-6.01-.02-12.03.02-18.04,0-1.27-.38-3.1,1.67-3.01,1.98.08,1.56,1.93,1.57,3.17.03,11.91.01,23.83,0,35.74,0,1.37.08,3.06-1.76,3.06-1.72,0-1.48-1.72-1.49-2.86-.05-6.02-.02-12.03-.02-18.05,0,0,.01,0,.02,0Z"/>
    <path class="st3" d="M700.87,477.61c0,5.9.04,11.8-.03,17.7-.01,1.25.31,3.16-1.56,3.2-1.99.04-1.52-1.91-1.52-3.13-.06-11.8-.06-23.59-.03-35.39,0-1.25-.51-3.17,1.5-3.14,2.2.04,1.6,2.12,1.61,3.45.07,5.77.03,11.55.03,17.32Z"/>
    <path class="st3" d="M71.47,422.32c2.03-5.85,4.06-11.7,6.12-17.54.15-.41.49-.93.86-1.05.76-.25,1.04.47,1.27,1.01,1.24,3.06,2.44,6.14,3.68,9.2.56,1.39.17,2.53-1.13,3.05-3.63,1.46-6.76,3.78-10.8,5.32Z"/>
    <path class="st3" d="M769.47,496.24c0,1.09.14,2.46-1.46,2.46-1.52,0-1.6-1.28-1.61-2.42-.03-7.87-.06-15.75-.03-23.62,0-1.18-.03-2.84,1.62-2.86,1.69-.02,1.53,1.62,1.55,2.8"/>
    <path class="st3" d="M636.42,495.94c0,1.07.13,2.47-1.47,2.45-1.34-.02-1.32-1.32-1.31-2.25.02-8.23.1-16.45.16-24.68,0-.8.2-1.53,1.14-1.57,1.18-.06,1.4.85,1.41,1.75"/>
    <path class="st3" d="M636.44,464.18c-.06.98-.07,2.14-1.48,2.03-1.19-.09-1.05-1.16-1.07-1.99-.05-1.71-.05-3.42-.09-5.13-.02-.85-.25-1.93.94-2.02,1.23-.1,1.61.92,1.66,1.98"/>
    <path class="st3" d="M773.05,459.94c-.15.52-1.19,4.32-3.66,5.08-.85.26-1.47-.78-1.05-1.43,1.13-1.78,1.07-4.47,3.58-5.2.84-.24,1.26.55,1.13,1.55Z"/>
    <path class="st3" d="M644.58,400.88c7.33-2.12,10.47-.26,11.26,6.91,1.09,9.95-.51,19.35-7.28,27.25-1.17,1.37-2.65,2.61-4.24,3.45-4.11,2.18-8.63.66-10.39-3.68-4.04-9.93-2.02-19.52,2.21-28.85,1.48-3.26,3.59-6.14,6.32-8.5.69-.6,1.33-1.85,2.43-1.25,1.54.83-.04,1.9-.07,2.88-.01.47-.13.94-.25,1.79Z"/>
    <path class="st3" d="M108.12,424.43c.13-7.98-.28-16,2.81-23.64.62-1.53,1.45-2.81,2.56-3.99,2.21-2.37,4.79-3.68,7.88-2.09,2.49,1.28,3.26,5.91,1.76,9.08-1.54,3.25-4.19,5.4-7.31,7.03-1.51.79-2.68,1.4-1.52,3.61.95,1.79,1.45,2.65,3.76,1.9,6.9-2.24,10.8.84,10.76,8.17-.07,11.1-8.24,16.89-18.67,13.34-1.88-.64-2.01-1.94-2.02-3.44-.03-3.32,0-6.64,0-9.97Z"/>
    <path class="st3" d="M517.7,425.27c.04-7.74-.51-15.55,2.94-22.84,2.08-4.39,4.72-8.19,10.19-8.4,5.58-.22,10.8,4.67,11.49,11.34,1.21,11.75-1.97,22.16-10.63,30.51-1.66,1.6-3.86,2.61-6.27,2.89-6.28.73-7.82-.65-7.73-6.86.03-2.22,0-4.43,0-6.65Z"/>
    <path class="st3" d="M771.88,400.93c7.73-2.69,10.36.21,11.21,7.75,1.1,9.77-1.4,19.01-7.96,26.8-2.32,2.75-5.24,4.12-8.74,3.7-3.8-.46-5.77-3.23-6.55-6.66-2.97-13.14-.06-24.8,9.23-34.71.8-.86,1.76-2.36,2.98-1.6,1.23.77,0,2.21-.17,3.35-.05.34,0,.69,0,1.37Z"/>
    <path class="st3" d="M426.12,400.87c.72.5,1.22.03,1.77-.19,4.72-1.82,8.4-.32,9.28,4.56,1.94,10.71.55,20.88-6.77,29.53-2.63,3.11-5.81,5.58-10.28,4.22-4.49-1.36-5.76-5.49-6.2-9.29-1.24-10.59.8-20.58,7.2-29.39.29-.4.54-.88.93-1.13,1.47-.94,2.62-3.44,4.4-2.55,1.63.82-.89,2.75-.34,4.24Z"/>
    <path class="st3" d="M566.31,403.85c1.21,3.33,2.4,6.67,3.65,9.99.51,1.35.38,2.53-.98,3.13-2.82,1.25-5.49,2.7-7.84,4.73-.48.41-1.19.58-1.67.08-.27-.28-.37-.95-.23-1.34,1.95-5.63,3.95-11.23,5.94-16.85.38.09.75.17,1.13.26Z"/>
    <path class="st3" d="M471.23,401.42c-.15,10-6.13,15.83-13.96,15.25-1.3-.1-2.67-.22-2.67-1.84,0-6.2.79-12.28,4.6-17.41,1.79-2.42,4.42-4.29,7.66-2.94,3.7,1.54,4.35,4.97,4.37,6.94Z"/>
    <path class="st3" d="M320.98,403.1c.07,8.69-5.8,14.33-14.11,13.57-1.28-.12-2.68-.2-2.5-1.93.51-4.98.93-10.02,3.04-14.66,1.92-4.23,5.49-6.53,8.8-5.88,3.16.62,4.73,3.55,4.77,8.9Z"/>
  </g>
  <path class="st1" d="M38.07,441.65s-12.19,4.58-11.97-29.89c.08-13.13,12.47-19.97,12.47-19.97"/>
</svg>