<?xml version="1.0" encoding="UTF-8"?>
<svg id="Capa_1" xmlns="http://www.w3.org/2000/svg" version="1.1" viewBox="0 0 1078.11 595.28">
  <!-- Generator: Adobe Illustrator 29.0.0, SVG Export Plug-In . SVG Version: 2.1.0 Build 186)  -->
  <defs>
    <style>
      .st0 {
        fill: #fff;
      }

      .st1 {
        fill: #b11747;
      }
    </style>
  </defs>
  <path class="st1" d="M451.68,358.79c6.08-.29,7.27-11.23,15.43-6.97-3.82,4.05-7.48,8.28-11.51,12.11-3.28,3.12-6.77,8.18-11.38,1.08-.13-.2-4.03,1.62-5.85,2.95-6.83,4.98-13.46,10.22-20.35,15.1-1.65.39-5.68-1.29-3.8-4.23,29.29-34.73,48.39-80.47,45.24-125.61-13.93,9.89-13.35,19.08-18.85,33.69-4.05-18.19,10.3-33.47,18.71-48.15,2.45-4.96,1.67-8.19-4.73-10.61-32.85-13.54-13.88-60.38,12.08-21.11-.31-18.63-10.16-37.08-26.63-47.55-1.43-.85-1.98-3.17-2.94-4.8,1.92-.5,4.47-2.03,5.67-1.32,7.19,4.26,15.16,8.01,20.72,13.93,6.86,6.73,7.9,18.38,15.61,24.68,2.79-6.18-.92-12.14.58-18.51,5.45.95,10.33.89,6.99,8.1-5.89,11.86-3.87,35.27,12.48,33.21-.12-2.13.32-4.49-.46-6.35-6.75-15.26,7.51-33.11,23.21-25.26,12.2,8.1-3.49,21.11-4.97,30.71.91.09,2.02.58,2.68.22,9.18-4.9,19.89-8.08,24.36-18.74,2.61-8.19,9.98-.04,12.11,3.74.64,1.77-.94,4.33-1.53,6.54-7.96-2.78-9.38,4.76-13.32,8.32-8.89,8.01-19.19,13.4-31.12,14.81-7.8.05-12.71,7.34-8.78,13.91,12.46-2.38,24.61-15.87,38.35-7.13,1.26.78,3.64-.21,5.5-.38-2.4-4-10.83-6.01-4.65-10.43,6.65-4.08,13.68-8.75,21.08-9.94,3.78-.61,9.08,5.42,12.75,9.33.16,1.65-5.22,10.24-9.03,11.32-22.35,7.5-19.65,6.14-17.79,28.44-4.26,25.9-29.07,72.94-47.48,91.23-1.44-28.25,7.46-59.61,10.83-88.06.59,21.14-4.82,46.22-3.92,67.03,9.42-8.92,50.61-94.4,19.04-88.69-10.65,2.01-21.17,16.2-31.91,7.8-18.22-16.78,8.53-19.44-14.82-41.09-.56,2.36-.71,4.91-1.75,7.04-6.78,13.83-5.82,28.63-5.83,43.32-.56,33.23-12.12,67-30.28,94.31.9-1.73,2.55-2.88,3.84-4.3,3.9.46,6.8,1.92,6.58,6.5-.26.36-.53.72-.79,1.08.2-.42.39-.85.59-1.27ZM553.86,222.46c.31-.34.62-.69.93-1.03-.24.41-.48.82-.71,1.23-.89.33-1.74.52-1.72,1.66.5-.62,1.01-1.24,1.51-1.86ZM449.99,204.67c-7.7,1.27-1.2,15.04,4.21,16.56,7.73-.25.59-15.33-4.21-16.56ZM507.1,208.1c2.92-5.7,5.47-10.59,8.04-16,.04-.09-2.79-1.77-2.88-1.65-3.04,3.97-6.01,8.01-8.65,12.25-.31.49,1.36,2.2,3.48,5.4ZM560.43,226.57c-2.69,1.27-2.49,1.98-1.02,4.28,1.04-.85,2.07-1.7,3.11-2.55-.7-.58-1.39-1.16-2.09-1.74Z"/>
  <path class="st0" d="M698.05,310.16c1.27-12.58-6.86-50.52,16.77-38.56,11.68,7.43,20.72-13.94,43.14,3.39,3.77,3,5.94,2.87,9.2-.26,5.67-5.43,13.05-7.29,20.55-6.78,35.13.88,21.85,49.97,24.56,73.54.29,11.3-20.53,8.4-19.34-1.47-.35-10.55-.12-21.11-.18-31.66.84-9.89-.42-24.84-12.9-24.63-6.21-.15-12.23,4.27-13.86,10.9-1.99,14.03-.26,28.5-.95,42.66-.19,8.93-2.35,11.4-9.28,11.59-6.29.17-10.97-2.2-10.5-12.19.6-12.64.3-25.33.05-37.99-.17-8.8-3.37-13.6-9.01-14.79-24.96-1.63-17.01,38-18.7,54.07-.29,7.72-2.9,10.2-10.43,10.66-6.19.38-8.74-2.05-9.03-9.98-.34-9.49-.08-19-.09-28.5Z"/>
  <path class="st0" d="M827.72,293.32c0-14.23.06-28.45-.02-42.68-.03-5.44,1.35-9.1,7.9-9.23,17.06-1.85,10.87,17.67,11.94,28.15,0,4.03.7,5.29,5.43,3.42,70.25-29.2,68.77,106.65-2.72,71.09-4.48-2.34-4.43.47-6.76,1.97-8.45,5.46-15.5,1.63-15.7-8.45-.29-14.75-.07-29.51-.07-44.26ZM885.68,305.22c-4.4-33.39-46.31-25.34-39.23,9.74,5.03,28.31,41.35,24.95,39.23-9.74Z"/>
  <path class="st0" d="M150.79,294.32c0-14.78.1-29.57-.04-44.35-.06-5.98,2.55-8.6,8.58-8.57,7.5.04,10.11,1.71,11.04,8.31.36,7.82.41,15.76.89,23.61,72.23-33.05,77.4,99.74,5.16,73.07-3.69-1.71-5.47-4.68-11.37-.64-22.27,14.66-12.17-40.55-14.26-51.43ZM208.66,309.63c.1-33.68-39.5-34.36-40.03-.3-.83,30.99,41.59,33.54,40.03.3Z"/>
  <path class="st0" d="M133.4,349.77c-7.46.81-13.01-5.03-19.99-4.76-12.9,2.54-25.15,9.42-38.21.88-16.23-9.39-13.59-37.18,5.14-40.95,10.12-2.79,21.14-2.66,31.04-6.42,14.68-8.79-10.67-22.95-22.79-8.39-3.73,3.52-7,5.98-12.3,5.75-17.87-1.12-2.61-19.33,5.69-23.09,12.37-6.43,25.43-6.11,38.43-1.02,19.75,7.95,13.98,31.13,14.87,47.89.07,5.66.18,10.54,4.79,15.74,6.41,7.23,2.04,14.15-6.69,14.38ZM100.47,333.77c10.76-3.88,14.32-5.74,14.63-19.58-7.56-.02-15.35-.02-22.71,1.71-10.87,1.66-10.19,17.67,1.28,17.48,1.06.08,2.12.12,6.8.39Z"/>
  <path class="st0" d="M340.19,349.81c-8.68.69-12.7-4.52-20.54-4.4-5.58.03-11.07,3.51-16.75,4.14-15.05,2.46-34.04-7-32.52-23.61,3.07-34.42,46.95-15.8,52.35-33.02-.85-11.84-17.62-9.31-26.11-4.81-1.68.65-2.4,3.43-3.95,4.8-3.94,3.5-16.62,4.4-17.26,1.08-.77-3.97.69-9.18,2.94-12.76,9.97-14.7,30.95-15.31,46.17-10.72,21.76,5.58,15.26,30.81,16.23,47.8.12,6.47-2.21,13.79,6.83,17.25,5.64,7.96-2.34,11.58-7.39,14.23ZM303.02,333.59c13.33-.23,18.67-5.39,17.74-16.04-.15-1.68-2.1-4.74-2.7-4.62-8.11,1.63-16.52,2.8-24.06,5.96-5.9,2.47-4.8,11,1.32,13.45,2.82,1.13,6.14,1.03,7.7,1.26Z"/>
  <path class="st0" d="M982.11,349.7c-4.3,0-5.69.44-6.37-.07-9.77-7.23-19.33-2.38-29.25-.24-15.27,4.31-36.82-6.61-34.38-24.48,3.94-31.89,38.53-14.42,51.81-31.48,1.85-3.02-4.71-9.38-10.66-9.35-5.01.02-10.12,1.92-14.97,3.62-1.69.59-2.53,3.26-4.04,4.68-3.98,3.72-15.94,5.19-16.98,1.71-2.94-10.39,6.69-19.79,15.68-22.92,18.67-6.83,50.97-3.15,49.4,22.82.24,10-.22,20.02.22,30-.1,13.5,20.38,15.57-.46,25.7ZM943.32,333.57c14.44.19,20.45-5.5,19.16-16.65.64-10.46-26.83,1.24-29.68,4.27-4.88,8.24,4.4,12.28,10.52,12.38Z"/>
  <path class="st0" d="M392.86,349.86c-55.54,2.2-50.34-85.32.38-82.23,50.85-1.38,52.99,84.69-.38,82.23ZM412.94,308.99c.58-30.38-36.85-34.45-40.47-3.69-4.78,34.82,41.59,39.29,40.47,3.69Z"/>
  <path class="st0" d="M1071.97,308.29c4.1,57.02-80.78,54.03-77.6-.08-2.14-53.16,84.28-53.56,77.6.08ZM1014.09,313.1c4.04,29.9,38.96,26.67,40.32-3.41.21-34.86-41.62-34.71-40.32,3.41Z"/>
  <path class="st0" d="M684.81,309.31c0,8.95.04,17.89-.02,26.84-.03,4.67.88,10.63-5.14,11.75-13,2.57-13.73-8.17-19.92-3.59-16.59,10.97-42.79,5.71-44.1-16.35-1.93-17.16-1.13-34.65-.97-51.99.06-6.97,6.14-5.85,10.77-6.01,4.67-.16,8.6.92,8.66,6.63.12,10,.1,20,.14,30-.16,10.13-1.89,26.18,11.58,26.92,9.43,1.23,14.47-1.34,17.06-9.89,3.99-14.74,1.58-30.36,2.41-45.44.26-7.18,2.17-8.27,10.26-8.28,5.52,0,9.32,1.38,9.24,7.84-.12,10.52-.03,21.05-.03,31.58.02,0,.04,0,.05,0Z"/>
  <path class="st0" d="M31.77,247.73c9.83-.26,11.54.82,11.64,9.59-1.5,22.75,16.26,4.21,15.77,21.03-.29,15.46-17.79-1.93-15.63,19.56.12,6.86.17,13.72-.01,20.58-.21,7.83-.34,15.1,10.88,15.18,1.57.01,4.68,4.7,4.3,6.71-5.99,19.05-34.9,6.98-34.61-10.04-.92-10.48-.24-21.09-.35-31.64-.07-6.18,1.57-13.26-8.64-13.6-1.49-.05-3.92-4.7-3.91-7.22.01-2.51,2.49-7.13,3.98-7.17,17.34.47.38-24.59,16.58-22.99Z"/>
  <path class="st0" d="M594.35,349.28c-44.24.48-10.52-59.19-31.5-64.28-7.37-2.5-7.51-11.87-.31-14.02,8.15-2.43,7.54-7.25,7.67-12.98.12-5.06,1.19-9.34,7.49-10.2,8.5-1.17,11.87.91,11.91,9.61.04,7.56.07,13.56,10.45,12.93,4.73-.29,5.31,4.15,5.29,8.09.01,14.52-17.34-.45-15.66,17.97.44,7.35.28,14.75.05,22.12-.25,7.96.05,14.95,11.01,15.22,8.33,4.67,2.66,16.51-6.4,15.55Z"/>
  <path class="st0" d="M260.04,294.57c0,14.73.25,29.46-.1,44.18-.21,8.6-5.65,11.96-13.78,9.59-6.23-1.81-5.73-6.72-5.73-11.46-.01-28.4,0-56.8,0-85.2.1-7.63,1.39-10.68,9.94-10.23,7.89.04,9.44,1.1,9.59,8.94.29,14.72.08,29.45.08,44.18Z"/>
</svg>