<?xml version="1.0" standalone="no"?>
<!DOCTYPE svg PUBLIC "-//W3C//DTD SVG 20010904//EN"
 "http://www.w3.org/TR/2001/REC-SVG-20010904/DTD/svg10.dtd">
<svg version="1.0" xmlns="http://www.w3.org/2000/svg"
 width="800.000000pt" height="800.000000pt" viewBox="0 0 800.000000 800.000000"
 preserveAspectRatio="xMidYMid meet">

<g transform="translate(0.000000,800.000000) scale(0.100000,-0.100000)"
fill="#000000" stroke="none">
<path d="M3780 6244 c-199 -25 -412 -77 -572 -140 -93 -37 -288 -130 -288
-138 0 -3 56 22 124 55 518 248 1111 285 1656 103 764 -255 1328 -895 1484
-1684 55 -278 59 -512 15 -792 -9 -54 -14 -68 -28 -68 -10 0 -20 2 -23 5 -3 3
2 45 10 93 12 63 16 156 16 337 0 217 -2 265 -22 366 -90 475 -295 867 -625
1191 -603 594 -1500 784 -2282 483 -764 -294 -1299 -971 -1400 -1775 -25 -196
-13 -569 21 -683 5 -15 1 -18 -18 -15 -20 3 -25 12 -35 63 -48 243 -38 603 23
858 9 37 14 70 11 73 -8 8 -44 -160 -62 -285 -20 -150 -20 -432 0 -576 l16
-110 -36 -31 c-19 -17 -35 -37 -35 -44 0 -15 184 -683 199 -722 10 -28 22 -33
209 -84 62 -17 65 -19 140 -113 344 -433 822 -715 1375 -812 216 -38 358 -45
530 -26 446 49 806 187 1147 441 116 86 335 302 418 412 l61 81 114 32 c63 17
119 31 124 31 22 0 43 41 72 145 17 61 62 225 100 365 l70 255 -36 37 -36 37
14 108 c31 237 14 558 -41 798 -182 788 -788 1428 -1563 1651 -210 60 -325 76
-582 79 -126 2 -246 1 -265 -1z m570 -113 c372 -66 684 -202 970 -425 95 -73
272 -248 350 -346 264 -332 425 -725 471 -1155 17 -163 5 -428 -27 -586 l-5
-26 -147 29 c-81 16 -152 30 -158 32 -7 3 -6 29 2 87 18 118 17 402 -1 524
-80 530 -392 998 -858 1287 -512 318 -1188 350 -1733 83 -367 -181 -656 -469
-842 -841 -148 -295 -209 -605 -183 -931 7 -81 15 -162 17 -179 l6 -30 -154
-31 c-84 -17 -154 -30 -155 -29 -1 0 -9 50 -18 110 -76 517 41 1047 329 1486
208 316 513 585 851 751 207 101 438 173 640 198 50 6 101 13 115 15 69 12
421 -3 530 -23z m0 -450 c667 -131 1201 -653 1351 -1321 28 -128 33 -120 -66
-120 l-85 0 0 -65 c0 -36 -4 -65 -9 -65 -5 0 -9 95 -10 212 -1 117 -4 222 -7
234 -4 15 -43 42 -132 91 l-127 70 -9 -288 c-9 -296 -26 -388 -26 -140 0 145
-5 161 -47 161 l-23 0 0 208 c0 114 -4 212 -8 219 -4 6 -34 13 -65 15 l-58 3
-3 68 c-1 37 -7 72 -13 78 -22 22 -33 -3 -33 -76 l0 -74 -67 -3 -68 -3 -3 -67
c-3 -67 -3 -68 -31 -68 l-28 0 3 112 c2 110 -8 344 -17 352 -2 2 -82 -21 -176
-52 l-173 -56 -2 -355 c-3 -309 -5 -356 -18 -356 -13 0 -15 31 -18 211 -3 242
6 221 -106 270 l-71 31 -3 -113 c-2 -92 -5 -114 -17 -114 -13 0 -15 41 -15
283 0 290 -3 327 -25 327 -7 0 -17 20 -21 48 -9 46 -10 47 -49 52 l-40 5 -3
90 c-3 117 -8 135 -32 135 -19 0 -20 -7 -20 -115 l0 -115 -45 0 -45 0 0 -50
c0 -43 -3 -50 -20 -50 -20 0 -20 -7 -21 -382 -1 -211 -1 -386 0 -390 0 -5 -5
-8 -12 -8 -7 0 -19 15 -25 34 -7 19 -26 51 -42 71 l-30 38 0 171 c0 94 -4 177
-9 185 -5 8 -20 11 -37 9 -16 -3 -23 -3 -15 0 9 3 12 14 8 40 -10 56 -27 64
-28 11 -1 -24 -4 -34 -6 -21 -6 29 -23 29 -23 -1 0 -13 -5 -28 -12 -35 -9 -9
-2 -12 32 -12 l45 0 -3 -170 c-3 -167 -3 -170 -23 -159 -19 10 -20 19 -17 145
2 102 0 134 -9 134 -10 0 -13 -33 -13 -130 0 -111 -2 -129 -15 -124 -12 5 -15
29 -15 130 0 76 -4 124 -10 124 -6 0 -10 -45 -10 -114 0 -114 -4 -132 -29
-117 -9 6 -11 37 -9 120 2 84 0 111 -9 111 -10 0 -13 -30 -13 -116 0 -88 -3
-115 -12 -112 -9 3 -14 38 -16 116 -4 147 -22 148 -22 2 0 -103 -1 -110 -20
-110 -19 0 -20 7 -20 138 l0 139 33 -4 c24 -3 29 -2 17 6 -8 6 -28 11 -43 11
l-28 0 3 -145 c2 -91 0 -141 -6 -135 -6 6 -29 10 -53 10 l-42 0 -3 88 -3 87
-147 3 -147 3 -3 -58 c-3 -52 0 -61 24 -84 46 -45 49 -108 7 -148 l-21 -20 32
-56 c28 -49 31 -63 26 -98 -10 -57 -8 -113 5 -167 10 -38 8 -54 -10 -107 -12
-34 -21 -78 -21 -98 0 -25 -8 -44 -25 -60 -28 -28 -42 -30 -69 -10 -10 8 -22
12 -26 10 -12 -8 -3 40 15 74 23 46 31 160 14 200 -16 35 -29 40 -29 12 0 -11
-4 -22 -9 -25 -9 -6 0 -64 14 -86 8 -12 -72 -97 -82 -86 -3 3 2 12 11 21 9 9
16 22 16 30 0 8 7 11 20 8 23 -6 24 2 10 63 -7 32 -6 49 6 73 23 46 29 45 53
-8 19 -40 22 -57 16 -107 -4 -32 -14 -71 -21 -86 -34 -65 0 -116 50 -77 20 16
26 29 26 58 0 20 10 65 21 100 18 52 20 69 10 104 -14 56 -17 113 -7 159 7 32
4 46 -23 93 -37 66 -38 71 -6 101 30 28 32 58 6 101 -26 42 -70 51 -122 27
-30 -15 -37 -23 -33 -40 3 -11 -1 -26 -8 -32 -18 -14 -11 -81 8 -89 22 -8 17
-17 -18 -32 -31 -14 -32 -14 -65 25 -18 21 -33 44 -33 51 0 7 -9 21 -20 31
-15 14 -29 62 -55 192 -36 181 -41 211 -27 194 5 -5 24 -89 42 -186 22 -112
40 -180 48 -183 7 -2 11 -1 8 4 -8 12 -66 310 -66 338 0 52 245 273 431 388
358 222 827 312 1219 236z m-320 -331 c0 -5 -5 -10 -11 -10 -7 0 -9 -10 -7
-25 5 -24 3 -25 -43 -25 l-49 0 0 35 0 35 55 0 c30 0 55 -4 55 -10z m14 -117
c-9 -36 -14 -42 -14 -15 0 29 -18 28 -22 0 -2 -17 -10 -23 -30 -25 -16 -1 -28
1 -28 5 0 4 -18 6 -40 4 -37 -4 -40 -2 -40 20 0 14 2 27 5 30 3 2 43 5 90 6
l85 2 -6 -27z m6 -428 c0 -243 -4 -375 -10 -375 -6 0 -10 129 -10 366 0 288
-3 365 -12 362 -10 -4 -14 -91 -18 -374 l-5 -369 -3 373 c-2 323 -4 372 -17
372 -13 0 -15 -48 -15 -375 0 -249 -3 -375 -10 -375 -11 0 -14 753 -3 764 4 3
28 6 55 6 l48 0 0 -375z m-124 183 c-4 -101 -9 -277 -12 -393 -4 -180 -7 -212
-22 -227 -16 -16 -17 6 -20 392 l-4 410 33 0 32 0 -7 -182z m-1247 -104 c25
-130 31 -178 22 -187 -15 -15 -14 -64 2 -74 8 -4 17 -23 21 -42 3 -19 3 -32 0
-28 -12 12 -114 201 -114 212 0 6 -6 20 -14 31 -9 12 -17 56 -20 100 -4 52 -3
70 3 54 5 -14 9 -43 10 -65 1 -22 8 -53 16 -69 8 -15 15 -34 15 -41 0 -7 12
-33 26 -56 14 -24 23 -35 19 -24 -57 157 -68 233 -39 274 11 15 14 34 11 57
-3 19 -3 34 1 34 4 0 22 -79 41 -176z m2006 167 c-15 -15 -228 -16 -233 -2 -3
8 32 11 119 11 77 0 119 -4 114 -9z m-17 -53 c-3 -9 -34 -13 -108 -13 -74 0
-105 4 -107 13 -4 9 22 12 107 12 85 0 111 -3 108 -12z m-10 -50 c-3 -9 -33
-14 -93 -16 -93 -3 -120 1 -110 18 10 16 208 13 203 -2z m-2098 -68 c0 -27 -4
-52 -10 -55 -15 -9 -12 -61 5 -75 11 -9 15 -34 15 -94 0 -113 -8 -150 -33
-162 -11 -5 -43 -51 -71 -105 -57 -107 -72 -129 -92 -129 -16 0 -87 61 -79 68
3 3 19 -8 37 -24 l31 -29 -20 30 c-13 19 -18 35 -12 45 4 8 22 62 40 120 31
106 110 285 148 339 15 20 21 45 21 81 0 31 4 49 10 45 6 -3 10 -28 10 -55z
m2083 15 c-4 -13 -22 -15 -96 -13 -61 2 -92 7 -95 16 -3 9 21 12 97 12 86 0
100 -2 94 -15z m-1548 -35 c0 -20 -6 -26 -27 -28 -25 -3 -28 0 -28 28 0 28 3
31 28 28 21 -2 27 -8 27 -28z m85 0 c0 -25 -4 -30 -25 -30 -27 0 -41 20 -31
45 3 8 17 15 31 15 21 0 25 -5 25 -30z m80 2 c0 -22 -5 -28 -25 -30 -22 -1
-25 2 -25 28 0 25 4 30 25 30 21 0 25 -5 25 -28z m1370 -17 c0 -13 -14 -15
-87 -13 -58 2 -88 7 -91 16 -3 9 19 12 87 12 75 0 91 -3 91 -15z m270 -60 c0
-30 -4 -55 -10 -55 -5 0 -10 25 -10 55 0 30 5 55 10 55 6 0 10 -25 10 -55z
m52 -20 c2 -62 1 -73 -9 -58 -15 19 -18 133 -4 133 5 0 11 -34 13 -75z m57 -7
c0 -46 -4 -103 -8 -128 -7 -34 -9 -15 -10 83 -1 79 3 127 9 127 6 0 10 -34 9
-82z m50 -115 c-1 -134 -4 -183 -10 -153 -11 67 -11 350 1 350 6 0 10 -72 9
-197z m51 -60 c0 -141 -2 -254 -4 -252 -2 2 -7 118 -11 257 -5 182 -4 252 4
252 8 0 11 -76 11 -257z m-2010 198 c0 -29 -12 -32 -37 -9 -31 29 -29 35 7 30
20 -3 30 -10 30 -21z m1520 14 c0 -12 -15 -15 -79 -15 -74 0 -100 7 -84 24 3
3 42 6 85 6 63 0 78 -3 78 -15z m-1440 -21 c0 -22 -4 -25 -27 -22 -20 2 -29 9
-31 26 -3 19 1 22 27 22 27 0 31 -4 31 -26z m80 1 c0 -20 -5 -25 -25 -25 -20
0 -25 5 -25 25 0 20 5 25 25 25 20 0 25 -5 25 -25z m1075 15 c4 -6 -15 -10
-49 -10 -31 0 -56 5 -56 10 0 6 22 10 49 10 28 0 53 -4 56 -10z m-5 -40 c0 -5
-22 -10 -50 -10 -27 0 -50 5 -50 10 0 6 23 10 50 10 28 0 50 -4 50 -10z m278
-2 c-5 -14 -118 -24 -145 -14 -33 13 4 26 73 26 56 0 75 -3 72 -12z m-1923
-181 c29 -50 30 -54 15 -82 -8 -17 -15 -31 -16 -32 0 -2 -24 7 -54 20 l-53 22
7 80 c3 44 6 98 6 120 l1 40 32 -58 c18 -32 46 -82 62 -110z m1652 146 c-11
-10 -107 -13 -107 -2 0 5 26 9 57 9 31 0 53 -3 50 -7z m261 -15 c-5 -14 -109
-24 -135 -14 -32 13 3 26 68 26 52 0 70 -3 67 -12z m-1103 -18 c12 -5 -61 -9
-185 -9 l-205 -1 -18 -31 c-10 -18 -20 -29 -24 -25 -3 3 1 14 10 24 10 10 17
26 17 35 0 15 19 17 193 16 105 0 201 -4 212 -9z m1314 3 l-86 -4 -61 -152
c-98 -243 -313 -751 -323 -762 -16 -17 -10 11 17 71 14 33 91 217 169 409 79
193 152 371 164 398 l20 47 93 -2 93 -2 -86 -3z m-491 -10 c-15 -2 -42 -2 -60
0 -18 2 -6 4 27 4 33 0 48 -2 33 -4z m-578 -48 c19 -19 32 -35 29 -35 -3 0
-20 16 -39 35 -19 19 -32 35 -29 35 3 0 20 -16 39 -35z m848 23 c-5 -14 -99
-24 -125 -14 -32 12 2 26 63 26 48 0 65 -3 62 -12z m809 -40 l93 -51 0 -429
-1 -429 -52 7 c-65 7 -77 11 -77 24 0 6 25 10 60 10 86 0 75 20 -12 22 l-73 2
65 3 c63 4 110 22 59 24 l-24 0 23 9 c44 18 22 30 -60 32 l-83 2 83 3 c45 2
82 8 82 13 0 6 -42 11 -92 12 l-93 2 91 3 91 4 0 29 0 30 -89 0 c-83 0 -89 -1
-83 -19 3 -11 2 -22 -2 -24 -5 -3 -10 170 -12 384 -1 214 1 389 5 389 4 0 50
-23 101 -52z m-1079 25 c-15 -2 -42 -2 -60 0 -18 2 -6 4 27 4 33 0 48 -2 33
-4z m17 -33 c4 -6 -15 -9 -52 -8 l-58 1 50 7 c28 4 51 8 52 8 1 1 5 -2 8 -8z
m238 -5 c2 -11 -87 -20 -110 -11 -8 3 -11 11 -8 16 8 14 114 9 118 -5z m-1826
-37 c-3 -8 -6 -5 -6 6 -1 11 2 17 5 13 3 -3 4 -12 1 -19z m1589 0 c3 -4 -20
-8 -50 -8 -31 0 -56 4 -56 9 0 12 99 10 106 -1z m232 -17 c2 -7 -16 -11 -52
-11 -50 0 -74 9 -60 22 9 10 108 0 112 -11z m-238 -21 c0 -5 -22 -10 -50 -10
-27 0 -50 5 -50 10 0 6 23 10 50 10 28 0 50 -4 50 -10z m-1530 -31 c0 -5 -4
-9 -10 -9 -5 0 -10 7 -10 16 0 8 5 12 10 9 6 -3 10 -10 10 -16z m1754 0 c-7
-11 -104 -12 -104 -1 0 15 8 17 59 14 28 -2 48 -8 45 -13z m-1814 -29 c0 -31
-16 -41 -26 -15 -8 19 2 45 16 45 5 0 10 -13 10 -30z m1590 20 c0 -5 -22 -10
-50 -10 -27 0 -50 5 -50 10 0 6 23 10 50 10 28 0 50 -4 50 -10z m-1230 -57
c-11 -17 -11 -17 -6 0 3 10 6 24 7 30 0 9 2 9 5 0 3 -7 0 -20 -6 -30z m362
-58 c2 -55 0 -70 -12 -72 -13 -3 -14 10 -12 78 4 97 19 93 24 -6z m856 78
c-15 -2 -42 -2 -60 0 -18 2 -6 4 27 4 33 0 48 -2 33 -4z m232 -3 c0 -5 -22
-10 -50 -10 -27 0 -50 5 -50 10 0 6 23 10 50 10 28 0 50 -4 50 -10z m-1038
-64 c1 -20 -3 -41 -9 -47 -6 -6 -9 9 -9 45 1 60 16 62 18 2z m806 27 c-15 -2
-42 -2 -60 0 -18 2 -6 4 27 4 33 0 48 -2 33 -4z m222 -13 c0 -5 -18 -10 -39
-10 -22 0 -43 5 -46 10 -4 6 12 10 39 10 25 0 46 -4 46 -10z m-427 -11 c64
-33 89 -88 67 -153 -10 -32 -51 -76 -82 -89 -9 -4 3 -20 32 -46 l45 -41 19 38
c10 20 20 39 22 41 1 2 23 -5 48 -14 l45 -17 -30 -60 -31 -60 31 -32 31 -32
-31 -38 -32 -37 -32 31 -32 31 -39 -23 c-53 -31 -170 -33 -229 -3 -44 22 -85
83 -85 128 0 34 34 103 58 116 45 26 45 26 23 69 -55 108 4 202 127 202 29 0
63 -5 75 -11z m-557 -68 c-9 -16 -30 -40 -48 -53 -30 -21 -45 -23 -153 -24
l-120 -2 110 7 c146 9 189 33 212 117 7 26 8 26 11 7 2 -12 -4 -35 -12 -52z
m1308 -21 c3 -14 -3 -7 -13 15 -11 22 -20 49 -20 60 0 20 20 -25 33 -75z
m-1447 18 c-2 -13 -4 -3 -4 22 0 25 2 35 4 23 2 -13 2 -33 0 -45z m901 55
c-15 -2 -42 -2 -60 0 -18 2 -6 4 27 4 33 0 48 -2 33 -4z m362 -29 c0 -2 -9 0
-20 6 -11 6 -20 13 -20 16 0 2 9 0 20 -6 11 -6 20 -13 20 -16z m-2109 -49 c2
-32 -3 -46 -23 -68 -14 -15 -31 -49 -38 -75 -25 -103 -124 -237 -183 -249 -36
-7 -46 -31 -22 -49 21 -16 152 -16 172 -1 7 5 10 20 6 38 -6 32 33 102 86 153
26 25 30 26 34 9 13 -42 12 -343 0 -343 -5 0 -6 74 -4 165 2 97 -1 165 -6 165
-12 0 -43 -34 -76 -84 -19 -28 -24 -47 -20 -67 10 -54 -9 -61 -151 -60 -32 0
-76 25 -76 43 0 19 32 48 53 48 42 0 133 124 168 227 11 35 32 77 45 92 22 27
32 70 18 84 -7 7 -48 -40 -99 -116 -49 -73 -68 -84 -101 -62 -14 9 -29 26 -33
38 -5 12 -18 31 -30 41 -11 11 -21 25 -21 33 0 15 44 -33 73 -79 25 -40 52
-35 84 13 45 68 56 83 92 127 39 47 47 43 52 -23z m47 42 l32 -24 -25 -23
c-14 -13 -27 -22 -29 -19 -4 5 -17 89 -13 89 2 0 17 -11 35 -23z m1900 11 c-6
-18 -58 -22 -58 -3 0 10 10 15 31 15 19 0 29 -4 27 -12z m240 -13 c-3 -3 -9 2
-12 12 -6 14 -5 15 5 6 7 -7 10 -15 7 -18z m-440 -2 c-15 -2 -42 -2 -60 0 -18
2 -6 4 27 4 33 0 48 -2 33 -4z m12 -33 c0 -5 -23 -10 -51 -10 -31 0 -48 4 -44
10 3 6 26 10 51 10 24 0 44 -4 44 -10z m168 -2 c-3 -7 -13 -13 -23 -13 -10 0
-20 6 -22 13 -3 7 5 12 22 12 17 0 25 -5 23 -12z m-168 -38 c0 -5 -20 -10 -45
-10 -25 0 -45 5 -45 10 0 6 20 10 45 10 25 0 45 -4 45 -10z m579 -69 c17 -40
31 -77 31 -81 0 -5 -59 -10 -130 -12 -72 -2 -130 0 -130 4 0 4 56 9 124 10
l124 3 -23 58 c-27 65 -40 104 -32 97 2 -3 19 -38 36 -79z m-429 60 c0 -6 -4
-13 -10 -16 -5 -3 -10 1 -10 9 0 9 5 16 10 16 6 0 10 -4 10 -9z m-1653 -63
c-2 -13 -4 -5 -4 17 -1 22 1 32 4 23 2 -10 2 -28 0 -40z m1506 31 c-7 -7 -24
-8 -54 -1 l-44 10 55 1 c39 1 51 -2 43 -10z m-1569 -36 c-20 -40 -18 -80 6
-95 11 -7 20 -18 20 -25 0 -7 5 -13 10 -13 6 0 10 -20 10 -44 0 -49 7 -76 21
-76 5 0 9 35 10 78 0 42 5 86 10 97 7 15 8 10 4 -20 -2 -22 -5 -66 -5 -98 0
-45 -4 -59 -17 -64 -9 -4 -19 -1 -21 5 -2 7 -10 19 -18 26 -16 17 -19 46 -4
46 16 0 12 19 -11 51 -23 33 -44 38 -36 9 4 -17 0 -20 -26 -19 -32 0 -32 0 -7
11 l25 11 -25 7 c-25 8 -25 8 4 9 25 1 27 4 22 25 -3 14 -1 37 4 52 6 15 9 29
7 31 -3 2 -30 -8 -62 -22 l-58 -25 6 -53 c14 -115 18 -255 9 -312 -9 -55 -10
-48 -11 75 -1 74 -4 172 -8 217 l-6 83 64 29 c35 16 72 30 81 30 15 1 15 -2 2
-26z m2876 12 c0 -8 -9 -15 -20 -15 -11 0 -20 7 -20 15 0 8 9 15 20 15 11 0
20 -7 20 -15z m60 0 c0 -8 -7 -15 -15 -15 -8 0 -15 7 -15 15 0 8 7 15 15 15 8
0 15 -7 15 -15z m-2609 -32 c-12 -20 -14 -14 -5 12 4 9 9 14 11 11 3 -2 0 -13
-6 -23z m1227 20 c-15 -2 -42 -2 -60 0 -18 2 -6 4 27 4 33 0 48 -2 33 -4z
m-1525 -40 c-5 -33 -23 -46 -23 -17 0 16 20 58 25 52 1 -1 0 -18 -2 -35z
m2843 -4 c3 -6 2 -15 -2 -19 -12 -12 -38 5 -30 19 9 14 23 14 32 0z m64 -7 c0
-10 -7 -19 -15 -19 -8 0 -15 9 -15 19 0 10 7 18 15 18 8 0 15 -8 15 -18z m-60
-67 c0 -8 -9 -15 -20 -15 -11 0 -20 7 -20 15 0 8 9 15 20 15 11 0 20 -7 20
-15z m60 0 c0 -8 -7 -15 -15 -15 -8 0 -15 7 -15 15 0 8 7 15 15 15 8 0 15 -7
15 -15z m-2640 -35 c-12 -17 -24 -29 -27 -26 -6 5 40 65 46 60 2 -1 -7 -17
-19 -34z m2578 -27 c2 -8 -5 -13 -17 -13 -12 0 -21 6 -21 16 0 18 31 15 38 -3z
m62 2 c0 -8 -7 -15 -15 -15 -8 0 -15 7 -15 15 0 8 7 15 15 15 8 0 15 -7 15
-15z m-2955 -25 c1 -16 -5 -20 -26 -20 -21 0 -27 4 -23 15 4 9 0 16 -7 16 -8
1 0 4 16 8 35 8 38 7 40 -19z m195 5 c0 -22 -4 -25 -32 -25 -25 0 -29 3 -18
10 13 9 13 11 1 19 -11 7 -7 10 15 14 16 2 30 5 32 6 1 0 2 -10 2 -24z m2700
-50 c0 -8 -9 -15 -20 -15 -11 0 -20 7 -20 15 0 8 9 15 20 15 11 0 20 -7 20
-15z m60 0 c0 -8 -7 -15 -15 -15 -8 0 -15 7 -15 15 0 8 7 15 15 15 8 0 15 -7
15 -15z m-2760 -30 c0 -21 -5 -25 -30 -25 -41 0 -43 37 -2 43 15 2 28 5 30 6
1 0 2 -10 2 -24z m-190 -5 c0 -15 -7 -20 -26 -20 -16 0 -23 4 -18 11 3 6 0 15
-7 20 -10 6 -4 9 19 9 25 0 32 -4 32 -20z m78 4 c29 -20 21 -32 -18 -26 -21 3
-30 10 -30 23 0 23 18 24 48 3z m2218 -81 c-4 -4 -36 73 -35 85 0 4 9 -13 20
-37 11 -24 18 -46 15 -48z m392 80 c-16 -2 -40 -2 -55 0 -16 2 -3 4 27 4 30 0
43 -2 28 -4z m-1983 -43 c21 -41 20 -90 -2 -90 -15 0 -18 10 -18 60 0 33 1 60
2 60 1 0 9 -13 18 -30z m2185 15 c0 -8 -9 -15 -20 -15 -11 0 -20 7 -20 15 0 8
9 15 20 15 11 0 20 -7 20 -15z m60 0 c0 -8 -7 -15 -15 -15 -8 0 -15 7 -15 15
0 8 7 15 15 15 8 0 15 -7 15 -15z m-754 -93 c-12 -11 -16 6 -9 39 l8 34 3 -33
c2 -19 1 -36 -2 -40z m-2196 38 c0 -15 -7 -20 -26 -20 -22 0 -24 3 -15 14 9
11 9 15 -1 19 -7 3 -1 6 15 6 21 1 27 -4 27 -19z m95 -2 c-1 -17 -8 -21 -33
-22 -27 -1 -32 3 -32 22 0 18 5 22 33 22 28 0 33 -3 32 -22z m95 -1 c0 -20 -4
-23 -30 -19 -21 3 -30 10 -30 23 0 14 7 19 30 19 25 0 30 -4 30 -23z m1960
-12 c0 -14 -4 -25 -10 -25 -5 0 -10 11 -10 25 0 14 5 25 10 25 6 0 10 -11 10
-25z m738 3 c-7 -19 -38 -22 -38 -4 0 10 9 16 21 16 12 0 19 -5 17 -12z m62
-3 c0 -8 -7 -15 -15 -15 -8 0 -15 7 -15 15 0 8 7 15 15 15 8 0 15 -7 15 -15z
m-703 -27 c-3 -7 -5 -2 -5 12 0 14 2 19 5 13 2 -7 2 -19 0 -25z m-1580 0 c-3
-8 -6 -5 -6 6 -1 11 2 17 5 13 3 -3 4 -12 1 -19z m88 2 c3 -5 1 -10 -4 -10 -6
0 -11 5 -11 10 0 6 2 10 4 10 3 0 8 -4 11 -10z m-565 -25 c0 -10 -10 -15 -30
-15 -38 0 -39 17 -2 23 15 2 28 5 30 6 1 0 2 -6 2 -14z m-193 -10 c0 -10 -10
-15 -26 -14 -14 0 -20 3 -12 6 11 5 11 7 0 14 -10 6 -7 9 12 9 16 0 26 -5 26
-15z m103 5 c0 -5 -6 -10 -12 -10 -7 0 -23 -3 -35 -6 -17 -5 -23 -2 -23 10 0
12 9 16 35 16 19 0 35 -4 35 -10z m2790 -5 c0 -8 -9 -15 -20 -15 -11 0 -20 7
-20 15 0 8 9 15 20 15 11 0 20 -7 20 -15z m60 0 c0 -8 -7 -15 -15 -15 -8 0
-15 7 -15 15 0 8 7 15 15 15 8 0 15 -7 15 -15z m-1210 -5 c635 -21 1042 -59
1435 -131 264 -49 338 -68 332 -88 -101 -376 -191 -697 -196 -702 -3 -4 -103
1 -221 11 -611 51 -1103 70 -1830 71 -735 1 -1335 -22 -1855 -71 -110 -10
-202 -17 -203 -15 -2 2 -19 59 -38 127 -19 68 -64 228 -100 357 -36 128 -62
237 -57 241 22 20 434 95 703 129 506 63 1365 93 2030 71z m1105 -925 c50 -3
102 -8 117 -11 l28 -6 -29 -41 c-141 -203 -375 -422 -606 -565 -256 -158 -621
-283 -870 -297 l-80 -4 70 9 c99 14 97 13 90 62 -4 24 -6 51 -6 61 0 9 -5 17
-11 17 -7 0 -6 5 1 14 8 9 8 15 2 18 -17 5 -25 79 -9 90 8 5 -7 6 -37 1 -80
-11 -402 -8 -494 6 -75 11 -85 11 -102 -5 -14 -13 -16 -20 -8 -31 6 -7 8 -13
3 -13 -5 0 -2 -5 6 -10 12 -7 8 -10 -15 -10 l-30 -1 24 -13 c16 -9 20 -16 12
-20 -6 -4 -9 -12 -6 -17 4 -5 1 -9 -4 -9 -17 0 -13 -26 11 -65 17 -31 19 -38
7 -46 -10 -6 -6 -9 16 -10 17 0 25 -3 18 -6 -22 -8 -214 36 -352 83 -237 79
-467 204 -663 362 -81 66 -308 297 -308 315 0 5 10 2 23 -9 l22 -19 -19 23
c-11 12 -21 20 -24 17 -7 -7 -42 25 -42 38 0 5 8 3 18 -4 15 -13 16 -12 3 3
-7 10 -17 16 -21 13 -10 -6 -55 54 -46 62 3 3 8 -1 11 -8 4 -10 17 -13 43 -11
31 3 42 -2 71 -31 18 -20 30 -40 26 -46 -3 -6 -9 -9 -13 -7 -4 2 -7 -12 -7
-32 0 -25 5 -37 14 -37 8 0 15 -9 17 -20 3 -24 188 -205 210 -205 8 0 12 4 9
10 -4 6 3 6 21 0 32 -12 41 -8 19 10 -19 16 -19 27 0 27 8 0 12 -4 9 -9 -3 -4
1 -5 9 -2 9 3 13 13 10 24 -5 19 28 46 41 33 3 -3 6 -1 6 5 0 6 -5 14 -11 18
-8 4 -8 9 0 17 8 8 14 8 23 -1 18 -18 32 -14 17 5 -12 15 -12 16 5 10 14 -6
17 -4 12 9 -5 12 -2 15 11 10 10 -3 -23 33 -74 81 -50 49 -109 108 -129 133
-21 25 9 0 67 -56 129 -125 208 -190 324 -267 202 -133 452 -226 720 -268 103
-17 407 -17 510 0 410 65 761 244 1045 532 l105 107 50 -4 c28 -2 91 -6 140
-9z m-3160 -15 c-3 -5 3 -10 14 -10 11 0 28 -12 39 -27 33 -48 34 -53 16 -46
-14 5 -15 3 -4 -18 13 -23 12 -24 -7 -6 -11 9 -24 17 -29 18 -5 0 -22 16 -38
36 -23 27 -26 37 -16 43 10 6 7 9 -11 13 -19 3 -17 5 9 6 20 0 31 -3 27 -9z
m85 -10 c3 -1 8 -2 12 -2 3 1 12 -6 20 -15 7 -9 8 -14 2 -10 -7 4 -15 0 -18
-9 -3 -8 -2 -12 4 -9 6 4 7 -1 3 -11 -5 -15 -11 -12 -35 16 -15 19 -28 37 -28
41 0 6 23 5 40 -1z m3293 -21 c-108 -183 -370 -447 -593 -596 -300 -200 -685
-340 -989 -358 l-76 -5 83 14 c46 8 86 17 90 21 4 4 -11 5 -33 1 -22 -3 -114
-9 -205 -12 -152 -6 -347 7 -484 33 -22 4 -28 2 -21 -5 6 -6 60 -18 120 -26
171 -24 175 -25 90 -20 -178 11 -443 79 -643 165 -298 128 -568 322 -768 550
-96 111 -206 259 -192 259 2 0 23 -27 47 -59 23 -33 49 -62 58 -65 8 -3 11
-11 7 -17 -4 -8 -3 -9 5 -5 8 5 3 18 -17 44 -42 55 -74 102 -69 102 3 0 43
-48 90 -107 215 -273 451 -465 756 -616 213 -106 451 -178 681 -207 109 -13
401 -13 510 0 393 49 798 225 1105 482 115 96 261 248 350 366 53 69 76 92 93
92 23 0 23 0 5 -31z m-3228 10 c11 -17 -1 -21 -15 -4 -8 9 -8 15 -2 15 6 0 14
-5 17 -11z m60 -109 c3 -5 0 -10 -7 -10 -9 0 -10 -2 -1 -8 6 -4 14 -19 18 -33
6 -24 4 -26 -24 -27 -22 0 -29 3 -24 11 3 7 -2 5 -13 -4 -10 -9 -25 -14 -31
-12 -7 3 -13 0 -13 -6 0 -6 6 -11 14 -11 7 0 16 -11 19 -26 l4 -25 -23 22
c-13 12 -24 30 -24 40 0 34 25 72 55 85 37 16 42 17 50 4z m49 -71 c-3 -5 -10
-7 -15 -3 -5 3 -7 10 -3 15 3 5 10 7 15 3 5 -3 7 -10 3 -15z m6 -38 c0 -13
-40 -41 -58 -41 -8 0 -12 8 -10 18 2 9 11 16 20 14 9 -1 19 2 23 8 8 13 25 13
25 1z m1316 -478 c-2 -26 -57 -78 -66 -63 -4 7 -12 10 -18 6 -21 -13 1 35 26
54 31 25 60 26 58 3z m61 -49 c-9 -9 -28 6 -21 18 4 6 10 6 17 -1 6 -6 8 -13
4 -17z m-39 -2 c2 -7 -6 -12 -17 -12 -21 0 -27 11 -14 24 9 9 26 2 31 -12z
m28 -57 c-18 -28 -47 -33 -65 -11 -9 10 -8 15 4 20 8 3 21 3 28 0 8 -3 20 2
27 11 20 24 25 9 6 -20z m-96 -1 c0 -22 -2 -25 -15 -14 -8 7 -15 19 -15 26 0
8 7 14 15 14 10 0 15 -10 15 -26z m-202 -71 c-10 -2 -28 -2 -40 0 -13 2 -5 4
17 4 22 1 32 -1 23 -4z m95 -10 c-13 -2 -35 -2 -50 0 -16 2 -5 4 22 4 28 0 40
-2 28 -4z m220 -10 c-34 -2 -93 -2 -130 0 -37 2 -9 3 62 3 72 0 102 -1 68 -3z
m0 -80 c-35 -2 -91 -2 -125 0 -35 2 -7 3 62 3 69 0 97 -1 63 -3z"/>
<path d="M3902 6117 c-12 -13 -19 -26 -16 -30 3 -3 -8 -13 -25 -21 -60 -32
-71 -108 -22 -157 74 -73 196 -7 177 96 -8 40 -52 74 -96 76 -23 0 -23 1 -5 8
11 5 29 18 39 30 19 21 19 21 -6 21 -13 0 -34 -10 -46 -23z m46 -99 c17 -17
15 -63 -2 -78 -23 -18 -59 -8 -75 22 -14 24 -14 28 3 47 21 23 56 27 74 9z"/>
<path d="M4050 6041 c0 -21 -3 -66 -6 -100 l-7 -61 31 0 c30 0 31 1 34 52 l3
52 35 -52 c35 -51 64 -72 80 -55 5 4 10 50 12 101 2 68 0 92 -9 94 -7 0 -19 1
-25 2 -8 1 -15 -17 -18 -49 l-5 -50 -38 53 c-28 38 -45 52 -63 52 -21 0 -24
-4 -24 -39z"/>
<path d="M3734 6063 c-20 -4 -20 -6 -8 -96 7 -51 13 -93 13 -94 1 -2 12 -3 26
-3 20 0 25 5 25 25 0 41 -22 175 -29 174 -3 -1 -15 -4 -27 -6z"/>
<path d="M3584 6036 c-69 -30 -85 -106 -35 -157 39 -38 106 -41 147 -5 l28 23
-22 12 c-18 9 -27 8 -47 -5 -52 -34 -104 21 -70 73 14 21 22 24 51 20 27 -5
36 -2 44 14 9 16 7 21 -15 29 -34 13 -43 12 -81 -4z"/>
<path d="M4361 6013 c-15 -58 -30 -127 -31 -140 0 -15 62 -33 113 -33 79 0
125 91 77 153 -20 25 -51 39 -117 52 -30 6 -32 4 -42 -32z m109 -43 c23 -23
24 -33 10 -61 -8 -14 -21 -19 -50 -19 -22 0 -40 3 -40 6 0 3 5 25 11 50 13 50
35 58 69 24z"/>
<path d="M4595 5987 c-17 -46 -55 -162 -55 -168 0 -11 128 -51 140 -44 21 13
9 34 -27 46 -51 16 -53 17 -47 34 5 11 11 12 44 0 33 -12 39 -12 44 2 10 26 7
30 -34 42 -28 8 -38 16 -34 26 7 18 3 18 54 0 48 -17 47 -17 52 9 2 15 -10 23
-65 42 -49 17 -69 20 -72 11z"/>
<path d="M3383 5983 c-13 -2 -23 -7 -23 -11 -1 -4 -7 -51 -14 -104 -7 -54 -9
-98 -5 -98 20 0 41 15 49 34 11 29 74 50 91 30 13 -16 45 -19 54 -5 4 8 -122
165 -128 160 -1 -1 -12 -4 -24 -6z m38 -107 c-26 -11 -32 -6 -24 22 5 22 6 22
25 5 19 -17 19 -18 -1 -27z"/>
<path d="M3205 5917 c-38 -17 -71 -32 -73 -32 -1 -1 0 -9 4 -18 4 -11 16 -16
36 -14 28 2 31 -2 56 -60 14 -35 28 -63 32 -63 3 0 14 6 24 13 17 12 16 16 -8
71 -14 32 -26 62 -26 66 0 4 11 12 24 18 18 8 23 16 19 31 -7 26 -3 26 -88
-12z"/>
<path d="M4812 5814 c-24 -48 -42 -88 -40 -89 2 -1 32 -17 67 -35 62 -31 65
-31 78 -14 12 17 9 21 -32 41 -25 13 -45 28 -45 33 0 18 20 20 50 5 17 -9 35
-13 40 -10 20 12 9 32 -25 48 -23 11 -33 21 -29 31 5 13 12 12 47 -5 39 -21
41 -21 54 -3 12 17 8 21 -49 51 -35 18 -65 32 -68 33 -3 0 -25 -39 -48 -86z"/>
<path d="M3076 5857 c-17 -12 -16 -18 23 -95 23 -45 44 -82 47 -82 3 0 13 4
23 10 17 9 15 16 -26 95 -24 47 -45 85 -47 85 -1 0 -10 -6 -20 -13z"/>
<path d="M4977 5729 c-55 -91 -56 -85 31 -129 67 -34 130 -6 148 66 11 43 -48
113 -119 140 -7 2 -34 -32 -60 -77z m123 -42 c0 -25 -28 -57 -49 -57 -17 1
-51 23 -51 34 0 3 12 25 26 47 l26 41 24 -23 c13 -12 24 -31 24 -42z"/>
<path d="M2920 5770 c-12 -7 -10 -16 13 -57 15 -26 35 -63 44 -80 9 -18 20
-33 24 -33 17 0 119 65 119 77 0 23 -21 25 -56 4 -19 -12 -37 -21 -39 -21 -2
0 -18 27 -37 60 -33 61 -41 67 -68 50z"/>
<path d="M2841 5716 c-10 -12 -3 -29 39 -91 45 -67 53 -74 70 -65 11 6 20 14
20 17 0 15 -96 153 -106 153 -6 0 -17 -6 -23 -14z"/>
<path d="M5166 5616 c-31 -42 -56 -79 -56 -83 0 -5 9 -14 19 -20 18 -11 25 -6
68 54 66 92 65 88 44 107 -18 17 -21 14 -75 -58z"/>
<path d="M2711 5620 c-35 -28 -49 -45 -44 -54 21 -35 99 -135 105 -136 4 0 31
19 60 43 66 54 75 88 29 115 -17 9 -31 22 -31 29 0 18 -29 43 -50 43 -10 0
-41 -18 -69 -40z m73 -19 c3 -4 -5 -18 -18 -30 -20 -19 -25 -20 -35 -7 -10 11
-8 17 11 30 25 18 35 20 42 7z m51 -52 c7 -11 -31 -59 -47 -59 -22 0 -20 34 3
51 28 22 35 23 44 8z"/>
<path d="M5233 5555 l-62 -73 21 -18 c20 -19 21 -19 41 8 l20 27 34 -26 c30
-23 36 -25 49 -11 14 13 12 18 -15 41 -20 16 -29 31 -25 41 8 22 13 20 51 -16
32 -31 33 -31 48 -12 13 18 10 23 -38 66 -29 26 -54 47 -57 47 -3 0 -33 -33
-67 -74z"/>
<path d="M5367 5442 c-66 -67 -67 -69 -48 -86 19 -17 21 -16 84 50 55 58 63
71 53 86 -6 10 -13 18 -16 18 -3 0 -36 -31 -73 -68z"/>
<path d="M2554 5479 c-18 -20 -17 -23 11 -105 38 -109 39 -111 60 -94 11 9 14
22 10 38 -9 36 39 86 68 71 15 -9 24 -7 40 10 l21 20 -27 10 c-14 6 -58 24
-96 40 -69 29 -69 29 -87 10z m86 -69 c0 -4 -6 -13 -13 -19 -11 -8 -16 -5 -25
15 -16 34 -16 35 13 22 14 -6 25 -14 25 -18z"/>
<path d="M5419 5381 c-34 -34 -38 -77 -12 -122 17 -29 76 -64 92 -55 12 8 1
56 -14 56 -16 0 -45 33 -45 52 0 21 32 48 57 48 24 0 53 -30 53 -54 0 -12 7
-16 23 -14 33 5 26 55 -13 91 -43 39 -101 38 -141 -2z"/>
<path d="M2435 5360 c-16 -18 -16 -20 10 -43 27 -23 28 -24 10 -50 -21 -32
-25 -33 -57 -7 -25 19 -26 19 -43 0 -10 -11 -16 -22 -14 -23 2 -2 37 -30 77
-62 69 -55 73 -57 87 -39 12 17 11 22 -12 46 -26 27 -26 28 -7 50 10 13 20 25
21 27 1 2 16 -7 33 -19 17 -12 32 -21 33 -19 2 2 8 11 15 21 11 14 3 24 -61
77 -73 59 -75 60 -92 41z"/>
<path d="M5565 5234 c-38 -30 -71 -59 -73 -63 -1 -4 4 -15 12 -26 13 -18 17
-16 90 42 75 60 76 61 58 82 l-17 21 -70 -56z"/>
<path d="M2276 5145 c-20 -30 -36 -59 -36 -63 0 -10 134 -102 148 -102 10 0
82 105 82 119 0 5 -7 11 -15 15 -10 3 -24 -8 -41 -34 -15 -22 -30 -40 -35 -40
-19 0 -19 23 0 54 25 40 25 42 6 50 -9 3 -23 -7 -38 -29 -16 -24 -27 -31 -37
-25 -11 7 -9 16 12 48 20 29 24 42 15 51 -18 18 -22 14 -61 -44z"/>
<path d="M5599 5152 c-54 -48 -38 -131 32 -167 40 -21 82 -12 114 27 29 34 32
75 10 118 -30 58 -104 69 -156 22z m105 -38 c42 -42 -4 -101 -59 -76 -19 9
-25 19 -25 41 0 46 52 68 84 35z"/>
<path d="M2211 5007 c-13 -6 -37 -35 -52 -62 l-28 -51 84 -46 c84 -46 85 -46
97 -25 9 18 7 23 -10 35 -27 18 -17 42 18 42 18 0 33 8 44 25 9 13 16 26 16
27 0 2 -18 2 -40 0 -35 -4 -40 -1 -40 16 0 20 -34 52 -55 52 -5 0 -21 -6 -34
-13z m47 -62 c4 -36 -13 -51 -43 -37 -25 12 -25 13 -9 37 19 30 48 29 52 0z"/>
<path d="M5761 4984 c-21 -15 -23 -22 -17 -70 8 -67 -9 -72 -26 -9 -10 39 -15
44 -33 39 -28 -9 -28 -7 -15 -54 14 -52 42 -80 79 -80 42 0 55 21 48 81 -7 58
11 65 28 11 7 -24 15 -32 32 -32 26 0 29 14 12 57 -13 36 -48 73 -69 73 -8 0
-26 -7 -39 -16z"/>
<path d="M5984 4071 c4 -6 2 -18 -4 -26 -10 -12 -9 -15 5 -15 9 0 15 -6 12
-12 -3 -12 -11 -14 -60 -17 -33 -2 -16 -44 26 -64 36 -18 38 -18 70 0 20 12
33 28 34 44 3 22 2 22 -6 4 -19 -44 -78 -61 -89 -26 -3 10 1 12 19 8 35 -9 60
17 52 57 -6 29 -5 30 13 16 18 -14 18 -14 1 6 -9 11 -23 21 -30 21 -6 0 -21 4
-31 9 -14 5 -17 4 -12 -5z m-34 -91 c0 -5 -4 -10 -10 -10 -5 0 -10 5 -10 10 0
6 5 10 10 10 6 0 10 -4 10 -10z"/>
<path d="M2050 4044 c16 -41 6 -54 -40 -54 -33 0 -41 -3 -38 -16 2 -9 15 -26
30 -37 24 -18 30 -18 58 -7 67 28 68 115 2 135 -21 6 -21 5 -12 -21z m47 -30
c-9 -9 -28 6 -21 18 4 6 10 6 17 -1 6 -6 8 -13 4 -17z m-7 -32 c0 -17 -37 -42
-54 -36 -25 10 -19 32 12 37 15 2 30 5 35 6 4 0 7 -3 7 -7z"/>
<path d="M3532 5183 l2 -78 6 75 6 75 2 -72 c2 -87 22 -99 22 -14 0 68 -6 91
-26 91 -11 0 -14 -17 -12 -77z"/>
<path d="M3472 5068 l1 -43 4 38 c2 20 8 35 12 33 4 -3 13 -1 21 5 11 6 8 9
-12 9 -26 0 -28 -2 -26 -42z"/>
<path d="M3501 5048 c0 -17 2 -19 7 -8 4 10 19 15 37 14 17 0 39 3 50 7 13 5
1 8 -37 8 -54 1 -58 -1 -57 -21z"/>
<path d="M2780 4681 c0 -6 11 -23 25 -38 l26 -28 -22 38 c-21 37 -29 45 -29
28z"/>
<path d="M2598 4593 c-3 -81 2 -102 25 -103 4 0 6 3 6 8 -5 32 3 102 11 97 6
-3 10 -3 10 0 0 9 -40 85 -44 85 -3 0 -6 -39 -8 -87z"/>
<path d="M5302 4548 c3 -9 29 -13 86 -13 111 0 107 19 -4 23 -67 2 -85 0 -82
-10z"/>
<path d="M5300 4510 c0 -6 35 -10 84 -10 47 0 88 5 91 10 4 6 -27 10 -84 10
-54 0 -91 -4 -91 -10z"/>
<path d="M5300 4480 c0 -6 35 -10 85 -10 50 0 85 4 85 10 0 6 -35 10 -85 10
-50 0 -85 -4 -85 -10z"/>
<path d="M5300 4450 c0 -6 37 -10 91 -10 57 0 88 4 84 10 -3 6 -44 10 -91 10
-49 0 -84 -4 -84 -10z"/>
<path d="M5306 4423 c-17 -18 1 -23 78 -23 93 0 133 19 44 21 -29 1 -67 3 -84
5 -17 2 -34 1 -38 -3z"/>
<path d="M5300 4380 c0 -6 35 -10 84 -10 47 0 88 5 91 10 4 6 -27 10 -84 10
-54 0 -91 -4 -91 -10z"/>
<path d="M5300 4350 c0 -6 37 -10 91 -10 57 0 88 4 84 10 -3 6 -44 10 -91 10
-49 0 -84 -4 -84 -10z"/>
<path d="M5305 4320 c-3 -5 0 -13 8 -16 24 -9 162 0 162 11 0 14 -161 19 -170
5z"/>
<path d="M5300 4280 c0 -6 35 -10 84 -10 47 0 88 5 91 10 4 6 -27 10 -84 10
-54 0 -91 -4 -91 -10z"/>
<path d="M5300 4250 c0 -6 37 -10 91 -10 57 0 88 4 84 10 -3 6 -44 10 -91 10
-49 0 -84 -4 -84 -10z"/>
<path d="M5307 4224 c-4 -4 -7 -11 -7 -16 0 -12 170 -5 173 7 2 11 -155 20
-166 9z"/>
<path d="M5300 4180 c0 -6 35 -10 84 -10 47 0 88 5 91 10 4 6 -27 10 -84 10
-54 0 -91 -4 -91 -10z"/>
<path d="M5300 4150 c0 -6 37 -10 91 -10 57 0 88 4 84 10 -3 6 -44 10 -91 10
-49 0 -84 -4 -84 -10z"/>
<path d="M5300 4115 c0 -13 13 -15 85 -13 48 2 85 7 85 13 0 6 -37 11 -85 13
-72 2 -85 0 -85 -13z"/>
<path d="M5300 4080 c0 -6 35 -10 84 -10 47 0 88 5 91 10 4 6 -27 10 -84 10
-54 0 -91 -4 -91 -10z"/>
<path d="M5300 4050 c0 -6 37 -10 90 -10 53 0 90 4 90 10 0 6 -37 10 -90 10
-53 0 -90 -4 -90 -10z"/>
<path d="M5300 4015 c0 -13 13 -15 85 -13 48 2 85 7 85 13 0 6 -37 11 -85 13
-72 2 -85 0 -85 -13z"/>
<path d="M5300 3980 c0 -6 35 -10 84 -10 47 0 88 5 91 10 4 6 -27 10 -84 10
-54 0 -91 -4 -91 -10z"/>
<path d="M5300 3950 c0 -6 37 -10 90 -10 53 0 90 4 90 10 0 6 -37 10 -90 10
-53 0 -90 -4 -90 -10z"/>
<path d="M4078 4363 c7 -3 16 -2 19 1 4 3 -2 6 -13 5 -11 0 -14 -3 -6 -6z"/>
<path d="M4002 4298 c-19 -19 -14 -63 11 -86 l23 -22 29 30 c25 26 27 34 19
58 -7 20 -17 28 -39 30 -17 2 -36 -3 -43 -10z"/>
<path d="M3966 4060 c-14 -17 -26 -39 -26 -49 0 -64 114 -96 165 -45 12 13 13
19 4 30 -7 8 -14 12 -17 9 -3 -3 -27 15 -52 40 l-47 46 -27 -31z"/>
<path d="M4198 4055 c-12 -28 -18 -30 -36 -15 -9 7 -9 7 -2 -2 6 -8 4 -16 -8
-25 -13 -11 -10 -11 14 1 25 12 65 66 49 66 -3 0 -11 -11 -17 -25z"/>
<path d="M4080 3930 c-9 -6 -10 -10 -3 -10 6 0 15 5 18 10 8 12 4 12 -15 0z"/>
<path d="M3885 3910 c10 -11 20 -20 23 -20 3 0 -3 9 -13 20 -10 11 -20 20 -23
20 -3 0 3 -9 13 -20z"/>
<path d="M4028 3913 c6 -2 18 -2 25 0 6 3 1 5 -13 5 -14 0 -19 -2 -12 -5z"/>
<path d="M2600 4300 c0 -19 3 -21 12 -12 9 9 9 15 0 24 -9 9 -12 7 -12 -12z"/>
<path d="M5129 3661 c13 -12 19 -21 15 -21 -5 0 -2 -5 6 -10 12 -8 11 -10 -7
-10 -13 0 -23 -4 -23 -10 0 -5 9 -10 21 -10 19 0 19 -1 5 -16 -19 -19 -20 -31
-3 -37 6 -3 3 -6 -8 -7 -19 -1 -19 -1 -2 -14 16 -13 16 -14 1 -20 -13 -5 -14
-10 -6 -18 8 -8 7 -15 -6 -24 -16 -12 -16 -13 3 -14 11 0 16 -4 10 -8 -5 -4
-12 -16 -13 -27 -2 -11 -9 -23 -15 -27 -6 -3 -12 -14 -13 -22 -3 -18 17 -24
96 -29 30 -2 -4 -4 -77 -5 l-131 -2 -7 -112 c-4 -62 -5 -135 -3 -163 l3 -50
134 0 134 0 4 28 c2 16 15 41 28 55 21 23 27 24 50 14 32 -15 32 -15 32 2 0 8
-13 20 -29 27 -34 14 -68 58 -68 89 0 63 72 120 154 120 43 0 69 21 44 36 -7
4 -6 9 3 15 12 7 12 9 0 9 -10 0 -11 3 -2 13 6 8 8 17 4 20 -3 4 -1 7 5 7 20
0 13 18 -10 26 l-22 7 25 11 c22 10 37 46 19 46 -9 0 -20 37 -12 44 3 3 5 21
6 40 l1 34 -85 11 c-47 6 -130 13 -185 16 l-100 6 24 -20z m117 -407 c-4 -9
-22 -14 -53 -15 l-48 -1 40 -13 40 -13 -77 -1 c-72 -1 -78 1 -78 19 0 18 7 20
85 20 l85 0 1 38 c2 31 3 32 6 9 3 -16 2 -35 -1 -43z m-20 -120 c-3 -8 -16
-14 -28 -14 -13 0 -31 -7 -42 -15 -17 -13 -14 -14 30 -18 32 -2 19 -4 -36 -5
-84 -2 -85 -2 -85 23 0 25 2 25 78 25 l77 0 1 38 c2 31 3 32 6 9 3 -16 2 -35
-1 -43z"/>
<path d="M3600 3626 c-6 -6 -10 -13 -10 -17 0 -3 -21 -50 -46 -103 l-46 -98
-23 34 c-23 33 -23 33 -4 54 29 31 25 88 -7 113 -22 17 -41 21 -105 21 l-79 0
0 -115 0 -115 35 0 c32 0 35 2 35 30 0 22 5 30 18 30 10 0 26 -13 35 -30 18
-29 21 -30 91 -30 68 0 74 2 84 25 10 22 18 25 62 25 45 0 50 -3 56 -25 5 -21
12 -25 45 -25 l38 0 -50 108 c-28 59 -54 111 -59 116 -13 13 -58 14 -70 2z
m-185 -76 c0 -21 -5 -26 -32 -28 -31 -3 -33 -1 -33 28 0 29 2 31 33 28 27 -2
32 -7 32 -28z m245 -42 c0 -5 -11 -8 -25 -8 -29 0 -29 0 -13 35 l12 26 13 -23
c7 -13 12 -26 13 -30z"/>
<path d="M3790 3520 l0 -122 94 4 c75 2 98 7 115 22 25 23 27 63 4 88 -13 14
-14 21 -5 30 18 18 14 53 -9 74 -17 15 -40 20 -110 22 l-89 4 0 -122z m150 45
c0 -11 -11 -15 -40 -15 -29 0 -40 4 -40 15 0 11 11 15 40 15 29 0 40 -4 40
-15z m8 -86 c2 -13 -7 -18 -42 -21 -42 -3 -46 -1 -46 20 0 21 4 23 42 20 30
-2 44 -8 46 -19z"/>
<path d="M4068 3520 l-56 -120 37 0 c31 0 40 5 49 25 10 21 18 25 57 25 39 0
47 -4 57 -25 9 -20 18 -25 50 -25 21 0 38 1 38 3 0 2 -9 22 -21 46 -11 23 -35
76 -54 117 -32 70 -35 74 -67 74 -32 0 -34 -3 -90 -120z m112 -12 c0 -5 -11
-8 -24 -8 -24 0 -24 2 -14 31 l11 32 13 -24 c7 -13 13 -27 14 -31z"/>
<path d="M4317 3634 c-4 -4 -7 -18 -7 -31 0 -21 5 -23 45 -23 l45 0 0 -44 c0
-24 -3 -51 -6 -60 -7 -18 -45 -21 -61 -5 -7 7 -15 3 -26 -15 -16 -24 -16 -26
5 -41 35 -24 100 -20 126 8 19 20 22 36 24 118 l2 94 -70 3 c-38 1 -73 0 -77
-4z"/>
<path d="M4575 3626 c-53 -24 -78 -60 -78 -112 0 -41 4 -51 36 -81 35 -32 58
-38 117 -33 60 5 110 61 110 122 0 36 -34 83 -73 101 -42 20 -71 21 -112 3z
m95 -66 c36 -36 21 -89 -30 -105 -24 -8 -56 9 -70 36 -33 60 51 118 100 69z"/>
<path d="M4846 3629 c-40 -11 -66 -38 -66 -69 0 -34 25 -57 80 -73 61 -18 67
-42 9 -35 -24 3 -51 9 -60 12 -10 5 -19 -1 -27 -18 -10 -22 -9 -27 7 -35 33
-18 98 -24 135 -11 40 13 56 35 56 74 0 30 -41 60 -96 71 -19 3 -34 10 -34 16
0 17 31 22 66 11 32 -10 36 -9 46 14 6 13 9 26 6 29 -11 11 -95 21 -122 14z"/>
<path d="M3040 3599 c0 -26 3 -29 35 -29 l35 0 0 -84 c0 -47 4 -87 10 -91 5
-3 21 -3 35 1 24 6 25 9 25 90 l0 84 38 6 c35 5 38 9 34 30 -4 25 -6 25 -108
23 l-104 -1 0 -29z"/>
<path d="M5534 3593 c3 -7 57 -89 121 -182 63 -93 115 -172 115 -175 0 -3 -54
-79 -121 -167 -66 -89 -119 -162 -117 -164 2 -1 31 -5 66 -7 l63 -4 129 168
129 168 -121 178 c-67 97 -122 178 -122 178 -1 1 -34 6 -74 11 -60 8 -72 7
-68 -4z"/>
<path d="M2388 3591 c-26 -4 -49 -9 -51 -11 -32 -39 -231 -339 -231 -350 -1
-8 53 -86 119 -172 l120 -157 69 -1 c55 0 67 3 63 14 -3 8 -58 83 -123 167
l-116 152 121 178 c67 98 121 181 121 184 0 6 -27 5 -92 -4z"/>
<path d="M5848 3593 c7 -3 16 -2 19 1 4 3 -2 6 -13 5 -11 0 -14 -3 -6 -6z"/>
<path d="M5898 3583 c6 -2 18 -2 25 0 6 3 1 5 -13 5 -14 0 -19 -2 -12 -5z"/>
<path d="M5750 3574 c0 -2 50 -78 112 -167 61 -89 113 -168 114 -177 2 -8 -52
-87 -121 -175 l-124 -160 37 -7 c93 -17 85 -23 227 162 72 93 129 173 128 178
-1 5 -50 78 -108 162 -59 83 -104 154 -102 157 3 3 18 2 34 -1 22 -5 47 -34
118 -138 l90 -131 17 54 c23 73 22 83 -9 128 -25 35 -36 41 -98 57 -38 9 -78
23 -87 32 -11 9 -29 13 -49 10 -28 -4 -52 -2 -151 16 -16 3 -28 3 -28 0z"/>
<path d="M5948 3573 c7 -3 16 -2 19 1 4 3 -2 6 -13 5 -11 0 -14 -3 -6 -6z"/>
<path d="M2170 3559 c-30 -5 -58 -13 -63 -18 -4 -4 -57 -80 -117 -167 l-109
-159 23 -25 c16 -18 222 -281 242 -308 1 -2 32 0 67 5 l66 8 -120 155 c-66 85
-122 160 -125 167 -3 6 43 83 103 170 60 87 113 164 117 171 8 14 -3 14 -84 1z"/>
<path d="M6048 3553 c7 -3 16 -2 19 1 4 3 -2 6 -13 5 -11 0 -14 -3 -6 -6z"/>
<path d="M1947 3513 c-62 -15 -71 -20 -97 -58 l-29 -42 16 -61 c8 -34 19 -62
22 -62 4 0 44 54 90 120 45 66 78 120 74 119 -4 -1 -39 -8 -76 -16z"/>
<path d="M3623 3333 l-113 -4 0 -34 0 -35 50 0 50 0 0 -125 0 -125 45 0 45 0
0 125 0 125 50 0 50 0 0 40 c0 39 -1 40 -32 38 -18 -1 -84 -4 -145 -5z"/>
<path d="M3840 3174 l0 -165 43 3 42 3 3 163 2 162 -45 0 -45 0 0 -166z"/>
<path d="M4075 3325 c-42 -20 -59 -35 -84 -75 -25 -41 -28 -108 -6 -150 42
-81 166 -116 253 -71 55 28 59 38 27 71 l-28 29 -25 -19 c-32 -26 -82 -25
-116 1 -35 28 -37 95 -3 127 30 28 85 29 119 2 l25 -19 28 29 c23 24 26 32 16
44 -36 43 -145 60 -206 31z"/>
<path d="M2923 3323 l-43 -4 0 -160 0 -159 74 0 c40 0 101 3 135 6 l61 7 0 35
0 35 -90 -6 -90 -7 0 30 0 30 75 0 75 0 0 35 0 35 -75 0 c-73 0 -75 1 -75 25
0 23 4 25 48 25 26 0 64 3 85 6 34 6 37 9 37 40 l0 34 -87 -2 c-49 -1 -107 -3
-130 -5z"/>
<path d="M3190 3170 l0 -160 44 0 45 0 3 43 c3 37 6 42 29 45 22 3 33 -5 60
-42 31 -44 35 -46 81 -46 26 0 48 2 48 5 0 3 -16 27 -36 55 -30 42 -33 51 -20
56 22 8 46 56 46 89 0 42 -28 85 -65 101 -22 9 -71 14 -135 14 l-100 0 0 -160z
m194 74 c36 -36 6 -74 -60 -74 l-44 0 0 45 0 45 44 0 c27 0 51 -6 60 -16z"/>
<path d="M4366 3183 c-38 -82 -70 -154 -73 -160 -4 -9 8 -13 41 -13 43 0 48 2
57 30 11 30 12 30 85 30 72 0 74 -1 89 -30 14 -27 21 -30 60 -30 25 0 45 3 45
6 0 3 -32 75 -71 160 l-72 154 -46 0 -47 0 -68 -147z m132 8 c7 -21 12 -40 12
-43 0 -2 -16 -4 -35 -4 -19 1 -34 3 -32 6 1 3 9 22 17 43 8 20 17 37 20 37 4
0 12 -17 18 -39z"/>
<path d="M4690 3170 l0 -160 110 -2 c61 -1 118 -2 128 -2 13 -1 18 8 20 37 l3
37 -87 0 -86 0 4 125 4 125 -48 0 -48 0 0 -160z"/>
<path d="M5334 3311 c-101 -61 -80 -152 42 -186 86 -24 86 -24 82 -38 -8 -23
-83 -20 -150 8 -12 5 -21 -2 -33 -25 -9 -18 -15 -33 -13 -34 2 -2 14 -10 28
-19 25 -17 17 -24 -9 -8 -10 7 -19 5 -26 -6 -9 -12 -32 -15 -111 -14 -89 1
-96 -1 -69 -12 l30 -13 -25 -8 c-26 -8 -23 -10 22 -20 18 -4 25 -11 22 -20 -4
-10 3 -16 23 -19 19 -3 12 -5 -22 -7 -39 -3 -28 -5 45 -10 193 -15 216 -13
252 20 18 16 27 30 21 30 -18 0 -16 16 4 36 16 16 16 16 -2 11 -11 -3 -38 -2
-60 3 -39 8 -39 8 18 9 93 2 149 42 149 107 0 50 -32 79 -106 99 -65 16 -82
27 -72 44 9 14 81 14 108 0 25 -13 46 4 50 41 2 20 -3 27 -32 37 -54 19 -130
16 -166 -6z"/>
<path d="M2731 3255 c-16 -35 -35 -80 -42 -100 -7 -19 -16 -35 -20 -35 -4 0
-25 42 -47 93 l-41 92 -51 3 -50 3 26 -58 c14 -32 47 -105 72 -162 l46 -103
45 6 c24 3 45 7 47 9 1 2 115 266 131 305 4 8 -8 12 -41 12 l-46 0 -29 -65z"/>
<path d="M4138 3243 c7 -3 16 -2 19 1 4 3 -2 6 -13 5 -11 0 -14 -3 -6 -6z"/>
<path d="M4090 3219 c-7 -11 -9 -23 -6 -27 3 -3 6 0 6 6 0 6 7 18 16 26 8 9
11 16 5 16 -6 0 -15 -9 -21 -21z"/>
<path d="M5380 3230 c0 -13 11 -13 30 0 12 8 11 10 -7 10 -13 0 -23 -4 -23
-10z"/>
<path d="M4105 3190 c3 -5 18 -10 32 -10 32 0 28 5 -10 14 -19 4 -26 3 -22 -4z"/>
<path d="M1910 3093 c0 -4 14 -59 32 -121 24 -85 35 -111 46 -107 7 3 31 5 53
5 21 0 39 3 39 8 -1 10 -170 225 -170 215z"/>
<path d="M5375 3090 c3 -5 8 -10 11 -10 2 0 4 5 4 10 0 6 -5 10 -11 10 -5 0
-7 -4 -4 -10z"/>
<path d="M6014 2986 l-89 -114 -50 -4 c-27 -2 -1 -4 59 -3 l109 1 33 115 c18
62 31 115 30 116 -2 2 -43 -48 -92 -111z"/>
<path d="M4025 3010 l-20 -9 20 -1 20 -1 -20 -9 -20 -9 20 0 c16 -1 17 -3 5
-10 -8 -6 -17 -8 -21 -5 -4 2 -10 0 -14 -6 -3 -5 1 -10 11 -10 13 0 11 -4 -7
-20 l-24 -19 139 -1 c122 0 137 2 126 15 -7 8 -9 15 -4 15 5 0 2 5 -6 10 -13
9 -13 11 0 19 8 6 11 13 7 17 -4 4 1 13 11 20 13 10 5 9 -33 -2 -47 -14 -92
-11 -155 10 -8 2 -24 1 -35 -4z"/>
<path d="M5728 2873 c6 -2 18 -2 25 0 6 3 1 5 -13 5 -14 0 -19 -2 -12 -5z"/>
<path d="M5758 2843 c12 -2 30 -2 40 0 9 3 -1 5 -23 4 -22 0 -30 -2 -17 -4z"/>
<path d="M5878 2833 c6 -2 18 -2 25 0 6 3 1 5 -13 5 -14 0 -19 -2 -12 -5z"/>
<path d="M5369 2641 c8 -5 11 -16 8 -25 -4 -9 -3 -15 1 -15 4 1 16 1 27 0 39
-2 -3 -23 -49 -24 -51 -1 -57 -11 -26 -50 36 -46 106 -43 131 5 l12 23 -25
-22 c-28 -27 -60 -30 -78 -8 -17 21 -8 28 23 16 20 -8 28 -6 43 10 13 15 15
22 6 31 -17 17 -15 28 5 28 14 0 14 2 -2 20 -12 13 -31 20 -54 20 -25 0 -32
-3 -22 -9z m-29 -91 c0 -5 -2 -10 -4 -10 -3 0 -8 5 -11 10 -3 6 -1 10 4 10 6
0 11 -4 11 -10z"/>
<path d="M5461 2584 c0 -11 3 -14 6 -6 3 7 2 16 -1 19 -3 4 -6 -2 -5 -13z"/>
<path d="M2316 2631 c-14 -21 285 -328 319 -328 9 0 -29 43 -85 95 -55 51
-129 127 -165 168 -35 40 -66 70 -69 65z"/>
<path d="M2863 5934 c-24 -14 -43 -27 -43 -30 0 -6 67 33 85 48 17 15 1 8 -42
-18z"/>
<path d="M2767 5875 c-20 -14 -37 -28 -37 -31 0 -2 18 8 40 22 35 23 47 34 37
34 -1 0 -19 -11 -40 -25z"/>
<path d="M2699 5823 c-13 -16 -12 -17 4 -4 9 7 17 15 17 17 0 8 -8 3 -21 -13z"/>
<path d="M2634 5774 l-39 -35 43 32 c38 30 48 39 39 39 -2 0 -21 -16 -43 -36z"/>
<path d="M2554 5708 l-29 -33 33 29 c17 17 32 31 32 33 0 8 -8 1 -36 -29z"/>
<path d="M2408 5572 c-247 -256 -437 -571 -532 -884 -39 -127 -30 -119 13 12
112 336 289 626 540 883 52 53 92 97 89 97 -3 0 -52 -49 -110 -108z"/>
<path d="M6090 4679 c0 -5 5 -7 10 -4 6 3 10 8 10 11 0 2 -4 4 -10 4 -5 0 -10
-5 -10 -11z"/>
<path d="M6110 4620 c0 -5 5 -10 10 -10 6 0 10 5 10 10 0 6 -4 10 -10 10 -5 0
-10 -4 -10 -10z"/>
<path d="M6120 4584 c0 -8 5 -12 10 -9 6 4 8 11 5 16 -9 14 -15 11 -15 -7z"/>
<path d="M6151 4475 c1 -26 37 -198 38 -180 1 35 -19 157 -29 174 -5 9 -9 12
-9 6z"/>
</g>
</svg>
