<?xml version="1.0" encoding="UTF-8"?>
<svg id="Capa_1" xmlns="http://www.w3.org/2000/svg" version="1.1" viewBox="0 0 841.89 595.28">
  <!-- Generator: Adobe Illustrator 29.0.0, SVG Export Plug-In . SVG Version: 2.1.0 Build 186)  -->
  <defs>
    <style>
      .st0 {
        fill: #fde304;
      }
    </style>
  </defs>
  <path class="st0" d="M133.89,297.84c-.43-29.64,4.53-58.42,13.66-86.56,10.51-32.39,26.34-61.91,47.64-88.46,15.32-19.1,32.87-35.89,52.52-50.58,23.46-17.54,49.01-31.04,76.56-40.73,19.56-6.88,39.65-11.86,60.32-13.97,11.31-1.16,22.67-2.39,34.02-2.51,13.93-.15,27.86.9,41.7,2.82,16.88,2.35,33.45,6.02,49.68,11.22,19.92,6.38,38.94,14.8,57.03,25.34,16.97,9.89,32.92,21.23,47.38,34.47,9.32,8.53,17.98,17.85,26.42,27.27,12.56,14.03,22.84,29.74,32.08,46.12,7.35,13.01,13.42,26.62,18.53,40.67,7.6,20.9,12.57,42.43,15.03,64.5,1.97,17.72,1.99,35.51.56,53.3-1.63,20.23-5.45,40.01-11.45,59.39-6.24,20.16-14.63,39.36-25.25,57.6-13.89,23.86-30.8,45.34-50.89,64.26-16.29,15.34-34.14,28.59-53.63,39.66-15.39,8.75-31.32,16.28-47.99,22.14-17.12,6.03-34.7,10.43-52.68,13.13-11.58,1.74-23.22,2.69-34.94,3.13-36.2,1.36-71.29-4.35-105.4-16.15-24.99-8.65-48.32-20.67-70-35.89-13.69-9.61-26.46-20.27-38.25-32.1-16.6-16.66-31.06-35.01-43.08-55.24-17.04-28.67-29.16-59.28-35.09-92.14-3.28-18.16-4.79-29.78-4.51-50.7ZM698.15,297.85c.75-14.98-.45-30.38-3.38-45.49-2.65-13.66-6.4-27.14-10.45-40.47-5.66-18.65-14.09-36.15-24.19-52.8-14.91-24.59-33.11-46.42-54.78-65.37-14.3-12.51-29.67-23.53-46.22-32.79-27.22-15.23-56.13-25.97-86.88-31.63-17.24-3.17-34.6-4.95-52.13-4.79-5.44.05-10.88.62-16.33.71-10.95.16-21.74,1.67-32.46,3.65-40.66,7.48-78.06,22.78-111.91,46.65-19.91,14.04-37.79,30.3-53.34,49.02-16.7,20.09-30.42,42.08-40.67,66.19-13.44,31.64-21.25,64.51-21.82,98.97-.26,15.73.13,31.41,2.53,47.01,3.87,25.21,10.99,49.41,21.38,72.71,11.94,26.79,28.19,50.7,48.02,72.18,11.76,12.75,24.68,24.24,38.74,34.51,13.65,9.97,27.98,18.73,43.12,26.16,15.3,7.5,31.15,13.57,47.57,18.18,17.51,4.92,35.35,8.06,53.44,9.51,11.32.9,22.68,1,34.1.53,18.37-.75,36.43-3.18,54.23-7.44,39.9-9.55,76.02-27.14,108.32-52.4,16.99-13.28,32.15-28.56,45.49-45.5,21.16-26.87,36.89-56.73,46.64-89.52,7.48-25.17,11.96-50.89,10.99-77.79Z"/>
  <path class="st0" d="M687.74,297.22c.49,49.88-11.77,92.69-35,132.47-13.12,22.47-29.52,42.38-48.8,59.8-21.96,19.83-46.58,35.68-73.88,47.17-23.49,9.89-47.91,16.28-73.26,19.37-16,1.95-32.02,2.32-48.03,1.49-26.61-1.37-52.39-7.1-77.44-16.16-19.7-7.13-38.26-16.55-55.79-27.99-20.82-13.59-39.09-30.1-55.37-48.87-14.37-16.57-26.46-34.68-36.11-54.35-9.29-18.93-16.24-38.7-20.63-59.39-3.31-15.59-5.16-31.27-5.6-47.2-.92-32.97,4.57-64.77,16.08-95.65,9.5-25.5,22.9-48.76,39.87-69.92,21.85-27.25,48.44-48.88,79.11-65.56,24.01-13.06,49.49-22.01,76.25-27.35,12.75-2.54,25.67-3.66,38.64-4.62,11.11-.83,22.13-.32,33.14.41,15.69,1.05,31.18,3.64,46.47,7.49,30.18,7.59,58.25,19.95,84.11,37.15,28.22,18.76,52,42.21,71.22,70.14,16.6,24.12,28.92,50.33,36.51,78.63,5.84,21.77,9.31,43.92,8.52,62.95ZM425.32,553.67c11.65-.93,23.34-1.45,34.94-2.86,27.29-3.3,53.26-11.31,78.11-23.02,20.57-9.7,39.45-22.01,56.75-36.77,11.98-10.23,23.08-21.37,32.93-33.63,13.59-16.93,24.97-35.27,33.84-55.18,13.92-31.21,20.83-63.91,21.61-97.96.15-6.71-.15-13.47-.77-20.16-.9-9.73-1.8-19.5-3.56-29.09-4.63-25.25-13.17-49.17-25.27-71.86-17.01-31.88-39.77-58.91-67.97-81.37-15.36-12.23-32.03-22.4-49.73-30.93-32.83-15.82-67.52-24.29-103.8-26.02-23.47-1.12-46.74,1.03-69.72,6.23-26.18,5.93-50.88,15.47-74.1,28.92-27.93,16.18-52.06,36.82-72.1,62.1-16.04,20.23-28.77,42.39-37.98,66.59-9.97,26.19-15.36,53.26-16.36,81.19-.61,17.02.9,33.95,3.87,50.73,5.92,33.46,18.24,64.45,36.62,92.94,13.72,21.26,30.34,40.04,49.7,56.47,20.1,17.06,42.15,30.91,66.29,41.32,34,14.65,69.51,22.3,106.72,22.36Z"/>
  <path class="st0" d="M447.82,350.71c.86,2.86,1.23,4.85,2.04,6.64,4,8.77,7.49,17.72,9.81,27.09,3.08,12.47,5.49,25.04,5.64,37.96.23,20.19,1.01,40.4.61,60.58-.29,14.71-1.63,29.44-4.5,43.95-1.6,8.08-2.02,8.68-10.22,9.2-5.56.36-11.22.17-16.77-.43-4.39-.48-5.31-2.01-5.67-6.4-.09-1.12-.07-2.24-.07-3.37-.05-131.53-.1-263.07-.14-394.6,0-5.77.06-11.55.1-17.32.01-1.28-.01-2.58.16-3.84.58-4.21,3.65-6.13,7.18-3.82,3.83,2.51,7.33,5.68,10.47,9.03,8.66,9.25,13.12,20.8,16.88,32.63,5.22,16.41,8.84,33.14,9.7,50.39.38,7.52.58,15.05.84,22.57.05,1.4,0,2.81,0,4.21.33.12.66.24.99.36.57-.96,1.43-1.86,1.65-2.9,1.4-6.57,2.91-13.14,3.9-19.78,1.53-10.2.96-20.46.04-30.7-1.5-16.7-4.87-32.98-11.3-48.53-4.13-9.99-8.94-19.54-17.47-26.69-4.51-3.78-5.69-8.78-4.43-14.37.63-2.81,1.36-5.63,2.41-8.3,2.21-5.63,6.36-8.99,12.56-8.53,5.57.41,11.18,1.13,16.61,2.4,7.48,1.75,14.95,3.76,22.18,6.35,10.53,3.77,15.16,10.78,15.09,22.08-.2,31.59-.71,63.17-.76,94.76-.15,106.19-.22,212.38-.08,318.57,0,6.88-2.72,10.77-8.47,13.49-10.09,4.77-20.8,7.45-31.68,9.6-3.03.6-4.03-.34-4.31-3.51-.11-1.27-.05-2.57.04-3.84,1.2-16.94,2.87-33.87,3.5-50.83.52-14.08-.18-28.2-.37-42.3-.18-12.7-1.85-25.26-4.09-37.73-2.02-11.23-4.56-22.33-10.12-32.46-2.08-3.79-4.27-7.58-8.05-10.01-.85-.54-1.9-.76-3.95-1.54Z"/>
  <path class="st0" d="M357.74,429.38c.61-.71,1.21-1.44,1.85-2.13,5.55-6.1,12.77-5.79,17.38,1.14,2.18,3.28,3.98,7.04,4.98,10.84,1.7,6.5,2.53,13.16,1.8,20-.37,3.46.4,7.02.42,10.54.09,17.8.11,35.61.15,53.41,0,1.12.01,2.26-.15,3.36-.5,3.37-2.39,5.17-5.83,5.15-2.22-.02-4.49-.36-6.63-.97-7.09-2.01-14.16-4.15-21.19-6.36-11.2-3.52-17.19-11.24-18.05-22.93-.13-1.76-.11-3.53-.12-5.29-.06-25.66-.08-51.33-.21-76.99-.03-6.57-.7-13.14-.55-19.7.27-11.06,1.11-22.09,4.4-32.77,2.77-9,6.85-17.43,13.31-24.25,3.68-3.89,8.49-6.78,13.02-9.77,3.47-2.29,7.41-3.84,10.94-6.04,6.98-4.33,11.17-10.39,11.11-18.96-.12-17.16-.07-34.32-.25-51.49-.22-21.32-.59-42.64-.91-63.97-.03-1.92-.02-3.88-.4-5.74-.89-4.31-4.32-6.77-8.52-5.61-2.66.74-5.39,2.21-7.43,4.06-5.83,5.29-8.97,12.4-12.15,19.43-8.67,19.16-13.52,39.37-16.48,60.1-.22,1.58-.43,3.26-1.16,4.62-.5.94-1.82,1.85-2.88,1.99-1.66.22-2.54-1.14-2.76-2.72-.15-1.11-.17-2.24-.18-3.36-.02-4.81,0-9.62-.03-14.44-.29-42.82-.63-85.63-.82-128.45-.03-7.19.21-14.44,1.09-21.57.53-4.37,2.23-8.68,3.89-12.82,2.65-6.6,7.66-11.14,14.3-13.42,6.8-2.34,13.73-4.53,20.77-5.91,8.78-1.72,17.71-2.77,26.63-3.68,13.71-1.41,18.75,7.81,19.06,18.64.3,10.26.13,20.53.15,30.79.29,135.69.58,271.37.86,407.06,0,2.89.09,5.78-.07,8.66-.17,3.23-1.17,4.44-4.35,4.63-3.67.22-7.39.21-11.04-.13-3.72-.35-5.38-2.22-5.65-6-.25-3.51-.16-7.05-.2-10.58-.37-28.54-.71-57.08-1.14-85.62-.1-6.73-.39-13.46-.73-20.18-.26-5.19-1.49-10.14-4.49-14.52-5.43-7.95-14.18-8.6-20.01-1-3.08,4.02-5.58,8.62-7.64,13.26-2.72,6.13-4.05,12.73-5.02,19.35l.96.32Z"/>
  <path class="st0" d="M247.43,431.49c-.32-28.54-.62-57.09-.98-85.63-.27-20.84-.63-41.69-.95-62.53-.33-21.32-.68-42.65-.97-63.97-.33-23.73-.46-47.46-.99-71.19-.14-6.37,1.5-11.81,5.9-16.19,4.75-4.73,9.87-9.1,14.94-13.51,1.18-1.02,2.71-1.77,4.2-2.28,4.07-1.37,6.92-.05,8.45,3.96,2.22,5.84,2.22,11.63-1.14,17.12-5.35,8.76-8.28,18.43-10.12,28.39-1.04,5.65-1.63,11.46-1.62,17.2.02,12.17.05,24.39,1.03,36.51,1,12.48,3.68,24.75,8.79,36.32.9,2.03,2.08,4,3.45,5.75,2.61,3.36,5.23,3.44,7.84,0,1.71-2.26,3.23-4.89,3.99-7.6,2-7.08,4.3-14.22,5.08-21.48,1.31-12.25,2.17-24.62,2.07-36.93-.14-17.49-1.83-34.92-6.51-51.88-1.4-5.08-3.35-10.02-5.23-14.95-1.68-4.39-2.79-8.82-2.64-13.58.12-3.88,1.32-7.21,3.88-10.09,6.16-6.91,13.73-12.01,21.61-16.69,1.07-.63,2.39-1.03,3.63-1.16,3.1-.33,5.35,1.35,5.78,4.42.45,3.17.77,6.37.86,9.57.16,5.77.09,11.55.16,17.32.35,33.03.71,66.07,1.08,99.1.3,25.98.63,51.95.95,77.93.32,26.62.66,53.24.96,79.85.34,30.63.61,61.26.99,91.89.15,12.18.59,24.36.77,36.54.12,7.92-1.43,8.9-8.74,6-7.67-3.04-14.7-7.22-21.1-12.36-6.77-5.44-7.34-9.31-2.59-16.53,4.13-6.28,6.72-13.08,7.92-20.47,2.12-13.06,1.42-25.96-3.08-38.4-1.54-4.26-4.27-8.25-7.12-11.84-3.48-4.39-7.71-4.37-11.42-.1-2.15,2.48-3.99,5.5-5.09,8.59-5.62,15.72-4.81,31.51.24,47.21,1.08,3.35,2.47,6.6,3.7,9.91.39,1.05.86,2.1,1.01,3.19.48,3.52-1.36,4.99-4.49,3.35-8.49-4.46-15.65-10.58-21.54-18.14-2.16-2.77-2.73-6.07-2.71-9.54.06-7.7.02-15.4.02-23.1-.09,0-.18,0-.27,0Z"/>
  <path class="st0" d="M528.81,426.16c0-17.64-.06-35.29.01-52.93.24-55.97.74-111.95.64-167.92-.02-12.2,6.04-18.35,15.99-22.36,6.64-2.67,13.72-3.18,20.77-3.55,3.84-.2,7.7.02,11.55-.08,4.26-.12,5-.97,4.01-4.91-2.52-10.04-6.49-19.46-12.73-27.81-2.63-3.52-5.92-6.23-10-8.05-5.51-2.46-10.41-1.46-14.65,2.5-2.56,2.39-4.69,5.23-6.96,7.92-.82.98-1.34,2.27-2.28,3.08-.87.75-2.32,1.67-3.16,1.4-.91-.29-1.67-1.78-2.03-2.89-.38-1.18-.27-2.54-.24-3.82.28-13.78.5-27.57.91-41.35.22-7.33,4.47-10.42,11.59-8.46,2.76.76,5.46,1.92,8.01,3.25,14.12,7.36,27.62,15.67,39.42,26.48,6.41,5.87,10.29,13.02,10.23,21.98-.03,4.33.14,8.66.13,12.99-.03,18.29-.17,36.57-.08,54.86.03,6.37-1.94,11.11-7.29,15.2-22.1,16.9-35.57,39.7-43.03,66.14-1.94,6.89-2.5,14.2-3.36,21.35-2.86,23.76-4.03,47.63-2.87,71.52.71,14.55,1.95,29.17,7.69,42.87,1.28,3.06,2.99,6.07,5.07,8.65,3.18,3.95,7.73,3.98,11.22.25,1.72-1.84,3.11-4.08,4.27-6.34,5.39-10.55,7.94-21.96,9.96-33.53,2.9-16.67,3.4-33.48,3.01-50.34-.29-12.39-1.72-24.64-5.03-36.6-1.06-3.84-2.62-7.57-4.25-11.22-1.39-3.09-3.52-5.64-6.49-7.54-4.31-2.76-6.48-10.43-4.16-14.9.62-1.19,2.37-2.23,3.76-2.49,3.29-.6,6.73-1.23,10-.86,5.38.61,10.7,1.85,15.98,3.13,3.16.77,4.66,3.1,4.57,6.47-.26,10.42-.44,20.83-.65,31.25-.04,2.08-.13,4.17-.14,6.25-.09,22.3-.08,44.59-.29,66.89-.19,20.2-.78,40.4-.86,60.6-.05,12-5.78,20.74-14.63,27.92-10.87,8.81-22.34,16.59-35.33,22.14-13.06,5.58-18.41-2.49-18.42-12.2-.03-21.65-.01-43.31-.01-64.96h.18Z"/>
  <path class="st0" d="M212.03,358.68c.53-1.34,1.32-2.57,1.49-3.87.66-5.25,1.12-10.45-1.4-15.53-2.13-4.29-.49-6.58,4.4-6.93,4.75-.35,8.98,1.14,12.39,4.29,5.58,5.16,9.24,11.23,9.29,19.3.15,24.36.6,48.73.86,73.09.03,2.54-.24,5.12-.68,7.63-.53,3.04-1.33,6.16-4.92,7.01-3.48.83-5.34-1.79-7.04-4.05-3.75-4.99-7.55-9.99-10.81-15.3-14.93-24.38-23.99-50.92-28.95-78.99-3.16-17.89-4.95-35.9-4.39-54.05.75-24.44,4.14-48.48,11.28-71.98,5.21-17.14,12.27-33.39,21.43-48.73,2.01-3.37,4.85-6.4,7.8-9.04,4.9-4.39,11-2.01,12.19,4.48.14.78.15,1.6.16,2.4.36,15.22.79,30.44,1.05,45.66.4,23.24.64,46.48,1.02,69.72.11,6.57.45,13.13.72,19.69.42,10.05-7.88,14.57-15.89,13.15-1.1-.19-2.21-.43-3.27-.79-5.75-1.93-9.79-5.01-6.51-13.09,3.58-8.83,3.05-18.24,2.34-27.54-.11-1.39-.76-2.79-1.36-4.08-1.63-3.51-4.91-4.42-7.76-1.79-1.82,1.68-3.3,3.94-4.35,6.21-3.72,7.97-5.01,16.58-5.37,25.25-.7,16.74,2.37,32.87,8.85,48.33,2.4,5.74,3.47,7.18,7.44,9.57Z"/>
  <path class="st0" d="M627.85,345.18c1.09-.44,2.08-.83,3.07-1.23,5.17-2.09,9.81-.39,11.75,4.83,1.27,3.41,2.18,7.11,2.42,10.73.59,9.27.89,18.57.97,27.86.05,6.24-.32,12.5-.82,18.72-.18,2.15-.98,4.44-2.11,6.28-6.41,10.41-13.92,20-22.46,28.75-1.21,1.24-2.65,2.39-4.2,3.15-2.84,1.4-5.58.16-6.41-2.89-.49-1.83-.61-3.8-.6-5.71.04-14.92.1-29.84.26-44.75.25-22.45.71-44.89.84-67.34.06-10.54,2.37-20.29,7.89-29.31,3.86-6.31,9.61-9.01,16.73-7.15,2.44.64,4.75,1.85,7.06,2.92,1.41.65,2.73,1.53,4.68,2.65.42-1.68.97-2.82.95-3.95-.23-15.38-.38-30.77-.92-46.15-.18-5.1-1.33-10.12-5-14.25-5.89-6.64-13.43-6.35-17.68,1.38-2.52,4.59-4,9.75-5.89,14.68-.57,1.49-.87,3.09-1.45,4.58-.55,1.4-1.54,2.83-3.18,2.14-.92-.39-1.84-1.81-1.97-2.86-.31-2.37-.18-4.8-.14-7.2.26-13.3.52-26.61.82-39.91.24-10.42.55-20.83.85-31.24.03-1.12.1-2.26.38-3.34,1.14-4.33,5.07-5.73,8.47-2.87,1.82,1.53,3.55,3.33,4.79,5.34,10.37,16.77,20.84,33.49,30.79,50.51,4.82,8.24,7.15,17.3,6.92,27.13-.46,19.72-.23,39.46-.41,59.19-.18,19.72-.54,39.44-.76,59.16-.07,6.71-3.05,12.38-6.3,17.92-.58.99-2.27,1.34-3.44,1.99-.62-1.2-1.52-2.34-1.79-3.61-.33-1.54-.11-3.19-.15-4.8-.28-11.38-.48-22.76-.93-34.12-.11-2.67-.82-5.4-1.75-7.92-1.8-4.88-6.65-6.73-11.34-4.64-5.5,2.45-10.11,9.39-9.95,15.35Z"/>
</svg>