<?xml version="1.0" encoding="UTF-8"?>
<svg id="Capa_1" xmlns="http://www.w3.org/2000/svg" version="1.1" viewBox="0 0 841.89 595.28">
  <!-- Generator: Adobe Illustrator 29.0.0, SVG Export Plug-In . SVG Version: 2.1.0 Build 186)  -->
  <defs>
    <style>
      .st0 {
        fill: #293482;
      }

      .st1 {
        fill: #2b3285;
      }
    </style>
  </defs>
  <path class="st1" d="M427.18,532.13c0-7.76.1-15.53-.03-23.29-.13-7.43,3.21-11.24,10.79-11.21,10.83.05,21.66.05,32.48,0,4.99-.03,8.36,2.14,8.37,7.24.01,5.56-4.6,4.37-8.01,4.42-7.22.09-14.47.48-21.64-.11-6.18-.5-7.34,1.92-7.11,7.46.21,4.89-.09,8.54,6.75,7.81,6.31-.67,12.79.27,19.13-.27,5.12-.44,8.65,1.77,8.64,6.16,0,3.95-3.45,6.18-8.28,5.76-6.06-.52-12.21-.3-18.31-.04-2.54.1-6.65-1.71-7.36,1.49-.99,4.46-.6,9.39.1,13.98.3,1.96,3.41,1.06,5.25,1.08,7.5.09,14.99.13,22.49,0,5.22-.08,9.9,1.68,9.75,7.16-.13,4.96-4.38,6.54-9.6,6.33-10.53-.42-21.09-.09-31.64-.14-9.47-.04-11.68-2.18-11.75-11.38-.06-7.48-.01-14.97-.01-22.46Z"/>
  <path class="st1" d="M186.8,507.68c-3.11,8.68-6.85,19.28-10.73,29.83-2.68,7.29-5.5,14.53-8.4,21.74-1.75,4.34-4.39,7.01-9.84,6.92-5.18-.08-8.26-1.92-10.04-6.56-6.43-16.77-13.21-33.42-19.04-50.39-1.12-3.26-3.03-9.56,3.12-11.34,6.2-1.79,9.9.85,11.78,7.66,3.2,11.61,7.67,22.86,11.37,34.34.66,2.04,1.49,3.82,2.73,5.49.85-1.96,1.89-3.76,2.55-5.88,3.61-11.51,7.6-22.89,11.53-34.29,1.03-2.99,1.45-6.47,5.33-7.5,6.8-1.8,9.77.6,9.64,9.99Z"/>
  <path class="st0" d="M448.35,452.64c-40.03,0-80.09-.75-120.1.31-20.44.54-40.99,2.65-61.29.95-18.19-1.53-36.61.32-54.71-4.26-7.39-1.87-7.1-5.58-7.15-10.96-.06-6.16,4.23-7.3,8.58-7.59,6.92-.46,13.91.22,20.84-.19,16.81-1,32.7-4.67,44.54-17.96,2.65-2.97,4.27-3.49,7.35-.22,10.96,11.63,24.39,17.65,40.68,16.61,10.11-.64,20.28.92,30.39-1.59,8.35-2.07,15.27-6,19.44-13.4,2.28-4.05,3.17-2.38,5.67-.54,7.97,5.86,16.12,11.2,25.98,13.99,14.76,4.18,27.64-1.6,40.61-6.49,6.68-2.52,13.69-5.12,18.94-10.45,1.73-1.75,2.79-1.52,4.83-.15,17.98,12.05,37.75,18.32,59.42,20.63,15.24,1.62,30.39.11,45.48,1.55,4.23.4,11.04-.95,11.31,7.28.26,7.76-4.9,10.34-10.74,12.37-1.74.6-3.86.11-5.81.11-41.42,0-82.85,0-124.27,0Z"/>
  <path class="st1" d="M370.03,565.98c-7.05.81-13.79-.78-18.23-8.92-2.28-4.18-.8-6.75,1.59-9.26,3.29-3.46,5.78-.81,8.08,1.74,3.54,3.93,7.01,7.72,13.27,6.56,2.59-.48,5.15-.49,5.59-3.6.43-3-1.43-4.06-4.23-4.97-5.86-1.88-11.94-2.93-17.6-5.69-6.61-3.23-6.84-8.71-6.33-14.49.54-6.11,4.55-10.28,10.29-11.12,6.25-.92,12.76-.48,19.13-.09,2.95.18,5.41,2.24,7.65,4.36,3.55,3.36,4.71,7.5,1.36,10.82-2.93,2.9-6.99,1.96-10.26-1.14-2.14-2.04-4.56-3.92-7.15-5.31-3.71-1.99-6.13,1.03-7.18,3.59-1.23,3.02,1.6,3.66,4.22,4.34,5.17,1.33,10.19,3.2,15.27,4.88,6.82,2.26,10.29,7.31,9.53,14.14-.89,7.93-7.22,13.51-14.67,14.14-3.03.26-6.11.04-10.32.04Z"/>
  <path class="st1" d="M505.38,565.98c-4.9.36-10.93.29-15.94-5.11-3.8-4.1-6.3-9-2.44-12.78,4.72-4.61,9.04.02,11.66,4.17,1.51,2.39,2.76,3.73,5.61,3.77,4.49.06,10.18.62,10.77-4.76.32-2.94-5.34-4.48-8.9-5.18-4.3-.85-8.25-2.43-12.18-4.2-5.51-2.48-8.83-6.57-8.29-12.74.56-6.38,4.89-11.41,10.42-12.36,8.16-1.4,16.78-2.62,24.99,1.84,3.9,2.11,5.85,4.88,6.02,8.77.08,1.81-.86,4.52-3.16,5.11-3.76.95-7.05-.11-9.46-3.45-.79-1.09-1.91-2.07-3.08-2.74-2.88-1.65-5.68-2.9-9.05-.46-1.4,1.02-1.89,1.89-1.65,3.23.67,3.69,4.16,4.12,6.79,5.08,3.01,1.09,6.39,1.1,9.52,1.91,8.83,2.27,14.34,9.58,11.63,18.15-1.88,5.96-8.06,9.66-14.28,11.65-2.27.73-4.97.12-8.99.12Z"/>
  <path class="st0" d="M642.12,415.98c-19.45,1.33-41.44-2.97-63.63-6.33-16.93-2.56-34.04-4.5-51.25-5.62-28.1-1.82-56.26-1.85-84.31-3.47-27.18-1.58-54.28-.43-81.41-1.22-11.35-.33-13.45-2.35-12.83-12.62.38-6.32,3.78-8.38,9.83-9.26,9-1.32,17.36,2.71,26.81.82,10.74-2.15,19.16-7.12,26.94-13.56,6.52-5.4,11.41-6.03,17.91-.11,10.18,9.3,22.97,13.42,36.45,12.78,13.34-.63,27.05-1.93,37.97-11.33,3.15-2.71,4.84.12,6.71,1.49,21.83,16,45.47,16.33,70.08,8.15,2-.67,4.25-1.58,5.59-3.08,6.53-7.32,11.56-2.55,16.43,1.92,13.85,12.7,31.09,17.62,48.81,21.4,7.82,1.67,15.79,2.24,23.75,1.63,4.22-.32,5.11,1.23,4.98,5.15-.31,9.92-3.4,13.25-13.17,13.26-7.51,0-15.02,0-25.68,0Z"/>
  <path class="st1" d="M599.43,516.07c3.74.36,5.21,1.92,6.23,4.6,2.96,7.76,5.63,15.64,8.38,23.48.35.99.54,2.04.8,3.07,1.21-.7,2.11-1.52,2.62-2.99,2.71-7.86,5.87-15.57,8.27-23.51,1.7-5.61,6.04-5.76,9.66-4.41,3.83,1.43,4.14,4.84,2.38,9.3-4.73,11.98-8.95,24.17-14.75,35.71-3,5.97-11.27,7.1-14.37,1.44-6.84-12.49-11.7-25.93-16.07-39.45-1.56-4.82,1.64-7.15,6.84-7.21Z"/>
  <path class="st1" d="M540.67,542.92c0-4.16.03-8.31-.02-12.46-.03-2.1.43-3.97-2.98-4.66-4.28-.87-5.57-7.59-1.91-8.64,6.36-1.83,5.23-6.13,4.78-10.05-.59-5.14,1.75-8.84,6.11-8.82,4.61.01,8.59,2.69,7.51,9.11-.71,4.28-1.84,9.77,6.23,8.8,2.96-.35,3.79,2.6,3.63,5.38-.18,3.07-1.9,4.73-4.82,4.34-4.78-.64-5.43,1.77-5.26,5.71.25,5.53-.05,11.08.1,16.62.13,4.97,1.42,8.62,7.8,6.33,2.76-.99,5.08.4,5.38,3.4.29,2.87,1.19,7.12-2.79,7.6-5.99.73-12.34.99-18.14-.3-2.96-.66-6.24-4.24-5.74-9.05.45-4.39.1-8.85.09-13.29Z"/>
  <path class="st1" d="M286.97,548.93c0,8.02-.05,16.04.02,24.06.05,5.19-2.1,9.57-7.04,10.58-5.7,1.16-11.91,2.5-17.43-1.24-1.98-1.34-3.06-3.34-1.82-5.69,1.07-2.03,1.7-4.63,5.16-4.04,7.3,1.26,7.97-3.1,7.85-8.92-.29-13.55.02-27.1-.15-40.65-.06-4.66,1.03-7.13,6.41-7.19,5.57-.07,7.27,2.1,7.08,7.38-.3,8.56-.08,17.14-.08,25.72Z"/>
  <path class="st1" d="M699.24,531.78c0-8.6-.07-17.2.03-25.8.05-4.14.08-8.14,6.16-8.43,6.91-.33,8.63,3.88,8.75,9.2.26,11.65.08,23.3.08,34.96,0,5.55.19,11.11-.06,16.65-.22,4.87-2.84,7.4-8,7.72-5.91.37-6.86-3.26-6.92-7.65-.13-8.88-.04-17.76-.04-26.64Z"/>
  <path class="st1" d="M570.73,539.83c0-5.52-.2-11.05.07-16.56.16-3.42.22-6.92,5.42-7.43,5.61-.55,8.61,2.17,9.27,6.84.77,5.41.5,11.03.19,16.53-.41,7.3.93,14.57-1.29,21.97-1.51,5.02-4.36,4.66-7.97,4.84-4.68.23-5.4-3.22-5.57-6.33-.36-6.6-.11-13.24-.12-19.87Z"/>
  <path class="st1" d="M206.86,541.45c0,6.11-.11,12.21.04,18.32.1,4-1.12,6.07-5.59,6.34-4.75.29-7.59-1.5-7.68-6.02-.25-12.76-.25-25.53,0-38.29.09-4.62,3.1-6.19,7.78-5.92,4.56.26,5.56,2.53,5.48,6.43-.13,6.38-.04,12.77-.04,19.15Z"/>
  <path class="st1" d="M585.01,504.54c0,3.18-3.3,6.5-7.62,6.39-4.24-.11-6.98-2.63-6.51-6.77.48-4.28,3.38-6.57,8.12-6.58,5.01-.01,6.02,3.8,6.02,6.97Z"/>
  <path class="st1" d="M206.83,504.56c.07,4.82-2.63,6.14-6.31,6.33-4.16.22-7.08-2.21-6.84-6.33.25-4.2,3.1-6.72,7.65-6.93,5.19-.24,5.58,2.85,5.51,6.93Z"/>
  <path class="st1" d="M286.94,504.5c.11,4.54-2.49,6.16-6.22,6.39-4.16.25-7.08-2.12-6.95-6.25.13-4.32,3.01-6.77,7.57-7.02,5.12-.27,5.97,2.78,5.59,6.88Z"/>
  <path class="st1" d="M264.41,556.91c-1.13-5.23-2.54-10.47-1.36-16.6,1.48-7.63.59-16.7-6.93-22.22-7.04-5.17-27.47-3.75-34.01,2-3.05,2.69-4.06,6.4-3.52,10.45.29,2.2,1.57,3.49,3.78,3.72,3.78.39,6.46-.24,8.58-4.37,3.2-6.23,9.63-3.89,14.9-3.4,1,.09,2.29,2.95,2.46,4.64.16,1.6-1.46,2.77-3.27,3.14-5.28,1.1-10.52,2.45-15.83,3.33-8.55,1.41-12.33,5.6-12.33,16.37-.06,1.4-.34,4.68,2.92,7.64,5.25,4.78,20.72,6.89,26.67,1.68,3.45-3.03,3.96-3.03,6.18.57,2.34,3.8,6.97,2.88,9.78,1.52,2.52-1.22,2.82-4.63,1.99-8.46ZM248.52,546.66c-.07,7.84-6.25,8.21-10.13,9.28-4.78.12-8.77-.07-7.94-4.16,1.69-8.35,10.31-6.08,15.72-8.69,3.16-1.52,2.36,2.07,2.35,3.56Z"/>
  <path class="st1" d="M690.61,557.58c-2.44-5.15-.7-10.37-1.41-14.89.59-19.87-1.19-24.95-19.51-27.9-7.84-1.26-16.36.16-22.33,7.16-3.13,3.67-4.83,8.29-.96,11.45,3.43,2.8,8.18,1.29,10.53-2.98,3.3-5.98,8.78-4.33,13.7-4.29,2.57.02,3.5,2.17,3.59,4.71.08,2.41-.66,3.66-3.25,3.47-3.05-.23-5.83,1.29-8.69,1.92-7.35,1.62-16.48,1.69-19.31,10.72-1.94,6.2-1.16,13.21,5.26,16.77,6.52,3.61,14.27,4.3,20.78.35,4.32-2.62,7.17-4.53,10.97.06,2.57,3.1,6.13,2.45,9.06.93,3.03-1.57,2.58-5.38,1.57-7.49ZM674.9,544.69c-.72,6.6-4.77,11.19-11.64,11.29-3.34.78-6.13-1.48-6.89-4.15-.95-3.34,2.26-4.99,5.26-5.83,3.81-1.07,7.62-2.11,11.47-3.01,1-.23,2.08-.93,1.8,1.7Z"/>
  <path class="st1" d="M331.25,552.59c-6.94,5.33-14.97,4.32-19-2.68-1.69-2.92-3.38-6.17,2.79-5.66,3.86.32,7.77.06,11.66.06,3.33,0,6.67.06,10-.01,5.9-.14,9.93-4.54,8.56-9.98-2-7.89-5.79-15.44-13.98-17.72-9.01-2.51-18.34-2.99-26.6,4.02-7.18,6.1-7.66,13.73-7.83,22.17-.2,10.2,3.69,18.59,12.94,21.43,9.03,2.78,18.97,5.16,28.24-2.66,4.49-3.78,8.01-7.49,4.71-11.86-4.09-5.4-8.02.22-11.48,2.88ZM320.19,525.84c5.27.33,9.74,2.1,9.77,7.22.02,4-7.21,3.3-9.78,3.23-1.39.11-8.48.35-8.48-1.73,0-3.72,1.75-9.15,8.49-8.73Z"/>
  <path class="st0" d="M446.36,450.98c-38.94,0-77.9-.71-116.81.29-20.2.52-40.49,2.56-60.57,1.01-18.3-1.42-36.9.47-54.96-4.47-4.46-1.22-7.54-2.05-7.28-7.67.26-5.7,4.17-6.99,8.21-7.32,6.63-.54,13.35.1,20.01-.22,16.73-.82,32.68-4.06,44.75-17,2.67-2.86,4-2.13,6.37.21,10.86,10.73,23.83,16.19,39.33,15.2,11.27-.72,22.64,1.27,33.86-1.64,6.57-1.7,12.61-4.16,16.6-9.79,2.74-3.86,5.22-4.72,9.03-1.52,21.12,17.73,44.13,15.53,66.7,4.39,12.72-6.28,22.39-9.42,36.6-.97,18.89,11.23,41.41,13,63.61,12.97,10.15-.01,20.49-1.89,30.48,1.43,6.18,2.05,6.93,5.33,2.62,10.14-3.61,4.02-8.09,5.06-13.38,5.04-41.72-.13-83.44-.07-125.16-.07Z"/>
  <path class="st0" d="M642.23,414.31c-23.29,1.47-47.98-4.21-72.92-8.06-12.19-1.88-24.57-2.55-36.87-3.59-29.5-2.49-59.12-2.27-88.62-3.82-26.09-1.37-52.11-.29-78.15-1.23-2.99-.11-5.92-.14-8.98-.83-5.23-1.17-6.79-3.75-6.34-8.7.46-5.11,2.93-8.16,8.01-8.69,3.03-.32,6.28-.71,9.15.05,17.57,4.62,32.46-1.26,45.54-12.18,6.35-5.29,10.34-4.76,16.75.08,13.84,10.43,29.54,14.11,47.15,10.72,10.01-1.92,19.97-3.1,28.37-9.34,2.86-2.12,3.82.44,5.53,1.52,26.49,16.73,53.54,16.63,80.75,2.11,3.38-1.8,4.41-.11,6.21,1.36,11.09,9.09,23.23,16.33,37.13,20.12,11.61,3.16,23.37,5.58,35.56,5.65,2.83.02,7.81-3.11,8.61,2.97.81,6.18-3.71,11.68-9.63,11.8-8.34.17-16.69.04-27.24.04Z"/>
  <path class="st1" d="M241.84,109.36c-21.71,31.17-34.85,66.36-48.28,101.46-10.14,26.53-16.6,54.02-21.62,81.84-5.6,31.05-5.75,62.51-5.15,93.96.08,4.44,0,8.89.01,13.33,0,17.89,11.96,25.56,28.33,17.6,14.93-7.26,29.56-14.78,45.94-18.81,22.07-5.43,43.87-4.3,65.83-.34,7,1.26,13.97,2.46,21.16,2.74,6.23.25,7.39-4.1,6.82-7.63-2.44-15.06-6.18-29.8-15.23-42.61-1.12-1.58-3-3.31-2.04-5.8,1.57.87,3.16,1.69,4.69,2.61,1.87,1.11,3.62,2.42,5.53,3.45,5.21,2.81,10.61,3.1,13.07-3.11.9-2.28,1.66-4.98,2.16-7.21.57-2.53.5-6.04,4.16-6.69,4.7-.84,6.14,2.79,7.97,5.78,1.57,2.55,2.58,5.59,4.59,7.7,3.84,4.01,8.74,7.84,14.39,6.2,6.24-1.8,12.03-5.11,13.14-13.09.43-3.1-.26-7.95,5.66-8.21,4.97-.21,6.85,3.37,7.13,6.52.69,7.71,4.43,10.81,11.81,10.22,6.56-.53,13.01-6.77,13.52-13.42.31-4.08.63-8.31-1.73-12.05-1.75-2.78-2.72-5.76-.03-8.29,2.69-2.53,5.57-.92,8.39.4,5.46,2.56,10.13,7.49,17.36,3.9,10.61-5.27,14.2-15.44,8.34-25.74-6.44-11.32-4.31-15.27,9.01-14.57,7.29.38,11.8-2.38,14.26-8.44,2.21-5.42,2.56-11.02-1.82-16.18-1.43-1.69-2.15-3.59-4.71-3.98-4.09-.62-5.75-2.86-5.79-7.31-.04-4.89,3.18-6.49,6.45-7.34,7.75-2.01,11.99-6.53,14.07-14.28,2.99-11.16-.6-17.64-12-19.29-2.45-.36-4.65-.96-4.8-3.57-.18-3.15-1.61-6.91,1.98-9.14,2.04-1.27,4.18-2.67,6.89-2.34,8.36,1.02,11.6-2.76,11.03-11.04-.61-8.91-3.44-12.03-12.65-12.27-3.59-.09-7.58.16-8.93-3.97-1.44-4.4,1.3-6.66,5.02-9.03,9.48-6.03,10.75-15.76,4-25.26-5.73-8.07-13.91-9.01-22.83-2.21-2.79,2.12-5.53,3.31-8.12.95-3.01-2.74-1.8-5.71.59-8.71,5.56-7.01,8.91-14.2,3-23.12-5.32-8.01-11.97-9.45-18.7-2.56-3.01,3.09-6.46,5.42-10.14,3.43-3.23-1.74-3.16-5.3-1.81-9.35,1.83-5.52.27-11.69-5.18-14.44-6.1-3.07-13.13-4.17-19.83-1.03-2.41,1.13-3.02,3.61-3.04,6.37-.04,5.76-3.68,7.39-8.85,7.26-5.61-.14-7.91-3.03-7.79-8.41.12-5.31.78-10.97-7.02-11.63-6.97-.58-12.91,3.61-14.72,10.32-1.07,3.99-2.34,7.99-1.56,12.11,1.17,6.17-3.69,7.09-7.26,7.22-3.52.13-7.35-1.29-7.91-6.53-1.08-10.21-3.08-11.38-12.32-8.53-6.36,1.96-8.6-.5-8.11-7.11,1.12-15.17,7.88-28.83,10.94-43.45.11-.52.27-1.2.35-1.68.72-4.08,3.51-10.61-1.87-13.4-6.18-3.21-11.06,1.21-14.68,6.07-14.53,19.54-32.23,36.54-45.6,57M302.53,177.54c1.64-35.23,23.64-66.93,62.6-74.24,25.51-4.79,51.64,2.84,67.38,30.39,13.82,24.2,18.03,42.29,18.03,75.62,2.24,27.35-7.01,54.16-25.57,77.32-11.74,14.65-27.56,23.81-47.29,24.38-16.86.49-33.39-.49-49.43-6.58-19.53-7.42-27.17-18.66-27.79-38.95-.9-29.32.71-58.7,2.07-87.93ZM267.43,114.58c4.93-6.74,10.82-12.52,16.77-18.27,3.35-3.24,7.83-5.39,11.99-2.97,4.72,2.74,3.14,8.28,1.76,12.09-6.44,17.85-8.45,36.47-11.16,55.06-2.83,19.36-2.1,38.78-1.03,58,.95,17.15.06,34.3,1.37,51.35,1.6,20.93,5.3,41.63,10.28,62.04,3.57,14.61.98,20.56-10.89,29.36-11.84,8.78-23.54,12-38.18,6.89-8.37-2.92-17.67-5.25-27.23-2.33-4.82,1.48-9.26,3.11-13,6.44-10.86,9.65-17.7,7.78-22.03-6.13-1.71-5.5-3.31-11.04-2.79-14.74,1.31-24.35,5.6-46.06,10.56-67.57,7.45-32.3,16.32-64.2,29.58-94.75,11.58-26.68,26.88-51.07,44-74.46Z"/>
</svg>